<svg xmlns="http://www.w3.org/2000/svg" width="130" height="99" fill="none" viewBox="0 0 130 99">
    <mask id="a" width="130" height="100" x="0" y="0" maskUnits="userSpaceOnUse" style="mask-type:luminance">
        <path fill="#fff" d="M129.554 33.193c-.074-.516-.074-1.105-.147-1.621-1.179-12.233-6.854-22.181-14.591-26.824-.737-.442-1.548-.81-2.285-1.18-.295-.146-.589-.22-.884-.368-.295-.147-.663-.22-.958-.368-.147-.074-.295-.147-.442-.147a30 30 0 0 0-3.685-1.106c-.295-.073-.589-.147-.958-.22h-.073c-.885-.222-1.695-.296-2.58-.443h-.147c-.516-.074-1.032-.074-1.548-.074h-.81c-.81 0-1.621.074-2.358.148-.516.073-.958.147-1.474.22-.148 0-.295.074-.442.074-2.358.516-4.643 1.327-6.706 2.506-2.8 1.474-5.306-1.769-7.812.147H29.702V18.16c-2.58 0-5.085.295-7.59.737-1.696.368-3.317.81-4.938 1.474-.442.22-.884.368-1.4.59-.516.22-.958.441-1.474.736-.148.074-.221.148-.369.221a31 31 0 0 0-2.579 1.695l-.074.074c-1.031.81-2.063 1.621-2.947 2.505-.516.442-.958.958-1.474 1.474-.221.221-.442.516-.737.81-.442.443-.81.959-1.179 1.4-.147.222-.368.443-.516.664-.147.295-.368.59-.516.884-.22.369-.442.664-.59 1.032-.441.81-.81 1.695-1.178 2.58-.074.22-.221.515-.295.736-.074.295-.221.59-.295.885C.961 38.794.52 41.078.446 43.289c-.074 1.105-.074 2.284-.074 3.39.074 1.695.147 3.316.442 5.01.148.885.295 1.843.442 2.801.443 2.063.958 4.053 1.622 6.043.442 1.4.958 2.8 1.62 4.126.075.074.075.148.148.222.295.737.663 1.474 1.032 2.21.295.664.663 1.253.958 1.916a62 62 0 0 0 2.874 4.717c1.179 1.695 2.432 3.39 3.832 4.937A56.1 56.1 0 0 0 28.08 90.599c8.033 4.495 17.907 7.59 29.92 8.327a66.4 66.4 0 0 0 41.488-11.2c3.316-2.212 6.411-4.644 9.285-7.37 1.769-1.695 3.463-3.39 5.011-5.232a83 83 0 0 0 3.979-4.938c.516-.663.958-1.326 1.401-1.99a40 40 0 0 0 1.473-2.284 74 74 0 0 0 2.653-4.642c.516-1.032 1.032-1.99 1.474-3.022l.663-1.547.664-1.769c.147-.368.294-.81.442-1.179.368-1.032.663-2.063.958-3.021.368-1.253.663-2.432.884-3.611a35 35 0 0 0 .663-3.832c.221-1.327.295-2.653.369-3.98.294-2.063.294-4.126.147-6.116"/>
    </mask>
    <g mask="url(#a)">
        <path fill="#e6cdbb" d="M41.64 76.23h-9.138v13.706h9.138zM91.898 76.23H82.76v13.706h9.138z"/>
        <path stroke="#133f5d" stroke-linecap="round" stroke-linejoin="round" stroke-width=".369" d="M41.64 76.23h-9.138v13.706h9.138zM91.898 76.23H82.76v13.706h9.138z"/>
        <path fill="#425367" d="M62.642 67.313h-.737c-10.096 0-18.276-8.18-18.276-18.276V25.455c0-10.316 8.328-18.644 18.645-18.644s18.644 8.328 18.644 18.644v23.582c0 10.096-8.18 18.276-18.276 18.276"/>
        <path stroke="#133f5d" stroke-linecap="round" stroke-linejoin="round" stroke-width=".369" d="M78.56 67.313H45.913a2.33 2.33 0 0 1-2.358-2.359V25.455c0-10.316 8.327-18.644 18.644-18.644s18.718 8.401 18.718 18.718v39.499c0 1.253-1.032 2.284-2.359 2.284"/>
        <path fill="#e6cdbb" d="M69.938 40.12H54.904v12.012h15.033z"/>
        <path stroke="#133f5d" stroke-linecap="round" stroke-linejoin="round" stroke-width=".369" d="M69.938 40.12H54.904v12.012h15.033z"/>
        <path fill="#e6cdbb" d="M74.654 35.33s2.653-.442 3.242-4.716c.59-4.274-.22-5.527-2.137-5.085l.59-8.99H48.493l.81 8.474s-2.284-.147-2.284 2.727-.22 7 3.022 7.738c0 0 1.547 10.39 11.717 11.57 0-.222 10.538.073 12.896-11.718"/>
        <path stroke="#133f5d" stroke-linecap="round" stroke-linejoin="round" stroke-width=".369" d="M74.654 35.33s2.653-.442 3.242-4.716c.59-4.274-.22-5.527-2.137-5.085l.59-8.99H48.493l.81 8.474s-2.284-.147-2.284 2.727-.22 7 3.022 7.738c0 0 1.547 10.39 11.717 11.57 0-.222 10.538.073 12.896-11.718"/>
        <path fill="#c9dce8" d="m69.938 49.7 16.728 3.316s4.716 2.285 5.306 7.59l1.62 21.96H30.808l1.99-22.77s.442-3.98 4.864-6.411L54.903 49.7s0 1.916 7.664 1.916 7.37-1.916 7.37-1.916"/>
        <path stroke="#133f5d" stroke-linecap="round" stroke-linejoin="round" stroke-width=".369" d="m69.938 49.7 14.443 2.874c2.874.516 5.38 2.358 6.706 4.937.442.958.81 1.99.885 3.095l1.62 21.96H30.808l1.99-22.77c.22-1.18.663-2.358 1.4-3.316 1.326-1.769 3.242-3.022 5.38-3.464L54.904 49.7s0 1.916 7.664 1.916 7.37-1.916 7.37-1.916"/>
        <path fill="#a5ce5d" d="m54.978 49.848-7.959 1.473s5.306 15.992 12.307 7.59c1.252-1.547 2.8-7.442 2.8-7.442s-5.011.516-7.148-1.622M69.937 49.848l7.37 1.473S72 67.313 65 58.911c-1.179-1.473-2.727-7.369-2.727-7.369s5.601.443 7.664-1.695"/>
        <path stroke="#133f5d" stroke-linecap="round" stroke-linejoin="round" stroke-width=".369" d="m54.978 49.848-7.959 1.473s5.306 15.992 12.307 7.59c1.252-1.547 2.8-7.442 2.8-7.442s-5.011.516-7.148-1.622M69.937 49.848l7.37 1.473S72 67.313 65 58.911c-1.179-1.473-2.727-7.369-2.727-7.369s5.601.443 7.664-1.695M44.735 72.029 43.408 82.64M80.696 72.029l1.327 10.611"/>
        <path fill="#425367" d="M69.716 16.244c-5.97 5.306-13.633 8.327-21.592 8.474l-1.474-9.285s20.634-5.821 23.066.81"/>
        <path stroke="#133f5d" stroke-linecap="round" stroke-linejoin="round" stroke-width=".369" d="M49.304 24.866c7.516-.81 14.59-3.832 20.412-8.622"/>
        <path fill="#425367" d="M69.053 15.286s.294 7.222 6.41 10.243c0 0 1.843-.59 1.917-3.98.074-2.8.81-7.221-1.253-7.295s-7.074 1.032-7.074 1.032"/>
        <path stroke="#133f5d" stroke-linecap="round" stroke-linejoin="round" stroke-width=".369" d="M75.612 25.53c-3.537-1.77-5.895-5.233-6.338-9.139"/>
        <path stroke="#6ca5d9" stroke-miterlimit="10" stroke-width="1.106" d="M58.588 41.963c-2.505-.664-6.19-2.653-8.106-3.759-.884-.516-3.095-1.474-3.463-2.432-3.611-9.285.442-15.475 2.137-9.211.663 2.432 0 3.758 0 3.758"/>
        <path fill="#6ca5d9" d="M58.589 43.805a1.842 1.842 0 1 0 0-3.685 1.842 1.842 0 0 0 0 3.685M49.23 32.161c.488 0 .884-.824.884-1.842 0-1.017-.396-1.842-.884-1.842s-.884.825-.884 1.842.396 1.842.884 1.842"/>
        <path fill="#fff" stroke="#133f5d" stroke-linecap="round" stroke-linejoin="round" stroke-width=".369" d="m88.581 57.954-1.62 29.255H37.438l-1.621-29.255z"/>
        <path fill="#fff" d="M67.8 72.618c0 3.095-2.505 5.6-5.6 5.6a5.6 5.6 0 0 1-5.6-5.6c0-3.095 2.505-5.6 5.6-5.6s5.6 2.505 5.6 5.6"/>
        <path fill="#4294d0" d="M62.2 78.366c-3.17 0-5.822-2.579-5.822-5.821 0-3.17 2.58-5.822 5.822-5.822 3.168 0 5.821 2.58 5.821 5.822a5.787 5.787 0 0 1-5.821 5.821m0-11.2c-2.948 0-5.38 2.431-5.38 5.379s2.432 5.38 5.38 5.38 5.38-2.433 5.38-5.38-2.433-5.38-5.38-5.38"/>
        <path fill="#4294d0" fill-rule="evenodd" d="M61.61 76.008a4.17 4.17 0 0 1-1.474-3.169c0-.516.148-.958.369-1.4.22-.442.59-.81 1.031-.958.516-.22 1.032-.147 1.548.148.221.147.442.368.59.59.147.22.22.515.22.736 0 .516-.22 1.032-.589 1.4-.368.369-.884.516-1.4.59-.59 0-1.253-.221-1.695-.663-.737-.664-.884-1.77-.368-2.653.147-.295.442-.516.736-.737.59-.369 1.327-.516 1.99-.369a3.05 3.05 0 0 1 2.211 1.548c-.442-.81-1.253-1.4-2.21-1.621-.738-.148-1.4 0-2.064.368-.295.221-.59.442-.737.737-.221.295-.295.663-.368 1.032-.074.663.22 1.326.663 1.768.515.442 1.105.737 1.768.663.59 0 1.106-.22 1.548-.59.442-.368.663-.957.663-1.547q0-.442-.221-.884a1.74 1.74 0 0 0-.59-.663c-.515-.369-1.179-.369-1.768-.221-.516.22-.958.59-1.253 1.105-.295.516-.368 1.032-.442 1.548 0 1.326.59 2.653 1.621 3.463z" clip-rule="evenodd"/>
        <path fill="#4294d0" d="M61.389 76.377c-1.032-.885-1.695-2.064-1.695-3.39a2.66 2.66 0 0 1-.443-1.474c0-.369.148-.737.369-1.032.221-.294.442-.59.81-.737q.665-.441 1.548-.442c.221 0 .368 0 .59.074.958.147 1.768.81 2.284 1.621l-.147.074c-.442-.81-1.253-1.327-2.137-1.548-.148 0-.295-.073-.516-.073-.516 0-1.032.147-1.474.442-.295.22-.516.442-.663.737-.148.294-.295.59-.295.958s.074.663.221.958c.074-.442.147-.885.368-1.327a2.6 2.6 0 0 1 1.253-1.105c.59-.221 1.327-.148 1.842.22.295.148.516.443.664.664q.22.443.22.884c0 .59-.294 1.18-.736 1.548a2.58 2.58 0 0 1-1.621.59 2.66 2.66 0 0 1-1.474-.443c.147.958.663 1.769 1.4 2.359l.074.073zm-1.474-3.17c.073 1.106.663 2.212 1.474 2.949l.147-.148c-.81-.663-1.253-1.547-1.4-2.58-.074 0-.074-.073-.148-.073-.073-.073-.073-.074-.073-.147m2.21-3.02c.369 0 .664.073.958.294.221.148.443.369.59.59s.221.516.221.81c0 .516-.221 1.032-.59 1.4-.368.295-.81.516-1.252.59.442-.074.884-.221 1.252-.516.443-.368.664-.884.664-1.474 0-.294-.074-.59-.221-.81s-.369-.442-.59-.663c-.295-.222-.663-.295-1.031-.295-.222 0-.443.073-.664.147-.516.221-.958.59-1.179 1.032a3.35 3.35 0 0 0-.368 1.474c.073.073.147.147.147.22v-.147c0-.515.148-1.031.369-1.473.22-.443.59-.811 1.105-1.032.147-.074.368-.148.59-.148m1.032 3.02c.369-.294.59-.81.59-1.326 0-.22-.074-.515-.221-.737a1.7 1.7 0 0 0-.516-.515c-.442-.295-.958-.295-1.474-.148-.442.148-.81.516-1.032.958-.22.442-.368.885-.294 1.4v.369c.442.368 1.031.59 1.62.59a2.73 2.73 0 0 0 1.327-.59"/>
        <path fill="#a4cc5c" fill-rule="evenodd" d="m66.77 71.145-1.696.368-.368-.737zM64.706 70.776l-.37.59.59-.074z" clip-rule="evenodd"/>
        <path fill="#a4cc5c" fill-rule="evenodd" d="m64.632 70.703-.295-.517 2.432.959z" clip-rule="evenodd"/>
        <path fill="#4294d0" fill-rule="evenodd" d="M59.768 72.84c.073.147.22.294.368.442v-.221l-.295-.295-.073-.148z" clip-rule="evenodd"/>
        <path fill="url(#b)" d="M88.582 57.954 86.96 87.209H43.63c10.832-.81 36.33-2.8 38.467-5.674 2.431-3.242 6.485-23.581 6.485-23.581"/>
        <path fill="#6ca5d9" d="M122.553 86.988H7.446v31.098h115.107z"/>
        <path stroke="#133f5d" stroke-linecap="round" stroke-linejoin="round" stroke-width=".369" d="M122.553 86.988H7.446v31.098h115.107z"/>
        <path fill="#9fcce8" stroke="#133f5d" stroke-linecap="round" stroke-linejoin="round" stroke-width=".369" d="M122.701 92.884H7.594v31.098h115.107z"/>
    </g>
    <defs>
        <linearGradient id="b" x1="95.822" x2="68.444" y1="96.053" y2="74.449" gradientUnits="userSpaceOnUse">
            <stop offset=".003" stop-color="#9fcce8" stop-opacity=".3"/>
            <stop offset="1" stop-color="#297eb8" stop-opacity="0"/>
        </linearGradient>
    </defs>
</svg>
