<svg width="150" height="130" viewBox="0 0 150 130" fill="none" xmlns="http://www.w3.org/2000/svg">
<g clip-path="url(#clip0_356_43437)">
<g opacity="0.7">
<g filter="url(#filter0_f_356_43437)">
<path d="M82.4697 102.985C82.4697 102.985 71.0003 111.497 31.5 105.499C14.9502 102.986 28.8878 61.1584 39.4995 50.4998C52.0062 37.938 79.9697 67.1917 79.9697 67.1917L82.4697 102.985Z" fill="#4199D5"/>
</g>
<g opacity="0.7" filter="url(#filter1_f_356_43437)">
<path d="M68 28.3517C68 28.3517 109.144 10.8882 122.35 33.8744C134.053 54.245 113.873 88 113.873 88L71.989 79.7151L68 28.3517Z" fill="#97CC56"/>
</g>
</g>
<rect x="37.5" y="36.5" width="75" height="58" rx="4.5" fill="white" stroke="#133F5D"/>
<path d="M38 46H112V90C112 92.2091 110.209 94 108 94H42C39.7909 94 38 92.2091 38 90V46Z" fill="#D1E5F4"/>
<circle cx="43.5" cy="41.5" r="1.5" fill="#E35273"/>
<circle cx="48.5" cy="41.5" r="1.5" fill="#EAB11C"/>
<circle cx="53.5" cy="41.5" r="1.5" fill="#97CC56"/>
<path d="M89.334 82.3806C89.3359 82.7116 89.6532 82.9494 89.9715 82.8584L91.0457 82.5512C91.2961 82.4796 91.5595 82.6122 91.6512 82.856L91.8122 83.2844C91.9138 83.5549 91.7656 83.8551 91.489 83.9388L90.4796 84.2443C90.127 84.3511 90.007 84.7895 90.2561 85.061L90.8042 85.6581C91.0132 85.8859 90.9675 86.247 90.7082 86.4155L90.1962 86.7482C89.9843 86.8858 89.7031 86.8438 89.5407 86.6503L88.8801 85.863C88.6793 85.6236 88.3106 85.625 88.1116 85.8659L87.4582 86.657C87.2967 86.8526 87.0143 86.8962 86.8013 86.7585L86.276 86.419C86.0139 86.2496 85.9693 85.8841 86.1831 85.6566L86.7408 85.0632C86.995 84.7926 86.8761 84.3491 86.5206 84.242L85.5041 83.936C85.23 83.8534 85.081 83.558 85.1776 83.2885L85.3298 82.864C85.4184 82.6165 85.6836 82.48 85.9365 82.5515L87.0299 82.8608C87.3479 82.9507 87.664 82.713 87.666 82.3825L87.6711 81.4971C87.6727 81.2221 87.8961 81 88.1711 81H88.8289C89.1039 81 89.3273 81.2221 89.3289 81.4971L89.334 82.3806Z" fill="#A1C7E3"/>
<path d="M80.334 82.3806C80.3359 82.7116 80.6532 82.9494 80.9715 82.8584L82.0457 82.5512C82.2961 82.4796 82.5595 82.6122 82.6512 82.856L82.8122 83.2844C82.9138 83.5549 82.7656 83.8551 82.489 83.9388L81.4796 84.2443C81.127 84.3511 81.007 84.7895 81.2561 85.061L81.8042 85.6581C82.0132 85.8859 81.9675 86.247 81.7082 86.4155L81.1962 86.7482C80.9843 86.8858 80.7031 86.8438 80.5407 86.6503L79.8801 85.863C79.6793 85.6236 79.3106 85.625 79.1116 85.8659L78.4582 86.657C78.2967 86.8526 78.0143 86.8962 77.8013 86.7585L77.276 86.419C77.0139 86.2496 76.9693 85.8841 77.1831 85.6566L77.7408 85.0632C77.995 84.7926 77.8761 84.3491 77.5206 84.242L76.5041 83.936C76.23 83.8534 76.081 83.558 76.1776 83.2885L76.3298 82.864C76.4184 82.6165 76.6836 82.48 76.9365 82.5515L78.0299 82.8608C78.3479 82.9507 78.664 82.713 78.666 82.3825L78.6711 81.4971C78.6727 81.2221 78.8961 81 79.1711 81H79.8289C80.1039 81 80.3273 81.2221 80.3289 81.4971L80.334 82.3806Z" fill="#A1C7E3"/>
<path d="M71.334 82.3806C71.3359 82.7116 71.6532 82.9494 71.9715 82.8584L73.0457 82.5512C73.2961 82.4796 73.5595 82.6122 73.6512 82.856L73.8122 83.2844C73.9138 83.5549 73.7656 83.8551 73.489 83.9388L72.4796 84.2443C72.127 84.3511 72.007 84.7895 72.2561 85.061L72.8042 85.6581C73.0132 85.8859 72.9675 86.247 72.7082 86.4155L72.1962 86.7482C71.9843 86.8858 71.7031 86.8438 71.5407 86.6503L70.8801 85.863C70.6793 85.6236 70.3106 85.625 70.1116 85.8659L69.4582 86.657C69.2967 86.8526 69.0143 86.8962 68.8013 86.7585L68.276 86.419C68.0139 86.2496 67.9693 85.8841 68.1831 85.6566L68.7408 85.0632C68.995 84.7926 68.8761 84.3491 68.5206 84.242L67.5041 83.936C67.23 83.8534 67.081 83.558 67.1776 83.2885L67.3298 82.864C67.4184 82.6165 67.6836 82.48 67.9365 82.5515L69.0299 82.8608C69.3479 82.9507 69.664 82.713 69.666 82.3825L69.6711 81.4971C69.6727 81.2221 69.8961 81 70.1711 81H70.8289C71.1039 81 71.3273 81.2221 71.3289 81.4971L71.334 82.3806Z" fill="#A1C7E3"/>
<path d="M62.334 82.3806C62.3359 82.7116 62.6532 82.9494 62.9715 82.8584L64.0457 82.5512C64.2961 82.4796 64.5595 82.6122 64.6512 82.856L64.8122 83.2844C64.9138 83.5549 64.7656 83.8551 64.489 83.9388L63.4796 84.2443C63.127 84.3511 63.007 84.7895 63.2561 85.061L63.8042 85.6581C64.0132 85.8859 63.9675 86.247 63.7082 86.4155L63.1962 86.7482C62.9843 86.8858 62.7031 86.8438 62.5407 86.6503L61.8801 85.863C61.6793 85.6236 61.3106 85.625 61.1116 85.8659L60.4582 86.657C60.2967 86.8526 60.0143 86.8962 59.8013 86.7585L59.276 86.419C59.0139 86.2496 58.9693 85.8841 59.1831 85.6566L59.7408 85.0632C59.995 84.7926 59.8761 84.3491 59.5206 84.242L58.5041 83.936C58.23 83.8534 58.081 83.558 58.1776 83.2885L58.3298 82.864C58.4184 82.6165 58.6836 82.48 58.9365 82.5515L60.0299 82.8608C60.3479 82.9507 60.664 82.713 60.666 82.3825L60.6711 81.4971C60.6727 81.2221 60.8961 81 61.1711 81H61.8289C62.1039 81 62.3273 81.2221 62.3289 81.4971L62.334 82.3806Z" fill="#A1C7E3"/>
<path fill-rule="evenodd" clip-rule="evenodd" d="M74.0616 53.0647C72.8556 53.2302 71.7894 53.6693 70.8117 54.4032C69.3259 55.5185 68.3816 57.0871 68.0765 58.9468C68.0314 59.2215 68.0105 59.7614 68.01 60.6686L68.0092 61.9903L67.1421 62.0049L66.2751 62.0196L66.1451 62.1496L66.0152 62.2795L66.0027 68.7138C65.9941 73.1818 66.0058 75.2227 66.041 75.3926C66.1545 75.9413 66.584 76.5173 67.0611 76.7605C67.5497 77.0097 67.2286 77 75 77C82.7714 77 82.4503 77.0097 82.9389 76.7605C83.416 76.5173 83.8455 75.9413 83.959 75.3926C83.9942 75.2227 84.0059 73.1818 83.9973 68.7138L83.9848 62.2795L83.8549 62.1496L83.7249 62.0196L82.8579 62.0049L81.9908 61.9903L81.99 60.6686C81.9895 59.7614 81.9686 59.2215 81.9235 58.9468C81.6184 57.0871 80.6741 55.5185 79.1883 54.4032C77.7094 53.293 75.8792 52.8152 74.0616 53.0647ZM74.2024 56.0862C72.9245 56.3586 71.9108 57.1682 71.3638 58.3534C71.0633 59.0044 71.0462 59.1187 71.0244 60.6247L71.0045 61.9961H75H78.9955L78.9756 60.6247C78.9538 59.1187 78.9367 59.0044 78.6362 58.3534C77.8477 56.6447 76.0043 55.7021 74.2024 56.0862ZM74.6988 66.0359C74.3056 66.0897 73.895 66.2984 73.5973 66.5959C72.8295 67.3633 72.8218 68.6297 73.5805 69.3878L73.8163 69.6235L73.6529 71.0874C73.4747 72.6838 73.4769 72.7376 73.7262 72.9068C73.8375 72.9823 73.9707 72.9911 75 72.9911C76.0293 72.9911 76.1625 72.9823 76.2738 72.9068C76.5231 72.7376 76.5253 72.6839 76.347 71.0868L76.1835 69.6223L76.4147 69.3973C77.1764 68.6559 77.1708 67.36 76.4027 66.5976C75.9376 66.1361 75.3595 65.9455 74.6988 66.0359Z" fill="#A1C7E3"/>
<path d="M98.8281 80.4697C100.241 78.0327 103.759 78.0327 105.172 80.4697L115.262 97.874C116.678 100.318 114.914 103.38 112.089 103.38H91.9111C89.0858 103.38 87.3216 100.318 88.7383 97.874L98.8281 80.4697Z" fill="#EAB11C" stroke="#133F5D"/>
<path d="M99.8374 82.654C100.801 80.9924 103.2 80.9924 104.163 82.654L112.864 97.6638C113.83 99.3304 112.628 101.418 110.701 101.418H93.2995C91.373 101.418 90.1705 99.3304 91.1366 97.6638L99.8374 82.654Z" fill="#EFC555"/>
<path d="M102.028 85.4795C102.625 85.4795 103.109 85.9636 103.109 86.5607V90.767C103.109 91.3278 103.081 91.8793 103.026 92.4216C102.994 92.7251 102.957 93.0395 102.913 93.3647C102.854 93.8066 102.474 94.1317 102.028 94.1317V94.1317C101.582 94.1317 101.202 93.8066 101.143 93.3647C101.099 93.0395 101.062 92.7251 101.03 92.4216C100.975 91.8793 100.947 91.3278 100.947 90.767V86.5607C100.947 85.9636 101.431 85.4795 102.028 85.4795V85.4795ZM100.594 97.5889C100.594 97.3979 100.628 97.2161 100.696 97.0436C100.77 96.871 100.869 96.7231 100.993 96.5999C101.123 96.4766 101.275 96.378 101.448 96.304C101.621 96.2301 101.807 96.1931 102.005 96.1931C102.197 96.1931 102.379 96.2301 102.552 96.304C102.726 96.378 102.874 96.4766 102.998 96.5999C103.122 96.7231 103.221 96.871 103.295 97.0436C103.369 97.2161 103.406 97.3979 103.406 97.5889C103.406 97.7861 103.369 97.971 103.295 98.1436C103.221 98.31 103.122 98.4548 102.998 98.578C102.874 98.7013 102.726 98.7968 102.552 98.8646C102.379 98.9385 102.197 98.9755 102.005 98.9755C101.807 98.9755 101.621 98.9385 101.448 98.8646C101.275 98.7968 101.123 98.7013 100.993 98.578C100.869 98.4548 100.77 98.31 100.696 98.1436C100.628 97.971 100.594 97.7861 100.594 97.5889Z" fill="white"/>
<path opacity="0.05" d="M99.5391 79.7246C99.9442 79.0388 100.956 79.0365 101.367 79.7158C102.707 83.1009 102.662 85.798 102.016 88.0391C101.365 90.2925 100.103 92.0983 98.9824 93.7012C98.3378 94.6229 97.7338 95.4865 97.3379 96.3193C96.9403 97.1558 96.7411 97.9855 96.9326 98.8379C97.124 99.6892 97.6966 100.526 98.7627 101.396C99.6864 102.149 100.992 102.937 102.772 103.789H91.9639C90.7084 103.838 89.5446 103.142 88.8525 102.108C88.1623 101.077 87.9553 99.7293 88.5859 98.4893L99.5391 79.7246Z" fill="#133F5D" stroke="#133F5D" stroke-width="0.416667"/>
</g>
<defs>
<filter id="filter0_f_356_43437" x="-3.13965" y="20.3652" width="112.609" height="114.274" filterUnits="userSpaceOnUse" color-interpolation-filters="sRGB">
<feFlood flood-opacity="0" result="BackgroundImageFix"/>
<feBlend mode="normal" in="SourceGraphic" in2="BackgroundImageFix" result="shape"/>
<feGaussianBlur stdDeviation="13.5" result="effect1_foregroundBlur_356_43437"/>
</filter>
<filter id="filter1_f_356_43437" x="41" y="-5" width="112" height="120" filterUnits="userSpaceOnUse" color-interpolation-filters="sRGB">
<feFlood flood-opacity="0" result="BackgroundImageFix"/>
<feBlend mode="normal" in="SourceGraphic" in2="BackgroundImageFix" result="shape"/>
<feGaussianBlur stdDeviation="13.5" result="effect1_foregroundBlur_356_43437"/>
</filter>
<clipPath id="clip0_356_43437">
<rect width="150" height="130" fill="white"/>
</clipPath>
</defs>
</svg>
