<svg xmlns="http://www.w3.org/2000/svg" width="283" height="40" fill="none" viewBox="0 0 283 40">
    <g clip-path="url(#a)">
        <path fill="#fff" d="M13.832 21.68q.412-.008.413.363-.001.49.005.985.002.39-.413.396c-.803.01-1.606.014-2.408.024q-.562 1.978-1.123 3.937 1.091.007 2.19.019c.274 0 .413.135.417.392q-.001.49.005.975c0 .247-.134.368-.413.364l-2.7-.042q-.404 1.404-.812 2.803c-.065.252-.219.378-.46.369q-.57-.016-1.141-.033-.44-.014-.344-.433.407-1.364.812-2.734-1.725-.03-3.452-.052c-.269.915-.543 1.824-.812 2.734q-.145.372-.534.36c-.366-.01-.728-.024-1.095-.033q-.46-.015-.32-.42.407-1.332.812-2.669c-.682-.009-1.364-.023-2.041-.032-.274 0-.413-.122-.413-.355q.001-.463-.005-.919-.002-.37.413-.364c.844.005 1.684.014 2.529.019.376-1.264.747-2.533 1.123-3.807-.77.01-1.54.014-2.311.023q-.439.001-.44-.368.001-.46-.005-.929-.002-.35.436-.359c.942-.014 1.879-.033 2.82-.047.27-.923.544-1.852.813-2.785q.07-.377.46-.392l1.118-.037q.487-.015.343.41c-.265.924-.524 1.848-.789 2.767 1.15-.018 2.302-.042 3.452-.06q.407-1.423.812-2.851.097-.392.534-.406.522-.017 1.044-.032.461-.015.367.42c-.27.946-.543 1.893-.812 2.831q.96-.017 1.92-.032zm-5.494 5.686c.376-1.292.747-2.593 1.123-3.9-1.15.01-2.301.024-3.452.033-.376 1.288-.747 2.566-1.123 3.84zM16.361 29.06v-.574c0-.247.135-.373.413-.368l1.554.014q.41.002.418.382v.401c0 .626.153 1.073.455 1.358q.452.422 1.499.443c.561.014 1.118.023 1.68.037.695.014 1.196-.12 1.503-.41q.46-.436.454-1.437v-.522a1.34 1.34 0 0 0-.603-1.153q-.598-.425-1.475-.55a29 29 0 0 1-1.921-.355 18 18 0 0 1-1.926-.518c-.585-.191-1.077-.555-1.476-1.082s-.603-1.199-.608-2.025q.001-.462-.004-.924c-.005-1.073.325-1.917.997-2.551.669-.63 1.597-.97 2.78-1.008l2.58-.084c1.197-.037 2.139.242 2.812.858q1.015.924 1.02 2.604v.503c0 .262-.134.392-.412.397-.52.01-1.04.014-1.555.023-.274 0-.413-.121-.417-.382v-.294c0-.653-.158-1.115-.46-1.39-.301-.276-.798-.402-1.499-.383-.51.014-1.02.023-1.53.037-.697.019-1.198.173-1.495.471q-.447.448-.44 1.489v.69c0 .667.533 1.115 1.586 1.348.469.103.988.187 1.545.262.562.07 1.123.182 1.694.33a7.5 7.5 0 0 1 1.56.598q.706.378 1.15 1.148c.292.513.445 1.138.445 1.875v.896q.01 1.68-.997 2.613-1.004.921-2.78.872c-.91-.028-1.814-.051-2.724-.08-1.183-.032-2.115-.373-2.802-.998-.682-.63-1.03-1.479-1.035-2.547zM34.717 33.025c-.714-.018-1.424-.041-2.139-.06-1.202-.033-2.13-.383-2.789-1.036q-.99-.98-.997-2.673c-.01-1.549-.014-3.098-.023-4.642-.005-1.143.315-2.034.97-2.673q.982-.962 2.779-.999l2.139-.042c1.183-.023 2.116.28 2.789.92.677.639 1.016 1.558 1.025 2.747.01 1.61.014 3.22.023 4.829.005 1.175-.325 2.09-.997 2.73-.669.643-1.597.941-2.78.904zm-1.81-2.057c.497.01.989.019 1.485.033q1.755.036 1.74-1.712c-.009-1.55-.014-3.094-.023-4.642-.004-1.167-.594-1.74-1.758-1.726-.497.004-.989.014-1.485.018-.617.01-1.063.15-1.337.43-.273.275-.408.713-.408 1.306.01 1.516.014 3.032.023 4.548 0 .593.144 1.031.423 1.311q.416.419 1.34.439zM42.56 33.25l-1.532-.043q-.41-.013-.418-.424c-.028-5.43-.05-10.86-.079-16.291 0-.276.135-.42.413-.43.51-.018 1.021-.042 1.532-.06.273-.01.413.121.413.401.027 5.477.05 10.959.078 16.44 0 .28-.134.416-.413.406zM49.923 33.46c-.367-.01-.729-.02-1.095-.033-1.17-.033-2.065-.397-2.692-1.083-.626-.686-.946-1.637-.95-2.86-.015-2.794-.029-5.584-.042-8.378 0-.28.134-.425.413-.43.51-.009 1.02-.023 1.53-.032q.412-.006.418.415.022 4.177.037 8.356.01 1.848 1.76 1.884c.389.01.779.014 1.168.024q1.993.042 1.986-2.128c-.014-2.743-.023-5.486-.037-8.23 0-.288.135-.433.413-.442.51-.01 1.021-.024 1.531-.033.293-.005.441.135.441.43l.056 12.24q.001.441-.436.425l-1.532-.042c-.273-.01-.412-.154-.417-.443v-.919h-.098q-.577 1.334-2.45 1.283zM61.644 33.781c-1.49-.042-2.984-.084-4.473-.121q-.41-.013-.418-.453c0-.424 0-.844-.005-1.269q-.002-.412.413-.405c1.36.027 2.724.055 4.084.079q1.578.035 1.577-1.162v-.317c0-.704-.385-1.25-1.15-1.624-.887-.466-1.773-.923-2.654-1.38-.831-.42-1.43-.882-1.806-1.381q-.564-.75-.566-1.97c-.009-2.224 1.142-3.358 3.462-3.414l4.037-.084q.39-.006.39.443c0 .434 0 .873.004 1.306q-.001.457-.385.458-1.774.023-3.55.046-.73.008-1.118.29c-.26.186-.385.429-.385.723v.289c0 .56.418 1.04 1.248 1.46.896.485 1.787.98 2.682 1.474.845.41 1.43.896 1.745 1.456.32.56.478 1.292.483 2.178q.014 3.48-3.61 3.374zM67.105 17.933c0-.816-.01-1.633-.01-2.444q.001-.428.386-.444c.529-.023 1.053-.041 1.582-.065q.39-.015.39.42c0 .821.01 1.647.01 2.468q-.001.463-.386.471c-.529.014-1.053.028-1.582.047q-.39.015-.39-.448zm.07 15.545-.056-12.801c0-.304.125-.462.385-.467q.781-.017 1.555-.033.41-.008.417.453l.056 12.909q0 .273-.084.364-.084.089-.301.088l-1.555-.042q-.41-.013-.417-.466z"/>
        <path fill="url(#b)" d="m143.987 22.617-3.861.042.061 12.974-3.624-.093-.074-15.661 2.821-.056.645 1.301.246-.233c.427-.41.835-.704 1.211-.872.371-.164.946-.257 1.717-.27l3.16-.062c.849 1.13 1.438 2.286 1.758 3.434.33 1.19.501 2.706.506 4.507l.037 8.215-3.624-.088-.042-8.458c-.009-2.119-.292-3.607-.863-4.554l-.074-.121zm-24.337 12.49 3.591.093-.074-15.06-3.592.07.075 14.9zm-.088-17.03 3.591-.088-.019-3.606-3.591.13zm31.687-4.716.018 3.942 3.592-.088-.019-3.984-3.587.13zm14.955 19.506c0-.369-.042-.733-.121-1.078-.102-.527-.561-1.68-2.185-4.203-.993-1.605-1.977-3.196-2.965-4.773l-.237-.378 5.035-.056-.014-3.088-6.543.135c-1.35.686-2.004 1.759-1.995 3.27q0 .38.125.99c.033.125.102.294.2.49q.16.32.25.522.092.19.33.597c.162.27.389.625.696 1.078q.453.674.677 1.054a697 697 0 0 1 3.336 5.328l.242.392-5.879-.089.014 3.01 7.577.186c.974-.742 1.462-1.876 1.457-3.373zm-14.853 3.042 3.591.088-.074-16.487-3.591.07zm-16.853-3.532a4 4 0 0 0-.121-.98c-.102-.485-.556-1.54-2.18-3.853a625 625 0 0 0-2.965-4.38l-.265-.388 5.058-.052-.014-2.794-6.547.126c-1.346.63-2 1.6-1.991 2.976q.001.344.121.896c.032.107.097.261.195.439q.16.293.25.48c.06.112.172.299.33.541.162.248.389.574.696.99.31.42.529.736.682.97a691 691 0 0 1 3.336 4.889l.269.401-5.898-.098.014 2.715 7.582.192c.984-.681 1.457-1.684 1.453-3.075zm-49.589-3.924-3.967-.032.032 5.668-3.684-.098-.102-17.984 8.111-.28c1.332.476 2.404 1.25 3.183 2.304.784 1.064 1.188 2.338 1.197 3.798s-.399 2.827-1.206 4.059c-.798 1.213-1.995 2.08-3.564 2.57zm.96-6.53c0-.705-.166-1.382-.487-2.007-.32-.63-.714-1.092-1.164-1.372l-.065-.041-3.262.079.042 7.184 3.085-.009.065-.047c1.198-.858 1.8-2.136 1.791-3.793zm17.141 4.515c.005.957-.065 1.796-.213 2.5l-7.81-.07.042.29q.106.687.58 1.563c.32.588.678 1.021 1.058 1.292l.065.042 5.689.098.014 2.505-7.545-.2c-1.373-.877-2.357-1.941-2.918-3.163-.58-1.255-.873-2.529-.882-3.789-.014-2.91 1.174-5.145 3.633-6.83l4.872-.088c1.309.858 2.209 1.796 2.682 2.78.483 1.008.729 2.04.738 3.07zm-3.554-1.8c-.223-.65-.515-1.153-.877-1.498l-.074-.07-2.534.023-.074.08c-.33.363-.603.867-.807 1.497-.2.62-.302 1.232-.297 1.815v.252h4.918l.014-.234c.042-.597-.05-1.227-.269-1.87zm17.799 2.817c.019 3.224-.96 5.752-2.9 7.516l-2.844-.075c-.951-.023-1.726-.373-2.371-1.068l-.241-.257-.641 1.241-2.918-.074-.102-19.711 3.591-.126.037 6.863.413-.36c.432-.378.84-.643 1.211-.797.376-.154.956-.238 1.722-.252l2.38-.047c.803.756 1.452 1.754 1.926 2.967.487 1.255.737 2.664.747 4.185zm-3.712.107c-.009-1.824-.427-3.34-1.243-4.51l-.074-.108-3.323.033.047 9.293 3.359.056.074-.122c.78-1.26 1.17-2.822 1.16-4.642"/>
        <path fill="url(#c)" d="M272.369 0c-.57 5.29-1.095 7.931-2.951 9.461l-1.665.08v-.01l-8.162.383c-1.94 1.133-2.877 3.079-2.863 5.943.004 1.209.473 2.813 1.382 4.773 2.135 4.581 4.306 9.326 6.455 14.098l.046.103-.218.541-7.252-.168.023 4.46 9.039.331c1.452-1.273 2.185-3.368 2.171-6.223-.004-1.33-.594-3.303-1.744-5.855-1.884-4.25-3.815-8.538-5.736-12.746l-.046-.102.214-.537 6.63-.214 1.596-.047c2.005 2.16 2.571 5.799 3.216 11.29 1.026-8.878 1.875-12.871 10.505-14.9-8.644-.934-9.517-1.83-10.63-10.666z"/>
        <path fill="url(#d)" d="m192.402 33.725-.037-6.942 7.02.01-.018-3.667-7.021.088-.032-6.452 7.869-.252-.018-3.825-12.19.574.121 23.877 12.338.452-.019-3.676z"/>
        <path fill="url(#e)" d="M176.579 13.79a13.5 13.5 0 0 0-3.837 5.118 15.7 15.7 0 0 0-1.295 6.294c.009 2.15.422 4.287 1.221 6.354.779 2.02 1.934 3.75 3.433 5.146l8.631.317-.019-3.462-6.097-.14-.079-.084c-.663-.737-1.243-1.912-1.721-3.499-.474-1.567-.719-3.083-.724-4.506s.223-2.94.682-4.511c.464-1.587 1.03-2.772 1.689-3.514l.079-.088 6.092-.196-.014-3.032 1.55-.677-9.586.485z"/>
        <path fill="url(#f)" d="m238.52 10.87-10.867.527-5.824.28.135 26.704 10.218.373c3.011-3.63 4.524-8.388 4.496-14.145-.028-5.225-1.415-9.41-4.102-12.489zm-7.011 19.45c-.385 1.814-.928 3.21-1.601 4.147l-.084.112-3.591-.084-.093-18.834 3.661-.116.084.112c1.433 1.903 2.171 5.024 2.19 9.274a25 25 0 0 1-.566 5.384z"/>
        <path fill="url(#g)" d="m214.661 27.544-.065-.2.176-.113c2.403-1.53 3.615-4.003 3.596-7.352-.009-2.044-.534-3.765-1.55-5.118-1.007-1.334-2.232-2.24-3.647-2.683l-9.127.425.125 25.22 4.251.154-.047-9.512 2.343.014.061.186q1.503 4.709 3.007 9.508l.631.024v.009l5.883.238-2.357-.821a1802 1802 0 0 0-3.285-9.98zm-1.434-4.283c-.52.84-1.007 1.311-1.485 1.432l-3.383.033-.042-8.486 3.522-.112c.553.112 1.012.578 1.476 1.427.436.808.663 1.764.668 2.842.005 1.087-.251 2.048-.756 2.864"/>
        <path fill="url(#h)" d="m258.361 31.365-5.206-.649a7772 7772 0 0 0-3.216-20.354l-6.881.322a6671 6671 0 0 1-4.561 28.299l4.283.159.719-4.577 6.06.14.77 4.712 4.209.154-1.225-7.842zm-14.398-.7.802-5.258c.446-3.233.891-6.485 1.332-9.746l.033-.224.487-.018.083.238c.478 3.233.956 6.484 1.43 9.745l.89 5.319-5.062-.056z"/>
    </g>
    <defs>
        <linearGradient id="b" x1="121.696" x2="121.696" y1="13.226" y2="36.24" gradientUnits="userSpaceOnUse">
            <stop stop-color="#d7f978"/>
            <stop offset=".04" stop-color="#d8f97d"/>
            <stop offset=".09" stop-color="#defa8e"/>
            <stop offset=".15" stop-color="#e7fba9"/>
            <stop offset=".21" stop-color="#f4fdce"/>
            <stop offset=".24" stop-color="#fbffe3"/>
            <stop offset=".48" stop-color="#d7f978"/>
            <stop offset=".56" stop-color="#d2f672"/>
            <stop offset=".66" stop-color="#c7ed61"/>
            <stop offset=".78" stop-color="#b3df46"/>
            <stop offset=".9" stop-color="#98cc21"/>
            <stop offset="1" stop-color="#81bc00"/>
        </linearGradient>
        <linearGradient id="c" x1="269.864" x2="269.864" y1="0" y2="40" gradientUnits="userSpaceOnUse">
            <stop offset=".11" stop-color="#d7f978"/>
            <stop offset=".16" stop-color="#d8f97d"/>
            <stop offset=".21" stop-color="#defa8e"/>
            <stop offset=".27" stop-color="#e7fba9"/>
            <stop offset=".34" stop-color="#f4fdce"/>
            <stop offset=".37" stop-color="#fbffe3"/>
            <stop offset=".53" stop-color="#d7f978"/>
            <stop offset=".6" stop-color="#d2f672"/>
            <stop offset=".69" stop-color="#c7ed61"/>
            <stop offset=".8" stop-color="#b3df46"/>
            <stop offset=".91" stop-color="#98cc21"/>
            <stop offset="1" stop-color="#81bc00"/>
        </linearGradient>
        <linearGradient id="d" x1="194.202" x2="194.202" y1="12.685" y2="37.588" gradientUnits="userSpaceOnUse">
            <stop offset=".11" stop-color="#d7f978"/>
            <stop offset=".16" stop-color="#d8f97d"/>
            <stop offset=".21" stop-color="#defa8e"/>
            <stop offset=".27" stop-color="#e7fba9"/>
            <stop offset=".34" stop-color="#f4fdce"/>
            <stop offset=".37" stop-color="#fbffe3"/>
            <stop offset=".53" stop-color="#d7f978"/>
            <stop offset=".6" stop-color="#d2f672"/>
            <stop offset=".69" stop-color="#c7ed61"/>
            <stop offset=".8" stop-color="#b3df46"/>
            <stop offset=".91" stop-color="#98cc21"/>
            <stop offset="1" stop-color="#81bc00"/>
        </linearGradient>
        <linearGradient id="e" x1="178.811" x2="178.811" y1="13.305" y2="37.014" gradientUnits="userSpaceOnUse">
            <stop offset=".11" stop-color="#d7f978"/>
            <stop offset=".16" stop-color="#d8f97d"/>
            <stop offset=".21" stop-color="#defa8e"/>
            <stop offset=".27" stop-color="#e7fba9"/>
            <stop offset=".34" stop-color="#f4fdce"/>
            <stop offset=".37" stop-color="#fbffe3"/>
            <stop offset=".53" stop-color="#d7f978"/>
            <stop offset=".6" stop-color="#d2f672"/>
            <stop offset=".69" stop-color="#c7ed61"/>
            <stop offset=".8" stop-color="#b3df46"/>
            <stop offset=".91" stop-color="#98cc21"/>
            <stop offset="1" stop-color="#81bc00"/>
        </linearGradient>
        <linearGradient id="f" x1="230.177" x2="230.177" y1="10.87" y2="38.75" gradientUnits="userSpaceOnUse">
            <stop offset=".11" stop-color="#d7f978"/>
            <stop offset=".16" stop-color="#d8f97d"/>
            <stop offset=".21" stop-color="#defa8e"/>
            <stop offset=".27" stop-color="#e7fba9"/>
            <stop offset=".34" stop-color="#f4fdce"/>
            <stop offset=".37" stop-color="#fbffe3"/>
            <stop offset=".53" stop-color="#d7f978"/>
            <stop offset=".6" stop-color="#d2f672"/>
            <stop offset=".69" stop-color="#c7ed61"/>
            <stop offset=".8" stop-color="#b3df46"/>
            <stop offset=".91" stop-color="#98cc21"/>
            <stop offset="1" stop-color="#81bc00"/>
        </linearGradient>
        <linearGradient id="g" x1="212.173" x2="212.173" y1="12.078" y2="38.349" gradientUnits="userSpaceOnUse">
            <stop offset=".11" stop-color="#d7f978"/>
            <stop offset=".16" stop-color="#d8f97d"/>
            <stop offset=".21" stop-color="#defa8e"/>
            <stop offset=".27" stop-color="#e7fba9"/>
            <stop offset=".34" stop-color="#f4fdce"/>
            <stop offset=".37" stop-color="#fbffe3"/>
            <stop offset=".53" stop-color="#d7f978"/>
            <stop offset=".6" stop-color="#d2f672"/>
            <stop offset=".69" stop-color="#c7ed61"/>
            <stop offset=".8" stop-color="#b3df46"/>
            <stop offset=".91" stop-color="#98cc21"/>
            <stop offset="1" stop-color="#81bc00"/>
        </linearGradient>
        <linearGradient id="h" x1="248.431" x2="248.431" y1="10.362" y2="39.571" gradientUnits="userSpaceOnUse">
            <stop offset=".11" stop-color="#d7f978"/>
            <stop offset=".16" stop-color="#d8f97d"/>
            <stop offset=".21" stop-color="#defa8e"/>
            <stop offset=".27" stop-color="#e7fba9"/>
            <stop offset=".34" stop-color="#f4fdce"/>
            <stop offset=".37" stop-color="#fbffe3"/>
            <stop offset=".53" stop-color="#d7f978"/>
            <stop offset=".6" stop-color="#d2f672"/>
            <stop offset=".69" stop-color="#c7ed61"/>
            <stop offset=".8" stop-color="#b3df46"/>
            <stop offset=".91" stop-color="#98cc21"/>
            <stop offset="1" stop-color="#81bc00"/>
        </linearGradient>
        <clipPath id="a">
            <path fill="#fff" d="M0 0h283v40H0z"/>
        </clipPath>
    </defs>
</svg>
