<svg width="20" height="21" viewBox="0 0 20 21" fill="none" xmlns="http://www.w3.org/2000/svg">
<g clip-path="url(#clip0_15394_85544)">
<path d="M10 20.5C15.5228 20.5 20 16.0228 20 10.5C20 4.97715 15.5228 0.5 10 0.5C4.47715 0.5 0 4.97715 0 10.5C0 16.0228 4.47715 20.5 10 20.5Z" fill="#D80027"/>
<path d="M5.47266 6.58594L6.33594 9.24219H9.12891L6.87109 10.8867L7.73438 13.543L5.47266 11.9023L3.21094 13.543L4.07813 10.8867L1.81641 9.24219H4.60938L5.47266 6.58594Z" fill="#FFDA44"/>
<path d="M11.8555 15.9883L11.1953 15.1758L10.2188 15.5547L10.7852 14.6758L10.125 13.8594L11.1367 14.1289L11.707 13.25L11.7617 14.2969L12.7773 14.5664L11.7969 14.9414L11.8555 15.9883Z" fill="#FFDA44"/>
<path d="M13.168 13.6055L13.4805 12.6055L12.625 12L13.6719 11.9844L13.9805 10.9844L14.3203 11.9766L15.3672 11.9648L14.5273 12.5898L14.8633 13.582L14.0078 12.9766L13.168 13.6055Z" fill="#FFDA44"/>
<path d="M14.9375 7.83984L14.4766 8.78125L15.2266 9.51172L14.1914 9.36328L13.7305 10.3008L13.5508 9.26953L12.5117 9.12109L13.4414 8.63281L13.2617 7.59766L14.0117 8.32812L14.9375 7.83984Z" fill="#FFDA44"/>
<path d="M11.8828 4.98828L11.8047 6.03125L12.7773 6.42578L11.7578 6.67578L11.6836 7.72266L11.1328 6.83203L10.1133 7.08203L10.7891 6.28125L10.2344 5.39453L11.207 5.78906L11.8828 4.98828Z" fill="#FFDA44"/>
</g>
<defs>
<clipPath id="clip0_15394_85544">
<rect width="20" height="20" fill="white" transform="translate(0 0.5)"/>
</clipPath>
</defs>
</svg>
