<svg xmlns="http://www.w3.org/2000/svg" width="24" height="24" viewBox="0 0 24 24" fill="none">
<g filter="url(#filter0_d_4432_5980)">
<path d="M12.0002 20.0001C16.9708 20.0001 21.0002 15.9706 21.0002 11.0001C21.0002 6.0295 16.9708 2.00006 12.0002 2.00006C7.02968 2.00006 3.00024 6.0295 3.00024 11.0001C3.00024 15.9706 7.02968 20.0001 12.0002 20.0001Z" fill="#F0F0F0"/>
<path d="M11.6086 11.0001H20.9999C20.9999 10.1877 20.8916 9.40084 20.6899 8.65222H11.6086V11.0001Z" fill="#D80027"/>
<path d="M11.6086 6.30438H19.679C19.128 5.40537 18.4237 4.61073 17.6023 3.95654H11.6086V6.30438Z" fill="#D80027"/>
<path d="M12.0001 20.0001C14.1182 20.0001 16.0651 19.268 17.6025 18.0436H6.39771C7.93512 19.268 9.88197 20.0001 12.0001 20.0001V20.0001Z" fill="#D80027"/>
<path d="M4.32098 15.6956H19.6791C20.1214 14.9739 20.4643 14.185 20.69 13.3478H3.31006C3.53566 14.185 3.87868 14.9739 4.32098 15.6956V15.6956Z" fill="#D80027"/>
<path d="M12.0002 11.0001C12.0002 6.02953 12.0002 5.44355 12.0002 2.00006C7.02971 2.00006 3.00024 6.02953 3.00024 11.0001H12.0002Z" fill="#0052B4"/>
<path d="M8.98501 9.70376C7.75587 9.70376 6.75947 8.70733 6.75947 7.47823C6.75947 6.24913 7.75591 5.2527 8.98501 5.2527C9.36824 5.2527 9.72884 5.34962 10.0437 5.5202C9.54979 5.03726 8.87437 4.73914 8.12902 4.73914C6.61628 4.73914 5.38989 5.96549 5.38989 7.47826C5.38989 8.99104 6.61628 10.2174 8.12902 10.2174C8.87437 10.2174 9.54979 9.91927 10.0437 9.43633C9.72884 9.60683 9.36828 9.70376 8.98501 9.70376V9.70376Z" fill="#FFDA44"/>
<path d="M9.61211 5.91296L10.0072 6.73921L10.8995 6.53305L10.4999 7.35708L11.2176 7.92615L10.3241 8.12756L10.3266 9.04342L9.61211 8.47044L8.89759 9.04342L8.90005 8.12756L8.00659 7.92615L8.7242 7.35708L8.32458 6.53305L9.21695 6.73921L9.61211 5.91296Z" fill="#FFDA44"/>
</g>
<defs>
<filter id="filter0_d_4432_5980" x="0.544989" y="0.772494" width="22.9103" height="22.9101" filterUnits="userSpaceOnUse" color-interpolation-filters="sRGB">
<feFlood flood-opacity="0" result="BackgroundImageFix"/>
<feColorMatrix in="SourceAlpha" type="matrix" values="0 0 0 0 0 0 0 0 0 0 0 0 0 0 0 0 0 0 127 0" result="hardAlpha"/>
<feOffset dy="1.22751"/>
<feGaussianBlur stdDeviation="1.22751"/>
<feComposite in2="hardAlpha" operator="out"/>
<feColorMatrix type="matrix" values="0 0 0 0 0 0 0 0 0 0 0 0 0 0 0 0 0 0 0.2 0"/>
<feBlend mode="normal" in2="BackgroundImageFix" result="effect1_dropShadow_4432_5980"/>
<feBlend mode="normal" in="SourceGraphic" in2="effect1_dropShadow_4432_5980" result="shape"/>
</filter>
</defs>
</svg>