<svg xmlns="http://www.w3.org/2000/svg" width="18" height="18" viewBox="0 0 18 18" fill="none">
<g clip-path="url(#clip0_4432_5976)">
<path d="M9 18C13.9706 18 18 13.9706 18 9C18 4.02944 13.9706 0 9 0C4.02944 0 0 4.02944 0 9C0 13.9706 4.02944 18 9 18Z" fill="#F0F0F0"/>
<path d="M0 9.00003C0 4.02947 4.02947 0 9 0C13.9705 0 18 4.02947 18 9.00003" fill="#D80027"/>
<path d="M5.47814 4.6957C5.47814 3.38444 6.39969 2.28904 7.63029 2.02027C7.44115 1.979 7.24495 1.9566 7.04333 1.9566C5.53052 1.9566 4.3042 3.18292 4.3042 4.69573C4.3042 6.20854 5.53052 7.43486 7.04333 7.43486C7.24488 7.43486 7.44112 7.41247 7.63029 7.37116C6.39969 7.10239 5.47814 6.00699 5.47814 4.6957Z" fill="#F0F0F0"/>
<path d="M8.99987 2.15247L9.19414 2.7503H9.82277L9.31417 3.11983L9.50844 3.71766L8.99987 3.3482L8.4913 3.71766L8.68557 3.11983L8.177 2.7503H8.8056L8.99987 2.15247Z" fill="#F0F0F0"/>
<path d="M7.47504 3.32599L7.66927 3.92386H8.2979L7.78933 4.29335L7.98361 4.89118L7.47504 4.52172L6.9664 4.89118L7.1607 4.29335L6.6521 3.92386H7.28073L7.47504 3.32599Z" fill="#F0F0F0"/>
<path d="M10.5248 3.32599L10.7191 3.92386H11.3477L10.8391 4.29335L11.0334 4.89118L10.5248 4.52172L10.0162 4.89118L10.2105 4.29335L9.7019 3.92386H10.3305L10.5248 3.32599Z" fill="#F0F0F0"/>
<path d="M9.9381 5.08752L10.1324 5.68539H10.761L10.2524 6.05488L10.4467 6.65272L9.9381 6.28326L9.42953 6.65272L9.6238 6.05488L9.11523 5.68539H9.74379L9.9381 5.08752Z" fill="#F0F0F0"/>
<path d="M8.06167 5.08752L8.25591 5.68539H8.88457L8.37597 6.05488L8.57028 6.65272L8.06167 6.28326L7.55307 6.65272L7.74734 6.05488L7.23877 5.68539H7.8674L8.06167 5.08752Z" fill="#F0F0F0"/>
</g>
<defs>
<clipPath id="clip0_4432_5976">
<rect width="18" height="18" fill="white"/>
</clipPath>
</defs>
</svg>