<svg xmlns="http://www.w3.org/2000/svg" width="186" height="104" fill="none" viewBox="0 0 186 104">
    <g opacity=".25">
        <path fill="url(#a)" fill-rule="evenodd" d="M22.452 6.647c23.936-16.855 39.283 3.45 59.025 5.199 2.4.225 4.818.155 7.2-.21 10.329-1.598 19.153-4.545 27.363-6.807 8.99-2.497 17.29-4.145 26.02-2.282a36.858 36.858 0 0 1 4.284 1.194l.67.244c.499.185 1.033.39 1.553.61l.274.114c.969.405 1.948.87 2.932 1.379l.524.274.08.045.23.12c.275.15.559.31.834.47l.085.045q1.423.809 2.886 1.782l.5.34.914.634a22 22 0 0 1 2.876 2.427l.45.46c17.479 18.213 19.552 72.852-38.634 88.503-43.284 11.641-86.697-15.132-101.88-38.623-14.512-22.518-11.38-46.63 1.814-55.918" clip-rule="evenodd" opacity=".35"/>
    </g>
    <path fill="#3f95d2" d="M109.143 41.01c2.397.305 4.789.595 7.192.74 2.391.18 4.791.214 7.186.105a23.8 23.8 0 0 0 6.952-1.259 9.1 9.1 0 0 0 2.926-1.748 4.9 4.9 0 0 0 1.034-1.258c.099-.185.152-.39.155-.6a.58.58 0 0 0-.26-.404 2.5 2.5 0 0 0-1.418-.375 4.8 4.8 0 0 0-1.613.24 2.76 2.76 0 0 0-1.284.8 1.2 1.2 0 0 0-.269.583 1.3 1.3 0 0 0 .06.635c.227.432.609.763 1.068.929a6.9 6.9 0 0 0 1.628.449c1.158.169 2.328.224 3.496.165a33.3 33.3 0 0 0 7.067-1.134c2.33-.6 4.576-1.487 6.687-2.642a26.6 26.6 0 0 1-6.547 3.112 31.3 31.3 0 0 1-7.132 1.443c-1.232.11-2.473.084-3.7-.075a7.7 7.7 0 0 1-1.858-.5 2.86 2.86 0 0 1-1.578-1.403 2.1 2.1 0 0 1-.13-1.138c.056-.383.215-.744.459-1.044a3.7 3.7 0 0 1 1.723-1.119 5.8 5.8 0 0 1 1.948-.304 3.43 3.43 0 0 1 1.998.569 1.57 1.57 0 0 1 .639 1.124c.015.395-.074.788-.26 1.138a5.9 5.9 0 0 1-1.248 1.498 9.6 9.6 0 0 1-3.262 1.913 23.5 23.5 0 0 1-7.251 1.159 63.7 63.7 0 0 1-14.408-1.598M115.596 71.469a64 64 0 0 0 9.299 1.733c1.563.185 3.126.32 4.699.41l2.352.11h2.357a74 74 0 0 0 9.404-.61c1.573-.155 3.116-.455 4.675-.71s3.086-.659 4.654-.938c-.749.255-1.498.5-2.262.739-.764.24-1.498.5-2.283.68-1.548.369-3.091.773-4.669.998a56 56 0 0 1-9.514.839c-3.19.022-6.376-.23-9.523-.754a42 42 0 0 1-9.189-2.497M151.433 55.139a45 45 0 0 0 4.959-.385c.819-.11 1.634-.23 2.443-.38l1.213-.224 1.199-.28a47 47 0 0 0 4.744-1.358c1.573-.5 3.091-1.159 4.66-1.768a23.4 23.4 0 0 1-4.38 2.497 27 27 0 0 1-4.795 1.603 26.6 26.6 0 0 1-5.019.684 19 19 0 0 1-5.024-.39" opacity=".1"/>
    <path fill="url(#b)" d="M104.573 69.476s2.498 2.497-14.592 1.778H60.8l1.273-4.864 31.048 1.688z" opacity=".3"/>
    <path fill="url(#c)" d="M87.464 60.787s4.954 4.42-7.796 5.129l-18.528.474L64.366 62z" opacity=".3"/>
    <path fill="url(#d)" d="M67 65.765s-1.719 2.8-13.752 2.456-41.989-1.051-41.989-1.051H.917s1.719-10.158 26.501-6.317c0 0 .809-2.574 17.275-2.338l13.348 3.39z" opacity=".3"/>
    <path fill="#1d5980" stroke="#12405d" stroke-linecap="round" stroke-linejoin="round" stroke-width=".5" d="M63.443 47.378S62.5 35.063 73.531 32.446l4.04.754 8.94 9.843-4.535 3.271-14.153 17.514s-.939 2.812-5.768 2.812c-4.83 0-18.978-2.123-24.376-1.334a7.28 7.28 0 0 1 1.343-5.992s14.982.574 17.02.03c2.038-.545 7.116-11.572 7.401-11.966"/>
    <path fill="#1d5980" stroke="#12405d" stroke-linecap="round" stroke-linejoin="round" stroke-width=".5" d="M86.885 49.576s2.177 10.077-.999 13.139-11.766 1.837-12.555 1.778c-.789-.06-5.588-.17-6.372.374l5.438-6.782 4.27.045s.999-3.91.285-5.703l4.994-6.112 2.697 2.666s1.533.824 2.242.594M58.664 56.323s-2.867-.355-3.936-.79c-1.069-.434-.694 3.996-.694 3.996l1.633-.1s.58.09 1.219-.665c.639-.754 1.777-2.442 1.777-2.442"/>
    <path fill="#3f95d2" stroke="#12405d" stroke-miterlimit="10" stroke-width=".5" d="M37.508 64.822s-4.4.41-5.738.704c-1.338.295-7.926.41-8.755-.16-.829-.569.21-.953 3.996-2.042s4.454-1.049 4.604-2.227c.15-1.179 1.598-3.182 5.249-2.343a2.03 2.03 0 0 0 1.768 1.084s-1.443 1.373-1.124 4.984ZM54.558 55.508s-2.057-1.213-2.812-1.303-3.386.35-3.286 1.498.2 1.878-.314 2.167c-.515.29-2.497 1.623-3.62 1.643h9.338s-.195-3.326.694-4.005Z"/>
    <path fill="#b8d482" stroke="#12405d" stroke-linecap="round" stroke-linejoin="round" stroke-width=".5" d="M111.336 42.075s2.712 7.755 3.621 8.574c.909.82 6.952 4.04 13.584 4.45 0 0-.365-2.407.819-2.951 0 0-6.492-2.078-7.042-2.607s-4.11-1.499-5.288-11.382l-2.847-1.782z"/>
    <path fill="#b8d482" stroke="#12405d" stroke-linecap="round" stroke-linejoin="round" stroke-width=".5" d="m113.827 36.022-1.782 1.069c-.665 3.665-3.072.959-3.072.959s0-6.273-.21-8.635c-.209-2.362.73-2.497.665-2.632s-1.029.27-1.843.784-8.924-.6-12.266 1.693c-8.889 6.063-18.872 2.397-20.266 2.247s-.938.954-.938.954c2.272 1.334 2.497 5.209 2.816 7.206.32 1.998 5.813 10.588 7.407 10.633.759 0 4.27-.75 7.88-1.583.075 2.931.145 5.218.16 5.493.045.814.365 7.81.23 9.264a30 30 0 0 0 .03 3.86s4.195.045 4.464-.679.73-13.903 1.089-14.947c.19-.544.714-2.597 1.189-4.664a38 38 0 0 1 1.583-.335c1.498-.225 8.49-3.496 10.018-4.265s1.758-1.583 2.797-2.687a2.62 2.62 0 0 0 .813-1.857 2.6 2.6 0 0 0-.764-1.878"/>
    <path fill="#1d5980" stroke="#12405d" stroke-linecap="round" stroke-linejoin="round" stroke-width=".5" d="M109.428 26.783s2.881 2.936 2.497 10.932c0 0-.245 3.755-2.972.334l-.185-8.32s-.279-2.037.66-2.946"/>
    <path fill="#1d5981" stroke="#123f5d" stroke-linecap="round" stroke-linejoin="round" stroke-width=".5" d="M111.87 31.217s-1.683-8.3 1.179-9.918 1.593-3.34 4.909-2.786 4.814-.66 7.586 1.723 3.406.909 3.406.909.26 4.45-1.363 5.723-1.044 2.277-1.044 2.277l-.959.584z"/>
    <path fill="#e9d2be" stroke="#11405d" stroke-linecap="round" stroke-linejoin="round" stroke-width=".5" d="M117.004 26.253c1.194 0 3.226-2.956 3.995-2.637.77.32 3.137 3.317 4.27 3.361 1.134.045.819.82.455 2.273-.365 1.453-3.886 8.35-7.676 8.989 0 0-3.156.27-4.22-2.222 0 0-4.575 2.821-4.854 2.027-.664-1.908-.13-8.075-.13-8.075s2.752-.999 2.841-.77c.09.23.275 1.454 1.184 1.09.909-.365-1.139-2.093 0-3.546 1.139-1.454 1.319-1.134 1.953.594s.729 1.543.729 1.543.489-2.652 1.453-2.627M93.332 67.314s-.884 1.823.9 2.412c1.782.59 9.323.365 10.047 0 .724-.364-1.223-1.049-1.862-1.023-.64.024-4.92-.974-4.92-.974l-.694-.84s-2.776.42-3.47.425M128.541 55.099s.939 1.728 1.668 1.907 1.423 1.863 2.742.774 2.721-1.178 2.317-2.247c-.405-1.069-1.274-1.069-1.548-.889-.275.18-.814-.314-.864-.769-.05-.454.179-.544.544-.769.249-.14.534-.206.819-.19 0 0 .909-.769.639-.814-.269-.045-.774-.364-1.318 0a8.4 8.4 0 0 1-2.592.68c-.27 0-1.683-.19-1.833-.5 0 .025-.844.819-.574 2.817"/>
    <path fill="#123f5d" stroke="#123f5d" stroke-linecap="round" stroke-linejoin="round" d="m130.918 57.5 2.592-2.826a1.68 1.68 0 0 1-.665-.914c-.144-.59-2.856 3.151-2.856 3.151s.804.29.929.59"/>
    <path fill="#123f5d" stroke="#123f5d" stroke-linecap="round" stroke-linejoin="round" d="m134.313 51.713.5-.59q.5.244.934.59.069.422 0 .844l-2.048 2.087s-.769.065-.874-.884a1.137 1.137 0 0 1 1.374-.844l.659-.679z"/>
    <path fill="#3f95d2" stroke="#12405d" stroke-miterlimit="10" stroke-width=".5" d="M141.055 49.293c1.657-2.369 1.923-5.042.594-5.972s-3.749.236-5.406 2.605c-1.658 2.368-1.924 5.042-.595 5.971s3.749-.236 5.407-2.605Z"/>
    <path fill="#d6e9f5" d="M141.227 49.416c1.657-2.368 2.061-4.946.901-5.757s-3.442.451-5.099 2.82-2.061 4.945-.902 5.756c1.16.812 3.443-.45 5.1-2.82"/>
    <path stroke="#12405d" stroke-miterlimit="10" stroke-width=".5" d="M142.134 43.668a1.2 1.2 0 0 0-.245-.135 1.4 1.4 0 0 0-.24-.205c-1.328-.929-3.745.235-5.403 2.607s-1.923 5.039-.594 5.993q.126.096.274.155.092.103.205.184c1.159.81 3.446-.45 5.104-2.816 1.658-2.367 2.057-4.974.899-5.783Z"/>
    <path fill="#1d5980" d="M92.293 48.656s-2.132-8.54 1.783-14.592zM99.415 46.879s2.847-7.491 1.424-12.1zM113.124 40.511s-.19 5.828 1.883 10.233c0 0-2.537-4.495-3.601-8.49 0 .02 1.653-1.348 1.718-1.743M76.962 39.802s.999-3.311.47-4.864c-.53-1.553 3.885-1.818 5.178-1.299s5.344-1.313 5.344-1.313-5.229.7-7.491.23c-2.263-.47-4.874-.87-5.494-1.059-.619-.19-1.158.33-.899.849-.01 0 2.572.53 2.892 7.456" opacity=".1"/>
    <path fill="#fff" stroke="#14405d" stroke-miterlimit="10" stroke-width=".5" d="M152.781 62.82s1.104 6.491 1.029 7.09c0 0 9.314-2.496 16.745-5.842l-3.91-6.358s-8.245 3.456-13.864 5.11Z"/>
    <path stroke="#b3d7eb" stroke-width=".5" d="m154.594 62.854 1.329 5.928 1.154-.31-1.554-5.872zM156.327 62.305l1.668 5.793M157.271 61.926l1.693 5.783M158.2 61.731l1.628 5.628M159.039 61.391l1.633 5.628M161.311 60.597l2.203 5.459M166.556 62.935l.659 1.628M167.334 62.59l.654 1.628" opacity=".7"/>
    <path fill="#fff" stroke="#14405d" stroke-miterlimit="10" stroke-width=".5" d="M158.794 35.173s-.035 9.988-.289 10.812c0 0 14.482-1.289 26.408-4.385l-4.18-10.462s-13.159 3.011-21.939 4.035Z"/>
    <path stroke="#b3d7eb" stroke-width=".5" d="m161.482 35.682.449 9.17 1.798-.17-.804-9.135zM164.198 35.317l.994 9.05M165.702 34.993l1.034 9.044M167.134 34.943l.979 8.794M168.473 34.658l.978 8.79M172.059 34.06l1.873 8.684M179.26 38.883l.56 2.592M180.504 38.574l.559 2.587" opacity=".7"/>
    <path fill="#fff" stroke="#14405d" stroke-miterlimit="10" stroke-width=".5" d="M152.936 18.528s4.11 4.155 4.61 4.405c0 0-6.597 5.443-12.865 9.069l-2.617-6.108s6.772-4.17 10.872-7.366Z"/>
    <path stroke="#b3d7eb" stroke-width=".5" d="m152.022 19.851 3.596 4.02-.824.674-3.436-4.155zM150.734 20.82l3.321 4.195M149.97 21.304l3.301 4.21M149.35 21.874l3.221 4.085M148.671 22.303l3.221 4.085M146.923 23.537l2.802 4.41M145.905 28.53l.834 1.314M145.256 28.91l.834 1.319" opacity=".7"/>
    <defs>
        <linearGradient id="a" x1="137.468" x2="42.091" y1="97.358" y2="-12.178" gradientUnits="userSpaceOnUse">
            <stop stop-color="#7db4e0"/>
            <stop offset=".1" stop-color="#74b0de"/>
            <stop offset=".45" stop-color="#59a3d9"/>
            <stop offset=".76" stop-color="#499bd5"/>
            <stop offset="1" stop-color="#4398d4"/>
        </linearGradient>
        <linearGradient id="b" x1="60.8" x2="104.698" y1="68.887" y2="68.887" gradientUnits="userSpaceOnUse">
            <stop stop-color="#231f20" stop-opacity="0"/>
            <stop offset=".04" stop-color="#1d5980" stop-opacity=".04"/>
            <stop offset="1" stop-color="#1d5980"/>
        </linearGradient>
        <linearGradient id="c" x1="61.14" x2="88.408" y1="63.589" y2="63.589" gradientUnits="userSpaceOnUse">
            <stop stop-color="#231f20" stop-opacity="0"/>
            <stop offset=".04" stop-color="#1d5980" stop-opacity=".04"/>
            <stop offset="1" stop-color="#1d5980"/>
        </linearGradient>
        <linearGradient id="d" x1=".917" x2="67" y1="63.373" y2="63.373" gradientUnits="userSpaceOnUse">
            <stop stop-color="#231f20" stop-opacity="0"/>
            <stop offset=".04" stop-color="#1d5980" stop-opacity=".04"/>
            <stop offset="1" stop-color="#1d5980"/>
        </linearGradient>
    </defs>
</svg>
