<svg xmlns="http://www.w3.org/2000/svg" width="148" height="108" fill="none" viewBox="0 0 148 108">
    <linearGradient id="c" x1="118.353" x2="31.383" y1="99.378" y2="-.163" gradientUnits="userSpaceOnUse">
        <stop offset="0" stop-color="#7db4e0"/>
        <stop offset=".1" stop-color="#74b0de"/>
        <stop offset=".45" stop-color="#59a3d9"/>
        <stop offset=".76" stop-color="#499bd5"/>
        <stop offset="1" stop-color="#4398d4"/>
    </linearGradient>
    <clipPath id="a">
        <path d="M.932 0h146.135v107.715H.932z"/>
    </clipPath>
    <g clip-path="url(#a)">
        <path fill="url(#c)" fill-rule="evenodd" d="M11.268 18.982c21.743-15.362 35.683 3.146 53.615 4.739 2.18.205 4.377.14 6.541-.191 9.381-1.457 17.397-4.143 24.855-6.205 8.165-2.275 15.704-3.778 23.634-2.08a33.517 33.517 0 0 1 3.892 1.088l.608.223c.453.169.939.355 1.411.556l.249.104c.88.37 1.769.792 2.663 1.257l.476.25.073.041.208.11c.25.136.508.281.758.427l.077.041a44 44 0 0 1 2.622 1.625l.454.31.83.577a20 20 0 0 1 2.613 2.213l.408.418c15.877 16.6 17.76 66.401-35.093 80.667-39.316 10.61-78.75-13.792-92.54-35.204-13.183-20.523-10.339-42.5 1.646-50.966" clip-rule="evenodd" opacity=".087"/>
        <path fill="#f5f5f5" d="M102.665 103.113c-3.037-1.443-4.25-4.873-4.678-8.068-.071-.534-.223-1.083-.05-1.591a1.095 1.095 0 0 1 1.217-.783c.423.119.672.548.955.89.379.455.878.794 1.44.977a1.19 1.19 0 0 0 1.102-.085c.413-.33.361-.971.268-1.498l-.515-2.947a5 5 0 0 1-.106-1.593 1.66 1.66 0 0 1 .839-1.28 1 1 0 0 1 1.336.457q.085.323.126.654a.565.565 0 0 0 .411.467c.221.027.406-.159.537-.34a7.1 7.1 0 0 0 .934-2.114c.195-.75.476-1.476.84-2.16a2.88 2.88 0 0 1 1.743-1.411 1.72 1.72 0 0 1 1.942.868c.316.712.011 1.54-.358 2.222a12 12 0 0 1-2.049 2.751 1 1 0 0 0-.335.51c-.054.372.337.664.702.721q.629.03 1.25-.07a1.2 1.2 0 0 1 1.114.448c.306.502-.048 1.144-.428 1.589a10.2 10.2 0 0 1-2.685 2.228 3.4 3.4 0 0 0-1.014.727.99.99 0 0 0-.123 1.171 1 1 0 0 0 1.147.233q.568-.271 1.079-.638c.676-.397 1.618-.505 2.186.043a1.7 1.7 0 0 1 .426 1.446 3.9 3.9 0 0 1-.577 1.439 10.27 10.27 0 0 1-3.804 3.776c-1.577.868-3.103 1.289-4.872.961"/>
        <path fill="#e1e1e1" d="M103.146 100.983c.234-1.82.572-3.626 1.012-5.407l.338-1.403c.112-.46.223-.917.359-1.357q.394-1.267.926-2.482c.332-.776.676-1.5 1.002-2.173.328-.674.646-1.296.959-1.851a19 19 0 0 1 2.191-3.136l.14-.16a.4.4 0 0 1 .051-.052.4.4 0 0 1-.043.059l-.132.166c-.118.145-.29.36-.505.642a20 20 0 0 0-1.641 2.516 35 35 0 0 0-.946 1.852 55 55 0 0 0-.994 2.173q-.525 1.213-.917 2.475c-.134.438-.244.89-.356 1.352l-.337 1.403a49 49 0 0 0-1.018 5.394"/>
        <path fill="#e1e1e1" d="M104.883 92.808a1 1 0 0 1-.09-.217 15 15 0 0 1-.202-.604 61 61 0 0 1-.582-2.018 44 44 0 0 0-.599-2.01c-.085-.254-.155-.46-.206-.6a1 1 0 0 1-.068-.225q.064.1.104.21c.061.138.142.34.235.592.187.505.409 1.215.628 2.006l.554 2.025.172.613q.039.11.054.228"/>
        <path fill="#e1e1e1" d="M111.428 90.393q-.129.051-.264.078c-.171.045-.419.109-.722.197a33 33 0 0 0-2.343.775 36 36 0 0 0-2.284.94c-.289.129-.52.24-.68.315a1.5 1.5 0 0 1-.253.11 1.5 1.5 0 0 1 .236-.144c.155-.087.382-.208.667-.346.57-.28 1.373-.63 2.28-.969a24 24 0 0 1 2.359-.749c.306-.08.557-.133.731-.167q.135-.033.273-.04M103.209 100.843a.4.4 0 0 1-.06-.074l-.157-.226a28 28 0 0 1-.552-.847 80 80 0 0 1-1.705-2.87 153 153 0 0 0-1.678-2.882l-.526-.863-.141-.236a.4.4 0 0 1-.044-.086.4.4 0 0 1 .06.075l.157.226c.135.196.324.486.552.847a80 80 0 0 1 1.705 2.87 148 148 0 0 0 1.679 2.882l.525.863.141.236a.3.3 0 0 1 .044.085M111.701 96.414a.4.4 0 0 1-.083.052l-.246.132-.909.476c-.767.403-1.821.97-2.985 1.599a106 106 0 0 1-3 1.573 33 33 0 0 1-1.177.564.4.4 0 0 1-.092.034.4.4 0 0 1 .083-.053l.246-.131.909-.476c.768-.402 1.821-.97 2.985-1.6a109 109 0 0 1 3-1.572c.388-.194.703-.347.923-.448l.255-.116a.3.3 0 0 1 .091-.034"/>
        <path fill="#ececec" d="M78.715 77.175s-1.571.778.55 4.09a46 46 0 0 0 3.524 4.915s.395.778-.272.972-2.187.105-2.406.97c-.228.897.48 1.65 1.821 2.239s4.234 1.986 4.495 2.114c.256.125.536.477.102.683-.433.205-3.764.895-3.343 2.461s4.427 2.59 4.863 2.71.554.29.543.524-1.153.36-2.092.596c-.939.235-1.987.673-1.669 1.556.319.884 2.798 2.557 8.412 2.546l2.6-.176 1.193-2.339c2.246-5.163 1.704-8.111 1.023-8.756-.68-.645-1.498.145-2.087.916s-1.16 1.77-1.378 1.687-.326-.258-.262-.707c.063-.45.723-4.544-.54-5.555-1.265-1.012-3.223 1.779-3.583 2.096s-.571-.081-.583-.367c-.013-.291-.138-3.51-.142-4.979s-.41-2.42-1.321-2.568c-.878-.143-1.402 1.292-1.845 1.829s-.997-.138-.997-.138a46 46 0 0 0-3.09-5.2c-2.182-3.273-3.547-2.101-3.547-2.101"/>
        <path fill="#e1e1e1" d="M96.04 103.974c-1.593-2.409-4.353-6.74-6.74-10.444a1920 1920 0 0 0-6.133-9.473l-1.875-2.86-.509-.779-.13-.203q-.044-.07-.043-.071a1 1 0 0 1 .05.066l.137.2.522.769c.452.669 1.1 1.642 1.896 2.847 1.592 2.409 3.765 5.756 6.152 9.46s5.14 8.039 6.72 10.456"/>
        <path fill="#e1e1e1" d="M82.234 88.333a1 1 0 0 1 .186.032c.118.026.288.068.498.122.42.108.995.273 1.627.466l1.616.5.49.148a1 1 0 0 1 .179.062 1 1 0 0 1-.187-.031 12 12 0 0 1-.498-.124 56 56 0 0 1-1.623-.478l-1.62-.488-.49-.146a1 1 0 0 1-.178-.063M86.99 89.478c-.022-.005.264-1.21.638-2.692s.695-2.679.716-2.673-.264 1.21-.638 2.693c-.374 1.482-.695 2.678-.716 2.672M90.4 95.333a1 1 0 0 1 .09-.171l.265-.453c.223-.382.53-.911.846-1.508.318-.596.586-1.145.778-1.544l.227-.473a1 1 0 0 1 .092-.17 1 1 0 0 1-.063.183c-.046.115-.114.281-.204.484a23.919 23.919 0 0 1-1.627 3.058 14 14 0 0 1-.288.44 1 1 0 0 1-.116.154M85.87 95.247a.8.8 0 0 1 .177-.015l.484-.01c.408-.005.972-.006 1.596-.002.623.004 1.187.012 1.595.022l.484.016a.8.8 0 0 1 .177.017.8.8 0 0 1-.178.014l-.483.01c-.408.005-.973.006-1.596.002s-1.187-.011-1.595-.021l-.483-.016a.8.8 0 0 1-.178-.017M88.228 100.8q.112-.019.227-.017l.62-.015a161 161 0 0 1 4.09-.014l.62.011q.113-.003.227.015a1.2 1.2 0 0 1-.228.016l-.62.015a131 131 0 0 1-2.044.019c-.8.003-1.522.001-2.045-.004l-.62-.011a1.2 1.2 0 0 1-.227-.015M93.874 100.741q.044-.115.107-.22l.316-.586c.266-.495.63-1.18 1.011-1.947.383-.768.71-1.471.944-1.982l.278-.605q.045-.114.11-.218-.03.119-.081.23c-.057.147-.143.358-.254.616a38.541 38.541 0 0 1-1.958 3.934c-.14.244-.256.44-.338.574q-.06.108-.135.204"/>
        <path fill="#dadeea" d="M68.406 103.82c-6.643-1.085-13.944-.296-20.677-.287l-10.211.013c-3.424.008-7.067-.357-10.402.502a.725.725 0 0 0-.514.696.73.73 0 0 0 .514.696c3.335.858 6.978.494 10.402.502q5.106.011 10.212.013c6.745.009 14.023.8 20.676-.287.912-.149.912-1.699 0-1.848"/>
        <path fill="#efd1b5" stroke="#133f5d" stroke-miterlimit="10" stroke-width=".1" d="M38.212 60.247q.064.245.19.463a17.6 17.6 0 0 0 1.821 2.43l.984-2.224s-.16-.699-.439-1.697c-.95.249-1.855.393-2.556 1.028z"/>
        <path fill="#6fafdc" stroke="#133f5d" stroke-miterlimit="10" stroke-width=".1" d="M43.854 58.318s-5.488 2.371-5.666 2.326c-.114-.03-2.25-3.618-2.274-6.993-.01-1.56 1.603-3.434 3.403-3.064.906.187.892.44 2.233 2.395 1.34 1.955 2.304 5.336 2.304 5.336z"/>
        <path fill="#efd1b5" stroke="#133f5d" stroke-miterlimit="10" stroke-width=".1" d="m48.538 100.834-.13 2.168q-.15.594-.237 1.202c0 .938 4.438-.796 3.443-1.212-.09-.037-.562-.322-.591-.641-.046-.492-.161-1.486-.161-1.486z"/>
        <path fill="#133f5d" stroke="#133f5d" stroke-miterlimit="10" stroke-width=".1" d="M51.603 102.983s-1.042.287-1.575.359c-.534.072-1.237-.532-1.615-.369-.415.18-.399 1.795-.399 1.795s5.587.46 7.158-.016c.623-.188-1.439-1.101-3.569-1.769z"/>
        <path fill="#efd1b5" stroke="#133f5d" stroke-miterlimit="10" stroke-width=".1" d="m39.461 100.834-.13 2.168q-.15.594-.237 1.202c0 .938 4.438-.796 3.443-1.212-.09-.037-.701-.534-.731-.853-.046-.492-.022-1.274-.022-1.274z"/>
        <path fill="#133f5d" stroke="#133f5d" stroke-miterlimit="10" stroke-width=".1" d="M42.525 102.983s-1.042.287-1.576.359c-.533.072-1.237-.532-1.614-.369-.416.18-.432 1.795-.432 1.795s5.612.537 7.191-.016c.613-.214-1.44-1.101-3.57-1.769z"/>
        <path fill="#efd1b5" stroke="#133f5d" stroke-miterlimit="10" stroke-width=".1" d="m40.816 61.445 3.909-5.494q.024-.071.106-.297c.197-.545.606-1.68.963-2.808l.004-.012c.112-.394.35-1.082.58-1.748.255-.74.572-1.658.584-1.815l-.053-.138q-.258-.81-.406-1.649c-.044-.246-.087-.844.204-.844.459 0 .24.597.452.97q.201-.611.318-1.245l.076-1.168c.015-.088-.078-.732.243-.732h.015c.29.022.283.707.403 1.865.038-.133.076-.294.105-.442q.026-.31.097-.611c-.058-.323-.024-.832.319-.784.172.024.157.734.157.734-.002.098-.012.85-.006.998.035-.252.172-1.328.441-1.328.223 0 .24.29.236.519-.003.136-.143 1.3-.15 1.436.105-.177.229-1.204.333-1.204.435 0 .278 1.46.118 1.84q-.03.1-.05.204c-.065.38-.19.747-.372 1.086a30 30 0 0 0-.707 1.328c-.042.232-.173 1.07-.338 2.122l-.227 1.456h-.005c-.014.11-.096.462-.405 1.783a16 16 0 0 1-.486 1.919c-.184.326-4.398 6.068-4.577 6.312l-.106.145z"/>
        <path fill="#bc9977" d="M48.086 48.631s-.317-.814-.882-.815a.65.65 0 0 1 .586.1c.18.196.285.45.296.715"/>
        <path fill="#efd1b5" stroke="#133f5d" stroke-miterlimit="10" stroke-width=".1" d="m39.872 47.06-.503 3.192s1.917 1.545 3.035 1.22c.937-.274.294-1.504.294-1.504s-.5-1.705-.346-2.598c.153-.894-2.48-.31-2.48-.31z"/>
        <path fill="#bc9977" d="M40.223 48.024a7.5 7.5 0 0 0 2.123.614 4.4 4.4 0 0 1-.05-1.269c.07-.412-.442-.51-1.013-.495-.747.065-1.413.185-1.413.185l-.095.614q.193.218.448.351"/>
        <g stroke="#133f5d" stroke-miterlimit="10">
            <path fill="#efd1b5" stroke-width=".1" d="M37.452 43.376c-.08 0 .758 3.567 2.053 4.18 1.295.614 3.227.294 3.59-.666.4-1.063-1.062-4.702-2.884-5.164s-2.76 1.65-2.76 1.65z"/>
            <path fill="#133f5d" stroke-width=".1" d="M38.951 40.099a4.1 4.1 0 0 0-1.67 1.85c-.484.232-1.072.732-1.354 2.08-.347 1.656.886 2.933 2.193 3.317s1.51 1.252 1.51 1.252l.147-.934a3.7 3.7 0 0 0-.728-1.22c-.437-.407.207-1 .264-1.484.044-.373-.23-1.096-.17-1.707 0 0 .726-1.105 1.442-1.378 1.22-.465-.306-2.544-1.634-1.776z"/>
            <path fill="#efd1b5" stroke-width=".1" d="M39.502 45.581c.169.412.1.821-.155.914s-.598-.166-.768-.578-.1-.821.155-.914c.254-.092.598.166.767.578zM44.328 61.534l7.539-1.233s-.858-2.167-1.164-2.167-5.701 2.363-5.701 2.363l-.43.864z"/>
            <path fill="#699435" stroke-width=".1" d="M40.465 66.72s-.752 3.649-.445 6.415.33 12.593.33 12.593l-1.17 15.723 2.775.06s3.291-15.715 3.23-15.311 1.103-11.065 1.103-11.065l-3.923-8.76z"/>
            <path fill="#93c854" stroke-width=".1" d="M41.2 66.548s-.49 3.284.123 4.725 5.257 15.578 5.319 16.73c.06 1.153 1.605 13.893 1.605 13.893l3.227-.091.698-14.165-1.461-17.802-1.42-4.5z"/>
            <path fill="#efd1b5" stroke-width=".1" d="M47.85 58.026s2.852 2.7 4.14 2.24c1.286-.462 1.819-2.038-1.322-4.343-2.81-2.064-2.818 2.103-2.818 2.103z"/>
            <path fill="#133f5d" stroke-width=".1" d="M49.783 61.36c-.424-2.312-3.494-9.508-3.74-10.834-.119-.645-1.775-.659-3.352-.575-1.667.089-3.322.3-3.322.3s-1.475.243-2.124.854-.821 2.297.112 5.5c.736 2.53 1.649 3.918 2.1 5.76.092.618.17 1.227.275 1.94.166 2.753-.002 6.392-.002 6.392s8.03 1.671 11.033-.865c0 0-.546-6.102-.98-8.471z"/>
            <path fill="#9cc8e7" stroke-width=".1" d="M51.829 56.388s-3.151 2.61-3.335 2.61c-.118 0-4.496-3.232-5.507-5.886-.559-1.468.613-3.11 1.952-3.105.927.004 1.34.244 3.179 1.8s3.71 4.581 3.71 4.581z"/>
            <path fill="#4195d5" stroke-width=".2" d="M79.965 12.588c-.127-.122-6.943-2.484-12.376 2.633-4.995 4.705-6.082 12.696-5.343 12.808.903.138 2.938-3.83 7.363-6.35 1.57-.893 4.259-.437 4.259-.437z"/>
            <path fill="#000" stroke-width=".2" d="M73.869 21.24a10.3 10.3 0 0 0-2.411-.076c.802-2.25 2.303-6.45 3.277-9.17a11.94 11.94 0 0 1 5.229.593z" opacity=".1"/>
            <path fill="#4195d5" stroke-width=".2" d="M91.977 24.175c.127.122 2.748 6.863-2.134 12.511-4.488 5.194-12.403 6.599-12.544 5.863-.173-.9 3.699-3.098 6.034-7.634.827-1.608.267-4.287.267-4.287z"/>
            <path fill="#000" stroke-width=".2" d="M92.773 29.43c-2.692 1.096-6.82 2.775-9.002 3.661a10.5 10.5 0 0 0-.17-2.463l8.377-6.453c.652 1.67.923 3.466.795 5.256z" opacity=".1"/>
            <path fill="#fff" stroke-width=".2" d="m77.691 34.21-7.121-6.87s2.405-9.258 9.673-16.057a48.6 48.6 0 0 1 11.998-8.005C97.733.642 102.444-.442 103.272.357c.832.802-.066 5.565-2.47 11.179A49 49 0 0 1 93.3 23.877C86.815 31.432 77.69 34.21 77.69 34.21z"/>
            <path fill="#4195d5" stroke-width=".2" d="m100.802 11.536-8.561-8.258C97.733.642 102.444-.442 103.272.357c.832.802-.066 5.565-2.47 11.18z"/>
            <path fill="#fff" stroke-width=".2" d="M94.565 3.812a.332.332 0 0 1-.52-.411.333.333 0 0 1 .51-.06.335.335 0 0 1 .01.471zM96.087 5.281a.332.332 0 0 1-.52-.41.333.333 0 1 1 .52.41zM97.61 6.75a.332.332 0 0 1-.52-.411.333.333 0 0 1 .511-.06.334.334 0 0 1 .01.471zM99.133 8.22a.332.332 0 0 1-.52-.412.333.333 0 1 1 .52.411zM100.656 9.688a.334.334 0 0 1-.513-.04.336.336 0 0 1 .14-.497.332.332 0 0 1 .466.3.34.34 0 0 1-.093.237z"/>
            <path fill="#9cc8e7" stroke-width=".2" d="M72.385 26.976a.333.333 0 0 1-.52-.411.333.333 0 0 1 .51-.061.335.335 0 0 1 .01.472zM73.908 28.445a.333.333 0 0 1-.52-.411.33.33 0 0 1 .339-.149.332.332 0 0 1 .251.45.3.3 0 0 1-.07.11zM75.43 29.914a.333.333 0 0 1-.52-.411.333.333 0 1 1 .52.41zM76.954 31.383a.333.333 0 0 1-.52-.411.33.33 0 0 1 .339-.149.332.332 0 0 1 .251.45.3.3 0 0 1-.07.11zM78.477 32.852a.333.333 0 0 1-.52-.411.332.332 0 0 1 .613.173.34.34 0 0 1-.093.238z"/>
        </g>
        <path fill="#9cc8e7" d="M102.89.17c-4.368.766-11.713 4.223-19.091 11.357-5.45 5.269-8.942 13.87-10.514 18.434l-2.717-2.621s2.405-9.258 9.674-16.056a48.6 48.6 0 0 1 11.997-8.005C97.164.915 101.456-.2 102.89.17" opacity=".2"/>
        <path fill="#fff" d="M91.123 21.726a5.917 5.917 0 0 1-9.114-.945 5.96 5.96 0 0 1 .03-6.607 5.93 5.93 0 0 1 2.671-2.178 5.91 5.91 0 0 1 6.453 1.32 5.95 5.95 0 0 1 1.716 4.214 5.96 5.96 0 0 1-1.756 4.196"/>
        <path fill="#4295d1" d="M82.59 21.837a6.18 6.18 0 0 1-1.298-6.72 6.16 6.16 0 0 1 2.275-2.755 6.125 6.125 0 0 1 6.822.034c1.007.682 1.789 1.648 2.248 2.776a6.18 6.18 0 0 1-1.363 6.707 6.137 6.137 0 0 1-8.684-.043m8.42-8.368a5.705 5.705 0 0 0-6.218-1.272 5.7 5.7 0 0 0-2.573 2.098 5.745 5.745 0 0 0-.03 6.368c.623.945 1.512 1.684 2.553 2.123a5.69 5.69 0 0 0 6.23-1.212 5.747 5.747 0 0 0 .039-8.105"/>
        <path fill="#4295d1" fill-rule="evenodd" d="M83.964 19.604a4.34 4.34 0 0 1 1.286-3.513c.37-.372.824-.65 1.324-.808a2.2 2.2 0 0 1 1.504.071 1.85 1.85 0 0 1 1.037 1.257 1.736 1.736 0 0 1-.408 1.586 1.9 1.9 0 0 1-1.474.57 2.35 2.35 0 0 1-1.48-.666 2.54 2.54 0 0 1-.782-1.74c-.02-.515.14-1.02.45-1.43s.755-.7 1.255-.818a2.5 2.5 0 0 1 1.091-.016c.728.17 1.365.609 1.786 1.228a3.44 3.44 0 0 1 .477 2.844 3.45 3.45 0 0 0-.454-2.86 3.03 3.03 0 0 0-1.797-1.267 2.55 2.55 0 0 0-1.122-.011c-.374.08-.722.251-1.015.497a2.4 2.4 0 0 0-.811 1.836 2.7 2.7 0 0 0 .805 1.857 2.53 2.53 0 0 0 1.585.742 2.1 2.1 0 0 0 1.648-.612c.227-.233.393-.52.483-.832.09-.315.102-.647.036-.968a2.15 2.15 0 0 0-1.183-1.478 2.5 2.5 0 0 0-1.722-.114 3.6 3.6 0 0 0-1.484.868 4.7 4.7 0 0 0-1.424 3.816z" clip-rule="evenodd"/>
        <path fill="#4295d1" d="m83.497 19.738-.008-.086a4.8 4.8 0 0 1 1.29-3.727 2.5 2.5 0 0 1 .807-1.462 2.4 2.4 0 0 1 1.051-.516 2.65 2.65 0 0 1 1.16.012 3 3 0 0 1 1.465.834q.213.216.384.468a3.52 3.52 0 0 1 .465 2.932l-.165-.047a3.34 3.34 0 0 0-.464-2.772 3 3 0 0 0-.339-.407 2.8 2.8 0 0 0-1.395-.786 2.4 2.4 0 0 0-1.053.015 2.16 2.16 0 0 0-.923.482 2.1 2.1 0 0 0-.583.87c.373-.31.805-.539 1.27-.672.59-.173 1.22-.13 1.782.12.238.111.455.264.64.452.296.297.501.674.59 1.085a2.1 2.1 0 0 1-.037 1.01 2.06 2.06 0 0 1-.504.87 2.2 2.2 0 0 1-1.715.636 2.63 2.63 0 0 1-1.64-.766l-.025-.025a2.83 2.83 0 0 1-.768-1.484 4.24 4.24 0 0 0-.734 2.822l.01.085zm1.25-3.522a4.63 4.63 0 0 0-1.095 3.333l.218-.022a4.42 4.42 0 0 1 .881-3.003 3 3 0 0 1-.004-.308zm3.945-.536a1.9 1.9 0 0 1 .5 1.794c-.074.292-.22.56-.422.781a1.99 1.99 0 0 1-1.541.598 2.4 2.4 0 0 1-1.354-.531c.383.32.855.514 1.352.556a2.02 2.02 0 0 0 1.58-.586 1.9 1.9 0 0 0 .462-.797c.086-.301.098-.62.035-.926a2 2 0 0 0-.545-1 2 2 0 0 0-.59-.417 2.42 2.42 0 0 0-1.664-.11 3.45 3.45 0 0 0-1.401.805 2 2 0 0 0-.044.313q.064-.066.13-.13c.38-.382.847-.667 1.36-.83a2.27 2.27 0 0 1 1.562.076 1.9 1.9 0 0 1 .58.404zm-3.634.738a2.46 2.46 0 0 0 .754 1.621c.385.376.89.604 1.425.642a1.8 1.8 0 0 0 1.407-.543c.183-.2.315-.443.382-.707.065-.262.067-.537.005-.8a1.78 1.78 0 0 0-.989-1.198c-.459-.19-.97-.214-1.445-.067a3.2 3.2 0 0 0-1.289.788 4 4 0 0 0-.25.264z"/>
        <path fill="#a5ce5d" fill-rule="evenodd" d="m91.395 19.872-1.542-1.01.294-.823zM90.126 18.033l-.678.175.482.357zM90.165 17.96l.153-.645 1.084 2.549z" clip-rule="evenodd"/>
        <path fill="#4295d1" fill-rule="evenodd" d="M84.963 15.858a.98.98 0 0 0-.022.592l.13-.163c.03-.205.01-.293.04-.438.009-.038.017-.15.017-.15-.073.034-.11.106-.165.16" clip-rule="evenodd"/>
        <path fill="#4195d5" stroke="#133f5d" stroke-miterlimit="10" stroke-width=".2" d="m74.977 35.726-5.791-5.587 1.785-2.41 6.336 6.111z"/>
        <path fill="#000" stroke="#133f5d" stroke-miterlimit="10" stroke-width=".2" d="m77.305 33.84-1.135.917-5.883-6.107.683-.92z" opacity=".1"/>
        <path fill="#4195d5" stroke="#133f5d" stroke-miterlimit="10" stroke-width=".2" d="M73.7 34.477a21.05 21.05 0 0 0-5.427 6.78 16.7 16.7 0 0 0-1.748 8.56c.114 1.497.448 2.97.991 4.37a15.9 15.9 0 0 0 2.252 3.97 18.2 18.2 0 0 0 3.309 3.277 23 23 0 0 0 4.041 2.468 23.2 23.2 0 0 1-4.352-2.008 19 19 0 0 1-3.831-3.004 17.15 17.15 0 0 1-4.605-8.772c-.897-4.619.306-8.432.875-10.144a22.56 22.56 0 0 1 5.259-8.601z" opacity=".6"/>
        <path fill="#ececec" d="M97.43 84.658a5.5 5.5 0 0 0-3.425-.417 2.84 2.84 0 0 0-1.692.757c-.422.468-.503 1.292-.017 1.695.313.212.69.308 1.067.271.905-.01 1.91-.17 2.633.376.412.312.687.83 1.18.984a1.16 1.16 0 0 0 1.283-.573c.235-.455.287-.984.145-1.476a2.26 2.26 0 0 0-1.174-1.617M99.816 80.036c-.637.912-1.875.61-2.45.053-.573-.557-.816-1.365-1.037-2.135-.504-1.76-1.013-3.605-.638-5.396.09-.544.328-1.051.687-1.468a1.56 1.56 0 0 1 1.48-.494c.624.166 1.012.78 1.292 1.363a12.9 12.9 0 0 1 1.267 5.52 4.5 4.5 0 0 1-.602 2.557M101.565 81.345a3.332 3.332 0 0 1-.516-3.056 5.9 5.9 0 0 1 1.805-2.626 9.7 9.7 0 0 1 3.23-1.913 3.4 3.4 0 0 1 1.453-.247 1.52 1.52 0 0 1 1.22.74c.34.65.014 1.44-.339 2.084a24.6 24.6 0 0 1-2.122 3.242c-.636.822-1.364 1.634-2.334 2.006-.969.372-1.976.328-2.49-.347"/>
        <path fill="#e1e1e1" d="M99.86 93.805a2 2 0 0 1-.058-.415l-.11-1.132a16 16 0 0 0-.254-1.66 13 13 0 0 0-.601-1.96 7.2 7.2 0 0 0-.997-1.773c-.337-.44-.768-.799-1.261-1.051a3.5 3.5 0 0 0-1.062-.332 2 2 0 0 1-.411-.06q.21-.026.418-.006c.384.029.759.127 1.108.289.519.246.974.609 1.33 1.06.431.549.78 1.158 1.033 1.81q.385.969.597 1.99.16.835.22 1.682c.036.48.05.87.056 1.139q.019.21-.008.42"/>
        <path fill="#e1e1e1" d="M99.781 92.934a1 1 0 0 1-.01-.193v-.55a60 60 0 0 0-.024-2.022c-.042-1.707-.188-3.545-.471-6.135-.268-2.435-.628-5.27-1.007-7.112a31 31 0 0 0-.24-1.127c-.074-.33-.137-.616-.198-.847l-.128-.535a.8.8 0 0 1-.033-.19q.043.087.066.18l.16.528c.07.229.142.512.225.842q.13.494.266 1.124c.47 2.179.823 4.382 1.058 6.6.284 2.595.412 4.958.423 6.67.01.855-.008 1.547-.03 2.025l-.033.55a.8.8 0 0 1-.024.192"/>
        <path fill="#e1e1e1" d="M99.77 88.376a4 4 0 0 1 .003-.575c.021-.37.072-.904.176-1.558q.188-1.148.504-2.27c.247-.917.563-1.815.946-2.685a14.3 14.3 0 0 1 2.777-4.339q.308-.325.654-.61c.1-.084.189-.17.279-.236l.253-.176q.23-.174.483-.31-.835.66-1.581 1.416a15 15 0 0 0-2.708 4.324 21 21 0 0 0-.951 2.66q-.326 1.11-.537 2.247a23 23 0 0 0-.229 1.542 4 4 0 0 1-.07.57M104.161 96.416l-.456 6.257h-8.01l-.456-6.257zM104.935 93.95H94.284v2.466h10.651z"/>
        <path fill="#ececec" d="M104.935 102.434v.683H94.46v-.683z"/>
        <path fill="#e1e1e1" d="m103.944 104.321.49-1.204h-9.593l.572 1.204z"/>
        <path fill="#f5f5f5" d="M95.388 98.461q.015.03.037.058l.12.159.467.6.02.026.02-.028 1.147-1.591h-.066l1.129 1.603.035.05.04-.047 1.339-1.598h-.077l.073.092 1.197 1.506.04.05.037-.052 1.129-1.604-.065.003 1.39 1.59.025.029.019-.032.436-.734.111-.196a.04.04 0 0 0 .028 0q.014-.005.021-.019c.007-.014.005-.019.002-.028a.03.03 0 0 0-.017-.023q-.013-.007-.027-.005a.04.04 0 0 0-.024.015.04.04 0 0 0 .005.052l-.124.189-.457.72.043-.003-1.368-1.61-.035-.04-.031.044-1.14 1.596.077-.002-1.194-1.508-.074-.093-.038-.048-.039.047-1.335 1.601.075.003-1.14-1.596-.033-.046-.033.046-1.122 1.609.04-.001-.485-.584-.13-.151a.3.3 0 0 0-.048-.049M95.128 96.375c0 .027 2.007.05 4.483.05s4.483-.023 4.483-.05-2.007-.05-4.483-.05-4.483.022-4.483.05M94.723 103.185c0 .028 2.181.05 4.872.05s4.872-.022 4.872-.05-2.181-.05-4.872-.05-4.872.022-4.872.05"/>
    </g>
</svg>
