<svg width="240" height="126" viewBox="0 0 240 126" fill="none" xmlns="http://www.w3.org/2000/svg">
<g clip-path="url(#clip0_1619_37394)">
<g opacity="0.25">
<path opacity="0.35" fill-rule="evenodd" clip-rule="evenodd" d="M44.189 8.39356C73.009 -11.9001 91.4867 12.5485 115.256 14.653C118.146 14.9238 121.057 14.839 123.926 14.4005C136.361 12.4763 146.986 8.92871 156.871 6.20485C167.695 3.19839 177.688 1.21412 188.199 3.45694C188.65 3.55315 189.107 3.66138 189.558 3.76962C190.82 4.08229 192.083 4.45509 193.358 4.89403L194.163 5.18867C194.765 5.41114 195.408 5.65767 196.033 5.92224L196.364 6.06054C197.531 6.54759 198.709 7.10679 199.894 7.72011L200.525 8.05082L200.621 8.10494L200.898 8.24925C201.229 8.42963 201.571 8.62205 201.902 8.81446L202.004 8.86858C203.147 9.51797 204.305 10.2335 205.48 11.0152L206.081 11.4241L207.181 12.1877C208.416 13.0623 209.575 14.0399 210.645 15.11L211.186 15.6632C232.231 37.5923 234.727 103.38 164.67 122.224C112.556 136.24 60.2857 104.005 42.0064 75.7203C24.5328 48.608 28.3029 19.5776 44.189 8.39356Z" fill="url(#paint0_linear_1619_37394)"/>
</g>
<g opacity="0.1">
<path d="M148.567 49.7685C151.454 50.1353 154.334 50.4841 157.226 50.6584C160.105 50.8751 162.994 50.9172 165.879 50.7847C168.728 50.6984 171.549 50.1877 174.249 49.2695C175.545 48.7964 176.741 48.0824 177.772 47.1649C178.269 46.7329 178.689 46.2207 179.017 45.6497C179.136 45.4277 179.2 45.1802 179.203 44.9281C179.189 44.8293 179.154 44.7347 179.1 44.6506C179.046 44.5666 178.975 44.4952 178.891 44.4411C178.379 44.1232 177.784 43.9661 177.183 43.9901C176.524 43.9747 175.867 44.0723 175.241 44.2787C174.646 44.4485 174.11 44.7819 173.695 45.2408C173.525 45.4413 173.413 45.6846 173.371 45.9443C173.331 46.2009 173.356 46.4633 173.443 46.708C173.717 47.2282 174.176 47.6272 174.73 47.8264C175.358 48.0864 176.017 48.2682 176.69 48.3675C178.083 48.5704 179.493 48.6368 180.899 48.5659C183.776 48.4179 186.628 47.9602 189.407 47.201C192.212 46.478 194.917 45.4096 197.459 44.0202C195.014 45.6225 192.362 46.8828 189.576 47.7662C186.791 48.6777 183.909 49.2609 180.989 49.504C179.505 49.6363 178.011 49.6061 176.534 49.4138C175.766 49.3077 175.014 49.1057 174.297 48.8125C173.471 48.5121 172.791 47.9077 172.397 47.1228C172.217 46.6895 172.163 46.2145 172.24 45.7519C172.308 45.2908 172.499 44.8566 172.793 44.4952C173.345 43.8607 174.064 43.394 174.868 43.1483C175.623 42.8918 176.416 42.7677 177.213 42.7815C178.066 42.756 178.907 42.9955 179.618 43.467C179.835 43.6246 180.017 43.8268 180.149 44.0601C180.282 44.2935 180.363 44.5525 180.388 44.8199C180.406 45.2964 180.298 45.7694 180.075 46.1908C179.678 46.8714 179.17 47.4811 178.572 47.9947C177.429 49.0153 176.094 49.7982 174.645 50.2977C171.826 51.2179 168.88 51.6886 165.915 51.6927C160.078 51.7137 154.258 51.0682 148.567 49.7685Z" fill="#3F95D2"/>
</g>
<g opacity="0.1">
<path d="M156.336 86.4414C160.012 87.4103 163.754 88.1077 167.532 88.5279C169.414 88.7504 171.296 88.9127 173.19 89.021L176.022 89.1533H178.86C182.646 89.1498 186.428 88.9048 190.183 88.4197C192.077 88.2333 193.935 87.8725 195.811 87.5658C197.687 87.2592 199.527 86.7721 201.415 86.4354C200.513 86.7421 199.611 87.0367 198.691 87.3253C197.771 87.614 196.887 87.9266 195.943 88.1431C194.079 88.5881 192.221 89.0751 190.321 89.3457C186.538 90.0069 182.706 90.3449 178.866 90.3558C175.025 90.3817 171.189 90.0779 167.4 89.4479C163.61 88.8689 159.898 87.8603 156.336 86.4414Z" fill="#3F95D2"/>
</g>
<g opacity="0.1">
<path d="M199.485 66.7792C201.482 66.7352 203.475 66.5806 205.456 66.3162C206.442 66.1839 207.422 66.0396 208.396 65.8592L209.857 65.5886L211.3 65.2519C213.232 64.8083 215.139 64.2624 217.013 63.6164C218.907 63.0151 220.735 62.2214 222.623 61.4878C220.978 62.6764 219.21 63.6843 217.349 64.4943C215.49 65.317 213.557 65.9632 211.577 66.4244C209.593 66.8905 207.57 67.1663 205.534 67.2482C203.506 67.3607 201.471 67.203 199.485 66.7792Z" fill="#3F95D2"/>
</g>
<path opacity="0.3" d="M143.066 84.0422C143.066 84.0422 146.072 87.0486 125.496 86.1828H90.3623L91.8956 80.3262L129.278 82.3585L143.066 84.0422Z" fill="url(#paint1_linear_1619_37394)"/>
<path opacity="0.3" d="M122.465 73.5797C122.465 73.5797 128.43 78.9012 113.079 79.755L90.771 80.3262L94.6553 75.0409L122.465 73.5797Z" fill="url(#paint2_linear_1619_37394)"/>
<path opacity="0.3" d="M98.2392 79.7611C98.2392 79.7611 95.6837 83.1884 77.7953 82.7675C59.9068 82.3466 15.3751 81.4808 15.3751 81.4808H0C0 81.4808 2.55549 69.046 39.3967 73.7481C39.3967 73.7481 40.5993 70.5974 65.0779 70.886L84.9206 75.0349L98.2392 79.7611Z" fill="url(#paint3_linear_1619_37394)"/>
<path d="M93.543 57.4351C93.543 57.4351 92.4066 42.6072 105.689 39.4564L110.554 40.3644L121.317 52.2159L115.857 56.1543L98.8163 77.2417C98.8163 77.2417 97.6859 80.6269 91.8714 80.6269C86.0569 80.6269 69.0223 78.0714 62.5223 79.0215C62.2496 77.7736 62.2531 76.4811 62.5325 75.2347C62.8119 73.9883 63.3605 72.818 64.1398 71.806C64.1398 71.806 82.1786 72.4975 84.6318 71.8421C87.0851 71.1866 93.2003 57.9101 93.543 57.4351Z" fill="#1D5980" stroke="#12405D" stroke-width="0.300646" stroke-linecap="round" stroke-linejoin="round"/>
<path d="M121.768 60.0807C121.768 60.0807 124.389 72.2148 120.565 75.9008C116.741 79.5867 106.399 78.1135 105.448 78.0414C104.498 77.9692 98.72 77.8369 97.776 78.4923L104.324 70.3268L109.465 70.3809C109.465 70.3809 110.668 65.6728 109.808 63.5141L115.821 56.1543L119.068 59.3652C119.068 59.3652 120.914 60.3573 121.768 60.0807ZM87.7885 68.2042C87.7885 68.2042 84.3371 67.7773 83.0503 67.2542C81.7636 66.731 82.2145 72.0645 82.2145 72.0645L84.1808 71.9442C84.1808 71.9442 84.8783 72.0525 85.6479 71.1445C86.4176 70.2366 87.7885 68.2042 87.7885 68.2042Z" fill="#1D5980" stroke="#12405D" stroke-width="0.300646" stroke-linecap="round" stroke-linejoin="round"/>
<path d="M62.3179 78.4383C62.3179 78.4383 57.0205 78.9313 55.4091 79.2861C53.7976 79.6408 45.8665 79.7791 44.8684 79.0937C43.8703 78.4082 45.1209 77.9452 49.6787 76.6344C54.2365 75.3236 55.0423 75.3717 55.2227 73.9526C55.403 72.5336 57.1468 70.1224 61.5422 71.1325C61.7468 71.5215 62.0525 71.848 62.4271 72.0776C62.8018 72.3073 63.2314 72.4316 63.6708 72.4373C63.6708 72.4373 61.9331 74.0909 62.3179 78.4383ZM82.846 67.2241C82.846 67.2241 80.3687 65.763 79.4608 65.6548C78.5528 65.5465 75.384 66.0757 75.5043 67.4586C75.6245 68.8416 75.7448 69.7195 75.1254 70.0683C74.5061 70.417 72.119 72.0225 70.7661 72.0465H82.0103C82.0103 72.0465 81.7757 68.0419 82.846 67.2241Z" fill="#3F95D2" stroke="#12405D" stroke-width="0.300646" stroke-miterlimit="10"/>
<path d="M151.207 51.0492C151.207 51.0492 154.472 60.3873 155.566 61.3734C156.661 62.3595 163.936 66.2379 171.922 66.7309C171.922 66.7309 171.483 63.8327 172.908 63.1773C172.908 63.1773 165.091 60.6759 164.429 60.0386C163.768 59.4012 159.481 58.2347 158.062 46.3351L154.634 44.1885L151.207 51.0492Z" fill="#B8D482" stroke="#12405D" stroke-width="0.300646" stroke-linecap="round" stroke-linejoin="round"/>
<path d="M154.207 43.7617L152.061 45.0484C151.261 49.4619 148.363 46.2029 148.363 46.2029C148.363 46.2029 148.363 38.6507 148.11 35.8065C147.858 32.9624 148.988 32.8001 148.91 32.6377C148.832 32.4754 147.671 32.9624 146.691 33.5818C145.711 34.2011 135.946 32.8602 131.924 35.6201C121.221 42.9198 109.201 38.5064 107.523 38.326C105.845 38.1456 106.393 39.4744 106.393 39.4744C109.129 41.0799 109.399 45.7459 109.784 48.1511C110.169 50.5563 116.783 60.8985 118.701 60.9526C119.615 60.9526 123.842 60.0507 128.19 59.0465C128.28 62.5761 128.364 65.33 128.382 65.6607C128.436 66.6408 128.821 75.0649 128.659 76.8147C128.572 78.3632 128.584 79.9157 128.695 81.4627C128.695 81.4627 133.745 81.5168 134.07 80.645C134.395 79.7731 134.948 63.905 135.381 62.6483C135.609 61.9928 136.241 59.5215 136.812 57.0322C137.744 56.8217 138.43 56.6774 138.718 56.6293C140.522 56.3587 148.94 52.4203 150.78 51.4943C152.62 50.5683 152.897 49.5882 154.147 48.2593C154.452 47.9709 154.695 47.6244 154.863 47.2404C155.031 46.8563 155.121 46.4424 155.127 46.0232C155.132 45.6039 155.054 45.1878 154.896 44.7994C154.738 44.411 154.504 44.0581 154.207 43.7617Z" fill="#B8D482" stroke="#12405D" stroke-width="0.300646" stroke-linecap="round" stroke-linejoin="round"/>
<path d="M148.91 32.6377C148.91 32.6377 152.379 36.1733 151.916 45.8C151.916 45.8 151.622 50.3217 148.339 46.2029L148.116 36.1853C148.116 36.1853 147.78 33.732 148.91 32.6377Z" fill="#1D5980" stroke="#12405D" stroke-width="0.300646" stroke-linecap="round" stroke-linejoin="round"/>
<path d="M151.85 37.9772C151.85 37.9772 149.824 27.9837 153.269 26.0355C156.715 24.0874 155.187 22.0129 159.18 22.6803C163.173 23.3478 164.977 21.8866 168.314 24.7548C171.651 27.623 172.414 25.8491 172.414 25.8491C172.414 25.8491 172.727 31.2067 170.773 32.74C168.819 34.2732 169.516 35.4818 169.516 35.4818L168.362 36.1854L151.85 37.9772Z" fill="#1D5981" stroke="#123F5D" stroke-width="0.300646" stroke-linecap="round" stroke-linejoin="round"/>
<path d="M158.032 32.0003C159.469 32.0003 161.916 28.4407 162.842 28.8255C163.768 29.2103 166.618 32.8181 167.983 32.8722C169.348 32.9263 168.969 33.8583 168.53 35.6081C168.091 37.3578 163.852 45.6617 159.288 46.4313C159.288 46.4313 155.488 46.756 154.207 43.7556C154.207 43.7556 148.7 47.1529 148.363 46.1968C147.563 43.8999 148.207 36.4739 148.207 36.4739C148.207 36.4739 151.52 35.2713 151.628 35.5479C151.736 35.8245 151.959 37.2977 153.053 36.8588C154.147 36.4198 151.682 34.3393 153.053 32.5896C154.424 30.8398 154.64 31.2246 155.404 33.3051C156.168 35.3856 156.282 35.1631 156.282 35.1631C156.282 35.1631 156.871 31.9702 158.032 32.0003ZM129.53 81.4386C129.53 81.4386 128.466 83.6333 130.613 84.3428C132.759 85.0524 141.839 84.7818 142.711 84.3428C143.583 83.9039 141.238 83.0801 140.468 83.1102C139.698 83.1403 134.545 81.9377 134.545 81.9377L133.709 80.9275C133.709 80.9275 130.366 81.4326 129.53 81.4386ZM171.922 66.731C171.922 66.731 173.052 68.8115 173.93 69.0279C174.808 69.2444 175.644 71.2707 177.231 69.9599C178.818 68.6491 180.508 68.5409 180.021 67.2541C179.534 65.9673 178.488 65.9673 178.157 66.1838C177.826 66.4003 177.177 65.805 177.117 65.2578C177.057 64.7106 177.333 64.6024 177.772 64.3318C178.072 64.1631 178.414 64.0838 178.758 64.1033C178.758 64.1033 179.853 63.1773 179.528 63.1232C179.203 63.0691 178.596 62.6843 177.941 63.1232C176.951 63.5612 175.897 63.8373 174.82 63.941C174.495 63.941 172.793 63.7125 172.613 63.3397C172.613 63.3698 171.597 64.3258 171.922 66.731Z" fill="#E9D2BE" stroke="#11405D" stroke-width="0.300646" stroke-linecap="round" stroke-linejoin="round"/>
<path d="M174.784 69.6232L177.904 66.2199C177.519 65.9566 177.236 65.5677 177.105 65.1195C176.93 64.41 173.665 68.9137 173.665 68.9137C173.665 68.9137 174.633 69.2624 174.784 69.6232Z" fill="#123F5D" stroke="#123F5D" stroke-width="0.601293" stroke-linecap="round" stroke-linejoin="round"/>
<path d="M178.872 62.6542L179.474 61.9447C179.874 62.1389 180.251 62.3769 180.598 62.6542C180.654 62.9907 180.654 63.3339 180.598 63.6704L178.133 66.1838C178.133 66.1838 177.207 66.262 177.081 65.1195C177.121 64.9433 177.196 64.7769 177.301 64.63C177.406 64.4832 177.54 64.3588 177.694 64.2641C177.848 64.1695 178.019 64.1066 178.198 64.0789C178.376 64.0513 178.559 64.0596 178.734 64.1033L179.528 63.2856L178.872 62.6542Z" fill="#123F5D" stroke="#123F5D" stroke-width="0.601293" stroke-linecap="round" stroke-linejoin="round"/>
<path d="M186.988 59.74C188.984 56.8885 189.304 53.6694 187.704 52.5499C186.104 51.4305 183.19 52.8346 181.195 55.6862C179.199 58.5377 178.879 61.7569 180.479 62.8763C182.079 63.9957 184.993 62.5916 186.988 59.74Z" fill="#3F95D2" stroke="#12405D" stroke-width="0.300646" stroke-miterlimit="10"/>
<path d="M187.195 59.8891C189.191 57.0375 189.677 53.9342 188.281 52.9575C186.885 51.9809 184.136 53.5008 182.141 56.3523C180.146 59.2039 179.66 62.3072 181.055 63.2839C182.451 64.2605 185.2 62.7406 187.195 59.8891Z" fill="#D6E9F5"/>
<path d="M188.289 52.9675C188.198 52.9016 188.099 52.8471 187.994 52.8051C187.908 52.712 187.811 52.6292 187.706 52.5586C186.106 51.4402 183.196 52.8412 181.2 55.6974C179.203 58.5535 178.885 61.7644 180.484 62.9129C180.585 62.9899 180.696 63.0526 180.815 63.0993C180.888 63.1827 180.971 63.2573 181.061 63.3217C182.456 64.2958 185.21 62.7806 187.206 59.9305C189.203 57.0803 189.684 53.9416 188.289 52.9675Z" stroke="#12405D" stroke-width="0.300646" stroke-miterlimit="10"/>
<path opacity="0.1" d="M128.28 58.9744C128.28 58.9744 125.712 48.6923 130.426 41.4047L128.28 58.9744ZM136.854 56.8338C136.854 56.8338 140.282 47.8144 138.568 42.2645L136.854 56.8338ZM153.36 49.1673C153.36 49.1673 153.131 56.1844 155.627 61.4878C155.627 61.4878 152.572 56.0762 151.291 51.2659C151.291 51.2899 153.282 49.6424 153.36 49.1673ZM109.82 48.3135C109.82 48.3135 111.023 44.3269 110.385 42.4569C109.748 40.5869 115.063 40.2682 116.621 40.8936C118.178 41.5189 123.055 39.3122 123.055 39.3122C123.055 39.3122 116.759 40.154 114.035 39.5888C111.311 39.0235 108.167 38.5425 107.421 38.314C106.675 38.0855 106.026 38.7109 106.339 39.3362C106.327 39.3362 109.435 39.9736 109.82 48.3135Z" fill="#1D5980"/>
<path d="M201.108 76.0271C201.108 76.0271 202.437 83.8439 202.347 84.5654C202.347 84.5654 213.561 81.559 222.508 77.5303L217.8 69.8759C217.8 69.8759 207.873 74.0368 201.108 76.0271Z" fill="white" stroke="#14405D" stroke-width="0.300646" stroke-miterlimit="10"/>
<path opacity="0.7" d="M205.378 75.4076L207.386 82.3826M206.514 74.9506L208.552 81.9136M207.632 74.7161L209.593 81.4927M208.643 74.3073L210.609 81.0838M211.378 73.3512L214.03 79.9233M217.692 76.1652L218.486 78.1255M218.63 75.7504L219.418 77.7106M203.291 76.069L204.89 83.2064L206.279 82.8336L204.409 75.7624L203.291 76.069Z" stroke="#B3D7EB" stroke-width="0.300646"/>
<path d="M208.348 42.7394C208.348 42.7394 208.306 54.7653 207.999 55.7574C207.999 55.7574 225.436 54.2061 239.795 50.4781L234.763 37.881C234.763 37.881 218.918 41.5068 208.348 42.7394Z" fill="white" stroke="#14405D" stroke-width="0.300646" stroke-miterlimit="10"/>
<path opacity="0.7" d="M214.854 42.9138L216.051 53.8092M216.664 42.523L217.909 53.4124M218.39 42.4629L219.568 53.0516M220.001 42.1201L221.18 52.7029M224.318 41.3986L226.573 51.855M232.989 47.207L233.662 50.3278M234.486 46.8342L235.16 49.9489M211.583 43.3528L212.124 54.3925L214.289 54.1881L213.321 43.1904L211.583 43.3528Z" stroke="#B3D7EB" stroke-width="0.300646"/>
<path d="M201.295 22.6984C201.295 22.6984 206.243 27.7011 206.845 28.0018C206.845 28.0018 198.902 34.5559 191.355 38.9212L188.205 31.5674C188.205 31.5674 196.358 26.5466 201.295 22.6984Z" fill="white" stroke="#14405D" stroke-width="0.300646" stroke-miterlimit="10"/>
<path opacity="0.7" d="M198.643 25.4583L202.642 30.5091M197.723 26.0415L201.698 31.1104M196.977 26.727L200.856 31.6456M196.16 27.2441L200.038 32.1627M194.055 28.7293L197.428 34.0387M192.829 34.7422L193.833 36.3236M192.047 35.1992L193.051 36.7866M200.194 24.2917L204.524 29.1322L203.532 29.9439L199.395 24.9411L200.194 24.2917Z" stroke="#B3D7EB" stroke-width="0.300646"/>
</g>
<defs>
<linearGradient id="paint0_linear_1619_37394" x1="183.669" y1="117.025" x2="69.0508" y2="-15.1401" gradientUnits="userSpaceOnUse">
<stop stop-color="#7DB4E0"/>
<stop offset="0.1" stop-color="#74B0DE"/>
<stop offset="0.45" stop-color="#59A3D9"/>
<stop offset="0.76" stop-color="#499BD5"/>
<stop offset="1" stop-color="#4398D4"/>
</linearGradient>
<linearGradient id="paint1_linear_1619_37394" x1="90.3623" y1="83.3326" x2="143.216" y2="83.3326" gradientUnits="userSpaceOnUse">
<stop stop-color="#231F20" stop-opacity="0"/>
<stop offset="0.04" stop-color="#1D5980" stop-opacity="0.04"/>
<stop offset="1" stop-color="#1D5980"/>
</linearGradient>
<linearGradient id="paint2_linear_1619_37394" x1="90.771" y1="76.953" x2="123.602" y2="76.953" gradientUnits="userSpaceOnUse">
<stop stop-color="#231F20" stop-opacity="0"/>
<stop offset="0.04" stop-color="#1D5980" stop-opacity="0.04"/>
<stop offset="1" stop-color="#1D5980"/>
</linearGradient>
<linearGradient id="paint3_linear_1619_37394" x1="0" y1="76.8328" x2="98.2392" y2="76.8328" gradientUnits="userSpaceOnUse">
<stop stop-color="#231F20" stop-opacity="0"/>
<stop offset="0.04" stop-color="#1D5980" stop-opacity="0.04"/>
<stop offset="1" stop-color="#1D5980"/>
</linearGradient>
<clipPath id="clip0_1619_37394">
<rect width="240" height="125.219" fill="white" transform="translate(0 0.390381)"/>
</clipPath>
</defs>
</svg>
