<svg xmlns="http://www.w3.org/2000/svg" width="164" height="120" fill="none" viewBox="0 0 164 120">
    <path fill="url(#a)" fill-rule="evenodd" d="M14.438 15.394C25.58 3.43 42.206-2.997 66.775 1.374 79.294 3.603 88.28 7.717 96.09 7.368c15.282-.683 27.645-9.24 50.375 4.257 19.869 11.802 24.364 45.41 5.621 67.235-13.328 15.518-32.261 26.022-67.389 28.382-37.125 2.495-86.401-20.07-84.65-61.058.548-12.9 3.948-19.577 14.392-30.789" clip-rule="evenodd" opacity=".4"/>
    <ellipse cx="119.912" cy="116.057" fill="#3c5467" opacity=".2" rx="22.338" ry="3.943"/>
    <path fill="#efc555" stroke="#133f5d" stroke-width=".25" d="m70.137 74.396 18.781-23.33-25.006-20.868-16.568 18.895-2.467 4.726a1.32 1.32 0 0 0-.184 1.513c.087.16.206.3.35.41l22.56 18.83a1.877 1.877 0 0 0 2.534-.176Z"/>
    <path fill="#fff" fill-opacity=".4" stroke="#133f5d" stroke-width=".25" d="m57.36 57.429-2.838 4.02 1.096.234.373 1.002.727.043.337.858.89.256.685 1.076 2.744-4.06z"/>
    <path fill="#efc555" stroke="#133f5d" stroke-width=".25" d="M87.72 50.392 73.163 70.639l6.925-.253L94.364 49.95z"/>
    <path fill="#133f5d" stroke="#133f5d" stroke-width=".25" d="M87.72 50.392 73.163 70.639l6.925-.253L94.364 49.95z" opacity=".3"/>
    <path fill="#efc555" stroke="#133f5d" stroke-width=".25" d="M57.182 29.82 40.359 48.556l6.966.513L63.88 30.116z"/>
    <path fill="#133f5d" stroke="#133f5d" stroke-width=".25" d="M57.182 29.82 40.359 48.556l6.966.513L63.88 30.116z" opacity=".4"/>
    <path fill="#133f5d" stroke="#133f5d" stroke-width=".25" d="m82.968 56.113 5.191-5.746-24.216-20.169-3.098 7.408z" opacity=".1"/>
    <path fill="#133f5d" stroke="#133f5d" stroke-width=".25" d="M47.315 49.07 63.88 30.197l-3.093 7.404-11.666 12.975z" opacity=".2"/>
    <path stroke="#133f5d" stroke-width=".25" d="m47.321 49.143 25.812 21.429"/>
    <path fill="#3c5467" d="m28.376 101.918 24.718 14.197 20.733-11.905-24.719-14.197z" opacity=".2"/>
    <path fill="#efc555" stroke="#133f5d" stroke-width=".25" d="M71.864 103.756 53.091 114.54l-21.14-12.171 18.773-10.781z"/>
    <path fill="#3c5467" stroke="#133f5d" stroke-width=".25" d="M71.864 103.756 53.091 114.54l-21.14-12.171 18.773-10.781z" opacity=".5"/>
    <path fill="#efc555" stroke="#133f5d" stroke-width=".25" d="M50.724 76.972v14.616L31.951 102.37V87.755z"/>
    <path fill="#3c5467" stroke="#133f5d" stroke-width=".25" d="M50.724 76.972v14.616L31.951 102.37V87.755z" opacity=".23"/>
    <path fill="#efc555" stroke="#133f5d" stroke-width=".25" d="M53.091 99.923v14.617l-21.14-12.171V87.755z"/>
    <path fill="#3c5467" stroke="#133f5d" stroke-width=".25" d="M53.091 99.923v14.617l-21.14-12.171V87.755z" opacity=".38"/>
    <path fill="#efc555" stroke="#133f5d" stroke-width=".25" d="M71.864 89.14v14.617l-21.14-12.169V76.972z"/>
    <path fill="#3c5467" stroke="#133f5d" stroke-width=".25" d="M71.864 89.14v14.617l-21.14-12.169V76.972z" opacity=".4"/>
    <path fill="#efc555" stroke="#133f5d" stroke-width=".25" d="M71.864 103.756V89.14L53.09 99.923v14.617z"/>
    <path fill="#3c5467" stroke="#133f5d" stroke-width=".25" d="M71.864 103.756V89.14L53.09 99.923v14.617z" opacity=".23"/>
    <path fill="#efc555" stroke="#133f5d" stroke-width=".25" d="m50.724 76.971.025-8.092 21.09 12.184.025 8.077z"/>
    <path fill="#3c5467" stroke="#133f5d" stroke-width=".25" d="m50.724 76.971.025-8.092 21.09 12.184.025 8.077z" opacity=".2"/>
    <path fill="#efc555" stroke="#133f5d" stroke-width=".25" d="m53.09 99.923 1.762-7.08L73.455 82.16l-1.591 6.98z"/>
    <path fill="#3c5467" stroke="#133f5d" stroke-width=".25" d="m53.09 99.923 1.762-7.08L73.455 82.16l-1.591 6.98z" opacity=".3"/>
    <path fill="#efc555" stroke="#133f5d" stroke-width=".25" d="m31.95 87.755-2.24-7.342 18.773-10.781 2.24 7.34z"/>
    <path fill="#3c5467" stroke="#133f5d" stroke-width=".25" d="m31.95 87.755-2.24-7.342 18.773-10.781 2.24 7.34z" opacity=".1"/>
    <path fill="#efc555" stroke="#133f5d" stroke-width=".25" d="m31.951 87.755-4.418-6.069 21.142 12.168 4.416 6.07z"/>
    <path fill="#3c5467" stroke="#133f5d" stroke-width=".25" d="m31.951 87.755-4.418-6.069 21.142 12.168 4.416 6.07z" opacity=".45"/>
    <g fill="#fff" opacity=".7">
        <path d="M58.618 110.193a.12.12 0 0 1-.082-.033.12.12 0 0 1-.035-.081v-2.572a.12.12 0 0 1 .117-.117.117.117 0 0 1 .114.117v2.572q0 .046-.033.081a.12.12 0 0 1-.08.033"/>
        <path d="M58.28 108.398a.2.2 0 0 1-.045 0 .118.118 0 0 1-.061-.152l.412-.945.458.527a.116.116 0 0 1-.02.154.12.12 0 0 1-.078.029.12.12 0 0 1-.078-.031l-.216-.253-.254.607a.13.13 0 0 1-.05.05.12.12 0 0 1-.067.014M59.685 109.588a.117.117 0 0 1-.114-.117v-2.569a.113.113 0 0 1 .114-.114.113.113 0 0 1 .114.114v2.567q0 .022-.007.045a.12.12 0 0 1-.107.074"/>
        <path d="M59.347 107.793a.2.2 0 0 1-.046 0 .11.11 0 0 1-.061-.064.11.11 0 0 1 .003-.088l.41-.957.457.524q.032.033.033.081 0 .046-.033.081a.1.1 0 0 1-.037.025.11.11 0 0 1-.089 0 .1.1 0 0 1-.037-.025l-.216-.253-.254.607a.1.1 0 0 1-.053.057.12.12 0 0 1-.077.012"/>
    </g>
    <g fill="#fff" opacity=".7">
        <path d="M55.542 111.938a.26.26 0 0 1-.125-.031.3.3 0 0 1-.14-.276v-.316q.001-.048.035-.081a.12.12 0 0 1 .082-.033c.03 0 .06.012.08.033q.034.033.034.081v.316c0 .046 0 .071.023.076s.036 0 .074-.02a.67.67 0 0 0 .216-.519v-1.317q0-.047.034-.08a.113.113 0 0 1 .162 0q.032.033.033.08v1.317a.86.86 0 0 1-.328.716.36.36 0 0 1-.18.054"/>
        <path d="M54.327 110.877v-.198a3.25 3.25 0 0 1 1.474-2.532c.417-.238.814-.273 1.12-.096a1.1 1.1 0 0 1 .473 1.013v.066zm2.166-2.72c-.204.01-.402.071-.575.178a3.04 3.04 0 0 0-1.35 2.139l2.59-1.489a.85.85 0 0 0-.36-.759.6.6 0 0 0-.305-.069"/>
    </g>
    <path fill="#133f5d" d="M44.315 83.294c1.936-.279 3.705-1.52 4.835-3.08a7.3 7.3 0 0 0 1.146-2.415c.244-.811.284-1.67.117-2.501-.349-1.39-1.642-2.213-3.009-2.385a4.6 4.6 0 0 0-2.061.2 3.5 3.5 0 0 0-1.705 1.266 2.1 2.1 0 0 0-.479 1.104.63.63 0 0 0 .57.645c.41.035.82-.069 1.163-.293.42-.234.789-.547 1.087-.922a7.7 7.7 0 0 0 1.41-2.658c.204-.832.204-1.7 0-2.532a4.66 4.66 0 0 0-1.153-2.332 4.28 4.28 0 0 0-2.479-1.086 6.1 6.1 0 0 0-2.733.253 2.9 2.9 0 0 0-1.051.572c-.22.203-.469.537-.38.866.09.33.573.476.901.433.486-.09.931-.33 1.273-.686.38-.373.704-.8.96-1.266.19-.336.288-.714.287-1.099-.033-1.605-1.817-2.643-3.215-2.937a4.2 4.2 0 0 0-1.147-.076c-.13 0-.051.213.053.205.752-.034 1.5.134 2.163.486.656.3 1.206.787 1.581 1.4a1.92 1.92 0 0 1-.061 1.96c-.25.432-.56.826-.921 1.17-.303.273-.764.59-1.189.56a.38.38 0 0 1-.336-.21.54.54 0 0 1 .15-.462c.225-.24.503-.426.812-.541a5.4 5.4 0 0 1 2.415-.395c.85.015 1.677.28 2.378.76a3.7 3.7 0 0 1 1.236 1.951c.246.777.322 1.597.224 2.406a6.15 6.15 0 0 1-.923 2.278c-.471.775-1.062 1.52-1.947 1.823-.22.079-.677.193-.764-.124-.087-.316.163-.706.323-.952a3.23 3.23 0 0 1 1.482-1.243 4.1 4.1 0 0 1 1.855-.278c1.199.088 2.415.71 2.833 1.896.21.708.232 1.458.066 2.177a7 7 0 0 1-.843 2.239 8.03 8.03 0 0 1-3.79 3.288c-.376.162-.763.3-1.157.426-.041.015-.023.116.023.109"/>
    <path fill="#4195d5" d="M36.224 61.312c-1.018-.074-2.42.724-1.921 1.306s1.822-.36 1.822-.36-.125 1.178.308 1.312 1.018-.99.585-1.71a1.34 1.34 0 0 0 1.273-.161c.616-.45-.036-.876-.903-.8 0 0 .62-2.026-.634-1.638-.629.19-.85.921-.53 2.05"/>
    <path fill="#fff" stroke="#133f5d" stroke-width=".25" d="M36.224 61.312c-1.018-.074-2.42.724-1.921 1.306s1.822-.36 1.822-.36-.125 1.178.308 1.312 1.018-.99.585-1.71a1.34 1.34 0 0 0 1.273-.161c.616-.45-.036-.876-.903-.8 0 0 .62-2.026-.634-1.638-.629.19-.85.921-.53 2.05Z" opacity=".65"/>
    <path fill="#3c5467" d="M37.17 61.742a2 2 0 0 0-.177-.155c-.09-.068-.184-.134-.273-.2a2.3 2.3 0 0 0-.44-.25.47.47 0 0 0-.255-.04.127.127 0 0 0-.123.133.13.13 0 0 0 .022.064q.107.114.254.167l.138.073c.094.056.178.12.254.183s.178.124.255.187q.198.16.435.253a.05.05 0 0 0 .046 0c.13-.101-.061-.342-.135-.415"/>
    <path fill="#fcd5c3" stroke="#133f5d" stroke-width=".25" d="m93.372 46.683-.003.003-.36.359-.18.177h-.001l-.046.047c-.041.043-.08.083-.178.171-.397.35-.83.625-1.29.819a6.3 6.3 0 0 1-2.22.496h-.002a10 10 0 0 1-1.93-.105 21 21 0 0 1-6.739-2.339l.661-2.833c2.066.297 4.147.417 6.226.36h.005q.708-.046 1.409-.19a3 3 0 0 0 1.04-.4h.001l.004-.003a.7.7 0 0 0 .135-.112.3.3 0 0 0 .044-.062.2.2 0 0 0 .015-.041l.008-.009.016-.016.038-.041.137-.155.001-.002.274-.317c.24-.265.477-.57.709-.87q.188-.246.372-.475l.003-.004a52 52 0 0 0 2.086-2.942l.218-.335c.596-.917 1.198-1.841 1.783-2.79.576-.934 1.137-1.88 1.697-2.826l.234-.395c.484-.816.959-1.664 1.416-2.482l.366-.652 4.148 3.297c-.622 1.215-1.253 2.315-1.909 3.446a85 85 0 0 1-2.09 3.385 61 61 0 0 1-4.73 6.372q-.17.188-.333.373c-.338.38-.665.747-1.035 1.091Z"/>
    <path fill="#fcd5c3" stroke="#133f5d" stroke-linecap="round" stroke-linejoin="round" stroke-width=".25" d="M80.838 46.342s-5.755.734-5.822-2.316c-.055-2.285.727-3.381 1.783-2.484.602.527 1.378.82 2.181.822-.574-.5-.718-.643-1.366-.822 0 0-.641-.192-.144-.538.495-.346 2.927.218 3.891 2.492z"/>
    <path fill="#fcd5c3" d="M82.024 43.714c-.573 0-.807-.417-.951-.488l-2.378 2.365 1.609.695 1.147.571c1.164.58.573-3.143.573-3.143"/>
    <path fill="#fcd5c3" stroke="#133f5d" stroke-width=".25" d="M113.428 113.262h-4.72l-.469-8.316h4.719zM138.216 107.526l-4.173 1.148-4.33-7.885 4.173-1.147z"/>
    <path fill="#3c5467" stroke="#133f5d" stroke-width=".25" d="m133.562 107.174 3.893-1.21a.316.316 0 0 1 .368.15l1.622 2.902a.55.55 0 0 1 .028.469.54.54 0 0 1-.344.314c-1.362.4-2.042.523-3.746 1.056-1.051.325-3.699 1.345-5.192 1.649-1.492.303-1.972-1.148-1.393-1.408 2.596-1.165 3.66-2.489 4.279-3.518a.9.9 0 0 1 .485-.404ZM109.045 112.115h4.27a.37.37 0 0 1 .213.069.3.3 0 0 1 .12.172l.774 3.139a.48.48 0 0 1-.113.436.56.56 0 0 1-.201.142.6.6 0 0 1-.249.048c-1.542-.022-3.75-.106-5.705-.106-2.264 0-3.216.114-5.874.114-1.603 0-2.049-1.464-1.378-1.599 3.061-.605 4.556-.668 7.2-2.14.281-.168.607-.263.943-.275Z"/>
    <path fill="#000" d="m108.239 104.946.24 4.301h4.66l-.24-4.301zM133.936 99.642l-4.223 1.167 2.262 4.137 4.223-1.167z" opacity=".2"/>
    <path fill="#133f5d" stroke="#000" stroke-width=".25" d="M116.112 76.018c-1.114-3.443-2.438-9.565-3.485-14.833-.524-2.633-.977-5.05-1.3-6.808-.162-.88-.29-1.595-.379-2.09l-.101-.57-.012-.067 11.948-1.191.011.086.074.595a930.535 930.535 0 0 0 1.22 9.365c.757 5.59 1.713 12.198 2.501 16.26 1.028 5.298 3.476 11.83 5.664 17.033a185 185 0 0 0 3.785 8.399l.249.511.017.036-5.764 1.342-.089-.153-.386-.667a471 471 0 0 1-5.804-10.348c-3.318-6.101-6.933-13.133-8.149-16.9Z"/>
    <path fill="#000" d="M111.986 55.197c.648 6.739 2.09 14.337 3.603 19.785 1.487-7.797 1.291-17.644-3.603-19.785" opacity=".3"/>
    <path fill="#133f5d" stroke="#000" stroke-width=".25" d="M102.066 75.962c-.199-3.658.332-9.614.915-14.663a291 291 0 0 1 1.188-8.987l.013-.091 13.26-1.326-.007.027-.144.574a293.981 293.981 0 0 0-2.107 9.065c-1.168 5.426-2.377 11.886-2.524 15.986-.128 3.754.085 11.395.33 18.093a1314 1314 0 0 0 .476 11.458l.034.744.007.13h-5.794l-.038-.168-.168-.758c-.144-.657-.352-1.605-.602-2.765-.5-2.322-1.171-5.497-1.855-8.91-1.368-6.83-2.784-14.602-2.984-18.409Z"/>
    <path fill="#fcd5c3" stroke="#143f5d" stroke-linecap="round" stroke-linejoin="round" stroke-width=".25" d="M132.485 59.602s.405 5.464-.184 7.335c-.197.628-1.507.759-2.118.5-.867-.373-1.275-2.368-1.413-3.86 0 0-.242 1.45-.681 1.44-.362-.007-.211-2.1.647-3.803l1.124-2.518c.048-.17 2.625.906 2.625.906"/>
    <path fill="#fcd5c3" stroke="#133f5d" stroke-width=".25" d="M133.733 44.877a7 7 0 0 0-.12-.676c-.05-.22-.136-.53-.196-.72l-.345-1.077h-.001c-.955-2.848-2.049-5.565-3.224-8.247a139 139 0 0 0-3.704-7.812l-4.852 2.438 3.645 7.61c1.222 2.575 2.42 5.16 3.486 7.727v.001l.387.958.003.007c.021.064.039.106.055.146l.006.014c.018.046.036.09.053.157q.013.046.03.102c.023.08.051.17.069.27q.209.916.307 1.85l-.124.013c.142 1.318.224 2.72.27 4.12zm0 0 .001.003q.172 1.218.177 2.45a44 44 0 0 1-.214 4.547 73 73 0 0 1-1.358 8.6l-2.575-.285-.011-.919c-.03-2.514-.061-5.045-.151-7.52z"/>
    <path fill="#fcd5c3" stroke="#133f5d" stroke-width=".24" d="m112.002 17.29 4.904-4.17c-.245 1.338-.47 3.114-.434 4.796.019.913.116 1.802.33 2.58.206.75.524 1.403.993 1.875l-.015.04c-.029.071-.075.174-.147.298a3.5 3.5 0 0 1-.787.917c-.798.67-2.228 1.353-4.749 1.353-1.395 0-2.239-.173-2.726-.419-.242-.122-.391-.26-.479-.399a.73.73 0 0 1-.11-.437c.014-.31.189-.63.373-.884a3.4 3.4 0 0 1 .333-.393c1.538-.373 2.311-1.138 2.619-2.098.298-.93.15-2.022-.105-3.06Z"/>
    <path fill="#4195d5" stroke="#133f5d" stroke-width=".25" d="m131.534 34.13-.009-.025-.119-.324c-.103-.28-.255-.68-.448-1.163a48 48 0 0 0-1.598-3.584c-.661-1.321-1.428-2.663-2.247-3.723-.823-1.065-1.679-1.82-2.511-2.01zm0 0-7.014 5.008-.03-.07-.258-.595c-.222-.51-.538-1.235-.915-2.089a275 275 0 0 0-2.74-6.014c-1.015-2.145-.864-4.114-.04-5.44.822-1.325 2.324-2.025 4.065-1.63z"/>
    <path fill="#2377b7" d="m122.608 28.752-1.431 3.186c1.482 3.182 2.836 6.333 3.198 7.174-.051-3.764-.769-8.435-1.767-10.36"/>
    <path fill="#4195d5" stroke="#133f5d" stroke-width=".25" d="M124.535 23.308c-1.46 7.172-1.714 14.462-1.619 20.344.047 2.958.183 5.56.298 7.612l.034.62c.093 1.64.162 2.864.143 3.563h-19.78c-1.863-13.777-1.805-21.778-1.282-26.333.262-2.282.64-3.697.951-4.538.155-.42.293-.696.391-.866q.073-.126.113-.179l.014-.02a37.5 37.5 0 0 1 5.693-1.019 74 74 0 0 1 8.487 0c2.201.134 4.391.406 6.557.816Z"/>
    <path fill="#2377b7" d="M108.713 29.398c.107 2.927-5.057 10.48-5.057 10.48l-6.101-3.606a84 84 0 0 0 5.57-7.501c2.728-4.307 5.454-2.58 5.588.627"/>
    <path fill="#4195d5" stroke="#133f5d" stroke-width=".25" d="m102.908 38.905-.18.268-8.243-4.968a75 75 0 0 0 6.245-8.174l.001-.003c.747-1.19 1.534-1.92 2.297-2.296.761-.375 1.503-.4 2.171-.168 1.343.466 2.421 1.986 2.713 3.887.126.848-.129 2.007-.597 3.285-.467 1.274-1.139 2.646-1.829 3.912a58 58 0 0 1-2.578 4.257Z"/>
    <path fill="#fcd5c3" stroke="#133f5d" stroke-width=".25" d="M115.903 7.549q.137.514.267.984c.811 2.974 1.313 4.812.268 6.929-1.714 3.486-6.461 3.35-8.434.208-.895-1.427-1.657-3.467-1.827-5.462s.254-3.919 1.695-5.15h.001a4.95 4.95 0 0 1 4.715-.988c.805.25 1.533.701 2.113 1.31s.994 1.355 1.202 2.169Z"/>
    <mask id="b" fill="#fff">
        <path d="M118.02 15.106s-.484 1.205-3.722 1.238a5.4 5.4 0 0 1-1.604-.366c-.624-.477-.928-2.383-.928-2.383s1.933-2.192.701-3.087c-.918-.668-2.16.452-1.648 1.458.382.743-.909.4-.909.4a12.3 12.3 0 0 1-.391-2.626c-.053-1.581.169-3.335-.484-3.52a4.6 4.6 0 0 1-2.271-1.43c-.483-.643-1.305-3.935 2.987-4.674 2.479-.424 10.516.167 10.149 4.231.279.67.43 1.386.444 2.11-.067 1.659-.179 5.156-2.319 8.658"/>
    </mask>
    <path fill="#453c36" d="M118.02 15.106s-.484 1.205-3.722 1.238a5.4 5.4 0 0 1-1.604-.366c-.624-.477-.928-2.383-.928-2.383s1.933-2.192.701-3.087c-.918-.668-2.16.452-1.648 1.458.382.743-.909.4-.909.4a12.3 12.3 0 0 1-.391-2.626c-.053-1.581.169-3.335-.484-3.52a4.6 4.6 0 0 1-2.271-1.43c-.483-.643-1.305-3.935 2.987-4.674 2.479-.424 10.516.167 10.149 4.231.279.67.43 1.386.444 2.11-.067 1.659-.179 5.156-2.319 8.658"/>
    <path fill="#133f5d" d="m114.298 16.344.003.25h-.02zm-1.604-.366-.092.232-.032-.013-.028-.02zm-.928-2.383-.247.04-.018-.117.077-.088zm.701-3.087.147-.203zm-1.648 1.458-.223.114v-.001zm-.909.4-.064.241-.141-.037-.037-.14zm-.391-2.626-.25.01V9.75zm-.484-3.52.067-.242.002.001zm-2.271-1.43-.189.164-.006-.007-.005-.007zm2.987-4.674-.043-.246h.001zM119.9 4.347l-.231.096-.024-.057.006-.061zm.444 2.11.25-.004v.015zm-2.324 8.649.232.093h-.001v.002l-.001.003-.003.007-.009.018-.03.056a1.3 1.3 0 0 1-.123.171 2.2 2.2 0 0 1-.586.473c-.573.333-1.55.648-3.198.665l-.005-.5c1.589-.016 2.474-.32 2.952-.598.238-.138.378-.271.455-.363a1 1 0 0 0 .086-.124l.001-.001-.001.001-.001.002v.001zm-3.739 1.487a5.6 5.6 0 0 1-1.679-.383l.184-.465a5.2 5.2 0 0 0 1.53.35zm-1.739-.417c-.204-.156-.361-.409-.482-.665a6 6 0 0 1-.304-.834 11 11 0 0 1-.222-.955l-.011-.064-.003-.017-.001-.005v-.001l.247-.04.247-.04v.001l.001.004.002.015.01.059c.01.05.023.125.042.216.038.182.094.428.168.689.076.26.168.53.276.758.111.236.226.4.334.482zm-.776-2.581-.188-.165h.001v-.001l.004-.004.014-.017.056-.067c.048-.06.116-.145.195-.25.157-.214.351-.503.507-.815.158-.317.266-.636.272-.914.007-.265-.077-.485-.307-.652l.294-.405c.386.28.523.67.513 1.069-.009.385-.153.781-.325 1.125a6.665 6.665 0 0 1-.842 1.254l-.004.005-.002.002zm.554-2.885c-.343-.25-.753-.177-1.047.086-.296.264-.425.676-.231 1.056l-.446.227c-.318-.625-.083-1.275.344-1.656.428-.382 1.099-.535 1.674-.118zm-1.279 1.141c.111.216.158.47-.02.66a.55.55 0 0 1-.254.148 1 1 0 0 1-.253.035 2.3 2.3 0 0 1-.452-.04l-.153-.031-.045-.011-.012-.003-.004-.001h-.002l.064-.242.064-.242h.002l.009.003.036.008q.048.012.129.027c.108.019.238.035.351.032a.6.6 0 0 0 .13-.016c.031-.009.032-.016.024-.007-.043.047.021.064-.059-.091zm-1.373.578a12.5 12.5 0 0 1-.399-2.679l.5-.02c.034.869.162 1.731.383 2.572zm-.399-2.68c-.014-.402-.01-.814-.006-1.202.003-.391.005-.757-.011-1.078-.016-.325-.05-.583-.11-.764-.062-.185-.13-.232-.175-.245l.137-.48c.281.08.43.32.512.567.083.248.119.562.136.897.016.338.014.719.011 1.107-.004.391-.007.792.006 1.181zm-.3-3.288a4.87 4.87 0 0 1-2.394-1.507l.378-.327a4.37 4.37 0 0 0 2.149 1.351zm-2.405-1.52c-.151-.202-.304-.569-.386-1.002-.084-.44-.1-.974.048-1.516a2.98 2.98 0 0 1 1.022-1.55c.56-.455 1.356-.813 2.46-1.003l.085.493c-1.041.179-1.752.51-2.23.899a2.5 2.5 0 0 0-.855 1.293c-.123.454-.111.91-.039 1.29.074.389.205.675.295.795zm3.145-5.071c1.278-.219 3.943-.174 6.248.437 1.153.306 2.24.76 3.021 1.413.789.661 1.271 1.535 1.171 2.65l-.498-.045c.083-.918-.302-1.642-.994-2.221-.701-.587-1.708-1.017-2.828-1.314-2.242-.594-4.835-.633-6.036-.427zm10.421 4.38c.292.7.449 1.447.464 2.203l-.5.01a5.5 5.5 0 0 0-.425-2.02zm.464 2.218c-.068 1.66-.179 5.216-2.356 8.777l-.427-.26c2.105-3.443 2.216-6.882 2.283-8.537z" mask="url(#b)"/>
    <path fill="#fcd5c3" d="m129.918 58.571-.86 2.286L132.5 62v-2.857z"/>
    <defs>
        <linearGradient id="a" x1="82" x2="82" y1="0" y2="107.428" gradientUnits="userSpaceOnUse">
            <stop offset=".078" stop-color="#0061a4" stop-opacity=".4"/>
            <stop offset="1" stop-color="#fff" stop-opacity="0"/>
        </linearGradient>
    </defs>
</svg>
