<svg xmlns="http://www.w3.org/2000/svg" width="158" height="104" fill="none" viewBox="0 0 158 104">
    <path fill="url(#a)" fill-rule="evenodd" d="M13.91 14.903C24.644 3.32 40.662-2.902 64.332 1.331c12.06 2.156 20.718 6.14 28.241 5.801 14.723-.661 26.634-8.946 48.532 4.121 19.142 11.425 23.473 43.961 5.416 65.09-12.84 15.022-31.081 25.191-64.924 27.476-35.767 2.415-83.24-19.43-81.553-59.11.529-12.488 3.804-18.952 13.866-29.806" clip-rule="evenodd" opacity=".4"/>
    <path fill="#98c5e8" stroke="#133f5d" stroke-width=".25" d="m65.613 50.854-8.462 43.607-1.1 5.709 56.419-.274c2.534-.012 4.781-2.269 5.591-5.622l10.007-41.167c.619-2.545-.738-5.193-2.66-5.191l-57.117.06c-1.243-.002-2.357 1.178-2.678 2.878Z"/>
    <path fill="#3c5467" stroke="#133f5d" stroke-width=".25" d="M65.613 50.754 57.151 94.36l-1.1 5.709 56.418-.273c2.535-.012 4.782-2.27 5.592-5.623l10.007-41.167c.619-2.545-.738-5.193-2.66-5.19l-57.117.06c-1.243-.003-2.357 1.177-2.678 2.878Z" opacity=".5"/>
    <path fill="#fff" stroke="#133f5d" stroke-miterlimit="10" stroke-opacity=".2" stroke-width=".5" d="m99.583 88.312-40.86-22.83a2.06 2.06 0 0 1-.968-1.253 2.2 2.2 0 0 1 .184-1.61l27.523-51.313 1.209-2.23c.265-.491.705-.857 1.225-1.018a1.98 1.98 0 0 1 1.55.156l31.056 17.313 9.574 5.334c.473.264.823.712.972 1.247s.088 1.113-.173 1.608L102.372 87.44a2.2 2.2 0 0 1-.518.64 2.1 2.1 0 0 1-.711.39c-.259.08-.53.108-.798.08a2 2 0 0 1-.762-.24Z"/>
    <g opacity=".8">
        <path fill="#fff" stroke="#133f5d" stroke-miterlimit="10" stroke-opacity=".2" stroke-width=".5" d="m99.583 88.312-40.86-22.83a2.06 2.06 0 0 1-.968-1.253 2.2 2.2 0 0 1 .184-1.61l27.523-51.313 1.209-2.23c.265-.491.705-.857 1.225-1.018a1.98 1.98 0 0 1 1.55.156l31.056 17.313 9.574 5.334c.473.264.823.712.972 1.247s.088 1.113-.173 1.608L102.372 87.44a2.2 2.2 0 0 1-.518.64c-.211.176-.452.309-.711.39-.259.08-.53.108-.798.08a2 2 0 0 1-.762-.24Z"/>
        <path fill="#8dbfe3" d="m110.003 34.608 10.593 5.98-.309.552-10.593-5.98zM111.87 31.125l10.593 5.98-.32.55-10.583-5.977zM108.115 38.083l10.594 5.98-.318.538-10.593-5.98zM82.33 29.135l6.279 3.56-.324.561-6.267-3.557zM80.575 32.419l3.637 2.058-.326.572-3.637-2.058z" opacity=".5"/>
        <path stroke="#8dbfe3" stroke-miterlimit="10" stroke-width=".5" d="m107.172 66.904-34.816-19.56 4.637-8.7.15.04 34.658 19.505z"/>
        <path fill="#8dbfe3" d="m77.203 38.676 34.534 19.447-1.706 3.141-34.564-19.42zM95.194 65.376l9.227 5.205-.323.56-9.216-5.201zM91.179 74.868l8.37 4.686-.332.595-8.37-4.687zM75.335 44.678l8.272 4.624-.418.787-8.27-4.635zM84.268 49.683l8.27 4.635-.416.776-8.269-4.635zM93.212 54.691 97.4 57.03l-.415.776-4.187-2.337zM98.134 57.443l9.517 5.33-.415.777-9.518-5.33z" opacity=".5"/>
        <path fill="#bcdd95" d="M87.235 27.49c2.37 1.342 5.379.428 6.719-2.043s.505-5.563-1.866-6.906-5.378-.428-6.718 2.043-.505 5.563 1.865 6.905"/>
    </g>
    <path fill="#fff" stroke="#133f5d" stroke-miterlimit="10" stroke-opacity=".2" stroke-width=".5" d="M94.529 68.111 53.322 80.234a1.88 1.88 0 0 1-1.428-.158 1.89 1.89 0 0 1-.9-1.124L36.491 29.088l-.623-2.176a1.9 1.9 0 0 1 .157-1.428 1.88 1.88 0 0 1 1.113-.904l31.295-9.238 9.646-2.85c.477-.141.99-.087 1.427.151s.762.64.905 1.117l15.391 52.006a1.89 1.89 0 0 1-.623 2.003 1.9 1.9 0 0 1-.65.342Z"/>
    <g opacity=".8">
        <path fill="#fff" stroke="#133f5d" stroke-miterlimit="10" stroke-opacity=".2" stroke-width=".5" d="M94.529 68.111 53.322 80.234a1.88 1.88 0 0 1-1.428-.158 1.89 1.89 0 0 1-.9-1.124L36.491 29.088l-.623-2.176a1.9 1.9 0 0 1 .157-1.428 1.88 1.88 0 0 1 1.113-.904l31.295-9.238 9.646-2.85c.477-.141.99-.087 1.427.151s.762.64.905 1.117l15.391 52.006a1.89 1.89 0 0 1-.623 2.003 1.9 1.9 0 0 1-.65.342Z"/>
        <path fill="#8dbfe3" d="m67.321 27.805 10.723-3.103.148.545-10.723 3.104zM66.337 24.422l10.722-3.103.14.55-10.715 3.099zM68.29 31.198l10.722-3.104.134.542-10.723 3.104zM45.743 42.258l6.365-1.829.144.56-6.356 1.824zM46.675 45.445l3.684-1.063.15.569-3.685 1.063z" opacity=".5"/>
        <path stroke="#8dbfe3" stroke-miterlimit="10" stroke-width=".5" d="m85.938 49.826-35.182 10.26-2.48-8.435.124-.072 35.044-10.191z"/>
        <path fill="#8dbfe3" d="m48.434 51.535 34.928-10.147.874 3.066-34.93 10.184zM77.13 56.607l9.338-2.706.144.56-9.329 2.7zM80.518 65.135l8.45-2.476.158.586-8.448 2.477zM51.015 56.494l8.344-2.453.225.763-8.35 2.443zM60.034 53.854l8.35-2.444.22.754-8.35 2.443zM69.063 51.208l4.221-1.243.22.753-4.221 1.243zM74.026 49.749l9.608-2.815.22.754-9.608 2.815z" opacity=".5"/>
        <path fill="#bcdd95" d="M47.91 38.062a4.543 4.543 0 0 0 3.102-5.617 4.523 4.523 0 0 0-5.598-3.113 4.543 4.543 0 0 0-3.102 5.617 4.523 4.523 0 0 0 5.598 3.113"/>
    </g>
    <path fill="#98c5e8" stroke="#133f5d" stroke-width=".25" d="m99.994 43.35-.002-.01c-.256-1.28-.857-2.06-1.554-2.517-.693-.455-1.47-.583-2.068-.583h-12c-1.646 0-3.076 1.024-3.589 1.536l-6.463 6.464H38.37c-1.022 0-1.819.256-2.43.679-.612.422-1.032 1.005-1.31 1.647-.554 1.278-.553 2.803-.384 3.818 1.667 13.167 5.1 40.2 5.5 43.002.208 1.457 1.206 2.36 2.346 2.896 1.137.534 2.431.712 3.278.712h60.5c2.607 0 4.575-.251 5.977-.566 1.397-.314 2.243-.694 2.598-.96l.3-.225h-.375c-3.166 0-5.215-1.152-6.495-2.583-1.283-1.435-1.799-3.158-1.881-4.3h.001l-.001-.007z"/>
    <g fill="#fff" opacity=".5">
        <path d="m75.91 80.768-2.143 2.308-16.495-14.891 2.142-2.308z"/>
        <path d="m72.87 65.367 2.367 2.137-14.924 16.082-2.37-2.137z"/>
    </g>
    <defs>
        <linearGradient id="a" x1="79" x2="79" y1="0" y2="104" gradientUnits="userSpaceOnUse">
            <stop offset=".078" stop-color="#0061a4" stop-opacity=".4"/>
            <stop offset="1" stop-color="#fff" stop-opacity="0"/>
        </linearGradient>
    </defs>
</svg>
