<svg xmlns="http://www.w3.org/2000/svg" width="359" height="178" viewBox="0 0 94.981 46.844">
    <path fill="#dce7ec" d="M9.208-.001A9.19 9.19 0 0 0 0 9.206a9.19 9.19 0 0 0 9.207 9.207h11.334c-1.94 1.42-3.096 3.2-3.096 5.14 0 1.82 1.018 3.502 2.748 4.875h-3.878a9.19 9.19 0 0 0-9.207 9.207 9.19 9.19 0 0 0 9.207 9.207H67.36a9.19 9.19 0 0 0 9.207-9.207 9.19 9.19 0 0 0-9.207-9.207h-5.17c1.73-1.373 2.748-3.054 2.748-4.875 0-1.94-1.156-3.72-3.096-5.14h23.934a9.19 9.19 0 0 0 9.208-9.207 9.19 9.19 0 0 0-9.208-9.207z"/>
    <g stroke="#143f5d" stroke-width="1.828">
        <path fill="#d0f4b1" stroke-width=".5834610400000001" d="M35.982 26.52c-7.694 0-13.888 5.298-13.888 11.878v5.543-5.983 5.983h36.641v-5.543c0-6.58-6.194-11.877-13.888-11.877z"/>
        <g fill="#e9d0b8" transform="translate(-430.59 -973.675)scale(.31918)">
            <path d="M1462.47 3089.722h29.54v43.938l-14.877 4.52-14.665-4.52z"/>
            <rect width="57.927" height="64.849" x="1446.974" y="3061.782" ry="24.655"/>
        </g>
        <path fill="#bc7f67" stroke-width=".5834610400000001" d="M35.039 1.55c-2.178 0-3.93 1.866-3.93 4.184V8l.15 2.747s1.369-3.6 4.082-3.476 10.41 4.72 12.552 1.965l1.814.982V5.734c0-2.317-1.753-4.183-3.93-4.183z"/>
        <path fill="#fff" stroke-width=".5834610400000001" d="m35.697 26.52 4.681 1.443-2.904 3.322-4.98-4.307zm9.429 0-4.68 1.443 2.749 3.322 5.127-4.307z"/>
    </g>
    <g transform="translate(-438.11 -709.01)scale(.28222)">
        <rect width="119.801" height="156.4" x="2332.248" y="2524.32" fill="#d0f4b1" stroke="#143f5d" stroke-width="4.43" ry="3.788" transform="matrix(.43254 0 0 .41413 721.742 1556.835)"/>
        <path fill="#d9d9d9" d="m1772.713 2611.098 5.286.154-.367 47.122h-5.032z"/>
        <path fill="#fff" stroke="#143f5d" stroke-width="1.70214375" d="M1736.889 2605.046h40.034v52.959h-40.034z"/>
        <path fill="#f9f9f9" d="M1737.82 2606.012c9.905 20.927 21.662 37.193 37.731 50.932l-37.725.196z"/>
        <path fill="#143f5d" d="M1756.842 2620.487h15.375v.708h-15.375z"/>
        <path fill="none" stroke="#143f5d" stroke-linecap="square" stroke-width="1.70214375" d="m1743.774 2619.81 2.173 2.616 5.138-3.377"/>
        <path fill="#143f5d" d="M1757.06 2629.962h15.165v.708h-15.165z"/>
        <path fill="none" stroke="#143f5d" stroke-linecap="square" stroke-width="1.70214375" d="m1743.774 2629.285 2.173 2.617 5.138-3.377"/>
        <path fill="#143f5d" d="M1756.828 2639.44h15.387v.708h-15.387z"/>
        <path fill="none" stroke="#143f5d" stroke-linecap="square" stroke-width="1.70214375" d="m1743.774 2638.76 2.173 2.618 5.138-3.377"/>
        <path fill="#d0f4b1" stroke="#143f5d" stroke-width="1.313" d="M1756.128 2598.082a2.8 2.8 0 0 0-2.75 2.287h-4.93c-.94 0-1.697.757-1.697 1.697v1.404c0 .94.757 1.697 1.697 1.697h15.362c.94 0 1.697-.757 1.697-1.697v-1.404c0-.94-.757-1.697-1.697-1.697h-4.93a2.8 2.8 0 0 0-2.751-2.287z"/>
    </g>
</svg>
