<svg xmlns="http://www.w3.org/2000/svg" width="24" height="24" fill="none" viewBox="0 0 24 24">
    <path fill="#97cc56" d="M21.001 11.986a8.95 8.95 0 0 1-2.022 5.698c-.2.238-.404.477-.629.702a8.9 8.9 0 0 1-4.58 2.446 8.9 8.9 0 0 1-5.157-.526 8.97 8.97 0 0 1-4.002-3.321 9.1 9.1 0 0 1-1.505-5.003q-.004-.65.098-1.294a9.04 9.04 0 0 1 3.257-5.709 8.9 8.9 0 0 1 6.235-1.956 8.92 8.92 0 0 1 5.892 2.838A9.07 9.07 0 0 1 21 11.981z"/>
    <path fill="#fff" fill-rule="evenodd" d="M18.872 17.55c-.199.238-.404.478-.627.701a8.9 8.9 0 0 1-4.58 2.447 8.9 8.9 0 0 1-5.157-.526 8.97 8.97 0 0 1-4.003-3.322A9.1 9.1 0 0 1 3 11.848a8 8 0 0 1 .099-1.295c.014 0 .014-.014.028-.014 1.645-.816 3.556-1.477 5.927-.014 1.214.76 1.506 2.574 3.403 3.209 1.618.548 3.877-.284 5.69 2.068.4.502.65 1.108.725 1.747" clip-rule="evenodd" opacity=".2"/>
    <path stroke="#fff" stroke-linecap="round" stroke-linejoin="round" stroke-width="2" d="m8 12.024 2.941 2.966 5.609-5.657"/>
</svg>
