<svg xmlns="http://www.w3.org/2000/svg" width="122" height="108" fill="none" viewBox="0 0 122 108">
    <path fill="url(#a)" fill-rule="evenodd" d="M3.174 59.887a47 47 0 0 0 6.181 15.074 45 45 0 0 0 10.62 11.483 51 51 0 0 0 3.62 2.538q.826.529 1.67 1.025a56 56 0 0 0 3.858 2.09q.1.053.2.1.327.161.659.318.715.343 1.434.662.569.256 1.141.499 1.046.449 2.106.859l.253.099q.355.137.71.27.48.18.961.35a100 100 0 0 0 1.176.413q.48.164.963.322c1.387.453 2.781.867 4.172 1.245q.806.219 1.61.423 1.198.3 2.389.57a108 108 0 0 0 4.577.93q.486.09.967.172.376.067.75.128.143.023.286.05a70 70 0 0 0 2.75.396 68 68 0 0 0 5.463.468 63 63 0 0 0 4.894.032 59 59 0 0 0 7.748-.747l.168-.027a57 57 0 0 0 8.276-2.037 55 55 0 0 0 9.913-4.385l.357-.203a54 54 0 0 0 3.321-2.073l.06-.04c13.043-8.818 20.295-21.778 21.43-30.14 1.75-12.922-.995-27.231-12.192-34.163-4.064-2.517-8.544-4.476-13.972-5.102a29 29 0 0 0-2.097-.172 37 37 0 0 0-7.714.457q-1.013.16-2.066.377c-4.888 1.008-10.428 2.941-16.814 6.075a27.2 27.2 0 0 1-7.633 2.436c-12.274 2.051-24.205-3.83-34.468-.17C5.554 35.958.95 50.07 3.174 59.888" clip-rule="evenodd" opacity=".3"/>
    <path fill="#edd9c5" d="M45.973 55.722 28.766 67.276 41.05 86.478l19.507-12.777z"/>
    <path stroke="#133f5d" stroke-linecap="round" stroke-linejoin="round" stroke-width=".5" d="M45.973 55.722 28.766 67.276 41.05 86.478l19.507-12.777z"/>
    <path fill="#edd9c5" d="M36.36 64.289a18.76 18.76 0 0 1 .703-13.674 18.87 18.87 0 0 1 9.816-9.586l20.82-8.644c11.02-4.573 27.225 34.162 16.205 38.735l-20.822 8.645a18.6 18.6 0 0 1-14.723-.212"/>
    <path stroke="#133f5d" stroke-linecap="round" stroke-linejoin="round" stroke-width=".5" d="M36.36 64.289a18.76 18.76 0 0 1 .703-13.674 18.87 18.87 0 0 1 9.816-9.586l20.82-8.644c11.02-4.573 27.225 34.162 16.205 38.735l-20.822 8.645a18.6 18.6 0 0 1-14.723-.212"/>
    <rect width="42.482" height="71.848" x="53.529" y="1.33" fill="#e8f2fa" stroke="#133f5d" stroke-width=".5" rx="5.25"/>
    <rect width="30" height="30" x="59.776" y="38.553" fill="#fff" rx="3.759"/>
    <path stroke="#4199d5" stroke-linecap="round" stroke-linejoin="round" stroke-miterlimit="10" d="M67.964 49.907c-.138-.688-.275-1.239-.275-1.927-.138-.826.413-1.514 1.238-1.514h2.34c.688 0 1.376.55 1.376 1.239.138.688.275 1.376.55 2.064.138.413 0 .963-.412 1.376l-.826.963a10.6 10.6 0 0 0 4.266 4.267l.963-.964c.413-.413.963-.55 1.514-.275.688.275 1.376.413 2.064.55s1.239.688 1.239 1.514v2.202c0 .138 0 .275-.138.413-.138.55-.688.963-1.376.963h-.138c-2.202-.275-4.266-1.1-6.192-2.202-.413-.413-.964-.688-1.376-.963a14.2 14.2 0 0 1-2.89-3.44c-.413-.413-.688-.964-.964-1.514"/>
    <path fill="#4199d5" fill-rule="evenodd" d="M81.863 59.815c-.138.55-.688.963-1.376.963h-.138c-2.202-.275-4.266-1.1-6.192-2.202-.413-.413-.964-.688-1.376-.963.55-.138.963-.138 1.376 0 .963.275 1.926.55 2.477.413 1.238-.138 2.064-1.239 3.853-.275a2.83 2.83 0 0 1 1.376 2.064" clip-rule="evenodd" opacity=".3"/>
    <rect width="30" height="30" x="59.776" y="5.276" fill="#fff" rx="3.759"/>
    <path fill="#4199d5" fill-rule="evenodd" d="M81.878 23.17v1.167a1.91 1.91 0 0 1-1.917 1.75h-10.5c-.75-.084-1.333-.584-1.667-1.25 1.167-.834 1.584-1.5 3.667-1.584 1.833-.083 2.083.834 3.917.75 1.666-.083 2.583-2.083 5.416-1.333.334 0 .667.25 1.084.5" clip-rule="evenodd" opacity=".15"/>
    <path stroke="#4199d5" stroke-linecap="round" stroke-linejoin="round" d="M70.594 26.049h-1.166c-.834-.167-1.417-.75-1.667-1.584-.083-.166-.083-.416-.083-.583v-7.25c0-1.167.916-2.084 2.083-2.167l9.75.084c1.25-.084 2.25.916 2.333 2.083v7.25c0 1.083-.833 2.083-1.916 2.166h-5.5"/>
    <path stroke="#4199d5" stroke-linecap="round" stroke-linejoin="round" d="m67.674 16.965 7.25 3.334 6.917-3.334"/>
    <path fill="#edd9c5" d="M37.832 67.28s-7.695-10.684 4.045-24.315c3.741-4.345 4.94-19.233 4.94-19.233 0-4.688 9.014-4.688 9.014 0v15.714c0 13.102.341 19.384-4.78 24.008"/>
    <path fill="#e9d0b8" d="M38.534 58.473a13.6 13.6 0 0 1 1.924-8.864c2.383-3.668 3.943-9.211 4.989-15.581-.771 3.525-1.92 6.967-3.384 8.766-7.73 9.505-7.108 15.668-5.797 20.893a27 27 0 0 0 1.613 3.527l1.159-.935c1.422-2.808.063-3.62-.504-7.806"/>
    <path fill="#fff" d="M39.242 90.403 22.964 69.39a2.557 2.557 0 0 1 .466-3.59l4.556-3.503a2.58 2.58 0 0 1 3.604.463l16.278 21.012a2.556 2.556 0 0 1-.466 3.59l-4.556 3.502a2.58 2.58 0 0 1-3.604-.462"/>
    <path stroke="#133f5d" stroke-linecap="round" stroke-linejoin="round" stroke-width=".5" d="M39.242 90.403 22.964 69.39a2.557 2.557 0 0 1 .466-3.59l4.556-3.503a2.58 2.58 0 0 1 3.604.463l16.278 21.012a2.556 2.556 0 0 1-.466 3.59l-4.556 3.502a2.58 2.58 0 0 1-3.604-.462"/>
    <path fill="#4195d5" d="M28.676 103.59C23.444 107.612 1.79 79.657 7.02 75.638l15.232-11.565 21.654 27.954z"/>
    <path stroke="#133f5d" stroke-linecap="round" stroke-linejoin="round" stroke-width=".5" d="M28.676 103.59C23.444 107.612 1.79 79.657 7.02 75.638l15.232-11.565 21.654 27.954zm9.156-36.31s-7.695-10.684 4.045-24.315c3.741-4.345 4.94-19.233 4.94-19.233 0-4.688 9.014-4.688 9.014 0v15.714c0 13.102.341 19.384-4.78 24.008"/>
    <path fill="#133f5d" d="M91.956 6.802a1.158 1.158 0 1 0-.002-2.317 1.158 1.158 0 0 0 .002 2.317"/>
    <path fill="#97cc56" stroke="#133f5d" stroke-width=".5" d="M104.377 78.934a13.9 13.9 0 0 1-7.124 3.805l.049.245-.049-.245a13.8 13.8 0 0 1-8.02-.818 13.94 13.94 0 0 1-6.225-5.166 14.13 14.13 0 0 1-2.341-7.784q-.005-1.013.153-2.01v-.002c.52-3.499 2.33-6.67 5.067-8.88a13.83 13.83 0 0 1 9.697-3.043 13.87 13.87 0 0 1 9.164 4.414 14.1 14.1 0 0 1 3.751 9.523v.05l.003.006a13.92 13.92 0 0 1-3.145 8.81c-.314.377-.633.748-.98 1.095Z"/>
    <path fill="#59a237" fill-rule="evenodd" d="M105.381 77.786c-.315.379-.64.758-.993 1.112a14.13 14.13 0 0 1-7.252 3.873 14.06 14.06 0 0 1-8.165-.832 14.2 14.2 0 0 1-6.337-5.26 14.4 14.4 0 0 1-2.384-7.92q-.005-1.032.157-2.05c.022 0 .022-.022.044-.022 2.605-1.292 5.63-2.339 9.385-.023 1.922 1.204 2.384 4.076 5.388 5.08 2.562.87 6.138-.448 9.009 3.275a5.47 5.47 0 0 1 1.148 2.767" clip-rule="evenodd" opacity=".2"/>
    <path stroke="#fff" stroke-linecap="round" stroke-linejoin="round" stroke-width="2" d="m88.167 69.037 4.657 4.698 8.88-8.957"/>
    <defs>
        <linearGradient id="a" x1="99.137" x2="59.614" y1="18.268" y2="121.373" gradientUnits="userSpaceOnUse">
            <stop stop-color="#9ecbe8" stop-opacity=".161"/>
            <stop offset=".129" stop-color="#9ecbe8" stop-opacity=".173"/>
            <stop offset="1" stop-color="#9ecbe8"/>
        </linearGradient>
    </defs>
</svg>
