<svg xmlns="http://www.w3.org/2000/svg" width="24" height="24" fill="none" viewBox="0 0 24 24">
    <path fill="#b7d7ef" d="M4 17.2V6.8c3.14 4.672 5.623 5.858 7.075 8.2.919 1.48 1.425 3.423 1.425 7H8.8c-1.68 0-2.52 0-3.162-.327a3 3 0 0 1-1.311-1.311C4 19.72 4 18.88 4 17.2"/>
    <path stroke="#4195d5" stroke-linecap="round" stroke-linejoin="round" stroke-width="1.5" d="M20 7v-.2c0-1.68 0-2.52-.327-3.162a3 3 0 0 0-1.311-1.311C17.72 2 16.88 2 15.2 2H8.8c-1.68 0-2.52 0-3.162.327a3 3 0 0 0-1.311 1.311C4 4.28 4 5.12 4 6.8v10.4c0 1.68 0 2.52.327 3.162a3 3 0 0 0 1.311 1.311C6.28 22 7.12 22 8.8 22h3.7m0-11H8m3.5 4H8m8-8H8m10 11v-5.5a1.5 1.5 0 0 1 3 0V18a3 3 0 1 1-6 0v-4"/>
</svg>
