<svg xmlns="http://www.w3.org/2000/svg" width="24" height="24" fill="none" viewBox="0 0 24 24">
    <path stroke="#133f5d" stroke-linecap="round" stroke-linejoin="round" d="M21 15.257c0 .96 0 1.44-.196 1.807a1.76 1.76 0 0 1-.787.75c-.385.186-.889.186-1.897.186H5.88c-1.008 0-1.512 0-1.897-.187a1.76 1.76 0 0 1-.787-.749C3 16.697 3 16.217 3 15.257V8.743c0-.96 0-1.44.196-1.807a1.76 1.76 0 0 1 .787-.75C4.368 6 4.872 6 5.88 6h12.24c1.008 0 1.512 0 1.897.187.339.164.614.426.787.749.196.367.196.847.196 1.807v1.628m-7.2-.942h-2.25c-.746 0-1.35.575-1.35 1.285S10.804 12 11.55 12h.9c.746 0 1.35.576 1.35 1.286s-.604 1.285-1.35 1.285H10.2m1.8-6v.858m0 5.142v.858M17.4 12h.009M6.6 12h.009m11.241 0a.44.44 0 0 1-.45.429.44.44 0 0 1-.45-.429.44.44 0 0 1 .45-.429.44.44 0 0 1 .45.429m-10.8 0a.44.44 0 0 1-.45.429.44.44 0 0 1-.45-.429.44.44 0 0 1 .45-.429.44.44 0 0 1 .45.429"/>
    <path fill="#133f5d" fill-rule="evenodd" d="M13.24 18H4.396C3.652 18 3 17.353 3 16.614v-5.08c.186-.093.372-.185.652-.277 1.21-.462 2.606-.278 3.723.37.652.553 1.49 1.015 2.234 1.385 1.21.37 2.42-.462 3.817 1.108.838 1.201.744 2.772-.187 3.88" clip-rule="evenodd" opacity=".15"/>
</svg>
