<svg xmlns="http://www.w3.org/2000/svg" width="24" height="24" fill="none" viewBox="0 0 24 24">
    <path fill="#133f5d" fill-rule="evenodd" d="m18.6 18.03-5.84 2.92a1.63 1.63 0 0 1-1.52 0L4.5 17.56a1.71 1.71 0 0 1-1-1.53v-3.42a8 8 0 0 1 4.46 1 18 18 0 0 0 3.93 2.36c2 .59 4.23-.82 6.61 2a.5.5 0 0 0 .1.06" clip-rule="evenodd" opacity=".15"/>
    <path stroke="#133f5d" stroke-linecap="round" stroke-linejoin="round" d="m17.28 5.31 2.22 1.13a1.69 1.69 0 0 1 1 1.52v8.08a1.69 1.69 0 0 1-1 1.52l-.93.47-5.84 2.92a1.63 1.63 0 0 1-1.52 0L4.5 17.56a1.71 1.71 0 0 1-1-1.53V7.96a1.69 1.69 0 0 1 1-1.52l6.78-3.39a1.61 1.61 0 0 1 1.51 0l1.6.8"/>
    <path stroke="#133f5d" stroke-linecap="round" stroke-linejoin="round" d="m3.8 7.04 8.2 4.11 8.2-4.11M12 21.12v-9.97M7.77 4.78l8.47 4.25"/>
</svg>
