<svg xmlns="http://www.w3.org/2000/svg" width="24" height="24" fill="none" viewBox="0 0 24 24">
    <path fill="#133f5d" fill-rule="evenodd" d="M16.346 19.294h-7.96a1.264 1.264 0 0 1-1.274-1.255v-4.577c.162-.078.342-.162.55-.251a4.2 4.2 0 0 1 3.387.3 9 9 0 0 0 2.042 1.235c1.065.3 2.206-.428 3.452 1.023a2.89 2.89 0 0 1-.197 3.525" clip-rule="evenodd" opacity=".15"/>
    <path stroke="#133f5d" stroke-linecap="round" stroke-linejoin="round" stroke-width="1.3" d="M7.11 12.989h14.003M8.973 19.294h-.59a1.27 1.27 0 0 1-1.274-1.261v-7.569a1.27 1.27 0 0 1 1.274-1.261h11.459a1.27 1.27 0 0 1 1.274 1.261v7.574a1.27 1.27 0 0 1-1.274 1.261h-7.308M12.425 16.732h1.78M10.2 16.732h-.624"/>
    <path stroke="#133f5d" stroke-linecap="round" stroke-linejoin="round" stroke-width="1.3" d="M4.749 14.794h-.59a1.27 1.27 0 0 1-1.274-1.261V5.962A1.27 1.27 0 0 1 4.159 4.7h11.459a1.27 1.27 0 0 1 1.274 1.26v.712"/>
</svg>
