<svg xmlns="http://www.w3.org/2000/svg" width="24" height="24" fill="none" viewBox="0 0 24 24">
    <path fill="#4195d5" fill-rule="evenodd" d="M11.639 19.75H3.722c-.666 0-1.25-.584-1.25-1.25v-4.584c.167-.083.334-.167.584-.25 1.083-.417 2.333-.25 3.333.333.583.5 1.333.917 2 1.25 1.083.334 2.167-.416 3.417 1 .75 1.084.666 2.5-.167 3.5" clip-rule="evenodd" opacity=".15"/>
    <path stroke="#133f5d" stroke-linecap="round" stroke-linejoin="round" stroke-width="1.042" d="M2.472 13h15M4.472 19.75h-.666c-.75 0-1.334-.584-1.334-1.334v-8.083c0-.75.584-1.334 1.334-1.334h12.25c.75 0 1.333.584 1.333 1.334v8.083c0 .75-.583 1.333-1.333 1.333H8.222M7.389 17h1.75"/>
    <g clip-path="url(#a)">
        <path fill="#e35273" d="M21.137 8.178a5.83 5.83 0 0 1-1.316 3.697l-.412.457a5.87 5.87 0 0 1-9.99-4.154q0-.426.068-.847a5.86 5.86 0 0 1 11.65.847"/>
        <path fill="#fff" d="M15.271 4.26c.386 0 .698.313.698.698v2.924q0 .443-.053.88a13 13 0 0 1-.076.533.425.425 0 0 1-.422.353h-.293a.425.425 0 0 1-.422-.353 13 13 0 0 1-.077-.532 7 7 0 0 1-.053-.881V4.958c0-.385.313-.697.698-.697m-.861 7.126q0-.173.062-.322a.9.9 0 0 1 .178-.26.8.8 0 0 1 .27-.174.8.8 0 0 1 .337-.067.8.8 0 0 1 .332.067q.155.063.27.174t.178.26q.067.149.067.322a.8.8 0 0 1-.245.587.85.85 0 0 1-.602.236.846.846 0 0 1-.607-.236.9.9 0 0 1-.178-.26.9.9 0 0 1-.062-.327"/>
    </g>
    <defs>
        <clipPath id="a">
            <path fill="#fff" d="M9.418 2.307h11.72v11.72H9.417z"/>
        </clipPath>
    </defs>
</svg>
