<svg xmlns="http://www.w3.org/2000/svg" width="13" height="13" fill="none" viewBox="0 0 13 13">
    <path stroke="#4199d5" stroke-linecap="round" stroke-linejoin="round" stroke-width=".8" d="M6.212 12.036a5.808 5.808 0 1 0 0-11.616 5.808 5.808 0 0 0 0 11.616"/>
    <path fill="#4199d5" fill-rule="evenodd" d="M12.162 7.928c-.708 3.187-4.817 4.604-7.933 3.896-1.205-.284-1.417-.354-2.267-1.346a5 5 0 0 1 2.55-1.204c.92 0 1.842-.071 2.762-.284 1.205-.496 1.7-1.912 3.896-1.487.354 0 .709.141.992.425" clip-rule="evenodd" opacity=".3"/>
    <path stroke="#4199d5" stroke-linecap="round" stroke-linejoin="round" stroke-width=".8" d="M6.34 3.59v4.817M8.75 5.998H4.002"/>
</svg>
