<svg xmlns="http://www.w3.org/2000/svg" width="40" height="40" fill="none" viewBox="0 0 40 40">
    <circle cx="20" cy="20" r="20" fill="#fff"/>
    <path fill="#133f5d" fill-rule="evenodd" d="M27.087 24.04v2.137c-.114.916-1.03 1.628-2.175 1.526h-10.65c-1.03.102-1.946-.61-2.175-1.526v-5.9c1.26-.102 2.405 0 3.55.509 2.176 1.119 2.634 2.34 4.237 2.746 2.29.509 3.778-.915 7.213.509" clip-rule="evenodd" opacity=".15"/>
    <path stroke="#133f5d" stroke-linecap="round" stroke-linejoin="round" d="M16.842 18.644a1.176 1.176 0 1 0 0-2.353 1.176 1.176 0 0 0 0 2.353"/>
    <path fill="#133f5d" fill-rule="evenodd" d="M14.097 13.595c-.622 0-1.127.505-1.127 1.127v10.98c0 .566.415 1.034.957 1.115l8.486-8.485a.44.44 0 0 1 .624 0l1.862 1.863-.624.624-1.55-1.55-7.562 7.561h3.1l-.882.883h-3.3a2.01 2.01 0 0 1-1.994-2.01v-10.98c0-1.11.9-2.01 2.01-2.01h10.98c1.11 0 2.01.9 2.01 2.01v3.283l-.882.883v-4.167c0-.622-.505-1.127-1.127-1.127zm5.415 13.235h5.566c.622 0 1.127-.505 1.127-1.127v-5.566l.882-.883v6.449c0 1.11-.9 2.01-2.01 2.01H18.63z" clip-rule="evenodd"/>
</svg>
