<svg xmlns="http://www.w3.org/2000/svg" width="28" height="29" fill="none" viewBox="0 0 28 29">
    <path fill="#4199d5" stroke="#4199d5" stroke-width="1.313" d="M24.107 13.76a5 5 0 0 1 .656-.126v4.375a2.42 2.42 0 0 1-2.15 2.407c-.012.012-6.68.012-6.68.012m8.174-6.668v-.675c-1.197.275-2.15.889-3.077 1.485-.825.531-1.627 1.048-2.561 1.3a25.1 25.1 0 0 1-6.51.037m12.148-2.147v4.25a1.76 1.76 0 0 1-1.546 1.752m1.546-6.002c-.848.22-1.579.636-2.326 1.109l-.384.246c-.818.528-1.716 1.108-2.757 1.389l-.04.011-.043.006a25.8 25.8 0 0 1-6.623.044m.026-.658a11.62 11.62 0 0 0-8.05 3.74m8.05-3.74.028.656-.054.002m.026-.658-.081.651.055.007M3.91 19.646q.135.148.29.268zm0 0 .483-.444q.218.236.503.377m0 0a11 11 0 0 0-.479.485c.228.139.479.239.742.295q.226.057.457.057m-.72-.837a10.96 10.96 0 0 1 7.038-3.014m-7.038 3.014q.19.093.4.138l.012.003.013.003q.146.037.296.037l-.001.656m0 0 6.532.012q.018.255-.001.509v.147h-.015a3.4 3.4 0 0 1-.462 1.334 7 7 0 0 0 .865-.273m-6.92-1.729.002-.656 6.532.012h.608l.045.607a4 4 0 0 1-.267 1.766m0 0-.024.06a4 4 0 0 1-.431.784 7.53 7.53 0 0 0 3.853-2.561m-3.398 1.717a6.9 6.9 0 0 0 2.884-2.126l.198-.247h.316v.656m0 0v-.656h1.042l4.587-.005.965-.005h.034m0 0-.021.002-.229.026-.162.163c.086-.073.227-.149.271-.164a1 1 0 0 1 .127-.025l.026-.002h.002z" opacity=".2"/>
    <path stroke="#4199d5" stroke-linecap="round" stroke-linejoin="round" stroke-width="1.313" d="M3.238 9.21V8.182A2.43 2.43 0 0 1 5.564 5.75l16.675.073a2.425 2.425 0 0 1 2.524 2.418v10.294a2.42 2.42 0 0 1-2.15 2.408c-.012.011-6.68.01-6.68.01a7.53 7.53 0 0 1-4.93 2.782 3.35 3.35 0 0 0 1.144-2.781l-6.532-.011q-.231 0-.456-.058a2.45 2.45 0 0 1-1.916-2.372v-5.139"/>
    <path fill="#4199d5" d="M8.417 14.759a1.183 1.183 0 1 0 0-2.366 1.183 1.183 0 0 0 0 2.366"/>
    <path fill="#4199d5" stroke="#4199d5" stroke-width="1.313" d="M20.11 13.576a.527.527 0 1 1-1.053 0 .527.527 0 0 1 1.053 0Z"/>
    <path fill="#4199d5" stroke="#4199d5" stroke-width="1.167" d="M14.6 13.576a.6.6 0 1 1-1.2 0 .6.6 0 0 1 1.2 0Z"/>
</svg>
