<svg xmlns="http://www.w3.org/2000/svg" width="24" height="24" fill="none" viewBox="0 0 24 24">
    <g clip-path="url(#a)">
        <path fill="#fff" d="M17.706 6.094a1.69 1.69 0 1 0-2.93 1.687l-2.274-3.937A1.69 1.69 0 0 0 9.575 5.53l-.538-.937A1.69 1.69 0 1 0 6.11 6.28l.314.541a2.438 2.438 0 0 0-2.699 3.584l.282.488a2.437 2.437 0 0 0-1.804 3.637l3.306 5.719a7.513 7.513 0 0 0 14.018-3.71 6.74 6.74 0 0 0 .16-7.017zm.113 11.958A6.011 6.011 0 0 1 6.81 19.5l-3.307-5.719a.938.938 0 1 1 1.626-.937l1.901 3.281a.75.75 0 0 0 1.3-.75L5.027 9.656a.94.94 0 1 1 1.629-.937l2.982 5.156a.75.75 0 0 0 1.3-.75L8.502 8.906a.939.939 0 0 1 1.627-.937l3.422 5.906a.75.75 0 1 0 1.3-.75l-1.181-2.04a.937.937 0 0 1 1.653-.866l1.896 3.281a5.95 5.95 0 0 1 .6 4.553M15.02 2.25V.75a.75.75 0 1 1 1.5 0v1.5a.75.75 0 1 1-1.5 0m3.115.563.75-1.229a.751.751 0 1 1 1.282.781l-.75 1.23a.75.75 0 0 1-1.282-.783m4.218 3.155-1.41.455a.75.75 0 1 1-.461-1.428l1.411-.455a.75.75 0 1 1 .46 1.428"/>
    </g>
    <defs>
        <clipPath id="a">
            <path fill="#fff" d="M0 0h24v24H0z"/>
        </clipPath>
    </defs>
</svg>
