<svg xmlns="http://www.w3.org/2000/svg" width="24" height="24" fill="none" viewBox="0 0 24 24">
    <path fill="#133f5d" fill-rule="evenodd" d="M20.45 19.752c-.3.3-.7.5-1.1.5h-9c-.8 0-1.5-.7-1.5-1.5v-2.8c.4-.5 1-.8 1.6-1 1.2-.4 2.5-.3 3.6.3.6.5 1.3.9 2 1.2.1 0 .1.1.2.1 1.1.3 2.4-.5 3.7 1.1.4.6.6 1.3.5 2.1" clip-rule="evenodd" opacity=".3"/>
    <path stroke="#133f5d" stroke-linecap="round" stroke-linejoin="round" stroke-width="1.5" d="M10.65 8.85h8.1c1 0 1.8.8 1.8 1.8v8.1c0 1-.8 1.8-1.8 1.8h-8.1c-1 0-1.8-.8-1.8-1.8v-8.1c0-1 .7-1.8 1.8-1.8q-.15 0 0 0"/>
    <path stroke="#133f5d" stroke-linecap="round" stroke-linejoin="round" stroke-width="1.5" d="M6.15 15.05h-.9c-1 0-1.8-.8-1.8-1.8v-8c0-1 .8-1.8 1.8-1.8h8.1c1 0 1.8.8 1.8 1.8v.9"/>
</svg>
