<svg xmlns="http://www.w3.org/2000/svg" width="24" height="24" fill="none">
    <path stroke="#133f5d" stroke-linecap="round" stroke-linejoin="round" stroke-width="1.125" d="m16 18 2 2 4-4m0-6H2m20 2V8.2c0-1.12 0-1.68-.218-2.108a2 2 0 0 0-.874-.874C20.48 5 19.92 5 18.8 5H5.2c-1.12 0-1.68 0-2.108.218a2 2 0 0 0-.874.874C2 6.52 2 7.08 2 8.2v7.6c0 1.12 0 1.68.218 2.108a2 2 0 0 0 .874.874C3.52 19 4.08 19 5.2 19H12"/>
    <path fill="#133f5d" fill-rule="evenodd" d="M12.716 18.45h-9.5c-.8 0-1.5-.7-1.5-1.5v-5.5c.2-.1.4-.2.7-.3 1.3-.5 2.8-.3 4 .4.7.6 1.6 1.1 2.4 1.5 1.3.4 2.6-.5 4.1 1.2.9 1.3.8 3-.2 4.2" clip-rule="evenodd" opacity=".15"/>
</svg>
