<svg xmlns="http://www.w3.org/2000/svg" width="24" height="25" fill="none" viewBox="0 0 24 25">
    <path fill="#4199d5" d="M20.58 18.497c.308-.302.485-.714.49-1.146v-3.685c-6.66 0-9.288 5.298-12.764 5.298h11.117c.432.003.848-.165 1.156-.467" opacity=".2"/>
    <path stroke="#4199d5" stroke-linecap="round" stroke-linejoin="round" stroke-miterlimit="10" d="M21.07 10.741V7.626a1.636 1.636 0 0 0-1.647-1.59H4.577a1.637 1.637 0 0 0-1.648 1.59v9.726a1.636 1.636 0 0 0 1.648 1.613h14.846a1.637 1.637 0 0 0 1.648-1.613v-3.686"/>
    <path stroke="#4199d5" stroke-linecap="round" stroke-miterlimit="10" d="M2.929 10.887h18.095"/>
    <path fill="#4199d5" d="M5.352 17.234a.588.588 0 1 0 0-1.175.588.588 0 0 0 0 1.175M9.23 16.059H7.125a.588.588 0 0 0 0 1.175H9.23a.588.588 0 0 0 0-1.175"/>
</svg>
