<svg xmlns="http://www.w3.org/2000/svg" width="20" height="21" fill="none" viewBox="0 0 20 21">
    <path fill="#97cc56" d="M10.308 18.553h-.085c-.08-.02-8.09-1.222-7.71-12.99a.66.66 0 0 1 .151-.373c.138-.184 1.51-1.754 7.486-3.284a.66.66 0 0 1 .322 0c5.97 1.51 7.342 3.08 7.48 3.284a.66.66 0 0 1 .137.387c.394 11.748-7.61 12.956-7.696 12.97zM3.827 5.846c-.224 9.765 5.64 11.203 6.474 11.36.847-.13 6.711-1.575 6.482-11.36-.434-.36-2.056-1.49-6.475-2.626-4.4 1.149-6.028 2.272-6.481 2.626"/>
    <path fill="#97cc56" d="M9.349 12.413a.66.66 0 0 1-.466-.19l-1.537-1.524a.656.656 0 1 1 .933-.913l1.07 1.077 3.014-3.014a.66.66 0 0 1 .933.932L9.84 12.235a.66.66 0 0 1-.492.178"/>
</svg>
