<svg xmlns="http://www.w3.org/2000/svg" width="18" height="18" fill="none" viewBox="0 0 18 18">
    <path fill="#133f5d" d="M13.667 15c.736 0 1.333-.537 1.333-1.2v-.675c-2.625.375-2.625 0-4.5-1.125C7.049 9.93 4.125 15.375 3 5.4v8.4c0 .663.597 1.2 1.333 1.2z" opacity=".3"/>
    <path stroke="#133f5d" stroke-linecap="round" stroke-linejoin="round" stroke-width="1.5" d="M15 10.125V5.4c0-.663-.597-1.2-1.333-1.2H4.333C3.597 4.2 3 4.737 3 5.4v8.4c0 .663.597 1.2 1.333 1.2h9.334c.736 0 1.333-.537 1.333-1.2v-.675M11.666 3v2.4M6.333 3v2.4M3 7.8h1.875M15 7.8H7.5"/>
</svg>
