<svg xmlns="http://www.w3.org/2000/svg" width="18" height="20" fill="none" viewBox="0 0 18 20">
    <path stroke="#4195d5" stroke-linecap="round" stroke-linejoin="round" d="M16.918 8.24H1.082M12.52 1.204v3.519m-7.038-3.52v3.52m2.2 7.038L9 10.88v4.399m-1.1 0H10.1m-4.795 3.519h7.39c1.478 0 2.217 0 2.782-.288a2.64 2.64 0 0 0 1.153-1.153c.288-.565.288-1.304.288-2.782v-7.39c0-1.478 0-2.217-.288-2.782a2.64 2.64 0 0 0-1.153-1.153c-.565-.288-1.304-.288-2.782-.288h-7.39c-1.478 0-2.217 0-2.782.288A2.64 2.64 0 0 0 1.37 4.403c-.288.565-.288 1.304-.288 2.782v7.39c0 1.478 0 2.217.288 2.782.253.496.657.9 1.153 1.153.565.288 1.304.288 2.782.288"/>
</svg>
