<svg xmlns="http://www.w3.org/2000/svg" width="24" height="24" fill="none" viewBox="0 0 24 24">
    <path fill="#133f5d" fill-rule="evenodd" d="M18.245 19.818c-.3.4-.8.6-1.3.6h-10.1c-1-.1-1.7-.9-1.7-1.9v-3.6c.5-.6 1.1-1 1.8-1.3 1.3-.5 2.8-.4 4.1.4.7.6 1.4 1.1 2.2 1.6.1 0 .1.1.2.1 1.3.4 2.6-.6 4.1 1.4.6.9.9 1.8.7 2.7" clip-rule="evenodd" opacity=".15"/>
    <path stroke="#133f5d" stroke-linecap="round" stroke-linejoin="round" d="M15.92 12.732h-7.7M15.92 16.632h-7.7M10.12 8.932h-1.9M6.955 20.5c-.9 0-1.7-.8-1.7-1.7V5.2c0-.9.8-1.7 1.7-1.7h6.8l5.1 5.1v10.2c0 .9-.8 1.7-1.7 1.7h-5.7"/>
    <path stroke="#133f5d" stroke-linecap="round" stroke-linejoin="round" d="M13.055 3.5v5.8h5.7"/>
</svg>
