<svg xmlns="http://www.w3.org/2000/svg" width="16" height="17" fill="none" viewBox="0 0 16 17">
    <g opacity=".3">
        <mask id="a" width="11" height="6" x="2" y="8" maskUnits="userSpaceOnUse" style="mask-type:luminance">
            <path fill="#fff" d="M12.571 8.957h-9.6v4.571h9.6z"/>
        </mask>
        <g mask="url(#a)">
            <path fill="#4198d3" fill-rule="evenodd" d="M12.571 13.186c-.228.228-.571.457-.914.457H4.228a1.27 1.27 0 0 1-1.257-1.257V10.1c.343-.457.8-.8 1.372-.914 1.028-.343 2.057-.229 2.971.228.457.343 1.029.686 1.6 1.029l.229.114c.914.229 1.942-.457 2.971.914.457.457.571 1.029.457 1.715" clip-rule="evenodd"/>
        </g>
    </g>
    <path fill="#133f5d" d="M7.886 14.929a.428.428 0 1 0 0 .857h4.686a.428.428 0 1 0 0-.857zM8.567 11.84a.428.428 0 0 0-.3.734l1.715 1.714a.43.43 0 0 0 .616-.009l1.6-1.714a.428.428 0 1 0-.626-.585l-1.295 1.39-1.402-1.401a.43.43 0 0 0-.308-.13"/>
    <path fill="#133f5d" d="M10.279 10.009a.43.43 0 0 0-.422.433v3.544a.429.429 0 1 0 .857 0v-3.544a.43.43 0 0 0-.435-.433"/>
    <path fill="#133f5d" d="M4.228 1.214c-.8 0-1.572.648-1.572 1.572V12.5c0 .8.648 1.572 1.572 1.572H6.4a.428.428 0 1 0 0-.858H4.228a.71.71 0 0 1-.715-.714V2.786c0-.448.372-.715.715-.715h7.087c.247 0 .45.08.591.213.141.132.237.318.237.616v7.087a.428.428 0 1 0 .857 0V2.9c0-.502-.19-.945-.507-1.241a1.7 1.7 0 0 0-1.178-.445z"/>
    <path fill="#133f5d" d="M7.522 3.469a.55.55 0 0 0-.315.127.5.5 0 0 0-.158.286c-.04.206.008.412.092.638.06.165.224.358.323.538-.096.358-.164.699-.335 1.094-.147.341-.324.584-.495.88-.243.109-.544.197-.732.316-.224.142-.403.282-.516.46a.54.54 0 0 0-.094.31c.005.118.061.235.143.317.084.084.2.14.317.148a.6.6 0 0 0 .32-.078c.19-.1.356-.269.526-.483.127-.159.234-.425.357-.63.285-.122.51-.257.828-.356.406-.126.744-.158 1.103-.214.13.11.257.291.384.37.204.127.402.216.62.2.219-.014.424-.188.5-.419l.003-.006.002-.007a.54.54 0 0 0-.013-.348.52.52 0 0 0-.228-.248c-.189-.106-.41-.127-.667-.123-.129.002-.314.07-.458.087-.217-.202-.426-.35-.634-.614-.194-.245-.287-.469-.433-.714.038-.158.132-.352.15-.493.032-.263.035-.492-.043-.694a.55.55 0 0 0-.205-.266.54.54 0 0 0-.342-.078m.043.462c.038-.004.041.002.044.004s.013.009.027.045c.028.072.044.248.016.471l-.007.025c-.014-.034-.058-.083-.07-.114-.068-.186-.084-.337-.073-.39.006-.028.01-.027.011-.028.001 0 .01-.01.052-.013m.218 1.654c.099.142.141.277.25.415.142.179.299.274.45.433-.289.06-.54.068-.838.16-.118.038-.197.097-.312.137.07-.146.158-.245.223-.395.114-.264.14-.491.227-.75m1.71 1.118c.217-.003.378.034.433.065.028.016.027.02.027.02l-.002.038q-.001 0-.002.002c-.036.105-.039.1-.09.103-.052.003-.184-.034-.346-.134-.024-.015-.06-.063-.085-.08.018-.001.049-.014.065-.014m-3.232.987c-.008.01-.016.034-.024.044-.149.187-.292.316-.38.362a.2.2 0 0 1-.076.025c-.006 0-.001.003-.018-.014-.018-.018-.009-.01-.009-.006 0 .003 0-.01.023-.045.044-.07.178-.194.372-.317.027-.017.083-.032.112-.05"/>
</svg>
