<svg xmlns="http://www.w3.org/2000/svg" width="18" height="18" fill="none" viewBox="0 0 18 18">
    <path stroke="#8695a1" stroke-linecap="round" stroke-linejoin="round" stroke-width="1.5" d="M9 4.5A.75.75 0 1 0 9 3a.75.75 0 0 0 0 1.5M9 9.75a.75.75 0 1 0 0-1.5.75.75 0 0 0 0 1.5M9 15a.75.75 0 1 0 0-1.5.75.75 0 0 0 0 1.5M14.25 4.5a.75.75 0 1 0 0-1.5.75.75 0 0 0 0 1.5M14.25 9.75a.75.75 0 1 0 0-1.5.75.75 0 0 0 0 1.5M14.25 15a.75.75 0 1 0 0-1.5.75.75 0 0 0 0 1.5M3.75 4.5a.75.75 0 1 0 0-1.5.75.75 0 0 0 0 1.5M3.75 9.75a.75.75 0 1 0 0-1.5.75.75 0 0 0 0 1.5M3.75 15a.75.75 0 1 0 0-1.5.75.75 0 0 0 0 1.5"/>
</svg>
