<svg xmlns="http://www.w3.org/2000/svg" width="24" height="24" fill="none" viewBox="0 0 24 24">
    <path fill="#133f5d" fill-rule="evenodd" d="M3.5 18.2v.1c0 .9.7 1.6 1.5 1.6h13.8c.8 0 1.5-.7 1.5-1.5v-4.1c-.5-.4-1.1-.6-1.7-.9-1.9-.6-3.9-.5-5.7.5-1.1.9-2.2 1.6-3.5 2.1-1.7.5-4.2-1.6-5.9 1.4.1.2.1.5 0 .8" clip-rule="evenodd" opacity=".15"/>
    <path stroke="#133f5d" stroke-linecap="round" stroke-linejoin="round" stroke-width="1.5" d="M20.5 14.2v3.9c0 1.1-.8 1.9-1.9 1.9H5.4c-1.1 0-1.9-.9-1.9-1.9v-3.9M7.4 9.6l3.878 4.047a1 1 0 0 0 1.444 0L16.6 9.6M12 13.5V4"/>
</svg>
