<svg xmlns="http://www.w3.org/2000/svg" width="24" height="24" fill="none" viewBox="0 0 24 24">
    <path fill="#d0d9df" d="M4 21.5h16v-3.702s0-5.41-7.014-3.91C5.745 15.439 4 8.305 4 5.643z" opacity=".15"/>
    <path stroke="#d0d9df" stroke-linecap="round" stroke-linejoin="round" stroke-width="1.5" d="M14 2.27V6.4c0 .56 0 .84.109 1.054a1 1 0 0 0 .437.437c.214.11.494.11 1.054.11h4.13m-1.368 13.672C17.72 22 16.88 22 15.2 22H8.8c-1.68 0-2.52 0-3.162-.327a3 3 0 0 1-1.311-1.311C4 19.72 4 18.88 4 17.2V6.8c0-1.68 0-2.52.327-3.162a3 3 0 0 1 1.311-1.311C6.28 2 7.12 2 8.8 2H14l6 6v1.516"/>
    <path fill="#d0d9df" d="M18.359 19a.854.854 0 0 1-.854-.854V13a1 1 0 0 1 1-1h1.918q.795 0 1.37.308.58.304.893.85.314.545.314 1.265 0 .725-.32 1.268-.318.54-.908.838t-1.4.297h-1.135a.666.666 0 1 1 0-1.333h.817a1.4 1.4 0 0 0 .645-.133.9.9 0 0 0 .397-.373q.134-.243.134-.564 0-.324-.134-.56a.9.9 0 0 0-.397-.37 1.44 1.44 0 0 0-.645-.13.84.84 0 0 0-.842.843v3.94a.854.854 0 0 1-.853.854M12.611 19H11a1 1 0 0 1-1-1v-5a1 1 0 0 1 1-1h1.608q1.08 0 1.86.42.782.418 1.207 1.204.423.782.424 1.873 0 1.093-.425 1.88-.42.786-1.203 1.206-.783.417-1.86.417m-.904-2.28c0 .462.376.838.839.838q.593 0 1.004-.199.413-.201.624-.653.214-.453.214-1.21 0-.755-.214-1.203a1.3 1.3 0 0 0-.631-.649q-.415-.201-1.021-.202a.814.814 0 0 0-.815.815z"/>
</svg>
