<svg xmlns="http://www.w3.org/2000/svg" width="24" height="24" fill="none" viewBox="0 0 24 24">
    <path fill="#133f5d" d="M6.4 4h10.266A2.335 2.335 0 0 1 19 6.335s0 3.411-6.576 2.465C5.636 7.823 4 12.322 4 14V6.4A2.4 2.4 0 0 1 6.4 4" opacity=".15"/>
    <path stroke="#133f5d" stroke-linecap="round" stroke-linejoin="round" stroke-width="1.44" d="M18.88 9.5V7.58c0-1.428 0-2.142-.298-2.688-.262-.48-.68-.87-1.194-1.114-.584-.278-1.35-.278-2.88-.278H8.68c-1.53 0-2.295 0-2.88.278a2.65 2.65 0 0 0-1.194 1.114c-.297.546-.297 1.26-.297 2.688v8.84c0 1.428 0 2.142.297 2.688.262.48.68.87 1.194 1.114.585.278 1.35.278 2.88.278H10"/>
    <path stroke="#133f5d" stroke-linecap="round" stroke-linejoin="round" stroke-width="1.44" d="M14.428 12h2.407c.759 0 1.139 0 1.428.138.256.121.463.315.593.553.148.27.148.625.148 1.333v2.246M12.67 19h2.745c.38 0 .57 0 .715-.069a.66.66 0 0 0 .296-.276c.074-.136.074-.313.074-.667v-2.563c0-.354 0-.531-.074-.666a.66.66 0 0 0-.296-.277c-.145-.069-.335-.069-.715-.069H12.67c-.38 0-.57 0-.714.07a.66.66 0 0 0-.297.276c-.074.135-.074.312-.074.666v2.563c0 .354 0 .531.074.667a.66.66 0 0 0 .297.276c.145.069.334.069.714.069"/>
</svg>
