<svg xmlns="http://www.w3.org/2000/svg" width="24" height="24" fill="none" viewBox="0 0 24 24">
    <path fill="#fff" fill-rule="evenodd" d="M20.547 14.5c-1.9 2.7-4.8 4.3-8.1 4.6-4.7 0-7.9-4.2-9.1-6.1-.4-.6-.4-1.4 0-1.9l.2-.3.3-.1c2-.7 4.3-.6 6.3.3q.3 0 .6.3c1.2.9 2.5 1.7 3.8 2.3h.1c.1.1.3.1.4.1 1.7.6 3.5-.2 5.5.8" clip-rule="evenodd" opacity=".15"/>
    <path fill="#133f5d" fill-rule="evenodd" d="M20.547 14.5c-1.9 2.7-4.8 4.3-8.1 4.6-4.7 0-7.9-4.2-9.1-6.1-.4-.6-.4-1.4 0-1.9l.2-.3.3-.1c2-.7 4.3-.6 6.3.3q.3 0 .6.3c1.2.9 2.5 1.7 3.8 2.3h.1c.1.1.3.1.4.1 1.7.6 3.5-.2 5.5.8" clip-rule="evenodd" opacity=".15"/>
    <path stroke="#133f5d" stroke-linecap="round" stroke-linejoin="round" stroke-width="1.5" d="M19.35 8.6c.7.7 1.3 1.6 1.8 2.4.4.6.4 1.4 0 2-2 3.332-5.21 5.858-9.2 6.1-4.7 0-7.9-4.2-9.1-6.2-.4-.6-.4-1.4 0-2l.303-.5c1.3-2.1 4.397-5.5 8.997-5.5 1.7 0 3.4.5 4.8 1.5"/>
    <path stroke="#133f5d" stroke-linecap="round" stroke-linejoin="round" stroke-width="1.5" d="M11.9 14.6a2.6 2.6 0 1 0 0-5.2 2.6 2.6 0 0 0 0 5.2"/>
</svg>
