<svg xmlns="http://www.w3.org/2000/svg" width="20" height="21" fill="none" viewBox="0 0 20 21">
    <path fill="#fff" fill-rule="evenodd" d="M17.123 12.388c-1.584 2.25-4 3.584-6.75 3.834-3.917 0-6.584-3.5-7.584-5.084-.333-.5-.333-1.166 0-1.583l.167-.25.25-.083c1.667-.584 3.583-.5 5.25.25q.25 0 .5.25c1 .75 2.083 1.416 3.167 1.916h.083c.083.084.25.084.333.084 1.417.5 2.917-.167 4.584.666" clip-rule="evenodd" opacity=".15"/>
    <path fill="#133f5d" fill-rule="evenodd" d="M17.123 12.388c-1.584 2.25-4 3.584-6.75 3.834-3.917 0-6.584-3.5-7.584-5.084-.333-.5-.333-1.166 0-1.583l.167-.25.25-.083c1.667-.584 3.583-.5 5.25.25q.25 0 .5.25c1 .75 2.083 1.416 3.167 1.916h.083c.083.084.25.084.333.084 1.417.5 2.917-.167 4.584.666" clip-rule="evenodd" opacity=".15"/>
    <path stroke="#133f5d" stroke-linecap="round" stroke-linejoin="round" stroke-width="1.2" d="M16.125 7.472c.583.583 1.083 1.333 1.5 2 .333.5.333 1.166 0 1.666-1.666 2.777-4.342 4.882-7.667 5.083-3.916 0-6.583-3.5-7.583-5.166a1.51 1.51 0 0 1 0-1.667l.253-.417c1.083-1.75 3.664-4.583 7.497-4.583 1.417 0 2.833.417 4 1.25"/>
    <path stroke="#133f5d" stroke-linecap="round" stroke-linejoin="round" stroke-width="1.2" d="M9.917 12.472a2.167 2.167 0 1 0 0-4.334 2.167 2.167 0 0 0 0 4.334"/>
</svg>
