<svg xmlns="http://www.w3.org/2000/svg" width="20" height="21" fill="none" viewBox="0 0 20 21">
    <path fill="#718c9e" fill-rule="evenodd" d="M15.204 17.015c-.25.333-.667.5-1.084.5H5.704c-.834-.083-1.417-.75-1.417-1.583v-3c.417-.5.917-.834 1.5-1.084a3.84 3.84 0 0 1 3.417.334c.583.5 1.166.916 1.833 1.333.083 0 .083.083.167.083 1.083.334 2.166-.5 3.416 1.167.5.75.75 1.5.584 2.25" clip-rule="evenodd" opacity=".15"/>
    <path stroke="#718c9e" stroke-linecap="round" stroke-linejoin="round" stroke-width="1.5" d="M13.267 11.11H6.85M13.267 14.36H6.85M8.434 7.943H6.85M5.796 17.584c-.75 0-1.417-.667-1.417-1.417V4.834c0-.75.667-1.417 1.417-1.417h5.667l4.25 4.25v8.5c0 .75-.667 1.417-1.417 1.417h-4.75"/>
    <path stroke="#718c9e" stroke-linecap="round" stroke-linejoin="round" stroke-width="1.5" d="M10.88 3.417V8.25h4.75"/>
</svg>
