<svg xmlns="http://www.w3.org/2000/svg" width="40" height="40" fill="none" viewBox="0 0 40 40">
    <circle cx="20" cy="20" r="20" fill="#fff"/>
    <path stroke="#133f5d" stroke-linecap="round" stroke-linejoin="round" d="M21.52 18.333H20l.834-6.666-7.423 8.906c-.29.35-.436.523-.438.67a.42.42 0 0 0 .155.331c.114.093.341.093.796.093H20l-.833 6.666 7.422-8.906c.29-.349.436-.523.438-.67a.42.42 0 0 0-.155-.331c-.114-.093-.341-.093-.795-.093h-.76"/>
    <path fill="#133f5d" fill-rule="evenodd" d="m26 21.085-1.5.415c-.1 1.226-1.508 3.636-2.5 3.5l-2 1.5c-.469.072 0-3-.5-4.5-1.522-1.073-6.406.082-6.5-.5l.5-1.5c1.092-.136 2.008-3.68 3-3 1.886 1.498 1.859 2.86 3.248 3.405 1.985.68 3.275-1.226 6.252.68" clip-rule="evenodd" opacity=".15"/>
</svg>
