<svg xmlns="http://www.w3.org/2000/svg" width="40" height="40" fill="none" viewBox="0 0 40 40">
    <circle cx="20" cy="20" r="20" fill="#fff"/>
    <path stroke="#133f5d" stroke-linecap="round" stroke-linejoin="round" d="m16.667 16.667-3.256 3.906c-.29.35-.436.523-.438.67a.42.42 0 0 0 .155.331c.114.093.341.093.795.093H20l-.833 6.666 4.166-5m-.291-5h3.035c.454 0 .68 0 .795.093.1.08.157.202.155.33-.002.148-.148.322-.438.67l-1.13 1.357m-6.648-6.689 2.022-2.427-.5 3.998M27.5 27.5l-15-15"/>
    <path fill="#133f5d" fill-rule="evenodd" d="M26 20.5c-.5 1-3.008 4.636-4 4.5l-2.252 2.13c-.469.072.252-3.63-.248-5.13-1.522-1.073-6.406.082-6.5-.5l.5-1.5c1.092-.136 2.008-3.68 3-3 1.886 1.498 1.61 2.955 3 3.5 1.985.68 3.523-1.906 6.5 0" clip-rule="evenodd" opacity=".15"/>
</svg>
