<svg xmlns="http://www.w3.org/2000/svg" width="26" height="28" fill="none" viewBox="0 0 26 28">
    <path fill="#fff" stroke="url(#a)" stroke-width=".972" d="M.486 13.214c0-6.603 5.353-11.956 11.957-11.956 6.603 0 11.957 5.353 11.957 11.956 0 6.604-5.354 11.957-11.957 11.957S.486 19.818.486 13.214Z"/>
    <path stroke="url(#b)" stroke-linecap="round" stroke-linejoin="round" stroke-width="1.459" d="M2.488 13.214h.996"/>
    <path stroke="url(#c)" stroke-linecap="round" stroke-linejoin="round" stroke-width="1.459" d="M21.402 13.214h.995"/>
    <path stroke="url(#d)" stroke-linecap="round" stroke-linejoin="round" stroke-width="1.459" d="M12.443 23.168v-.995"/>
    <path stroke="url(#e)" stroke-linecap="round" stroke-linejoin="round" stroke-width="1.459" d="M12.443 4.256V3.26"/>
    <path fill="url(#f)" stroke="url(#g)" stroke-width=".486" d="m9.726 11.683 5.712-6.854c.268-.322.768.032.554.392l-2.544 4.27a.34.34 0 0 0 .173.492l3.424 1.284a.34.34 0 0 1 .143.535l-7.512 9.113c-.268.326-.772-.032-.553-.393l4.386-7.238a.34.34 0 0 0-.237-.513l-3.339-.534a.34.34 0 0 1-.207-.554Z"/>
    <circle cx="21.214" cy="22.729" r="4.5" fill="#93c854"/>
    <path fill="#fff" d="M21.385 22.668a.486.486 0 0 1 0 .842l-1.511.872a.486.486 0 0 1-.73-.42v-1.746c0-.374.406-.608.73-.421z"/>
    <path fill="#fff" d="M23.545 22.668a.486.486 0 0 1 0 .842l-1.511.872a.486.486 0 0 1-.73-.42v-1.746c0-.374.406-.608.73-.421z"/>
    <defs>
        <linearGradient id="a" x1="-8.614" x2="28.076" y1="25.657" y2="25.657" gradientUnits="userSpaceOnUse">
            <stop stop-color="#93c854"/>
            <stop offset="1" stop-color="#4195d5"/>
        </linearGradient>
        <linearGradient id="b" x1="1.991" x2="5.226" y1="13.214" y2="13.214" gradientUnits="userSpaceOnUse">
            <stop stop-color="#3986c1"/>
            <stop offset="0" stop-color="#4195d5"/>
            <stop offset="1" stop-color="#133f5d"/>
        </linearGradient>
        <linearGradient id="c" x1="19.909" x2="23.144" y1="13.214" y2="13.214" gradientUnits="userSpaceOnUse">
            <stop stop-color="#3986c1"/>
            <stop offset="0" stop-color="#4195d5"/>
            <stop offset="1" stop-color="#133f5d"/>
        </linearGradient>
        <linearGradient id="d" x1="12.443" x2="12.443" y1="23.666" y2="20.431" gradientUnits="userSpaceOnUse">
            <stop stop-color="#3986c1"/>
            <stop offset="0" stop-color="#4195d5"/>
            <stop offset="1" stop-color="#133f5d"/>
        </linearGradient>
        <linearGradient id="e" x1="12.443" x2="12.443" y1="5.749" y2="2.514" gradientUnits="userSpaceOnUse">
            <stop stop-color="#3986c1"/>
            <stop offset="0" stop-color="#4195d5"/>
            <stop offset="1" stop-color="#133f5d"/>
        </linearGradient>
        <linearGradient id="f" x1="14.087" x2="24.872" y1="24.691" y2="24.691" gradientUnits="userSpaceOnUse">
            <stop stop-color="#3986c1"/>
            <stop offset="1" stop-color="#133f5d"/>
        </linearGradient>
        <linearGradient id="g" x1="14.087" x2="24.872" y1="24.691" y2="24.691" gradientUnits="userSpaceOnUse">
            <stop stop-color="#3986c1"/>
            <stop offset="1" stop-color="#133f5d"/>
        </linearGradient>
    </defs>
</svg>
