<svg xmlns="http://www.w3.org/2000/svg" width="16" height="17" fill="none" viewBox="0 0 16 17">
    <path fill="#59a237" d="M14 8.49a5.96 5.96 0 0 1-1.348 3.8 5.949 5.949 0 0 1-3.473 2.1 5.9 5.9 0 0 1-3.437-.352 5.98 5.98 0 0 1-2.668-2.215A6.05 6.05 0 0 1 2.07 8.488a5.3 5.3 0 0 1 .066-.863A6.03 6.03 0 0 1 4.308 3.82a5.93 5.93 0 0 1 8.084.588A6.05 6.05 0 0 1 14 8.488z"/>
    <path fill="#fff" fill-rule="evenodd" d="M12.582 12.2c-.133.159-.27.319-.418.468a5.95 5.95 0 0 1-3.054 1.63 5.9 5.9 0 0 1-3.438-.35 5.98 5.98 0 0 1-2.668-2.215A6.05 6.05 0 0 1 2 8.398q-.003-.434.066-.863c.01 0 .01-.01.019-.01 1.096-.543 2.37-.984 3.951-.009.81.507 1.004 1.716 2.269 2.14 1.079.365 2.584-.19 3.793 1.378.266.335.434.74.483 1.165" clip-rule="evenodd" opacity=".2"/>
    <path stroke="#fff" stroke-linecap="round" stroke-linejoin="round" d="m5.334 8.516 1.96 1.977 3.74-3.77"/>
</svg>
