<svg width="18" height="19" viewBox="0 0 18 19" fill="none" xmlns="http://www.w3.org/2000/svg">
<g clip-path="url(#clip0_623_88)">
<path d="M5.64602 7.60802V6.12052C5.62256 5.70202 5.68474 5.28313 5.82874 4.88949C5.97274 4.49584 6.19555 4.13572 6.48353 3.83115C6.7715 3.52658 7.11859 3.28396 7.50356 3.11815C7.88853 2.95234 8.30328 2.86682 8.72244 2.86682C9.1416 2.86682 9.55635 2.95234 9.94132 3.11815C10.3263 3.28396 10.6734 3.52658 10.9614 3.83115C11.2493 4.13572 11.4721 4.49584 11.6161 4.88949C11.7601 5.28313 11.8223 5.70202 11.7989 6.12052V7.55972" stroke="#E35273" stroke-width="1.57895" stroke-linecap="round" stroke-linejoin="round"/>
<path opacity="0.3" fill-rule="evenodd" clip-rule="evenodd" d="M13.8369 15.4994C13.667 15.7472 13.4392 15.9498 13.1733 16.0895C12.9073 16.2292 12.6112 16.3019 12.3108 16.3011H5.14374C4.90065 16.3011 4.65996 16.2531 4.43549 16.1598C4.21103 16.0665 4.00722 15.9297 3.83578 15.7574C3.66434 15.585 3.52865 15.3805 3.4365 15.1555C3.34436 14.9306 3.29758 14.6897 3.29885 14.4466V10.892C3.90581 10.6799 4.54981 10.5945 5.19108 10.641C5.83235 10.6875 6.45727 10.865 7.02726 11.1625C7.73494 11.7036 8.5112 12.1486 9.33578 12.4858C10.5239 12.8045 11.7892 11.9545 13.1994 13.5483C13.652 14.0941 13.8799 14.7917 13.8369 15.4994Z" fill="#E35273"/>
<path d="M8.72725 12.0801C9.39407 12.0801 9.93464 11.5395 9.93464 10.8727C9.93464 10.2058 9.39407 9.66528 8.72725 9.66528C8.06043 9.66528 7.51987 10.2058 7.51987 10.8727C7.51987 11.5395 8.06043 12.0801 8.72725 12.0801Z" fill="#E35273"/>
<path d="M8.72728 10.8727V14.2727" stroke="#E35273" stroke-width="1.05263" stroke-linecap="round" stroke-linejoin="round"/>
<path d="M14.1557 11.9063V14.4466C14.1582 14.6901 14.1123 14.9316 14.0207 15.1571C13.929 15.3826 13.7933 15.5877 13.6216 15.7603C13.4499 15.9329 13.2456 16.0696 13.0206 16.1624C12.7955 16.2553 12.5542 16.3025 12.3108 16.3012H5.14374C4.90065 16.3012 4.65996 16.2531 4.43549 16.1598C4.21103 16.0665 4.00722 15.9297 3.83578 15.7574C3.66434 15.5851 3.52865 15.3805 3.4365 15.1556C3.34436 14.9306 3.29758 14.6897 3.29885 14.4466V9.49151C3.29885 9.00132 3.49291 8.53107 3.83862 8.18355C4.18433 7.83603 4.65356 7.63952 5.14374 7.63696H12.3108C12.801 7.63952 13.2702 7.83603 13.6159 8.18355C13.9616 8.53107 14.1557 9.00132 14.1557 9.49151" stroke="#E35273" stroke-width="1.57895" stroke-linecap="round" stroke-linejoin="round"/>
</g>
<defs>
<clipPath id="clip0_623_88">
<rect width="12.9545" height="15" fill="white" transform="translate(2.25 2)"/>
</clipPath>
</defs>
</svg>
