<svg width="20" height="21" viewBox="0 0 20 21" fill="none" xmlns="http://www.w3.org/2000/svg">
<g clip-path="url(#clip0_11658_42619)">
<path d="M16 10.1745C16.002 11.5541 15.5258 12.8917 14.6523 13.9596L14.2305 14.4284C13.3879 15.2584 12.3193 15.8214 11.1583 16.0469C9.9973 16.2725 8.79557 16.1506 7.70352 15.6966C6.61147 15.2425 5.67762 14.4764 5.01885 13.4941C4.36009 12.5119 4.00569 11.3572 4 10.1745C3.99962 9.88397 4.02314 9.59393 4.07032 9.30729C4.30017 7.8171 5.08266 6.46809 6.26207 5.5287C7.44149 4.5893 8.93136 4.12841 10.4352 4.23772C11.939 4.34704 13.3466 5.01855 14.3777 6.11864C15.4089 7.21872 15.9881 8.66672 16 10.1745Z" fill="#9AA6B0"/>
<path opacity="0.2" fill-rule="evenodd" clip-rule="evenodd" d="M14.6523 13.9598L14.2305 14.4286C13.3879 15.2585 12.3193 15.8215 11.1583 16.0471C9.9973 16.2727 8.79557 16.1508 7.70352 15.6967C6.61147 15.2427 5.67762 14.4765 5.01885 13.4943C4.36009 12.5121 4.00569 11.3573 4 10.1747C3.99962 9.88415 4.02314 9.59411 4.07032 9.30747C4.66557 8.93411 5.354 8.73608 6.05665 8.73608C6.7593 8.73608 7.44772 8.93411 8.04297 9.30747C8.86329 9.82309 9.0625 11.0301 10.3867 11.452C11.4766 11.8153 12.9883 11.2645 14.207 12.8231C14.4533 13.156 14.6069 13.5482 14.6523 13.9598Z" fill="white"/>
<path d="M9.99166 6.16284C10.3864 6.16284 10.7064 6.48282 10.7064 6.87754V9.8711C10.7064 10.1734 10.6883 10.4741 10.6521 10.7731C10.6302 10.9524 10.6041 11.1342 10.5737 11.3183C10.539 11.5287 10.355 11.68 10.1418 11.68H9.84153C9.6283 11.68 9.44432 11.5287 9.40962 11.3183C9.37924 11.1342 9.3531 10.9524 9.33118 10.7731C9.29503 10.4741 9.27696 10.1734 9.27696 9.8711V6.87754C9.27696 6.48282 9.59694 6.16284 9.99166 6.16284ZM9.10938 13.4594C9.10938 13.3411 9.13073 13.231 9.17345 13.1292C9.21946 13.0273 9.28025 12.9386 9.35582 12.863C9.43469 12.7874 9.52669 12.7283 9.63185 12.6855C9.737 12.6395 9.85201 12.6165 9.97687 12.6165C10.0985 12.6165 10.2118 12.6395 10.317 12.6855C10.4221 12.7283 10.5141 12.7874 10.593 12.863C10.6719 12.9386 10.7327 13.0273 10.7754 13.1292C10.8214 13.231 10.8444 13.3411 10.8444 13.4594C10.8444 13.5777 10.8214 13.6894 10.7754 13.7946C10.7327 13.8964 10.6719 13.9852 10.593 14.0607C10.5141 14.1363 10.4221 14.1955 10.317 14.2382C10.2118 14.2809 10.0985 14.3022 9.97687 14.3022C9.85201 14.3022 9.737 14.2809 9.63185 14.2382C9.52669 14.1955 9.43469 14.1363 9.35582 14.0607C9.28025 13.9852 9.21946 13.8964 9.17345 13.7946C9.13073 13.6894 9.10938 13.5777 9.10938 13.4594Z" fill="white"/>
</g>
<defs>
<clipPath id="clip0_11658_42619">
<rect width="12" height="12" fill="white" transform="translate(4 4.16284)"/>
</clipPath>
</defs>
</svg>
