<svg width="18" height="18" viewBox="0 0 18 18" fill="none" xmlns="http://www.w3.org/2000/svg">
<path opacity="0.3" fill-rule="evenodd" clip-rule="evenodd" d="M15.4216 10.2275C14.5717 13.8159 10.9833 15.8934 7.39495 15.0436C6.07291 14.7603 4.93973 14.0048 4.08984 13.0605C4.8453 12.305 5.88404 11.8329 6.92279 11.7385C7.96154 11.7385 9.00028 11.644 9.9446 11.3607C11.2666 10.7941 11.8332 9.1888 14.2884 9.66096C14.7606 9.84982 15.1383 10.0387 15.4216 10.2275Z" fill="#133F5D"/>
<path d="M10.4162 2.76733C13.8158 3.52279 15.9877 7.01675 15.2322 10.4163C14.4768 13.8158 10.9828 15.9877 7.58328 15.2323C4.18375 14.4768 2.01183 10.9829 2.76728 7.58334C3.23944 5.50585 4.75034 3.80608 6.82783 3.05063" stroke="#133F5D" stroke-width="1.12499" stroke-linecap="round" stroke-linejoin="round"/>
<path d="M8.52734 5.60034V9.47203L11.077 10.6996" stroke="#133F5D" stroke-width="1.12499" stroke-linecap="round" stroke-linejoin="round"/>
<path d="M4.65562 13.7217L2.57812 15.7992" stroke="#133F5D" stroke-width="1.12499" stroke-linecap="round" stroke-linejoin="round"/>
<path d="M13.3438 13.7217L15.4212 15.7992" stroke="#133F5D" stroke-width="1.12499" stroke-linecap="round" stroke-linejoin="round"/>
<path d="M1.72656 4.08956V3.05081C1.72656 2.57865 2.10429 2.20093 2.57645 2.20093H3.61519" stroke="#133F5D" stroke-width="1.12499" stroke-linecap="round" stroke-linejoin="round"/>
<path d="M16.2714 4.08956V3.05081C16.2714 2.57865 15.8937 2.20093 15.4216 2.20093H14.3828" stroke="#133F5D" stroke-width="1.12499" stroke-linecap="round" stroke-linejoin="round"/>
</svg>
