<svg width="18" height="19" viewBox="0 0 18 19" fill="none" xmlns="http://www.w3.org/2000/svg">
<path opacity="0.3" fill-rule="evenodd" clip-rule="evenodd" d="M14.25 13.2094C12.8322 13.1535 11.4114 13.2309 10.0139 13.4399C8.66498 13.6457 5.64081 14.2293 3 13.5222V11.505C3.0261 11.4885 3.05872 11.4721 3.08156 11.4556C3.64478 11.1754 4.27122 10.9971 4.92098 10.932C5.57075 10.867 6.22949 10.9166 6.85519 11.0777C7.65274 11.418 8.50087 11.6669 9.37695 11.8178C10.6084 11.8946 11.6907 11.0009 13.3847 12.0976C13.8067 12.3812 14.1099 12.7707 14.25 13.2094Z" fill="#4199D5"/>
<path d="M13.0606 4.86206C13.7237 4.87199 14.3802 5.02716 15 5.32044V13.2099C14.3936 13.0894 13.7819 13.0159 13.1682 12.9899C11.8867 12.9152 10.6024 13.0185 9.33945 13.298C8.12021 13.573 5.38688 14.3531 3 13.408V5.32044C4.96169 5.69719 6.95833 5.69719 8.92005 5.32044C9.43163 5.19943 10.1179 5.06008 10.8646 4.96381" stroke="#4199D5" stroke-width="1.5" stroke-linecap="round" stroke-linejoin="round"/>
<path d="M9 10.862C9.82845 10.862 10.5 10.1905 10.5 9.36205C10.5 8.53367 9.82845 7.86206 9 7.86206C8.17159 7.86206 7.5 8.53367 7.5 9.36205C7.5 10.1905 8.17159 10.862 9 10.862Z" stroke="#4199D5" stroke-width="1.5" stroke-linecap="round" stroke-linejoin="round"/>
</svg>
