<svg xmlns="http://www.w3.org/2000/svg" width="24" height="24" fill="none" viewBox="0 0 24 24">
    <path fill="#133f5d" d="M4 6v16h16s.938-.45 1-1.5c.185-3.15 0-4.5-7.5-4C6.109 16.993 4 8.686 4 6" opacity=".15"/>
    <path stroke="#133f5d" stroke-linecap="round" stroke-linejoin="round" stroke-width="1.5" d="M14 2.27V6.4c0 .56 0 .84.109 1.054a1 1 0 0 0 .437.437c.214.11.494.11 1.054.11h4.13M8 22c-1.68 0-1.72 0-2.362-.327a3 3 0 0 1-1.311-1.311C4 19.72 4 18.88 4 17.2V6.8c0-1.68 0-2.52.327-3.162a3 3 0 0 1 1.311-1.311C6.28 2 7.12 2 8.8 2H14l6 6v3.5"/>
    <path stroke="#133f5d" stroke-linecap="round" stroke-linejoin="round" stroke-width="1.5" d="M14.55 22h-1.3C11.455 22 10 20.433 10 18.5s1.455-3.5 3.25-3.5h1.3m3.9 7h1.3c1.795 0 3.25-1.567 3.25-3.5S21.545 15 19.75 15h-1.3m-5.2 3.5h6.5"/>
</svg>
