<svg width="24" height="25" viewBox="0 0 24 25" fill="none" xmlns="http://www.w3.org/2000/svg">
<path d="M6.76192 6.30952L8.66668 4.40476M8.66668 4.40476L6.76192 2.5M8.66668 4.40476H6.76192C4.65797 4.40476 2.95239 6.11034 2.95239 8.21429M18.1905 17.7381L16.2857 19.6429M16.2857 19.6429L18.1905 21.5476M16.2857 19.6429H18.1905C20.2944 19.6429 22 17.9373 22 15.8333" stroke="#133F5D" stroke-width="1.5" stroke-linecap="round" stroke-linejoin="round"/>
<path d="M14 9.86461V7.19798M14 7.19798V3.64239C15.0341 3.35837 17.5454 3.30153 17.5454 5.42013C17.5454 6.39532 17.0759 6.84943 16.4395 7.05556M14 7.19798C14.7175 7.19798 15.6933 7.29723 16.4395 7.05556M16.4395 7.05556C17.5454 7.5 17.5454 9.62297 17.5454 9.86461M19.4546 11.5V9.27785M19.4546 9.27785V5.72226C20.4887 5.43825 23 5.38141 23 7.5C23 8.47519 22.5305 8.92931 21.8941 9.13543C21.1479 9.3771 20.1721 9.27785 19.4546 9.27785Z" stroke="#133F5D" stroke-width="1.5" stroke-linecap="round" stroke-linejoin="round"/>
<path d="M4 19.2C4 20.415 5.04467 21.4 6.33333 21.4H8.66667C9.95533 21.4 11 20.415 11 19.2C11 17.985 9.95533 17 8.66667 17H6.33333C5.04467 17 4 16.015 4 14.8C4 13.585 5.04467 12.6 6.33333 12.6H8.66667C9.95533 12.6 11 13.585 11 14.8M7.5 11.5V22.5" stroke="#133F5D" stroke-width="1.5" stroke-linecap="round" stroke-linejoin="round"/>
</svg>
