<svg xmlns="http://www.w3.org/2000/svg" width="24" height="25" fill="none" viewBox="0 0 24 25">
    <path stroke="#133f5d" stroke-linecap="round" stroke-linejoin="round" stroke-width="1.5" d="M16 4.5c.93 0 1.395 0 1.776.102a3 3 0 0 1 2.122 2.122C20 7.105 20 7.57 20 8.5v6.9m-.327 5.462a3 3 0 0 1-1.311 1.311c-.642.327-1.482.327-3.162.327H8.8c-1.68 0-2.52 0-3.162-.327a3 3 0 0 1-1.311-1.311C4 20.22 4 19.38 4 17.7V8.5c0-.93 0-1.395.102-1.776a3 3 0 0 1 2.122-2.122C6.605 4.5 7.07 4.5 8 4.5m1.6 2h4.8c.56 0 .84 0 1.054-.109a1 1 0 0 0 .437-.437C16 5.74 16 5.46 16 4.9v-.8c0-.56 0-.84-.109-1.054a1 1 0 0 0-.437-.437C15.24 2.5 14.96 2.5 14.4 2.5H9.6c-.56 0-.84 0-1.054.109a1 1 0 0 0-.437.437C8 3.26 8 3.54 8 4.1v.8c0 .56 0 .84.109 1.054a1 1 0 0 0 .437.437C8.76 6.5 9.04 6.5 9.6 6.5"/>
    <path fill="#133f5d" d="M4 22.5h14v-3.502s0-5.117-6.137-3.698C5.527 16.766 4 10.018 4 7.5z" opacity=".15"/>
    <path stroke="#133f5d" stroke-linecap="round" stroke-linejoin="round" stroke-width="1.5" d="M14 10.5H8m2 4H8"/>
</svg>
