<svg width="20" height="20" viewBox="0 0 20 20" fill="none" xmlns="http://www.w3.org/2000/svg">
<path d="M16.6654 10.417V5.66699C16.6654 4.26686 16.6654 3.5668 16.3929 3.03202C16.1532 2.56161 15.7707 2.17916 15.3003 1.93948C14.7656 1.66699 14.0655 1.66699 12.6654 1.66699H7.33203C5.9319 1.66699 5.23183 1.66699 4.69705 1.93948C4.22665 2.17916 3.8442 2.56161 3.60451 3.03202C3.33203 3.5668 3.33203 4.26686 3.33203 5.66699V14.3337C3.33203 15.7338 3.33203 16.4339 3.60451 16.9686C3.8442 17.439 4.22665 17.8215 4.69705 18.0612C5.23183 18.3337 5.9319 18.3337 7.33203 18.3337H9.9987M11.6654 9.16699H6.66536M8.33203 12.5003H6.66536M13.332 5.83366H6.66536" stroke="#133F5D" stroke-width="1.25" stroke-linecap="round" stroke-linejoin="round"/>
<path opacity="0.2" fill-rule="evenodd" clip-rule="evenodd" d="M3.8576 2.57505C4.16376 2.24994 4.671 2.0902 5.17692 2.09423L15.3966 2.17573C16.4078 2.26568 17.1108 2.92642 17.1043 3.74526L17.0808 6.69305C16.571 7.18032 15.9612 7.50303 15.251 7.74303C13.9323 8.14196 12.4152 8.04798 11.105 7.38242C10.4006 6.88547 9.69562 6.4704 8.88941 6.05452C8.78823 6.05372 8.78888 5.97183 8.6877 5.97102C7.37491 5.633 6.05297 6.44135 4.54826 4.79157C3.94703 4.04978 3.64935 3.31039 3.8576 2.57505Z" fill="#133F5D"/>
<path d="M15.4711 18.3234C15.7179 18.7113 16.2324 18.8256 16.6203 18.5787C17.0081 18.3319 17.1224 17.8174 16.8756 17.4295L13.9242 12.7924C13.8585 12.6891 13.8256 12.6374 13.784 12.5945C13.7471 12.5564 13.7053 12.5234 13.6595 12.4965C13.608 12.4662 13.5501 12.4464 13.4342 12.4068L12.4859 12.0828L12.3779 13.0791C12.3647 13.2009 12.3581 13.2617 12.3637 13.3213C12.3687 13.3741 12.3809 13.4259 12.3998 13.4755C12.4211 13.5313 12.4539 13.583 12.5197 13.6863L14.7979 17.2657L14.9568 17.1706L16.2051 16.3761" stroke="#133F5D" stroke-width="0.962299" stroke-linecap="round" stroke-linejoin="round"/>
</svg>
