<svg width="20" height="20" viewBox="0 0 20 20" fill="none" xmlns="http://www.w3.org/2000/svg">
<path d="M16.6693 7.91699V5.66699C16.6693 4.26686 16.6693 3.5668 16.3968 3.03202C16.1571 2.56161 15.7747 2.17916 15.3042 1.93948C14.7695 1.66699 14.0694 1.66699 12.6693 1.66699H7.33594C5.93581 1.66699 5.23574 1.66699 4.70096 1.93948C4.23056 2.17916 3.8481 2.56161 3.60842 3.03202C3.33594 3.5668 3.33594 4.26686 3.33594 5.66699V14.3337C3.33594 15.7338 3.33594 16.4339 3.60842 16.9686C3.8481 17.439 4.23056 17.8215 4.70096 18.0612C5.23574 18.3337 5.93581 18.3337 7.33594 18.3337H11.6693M11.6693 9.16699H6.66927M8.33594 12.5003H6.66927M13.3359 5.83366H6.66927" stroke="#133F5D" stroke-width="1.25" stroke-linecap="round" stroke-linejoin="round"/>
<path d="M16.6145 16.667H13.3047V15.5777C13.3047 15.4101 13.3466 15.2426 13.3885 15.075C13.598 14.4884 14.1426 14.1113 14.7711 14.1113H17.3268C17.7458 14.1113 18.1228 14.2789 18.3742 14.5722C18.458 14.656 18.5418 14.7817 18.6256 14.9074C18.7513 15.1169 18.7932 15.3263 18.7932 15.5777V16.667H18.0809" stroke="#133F5D" stroke-linecap="round" stroke-linejoin="round"/>
<path d="M17.4959 11.4295C17.4959 12.2255 16.8675 12.8959 16.0295 12.8959C15.5268 12.8959 15.0659 12.6445 14.7726 12.2255C14.5212 11.8066 14.4793 11.2619 14.6888 10.8429C15.024 10.1307 15.9038 9.79552 16.6161 10.1307C16.9513 10.2983 17.2026 10.5497 17.3702 10.9267C17.454 11.0524 17.4959 11.2619 17.4959 11.4295Z" stroke="#133F5D" stroke-linecap="round" stroke-linejoin="round"/>
<path opacity="0.15" fill-rule="evenodd" clip-rule="evenodd" d="M4.2248 2.28813C4.50727 1.90787 4.98011 1.7162 5.45381 1.71403L15.0225 1.67005C15.9704 1.76043 16.637 2.51533 16.6414 3.46273L16.6571 6.87335C16.186 7.44397 15.6193 7.82556 14.9574 8.11282C13.728 8.59218 12.3064 8.50398 11.0713 7.75172C10.4055 7.18633 9.74018 6.71567 8.98009 6.24545C8.88535 6.24589 8.88491 6.15114 8.79017 6.15158C7.55681 5.77828 6.32954 6.73135 4.89973 4.84308C4.32737 3.99303 4.03923 3.14166 4.2248 2.28813Z" fill="#133F5D"/>
<path opacity="0.15" d="M17.066 10.7011C17.427 11.2787 17.2465 12.0729 16.6689 12.4339C16.0914 12.7949 15.2972 12.6144 14.9362 12.0368C14.5752 11.4592 14.7557 10.665 15.3333 10.304C15.5138 10.1957 15.7665 10.1236 15.9831 10.1236C16.4523 10.0875 16.8494 10.3401 17.066 10.7011Z" fill="#133F5D"/>
<path opacity="0.15" fill-rule="evenodd" clip-rule="evenodd" d="M17.8968 14.8134C17.7173 14.9212 17.5377 14.9571 17.3581 14.993C16.7835 15.0289 16.3885 14.8134 15.778 15.0289C15.1316 15.2444 14.8802 15.9626 13.731 15.7471C13.5873 15.7112 13.4796 15.6753 13.3359 15.6035V15.4239C13.3359 15.2803 13.3718 15.1366 13.4078 14.993C13.5873 14.4902 14.0542 14.167 14.5929 14.167H16.7835C17.1427 14.167 17.4659 14.3106 17.6814 14.562C17.7532 14.5979 17.825 14.7057 17.8968 14.8134Z" fill="#133F5D"/>
</svg>
