<svg xmlns="http://www.w3.org/2000/svg" width="16" height="18" fill="none" viewBox="0 0 16 18">
    <path fill="#133f5d" fill-rule="evenodd" d="M14.673 11.915v3.59c0 .757-.606 1.364-1.364 1.44H9.063s-.752-.067-1.965.084l-.386-.084H2.24c-.303-.076-.607-.228-.758-.455 1.364-1.365 2.928-1.933 4.823-2.01 2.377 0 1.632-.354 3.073-.505 2.549 0 2.784-2.06 5.296-2.06" clip-rule="evenodd" opacity=".2"/>
    <path stroke="#133f5d" stroke-linecap="round" d="M1.653 11.264V8.14h12.816v6.585c0 1.232-1 2.232-2.232 2.232H3.884a2.23 2.23 0 0 1-2.232-2.232v-.456"/>
    <path stroke="#133f5d" d="M1 6.496c0-.8.648-1.448 1.447-1.448h11.259a1.447 1.447 0 0 1 0 2.895H2.447C1.648 7.943 1 7.295 1 6.496ZM3.97.864c1.753-.224 3.51.821 4.106 3.799-2.626.233-3.897-.3-4.826-1.253-1.113-1.328-.505-2.294.72-2.546ZM12.346.864c-1.753-.224-3.51.821-4.106 3.799 2.626.233 3.897-.3 4.826-1.253 1.114-1.328.505-2.294-.72-2.546ZM7.975 4.548v12.073"/>
</svg>
