<svg xmlns="http://www.w3.org/2000/svg" width="24" height="24" fill="none" viewBox="0 0 24 24">
    <path stroke="#133f5d" stroke-width="1.5" d="M21 12.018a8.95 8.95 0 0 1-2.021 5.677l-.633.703A9.016 9.016 0 0 1 3 12.019q0-.655.105-1.301A9 9 0 0 1 21 12.017Z"/>
    <path fill="#133f5d" d="M9 7.49q.264-.234.575-.444a4.054 4.054 0 0 1 1.479-.607q.428-.094.926-.094.678 0 1.23.187.56.188.957.537.397.342.615.833T15 8.999q0 .591-.171 1.027-.171.429-.436.748a3.3 3.3 0 0 1-.56.552l-.576.444q-.273.203-.475.404a.8.8 0 0 0-.234.444l-.179 1.136h-1.315l-.132-1.268a.3.3 0 0 1-.008-.062v-.07q0-.343.171-.592.171-.257.428-.475.258-.225.553-.436.295-.21.552-.451a2.4 2.4 0 0 0 .428-.56q.172-.312.172-.732a1.1 1.1 0 0 0-.11-.498 1.05 1.05 0 0 0-.287-.381 1.3 1.3 0 0 0-.452-.25 1.8 1.8 0 0 0-.56-.085q-.444 0-.755.101a2.6 2.6 0 0 0-.521.218q-.21.117-.358.218a.5.5 0 0 1-.265.093.43.43 0 0 1-.405-.233zm1.47 9.175q0-.24.086-.46.093-.216.25-.373.162-.156.38-.249.219-.093.467-.093.241 0 .46.093.218.094.373.25a1.18 1.18 0 0 1 .343.832q0 .25-.094.467-.093.21-.249.366a1.1 1.1 0 0 1-.373.241 1.2 1.2 0 0 1-.46.093q-.248 0-.467-.093a1.2 1.2 0 0 1-.38-.241 1.2 1.2 0 0 1-.25-.366 1.3 1.3 0 0 1-.086-.467"/>
</svg>
