<svg width="18" height="18" viewBox="0 0 18 18" fill="none" xmlns="http://www.w3.org/2000/svg">
<path d="M16.2929 3.69629V7.6742H12.3149" stroke="#D0D9DF" stroke-width="1.5" stroke-linecap="round" stroke-linejoin="round"/>
<path d="M1.70703 14.3039V10.3259H5.68495" stroke="#D0D9DF" stroke-width="1.5" stroke-linecap="round" stroke-linejoin="round"/>
<path d="M3.37113 7.01101C3.70737 6.06081 4.27884 5.21128 5.03222 4.54167C5.78559 3.87207 6.6963 3.40422 7.67939 3.18178C8.66248 2.95934 9.68589 2.98957 10.6542 3.26964C11.6224 3.5497 12.5039 4.07048 13.2165 4.78338L16.2927 7.674M1.70703 10.3259L4.78329 13.2165C5.49582 13.9294 6.37735 14.4502 7.34559 14.7303C8.31384 15.0103 9.33726 15.0406 10.3204 14.8181C11.3034 14.5957 12.2142 14.1278 12.9675 13.4582C13.7209 12.7886 14.2924 11.9391 14.6286 10.9889" stroke="#D0D9DF" stroke-width="1.5" stroke-linecap="round" stroke-linejoin="round"/>
</svg>
