<svg width="24" height="24" viewBox="0 0 24 24" fill="none" xmlns="http://www.w3.org/2000/svg">
<path opacity="0.15" fill-rule="evenodd" clip-rule="evenodd" d="M14 17.9H4.5C3.7 17.9 3 17.2 3 16.4V10.9C3.2 10.8 3.4 10.7 3.7 10.6C5 10.1 6.5 10.3 7.7 11C8.4 11.6 9.29999 12.1 10.1 12.5C11.4 12.9 12.7 12 14.2 13.7C15.1 15 15 16.7 14 17.9Z" fill="#4199D5"/>
<path d="M3 9.80078H20.9" stroke="#4199D5" stroke-width="1.5" stroke-linecap="round" stroke-linejoin="round"/>
<path d="M5.40073 17.9H5.03394M20.9007 12.3V6.60001V6.60001C20.9007 5.71635 20.1844 5 19.3007 5H18.5339H4.60072C3.70072 5 3.00073 5.70001 3.00073 6.60001V16.3C3.00073 17.2 3.70072 17.9 4.60072 17.9H5.03394M15.3007 17.9H9.90073H5.03394M17.0339 16.4023H19.4673M21.9007 16.4023H19.4673M19.4673 18.8357V16.4023M19.4673 16.4023V13.8357" stroke="#4199D5" stroke-width="1.5" stroke-linecap="round" stroke-linejoin="round"/>
<path d="M8.90002 14.5996H11" stroke="#4199D5" stroke-width="1.5" stroke-linecap="round" stroke-linejoin="round"/>
</svg>
