<svg xmlns="http://www.w3.org/2000/svg" width="32" height="32" fill="none" viewBox="0 0 32 32">
    <path fill="#4199d5" d="M28.002 15.981a11.93 11.93 0 0 1-2.697 7.597c-.265.317-.539.637-.838.936a11.9 11.9 0 0 1-6.108 3.262c-2.31.456-4.702.212-6.875-.7a11.95 11.95 0 0 1-5.337-4.43 12.1 12.1 0 0 1-2.006-6.67q-.005-.868.131-1.726a12.06 12.06 0 0 1 4.343-7.61 11.86 11.86 0 0 1 8.313-2.609 11.9 11.9 0 0 1 7.856 3.784 12.1 12.1 0 0 1 3.215 8.16z"/>
    <path fill="#fff" fill-rule="evenodd" d="M25.163 23.853a14 14 0 0 1-.836.936 11.9 11.9 0 0 1-6.108 3.262c-2.31.456-4.702.212-6.875-.701a11.95 11.95 0 0 1-5.337-4.429A12.1 12.1 0 0 1 4 16.251a10.5 10.5 0 0 1 .132-1.726c.019 0 .019-.019.037-.019 2.194-1.088 4.742-1.969 7.904-.019 1.618 1.014 2.007 3.432 4.537 4.279 2.157.731 5.169-.378 7.587 2.757.531.67.866 1.477.966 2.33" clip-rule="evenodd" opacity=".2"/>
    <path fill="#fff" d="M19.335 19.624q.28 0 .441.161.168.154.168.413v1.036H13v-.574q0-.175.07-.364a1 1 0 0 1 .238-.35l3.073-3.08q.385-.392.686-.749.308-.357.511-.707a3.2 3.2 0 0 0 .308-.707q.112-.364.112-.763a1.8 1.8 0 0 0-.105-.637 1.25 1.25 0 0 0-.301-.469 1.16 1.16 0 0 0-.462-.28 1.7 1.7 0 0 0-.602-.098q-.308 0-.574.091a1.5 1.5 0 0 0-.462.245q-.203.154-.343.364a1.6 1.6 0 0 0-.21.462q-.12.322-.308.427-.189.105-.546.049l-.91-.161q.105-.728.406-1.274.3-.553.749-.917a3.1 3.1 0 0 1 1.036-.553 4.1 4.1 0 0 1 1.26-.189q.7 0 1.281.21.581.203.994.581t.644.91.231 1.183q0 .56-.168 1.036a4 4 0 0 1-.441.91q-.273.435-.644.84-.37.406-.777.826l-2.282 2.331q.33-.098.651-.147.33-.056.623-.056z"/>
</svg>
