<svg xmlns="http://www.w3.org/2000/svg" width="16" height="17" fill="none" viewBox="0 0 16 17">
    <path fill="#4195d5" fill-rule="evenodd" d="M2.667 12.633v.067c0 .6.467 1.066 1 1.066h9.2c.533 0 1-.466 1-1v-2.733c-.333-.267-.733-.4-1.133-.6-1.267-.4-2.6-.333-3.8.333-.734.6-1.467 1.067-2.334 1.4-1.133.334-2.8-1.066-3.933.934.067.133.067.333 0 .533" clip-rule="evenodd" opacity=".15"/>
    <path stroke="#4195d5" stroke-linecap="round" stroke-linejoin="round" stroke-width=".667" d="M14 9.966v2.6c0 .734-.533 1.267-1.266 1.267h-8.8c-.734 0-1.267-.6-1.267-1.267v-2.6M5.267 6.366l3.066-3.2 3.067 3.2M8.334 3.767V10.1"/>
</svg>
