<svg xmlns="http://www.w3.org/2000/svg" width="18" height="19" fill="none" viewBox="0 0 18 19">
    <path fill="#8695a1" d="M15.75 9.085a6.7 6.7 0 0 1-1.516 4.259l-.475.527A6.763 6.763 0 0 1 2.25 9.085q0-.491.08-.975a6.75 6.75 0 0 1 13.42.975"/>
    <path fill="#fff" fill-rule="evenodd" d="m14.234 13.344-.475.527A6.764 6.764 0 0 1 2.25 9.085q0-.491.08-.975a4.21 4.21 0 0 1 4.468 0c.923.58 1.147 1.938 2.637 2.412 1.226.409 2.927-.21 4.298 1.543.277.374.45.816.5 1.279" clip-rule="evenodd" opacity=".2"/>
    <path fill="#fff" d="M8.993 13.729c.444 0 .804-.36.804-.804V9.557q0-.51-.061-1.015a15 15 0 0 0-.062-.446.68.68 0 0 0-.681-.574c-.338 0-.63.24-.682.574q-.034.225-.062.446-.06.505-.06 1.015v3.368c0 .444.36.804.804.804M8 5.52a1 1 0 0 0 .072.372q.078.171.205.3a1 1 0 0 0 .31.199 1 1 0 0 0 .389.077.94.94 0 0 0 .383-.077 1 1 0 0 0 .31-.2.9.9 0 0 0 .205-.3.93.93 0 0 0 0-.749.9.9 0 0 0-.205-.298 1.007 1.007 0 0 0-.693-.272q-.21 0-.388.072a1 1 0 0 0-.31.2 1 1 0 0 0-.206.3A1 1 0 0 0 8 5.52"/>
</svg>
