<svg xmlns="http://www.w3.org/2000/svg" width="13" height="12" fill="none" viewBox="0 0 13 12">
    <g clip-path="url(#a)">
        <path fill="#4195d5" d="M12.089 6.008a5.97 5.97 0 0 1-1.348 3.785l-.422.469A6.012 6.012 0 0 1 .09 6.008q0-.436.07-.867a6 6 0 0 1 11.93.867"/>
        <path fill="#fff" fill-rule="evenodd" d="m10.741 9.793-.422.469A6.012 6.012 0 0 1 .09 6.008q0-.435.07-.868a3.74 3.74 0 0 1 3.973 0c.82.516 1.02 1.723 2.343 2.145 1.09.363 2.602-.187 3.82 1.371.247.333.4.725.446 1.137" clip-rule="evenodd" opacity=".2"/>
        <path fill="#fff" d="M4.088 2.989q.177-.156.384-.296.213-.14.457-.244a2.7 2.7 0 0 1 .53-.16q.285-.063.617-.063.45 0 .82.125.372.124.638.358.264.228.41.555.144.327.145.731 0 .395-.114.685a1.9 1.9 0 0 1-.291.498 2.2 2.2 0 0 1-.374.369l-.384.295q-.18.135-.316.27a.53.53 0 0 0-.156.296l-.119.757h-.877L5.37 6.32a.2.2 0 0 1-.005-.042v-.046q0-.229.114-.395.114-.171.285-.316.171-.15.369-.29.197-.141.368-.302.172-.166.285-.373a1 1 0 0 0 .115-.488.7.7 0 0 0-.073-.332.7.7 0 0 0-.192-.254.85.85 0 0 0-.301-.166 1.2 1.2 0 0 0-.374-.057 1.6 1.6 0 0 0-.503.067q-.202.063-.348.145-.14.078-.238.146a.34.34 0 0 1-.177.062.28.28 0 0 1-.27-.156zm.981 6.117a.8.8 0 0 1 .057-.306.8.8 0 0 1 .166-.25.9.9 0 0 1 .254-.165.78.78 0 0 1 .618 0q.146.062.249.166a.79.79 0 0 1 .228.555.78.78 0 0 1-.228.555.7.7 0 0 1-.25.161.782.782 0 0 1-.617 0 .8.8 0 0 1-.254-.16.8.8 0 0 1-.166-.245.8.8 0 0 1-.057-.311"/>
    </g>
    <defs>
        <clipPath id="a">
            <path fill="#fff" d="M.089-.004h12v12h-12z"/>
        </clipPath>
    </defs>
</svg>
