<svg xmlns="http://www.w3.org/2000/svg" width="18" height="19" fill="none" viewBox="0 0 18 19">
    <path fill="#4195d5" d="M15.75 9.49a6.7 6.7 0 0 1-1.516 4.273 6.691 6.691 0 0 1-3.907 2.361c-1.3.257-2.645.12-3.868-.394a6.72 6.72 0 0 1-3.001-2.491 6.8 6.8 0 0 1-1.13-3.753q0-.489.075-.97a6.78 6.78 0 0 1 2.443-4.281 6.67 6.67 0 0 1 9.095.661 6.8 6.8 0 0 1 1.808 4.59z"/>
    <path fill="#fff" fill-rule="evenodd" d="M14.154 13.662c-.149.18-.303.36-.47.527a6.7 6.7 0 0 1-3.436 1.834 6.66 6.66 0 0 1-3.867-.394 6.72 6.72 0 0 1-3.002-2.491A6.8 6.8 0 0 1 2.25 9.386q-.003-.489.074-.971c.01 0 .01-.01.021-.01 1.234-.613 2.667-1.108 4.446-.011.91.57 1.129 1.93 2.552 2.406 1.213.412 2.907-.212 4.268 1.551.299.377.487.831.543 1.311" clip-rule="evenodd" opacity=".2"/>
    <path stroke="#fff" stroke-linecap="round" stroke-linejoin="round" stroke-width="1.2" d="m6 9.517 2.206 2.225L12.413 7.5"/>
</svg>
