<svg width="21" height="21" viewBox="0 0 21 21" fill="none" xmlns="http://www.w3.org/2000/svg">
<g id="Icon/Paper/History">
<path id="Vector" opacity="0.3" fill-rule="evenodd" clip-rule="evenodd" d="M14.5664 17.892C14.3164 18.142 13.9831 18.392 13.6497 18.392H5.64974C4.89974 18.392 4.31641 17.8086 4.31641 17.0586V14.5586C4.73307 14.142 5.14974 13.892 5.73307 13.7253C6.73307 13.3086 7.98307 13.4753 8.98307 13.9753C9.56641 14.392 10.1497 14.7253 10.6497 14.9753L10.8164 15.0586C11.8164 15.3086 12.8997 14.642 14.0664 15.9753C14.4831 16.5586 14.6497 17.3086 14.5664 17.892Z" fill="#4199D5"/>
<path id="Vector_2" d="M13.1494 4.89209V6.80876L14.6494 7.39209" stroke="#4199D5" stroke-width="1.5" stroke-linecap="round" stroke-linejoin="round"/>
<path id="Vector_3" d="M10.5664 2.72546L10.3164 3.72546L11.3997 4.14213" stroke="#4199D5" stroke-width="1.5" stroke-linecap="round" stroke-linejoin="round"/>
<path id="Vector_4" d="M10.7335 3.55881C12.3169 2.14215 14.8169 2.30881 16.2335 4.05881C17.6502 5.64215 17.4835 8.14215 15.7335 9.55881C13.9835 10.9755 11.6502 10.8088 10.2335 9.05881C9.4002 8.14214 9.06686 6.80881 9.4002 5.64215" stroke="#4199D5" stroke-width="1.5" stroke-linecap="round" stroke-linejoin="round"/>
<path id="line6" d="M11.9837 12.5588H6.90039" stroke="#4199D5" stroke-width="1.5" stroke-linecap="round" stroke-linejoin="round"/>
<path id="line8" d="M11.9837 15.142H6.90039" stroke="#4199D5" stroke-width="1.5" stroke-linecap="round" stroke-linejoin="round"/>
<path id="polyline10" d="M8.23372 9.97534H7.56706H6.90039" stroke="#4199D5" stroke-width="1.5" stroke-linecap="round" stroke-linejoin="round"/>
<path id="Vector_5" d="M14.5667 10.3086V17.0586C14.5667 17.3086 14.4834 17.7253 14.1501 17.8919C13.9834 18.1419 13.5667 18.3919 13.2334 18.3919H8.9834" stroke="#4199D5" stroke-width="1.5" stroke-linecap="round" stroke-linejoin="round"/>
<path id="Vector_6" d="M5.56641 18.3086C4.89974 18.3086 4.31641 17.7252 4.31641 17.0586V6.80855C4.31641 6.14189 4.89974 5.55855 5.56641 5.47522H9.48307" stroke="#4199D5" stroke-width="1.5" stroke-linecap="round" stroke-linejoin="round"/>
</g>
</svg>
