<svg xmlns="http://www.w3.org/2000/svg" width="32" height="32" fill="none" viewBox="0 0 32 32">
    <path fill="#4199d5" d="M28.002 15.981a11.93 11.93 0 0 1-2.697 7.597c-.265.317-.539.637-.838.936a11.9 11.9 0 0 1-6.108 3.262c-2.31.456-4.702.212-6.875-.7a11.95 11.95 0 0 1-5.337-4.43 12.1 12.1 0 0 1-2.006-6.67q-.005-.868.131-1.726a12.06 12.06 0 0 1 4.343-7.61 11.86 11.86 0 0 1 8.313-2.609 11.9 11.9 0 0 1 7.856 3.784 12.1 12.1 0 0 1 3.215 8.16z"/>
    <path fill="#fff" fill-rule="evenodd" d="M25.163 23.853a14 14 0 0 1-.836.936 11.9 11.9 0 0 1-6.108 3.262c-2.31.456-4.702.212-6.875-.701a11.95 11.95 0 0 1-5.337-4.429A12.1 12.1 0 0 1 4 16.251a10.5 10.5 0 0 1 .132-1.726c.019 0 .019-.019.037-.019 2.194-1.088 4.742-1.969 7.904-.019 1.618 1.014 2.007 3.432 4.537 4.279 2.157.731 5.169-.378 7.587 2.757.531.67.866 1.477.966 2.33" clip-rule="evenodd" opacity=".2"/>
    <path fill="#fff" d="M18.9 18.767V20h-5.333v-1.233h1.953v-5.62q0-.334.02-.687l-1.387 1.16a.6.6 0 0 1-.24.12.579.579 0 0 1-.4-.067.4.4 0 0 1-.12-.113l-.52-.713 2.94-2.5h1.354v8.42z"/>
</svg>
