<svg xmlns="http://www.w3.org/2000/svg" width="17" height="16" fill="none" viewBox="0 0 17 16">
    <path fill="#fff" fill-rule="evenodd" d="M14.044 9.734c-1.267 1.8-3.2 2.866-5.4 3.066-3.134 0-5.267-2.8-6.067-4.066-.267-.4-.267-.934 0-1.267l.133-.2.2-.067c1.334-.466 2.867-.4 4.2.2q.2 0 .4.2c.8.6 1.667 1.134 2.534 1.534h.066c.067.066.2.066.267.066 1.133.4 2.333-.133 3.666.534" clip-rule="evenodd" opacity=".15"/>
    <path stroke="#fff" stroke-linecap="round" stroke-linejoin="round" stroke-width=".667" d="M13.51 5.8c.467.467.867 1.067 1.2 1.6.267.4.267.934 0 1.333-.2.334-.467.667-.733 1-1.2 1.8-3.2 2.934-5.4 3.067-3.134 0-5.267-2.8-6.067-4.133a1.21 1.21 0 0 1 0-1.333l.2-.134c.867-1.4 2.933-3.867 6-3.867 1.133 0 2.267.334 3.2 1"/>
    <path stroke="#fff" stroke-linecap="round" stroke-linejoin="round" stroke-width=".667" d="M8.643 9.8a1.733 1.733 0 1 0 0-3.467 1.733 1.733 0 0 0 0 3.467"/>
    <path fill="#fff" fill-rule="evenodd" d="M14.044 9.734c-1.267 1.8-3.2 2.866-5.4 3.066-3.134 0-5.267-2.8-6.067-4.066-.267-.4-.267-.934 0-1.267l.133-.2.2-.067c1.334-.466 2.867-.4 4.2.2q.2 0 .4.2c.8.6 1.667 1.134 2.534 1.534h.066c.067.066.2.066.267.066 1.133.4 2.333-.133 3.666.534" clip-rule="evenodd" opacity=".2"/>
    <path stroke="#fff" stroke-linecap="round" stroke-linejoin="round" stroke-width=".667" d="M13.51 5.8c.467.467.867 1.067 1.2 1.6.267.4.267.934 0 1.333-.2.334-.467.667-.733 1-1.2 1.8-3.2 2.934-5.4 3.067-3.134 0-5.267-2.8-6.067-4.133a1.21 1.21 0 0 1 0-1.333l.2-.134c.867-1.4 2.933-3.867 6-3.867 1.133 0 2.267.334 3.2 1"/>
    <path stroke="#fff" stroke-linecap="round" stroke-linejoin="round" stroke-width=".667" d="M8.643 9.8a1.733 1.733 0 1 0 0-3.467 1.733 1.733 0 0 0 0 3.467"/>
</svg>
