<svg xmlns="http://www.w3.org/2000/svg" width="20" height="20" fill="none" viewBox="0 0 20 20">
    <path fill="#e35273" d="M17.5 9.981a7.46 7.46 0 0 1-1.685 4.732l-.527.586A7.515 7.515 0 0 1 2.5 9.98q0-.546.088-1.084A7.5 7.5 0 0 1 17.5 9.981"/>
    <path fill="#fff" fill-rule="evenodd" d="m15.815 14.713-.527.586A7.515 7.515 0 0 1 2.5 9.98q0-.546.088-1.084a4.67 4.67 0 0 1 4.966 0c1.025.645 1.274 2.153 2.93 2.68 1.362.455 3.251-.234 4.775 1.715.308.416.5.906.556 1.42" clip-rule="evenodd" opacity=".2"/>
    <path fill="#fff" d="M9.992 15.14c.493 0 .893-.4.893-.893v-3.742q0-.566-.068-1.127-.03-.246-.068-.496a.76.76 0 0 0-.757-.638.76.76 0 0 0-.757.638q-.039.25-.069.496-.068.561-.068 1.127v3.742c0 .494.4.894.894.894M8.889 6.02q0 .221.08.413.086.19.228.332.148.143.345.222.197.087.431.087.228 0 .425-.087a1.1 1.1 0 0 0 .345-.222 1 1 0 0 0 .228-.332 1.034 1.034 0 0 0 0-.832 1 1 0 0 0-.228-.333 1.118 1.118 0 0 0-.77-.302q-.234 0-.431.08a1.1 1.1 0 0 0-.345.222q-.142.143-.228.333-.08.197-.08.419"/>
</svg>
