<svg width="24" height="24" viewBox="0 0 24 24" fill="none" xmlns="http://www.w3.org/2000/svg">
<path opacity="0.15" fill-rule="evenodd" clip-rule="evenodd" d="M20.5469 14.5C18.6469 17.2 15.7469 18.8 12.4469 19.1C7.74687 19.1 4.54688 14.9 3.34688 13C2.94688 12.4 2.94688 11.6 3.34688 11.1L3.54688 10.8L3.84687 10.7C5.84687 9.99998 8.14687 10.1 10.1469 11C10.3469 11 10.5469 11.1 10.7469 11.3C11.9469 12.2 13.2469 13 14.5469 13.6H14.6469C14.7469 13.7 14.9469 13.7 15.0469 13.7C16.7469 14.3 18.5469 13.5 20.5469 14.5Z" fill="white"/>
<path opacity="0.2" fill-rule="evenodd" clip-rule="evenodd" d="M20.5469 14.5C18.6469 17.2 15.7469 18.8 12.4469 19.1C7.74687 19.1 4.54688 14.9 3.34688 13C2.94688 12.4 2.94688 11.6 3.34688 11.1L3.54688 10.8L3.84687 10.7C5.84687 9.99998 8.14687 10.1 10.1469 11C10.3469 11 10.5469 11.1 10.7469 11.3C11.9469 12.2 13.2469 13 14.5469 13.6H14.6469C14.7469 13.7 14.9469 13.7 15.0469 13.7C16.7469 14.3 18.5469 13.5 20.5469 14.5Z" fill="white"/>
<path d="M19.3498 8.60002C20.0498 9.30002 20.6498 10.2 21.1498 11C21.5498 11.6 21.5498 12.4 21.1498 13C20.5441 14.0096 19.8272 14.945 19.0111 15.7654M16.9498 6.40002C15.5498 5.40002 13.8498 4.90002 12.1498 4.90002C10.8624 4.90002 9.69268 5.16635 8.64717 5.59595M4.96565 8.11607C4.18048 8.90739 3.57294 9.72152 3.15295 10.4L2.8498 10.9C2.4498 11.5 2.4498 12.3 2.8498 12.9C4.0498 14.9 7.24981 19.1 11.9498 19.1C13.1486 19.0274 14.2771 18.7485 15.3237 18.3034" stroke="white" stroke-width="1.5" stroke-linecap="round" stroke-linejoin="round"/>
<path d="M11.8998 14.6001C13.3357 14.6001 14.4998 13.4361 14.4998 12.0001C14.4998 10.5642 13.3357 9.40015 11.8998 9.40015C10.4639 9.40015 9.2998 10.5642 9.2998 12.0001C9.2998 13.4361 10.4639 14.6001 11.8998 14.6001Z" stroke="white" stroke-width="1.5" stroke-linecap="round" stroke-linejoin="round"/>
<path d="M3.64062 3.64062L20.3594 20.3594" stroke="white" stroke-width="1.5" stroke-miterlimit="10" stroke-linecap="round" stroke-linejoin="round"/>
</svg>
