<svg xmlns="http://www.w3.org/2000/svg" width="25" height="25" fill="none" viewBox="0 0 25 25">
    <path fill="#4195d5" fill-rule="evenodd" d="M18.463 20.115c-.3.4-.8.6-1.3.6h-10.1c-1-.1-1.7-.9-1.7-1.9v-3.6c.5-.6 1.1-1 1.8-1.3 1.3-.5 2.8-.4 4.1.4.7.6 1.4 1.1 2.2 1.6.1 0 .1.1.2.1 1.3.4 2.6-.6 4.1 1.4.6.9.9 1.8.7 2.7" clip-rule="evenodd" opacity=".15"/>
    <path stroke="#133f5d" stroke-linecap="round" stroke-linejoin="round" d="M16.589 6.91h-1.9M12.329 6.91h-4.48"/>
    <circle cx="12.219" cy="13.801" r="3.407" stroke="#133f5d" transform="rotate(-41.027 12.219 13.801)"/>
    <path stroke="#133f5d" d="m10.356 10.983 2.385 2.475a.3.3 0 0 1 .024.388l-2.034 2.711"/>
    <path stroke="#133f5d" stroke-linecap="round" stroke-linejoin="round" d="M7.174 20.797c-.9 0-1.7-.8-1.7-1.7v-13.6c0-.9.8-1.7 1.7-1.7h9.9a2 2 0 0 1 2 2v13.3c0 .9-.8 1.7-1.7 1.7h-5.7"/>
</svg>
