<svg xmlns="http://www.w3.org/2000/svg" width="25" height="25" fill="none" viewBox="0 0 25 25">
    <path fill="#4195d5" fill-rule="evenodd" d="M18.164 21.197c-.3.4-.8.6-1.3.6h-10.1c-1-.1-1.7-.9-1.7-1.9v-3.6c.5-.6 1.1-1 1.8-1.3 1.3-.5 2.8-.4 4.1.4.7.6 1.4 1.1 2.2 1.6.1 0 .1.1.2.1 1.3.4 2.6-.6 4.1 1.4.6.9.9 1.8.7 2.7" clip-rule="evenodd" opacity=".15"/>
    <path stroke="#133f5d" stroke-linecap="round" stroke-linejoin="round" d="M14.662 15.147H7.775M10.262 11.447H7.775M8.064 5.497c0-.9.846-1.7 1.799-1.7h8.169a2 2 0 0 1 2 2v12.932c0 .9-.54 1.7-1.492 1.7h-.455"/>
    <path stroke="#133f5d" stroke-linecap="round" stroke-linejoin="round" d="M6.632 21.797c-.83 0-1.568-.8-1.568-1.7v-12.6c0-.9.738-1.7 1.568-1.7h8.977a2 2 0 0 1 2 2v12.3c0 .9-.738 1.7-1.568 1.7h-5.258"/>
</svg>
