<svg xmlns="http://www.w3.org/2000/svg" width="51" height="41" fill="none" viewBox="0 0 51 41">
    <g clip-path="url(#a)">
        <path fill="#133f5d" d="M31.335 39.197c0 .635-4.964 1.15-11.088 1.15s-11.088-.515-11.088-1.15c0-.636 4.964-1.15 11.088-1.15s11.088.514 11.088 1.15" opacity=".2" style="mix-blend-mode:multiply"/>
        <path fill="#9cc8e7" d="m2.78 22.887.382.272-.34.123zM3.61 23.078l-.364-.328.879.316zM43.442 6.51l-.501-.864-.324.699zM43.202 4.711l.622.836-.499-1.926z"/>
        <path fill="url(#b)" d="M28.868 12.55 45.47 2.555l4.596 7.94-21.024 5.367-9.317 1.864 3.13-3.569z" opacity=".51"/>
        <path fill="#efc351" d="M29.041 15.863 6.888 19.778l3.133 17.823 22.154-3.915z"/>
        <path fill="#f3d586" d="m31.734 31.182-4.595 3.393 5.035-.89zM12.868 37.098l7.078-1.251 11.16-8.24-.619-3.518zM7.776 24.828l.618 3.518 15.731-11.614-7.078 1.25zM9.023 31.921l.618 3.519L29.86 20.513l-.619-3.519z"/>
        <path fill="#fdf470" d="M29.041 15.863 6.888 19.778l.037.211 22.153-3.915z"/>
        <path fill="#ddedc8" d="m21.96 17.114-7.99 1.412 3.133 17.823 7.99-1.412z"/>
        <path fill="#faffff" d="m21.96 17.114-7.99 1.412.037.212 7.99-1.413z"/>
        <path fill="#c4e1a2" d="M15.167 14.847s4.99-8.67 1.084-13.746l-1.765.77s3.332 5.207.68 12.976"/>
        <path fill="#ddedc8" d="M15.167 14.847S10.79 8.247 13.74 1.24l2.511-.139s-3.31 4.806-1.084 13.746"/>
        <path fill="#c4e1a2" d="M15.009 14.58s8.535-5.193 7.547-11.526l-1.916-.177s.421 6.173-5.631 11.703"/>
        <path fill="#ddedc8" d="M15.009 14.58s-.67-7.898 5.28-12.616l2.267 1.09S17.35 5.67 15.01 14.58"/>
        <path fill="#c4e1a2" d="M14.61 15.178s-9.98.236-12.55-5.633L3.577 8.36s2.962 5.429 11.033 6.818"/>
        <path fill="#ddedc8" d="M14.61 15.178S10.93 8.162 3.385 7.402L2.06 9.545s5.793-.61 12.552 5.633"/>
        <path fill="#c4e1a2" d="M14.453 14.911S5.817 19.933.747 16.03l.763-1.772s5.202 3.33 12.943.653"/>
        <path fill="#ddedc8" d="M14.453 14.911S7.86 10.537.88 13.511L.747 16.03s4.786-3.33 13.706-1.119"/>
        <path fill="#c4e1a2" d="M18.448 12.21a1.766 1.766 0 0 1-.927 2.562 1.75 1.75 0 0 1-1.892-.484 1.765 1.765 0 0 1 .41-2.693 1.753 1.753 0 0 1 2.409.616M13.445 15.52a1.765 1.765 0 0 1-.927 2.562 1.75 1.75 0 0 1-1.892-.484 1.764 1.764 0 0 1 .41-2.694 1.753 1.753 0 0 1 2.409.617"/>
        <path fill="#abd57b" d="M16.476 17.024a2.983 2.983 0 0 0 .31-4.2 2.964 2.964 0 0 0-4.189-.31 2.983 2.983 0 0 0-.31 4.2 2.964 2.964 0 0 0 4.189.31"/>
        <path fill="#c4e1a2" d="M16.611 13.535a2.425 2.425 0 0 1-.143 2.684 2.41 2.41 0 0 1-2.528.894 2.41 2.41 0 0 1-1.792-2 2.425 2.425 0 0 1 1.157-2.424 2.407 2.407 0 0 1 3.306.846"/>
        <path fill="#133f5d" d="M27.897 16.065 6.888 19.778l.952 5.417z" opacity=".2" style="mix-blend-mode:multiply"/>
        <path fill="#eab11c" d="M25.72 7.21 3.42 20.436l3.15 5.338L28.868 12.55z"/>
        <path fill="#f8e8bb" d="M25.72 7.21 3.42 20.436l.116.196 22.3-13.224z"/>
        <path fill="#ddedc8" d="m19.044 11.167-8.946 5.306 3.149 5.339 8.946-5.306z"/>
        <path fill="#cae2f2" d="m28.814 13.886.245.449.448.245-.448.245-.245.45-.244-.45-.448-.245.448-.245zM31.06 16.937l.09.163.161.088-.162.09-.088.161-.089-.162-.162-.089.162-.088zM37.892 12.727l.088.162.162.089-.162.089-.088.162-.089-.162-.162-.089.162-.089zM41.821 9.768l.089.163.162.088-.162.089-.089.162-.088-.162-.162-.089.162-.088zM35.305 12.727l.089.162.162.089-.162.089-.089.162-.088-.162-.162-.089.162-.089zM33.477 16.177l.357.654.652.358-.652.357-.357.654-.356-.654-.653-.357.652-.358zM43.512 21.58l.357.653.652.358-.652.357-.357.654-.356-.654-.652-.357.652-.358zM46.893 2.956l.574 1.052 1.05.576-1.05.576-.574 1.052-.574-1.052-1.05-.576 1.05-.576zM47.859 7.049l.248.454.453.249-.453.248-.248.455L47.61 8l-.453-.248.453-.249zM41.81 18.568l.242.443.441.242-.44.242-.242.442-.242-.442-.44-.242.44-.242zM50.065 26.047l.24.443.442.242-.441.242-.241.442-.242-.442-.441-.242.441-.242zM38.95 17.556l.24.442.442.242-.441.242-.242.443-.241-.443-.441-.242.441-.241zM37.242 16.374l.241.443.441.241-.44.242-.242.443L37 17.3l-.442-.242.442-.242zM33.944 12.978l.164.303.302.165-.302.165-.164.303-.166-.303-.3-.165.3-.165zM41.57 15.145l.166.302.301.165-.301.166-.165.302-.165-.302-.302-.166.302-.165zM32.218 11.751l.165.303.302.165-.302.165-.165.303-.165-.303-.301-.165.301-.165zM33.944 9.335l.24.442.442.242-.441.242-.241.443-.242-.443-.441-.242.441-.242zM34.315 18.094l.568 1.041 1.038.57-1.038.57-.568 1.04-.568-1.04-1.038-.57 1.038-.57zM25.67 15.542l-.177.178.178.179.178-.178zM32.606 13.047l-.178.178.178.179.178-.179zM37.027 20.398l-.178.178.178.179.178-.178zM46.5 11.52l-.178.178.178.178.178-.178zM31.106 10.092l-.177.178.177.179.178-.179zM35.055 8.182l-.178.178.178.179.178-.179zM36.049 10.526l-.178.178.178.178.178-.178zM27.14 15l-.178.179.177.178.178-.178zM42.618 14.876l-.178.178.178.178.177-.178zM47.509 16.822l-.178.179.178.178.177-.178zM36.04 17.439l-.178.178.178.178.178-.178z"/>
    </g>
    <defs>
        <radialGradient id="b" cx="0" cy="0" r="1" gradientTransform="rotate(-10.024 106.82 -115.007)scale(24.2071 24.2686)" gradientUnits="userSpaceOnUse">
            <stop stop-color="#fff"/>
            <stop offset=".105" stop-color="#fff" stop-opacity=".98"/>
            <stop offset=".229" stop-color="#fff" stop-opacity=".9"/>
            <stop offset=".362" stop-color="#fff" stop-opacity=".8"/>
            <stop offset=".502" stop-color="#fff" stop-opacity=".7"/>
            <stop offset=".647" stop-color="#fff" stop-opacity=".5"/>
            <stop offset=".796" stop-color="#fff" stop-opacity=".3"/>
            <stop offset=".946" stop-color="#fff" stop-opacity=".1"/>
            <stop offset="1" stop-color="#fff" stop-opacity="0"/>
        </radialGradient>
        <clipPath id="a">
            <path fill="#fff" d="M.747.724h50v40h-50z"/>
        </clipPath>
    </defs>
</svg>
