<svg xmlns="http://www.w3.org/2000/svg" width="18" height="19" fill="none" viewBox="0 0 18 19">
    <path fill="#133f5d" d="M13.667 15.175c.736 0 1.333-.538 1.333-1.2V13.3c-2.625.375-2.625 0-4.5-1.125-3.451-2.071-6.375 3.375-7.5-6.6v8.4c0 .662.597 1.2 1.333 1.2z" opacity=".3"/>
    <path stroke="#133f5d" stroke-linecap="round" stroke-linejoin="round" stroke-width="1.5" d="M15 10.3V5.575c0-.663-.597-1.2-1.333-1.2H4.333c-.736 0-1.333.537-1.333 1.2v8.4c0 .662.597 1.2 1.333 1.2h9.334c.736 0 1.333-.538 1.333-1.2V13.3M11.666 3.175v2.4M6.333 3.175v2.4M3 7.975h1.875m10.125 0H7.5"/>
</svg>
