<svg width="20" height="20" viewBox="0 0 20 20" fill="none" xmlns="http://www.w3.org/2000/svg">
<g id="Group 5305">
<path id="Path 2219" opacity="0.15" fill-rule="evenodd" clip-rule="evenodd" d="M1.1151 17.2467V17.359C1.11009 17.7993 1.27957 18.2237 1.58652 18.5394C1.89346 18.8551 2.31289 19.0364 2.75315 19.0438H17.5237C17.9517 19.0269 18.3564 18.8449 18.6531 18.536C18.9498 18.2271 19.1153 17.8153 19.115 17.3871V14.0641C18.5005 13.4119 17.7493 12.9036 16.9153 12.5759C15.9629 12.2252 14.945 12.0887 13.9338 12.176C12.9227 12.2634 11.9432 12.5725 11.0651 13.0813C9.97444 13.8372 8.77934 14.4301 7.51756 14.8411C5.64549 15.412 3.0246 13.1 1.21806 16.2919C1.22637 16.6133 1.19175 16.9344 1.1151 17.2467Z" fill="white"/>
<g id="Group 5300">
<path id="Path 2211" d="M4.91541 11.7896V15.6647H15.1088V11.7896" stroke="white" stroke-width="1.40405" stroke-linecap="round" stroke-linejoin="round"/>
<path id="Path 2212" d="M15.1088 9.31847V5.34033H4.91541V9.31847" stroke="white" stroke-width="1.40405" stroke-linecap="round" stroke-linejoin="round"/>
<path id="Path 2213" d="M2.90295 11.7896H17.243" stroke="white" stroke-width="1.40405" stroke-linecap="round"/>
</g>
<g id="Group 5301">
<path id="Path 2214" d="M14.7157 1.59619H18.8623V5.78026" stroke="white" stroke-width="1.40405" stroke-linecap="round" stroke-linejoin="round"/>
<path id="Path 2216" d="M18.8437 14.3823V18.5383H14.6409" stroke="white" stroke-width="1.40405" stroke-linecap="round" stroke-linejoin="round"/>
<path id="Path 2217" d="M1.33044 5.75217V1.62427H5.53323" stroke="white" stroke-width="1.40405" stroke-linecap="round" stroke-linejoin="round"/>
<path id="Path 2218" d="M5.50514 18.5383H1.35852V14.3823" stroke="white" stroke-width="1.40405" stroke-linecap="round" stroke-linejoin="round"/>
</g>
</g>
</svg>
