<svg width="21" height="21" viewBox="0 0 21 21" fill="none" xmlns="http://www.w3.org/2000/svg">
<g id="dashboard">
<path id="Vector" opacity="0.3" fill-rule="evenodd" clip-rule="evenodd" d="M19.0251 12.1902C18.7148 14.0364 17.8199 15.7342 16.4721 17.0335C15.1243 18.3328 13.3949 19.165 11.5386 19.4075C9.68224 19.6501 7.79709 19.2901 6.16075 18.3806C4.52441 17.4711 3.22336 16.0602 2.44922 14.3556C2.72509 13.8429 3.05031 13.3583 3.42027 12.9088C3.99286 12.2536 4.69473 11.7239 5.48181 11.3529C6.26888 10.9819 7.12416 10.7777 7.99393 10.753C9.17971 10.94 10.3859 10.9596 11.5771 10.8113C12.1271 10.6383 12.6477 10.383 13.1211 10.0539C13.6433 9.66054 14.2581 9.40836 14.9061 9.32162C15.5541 9.23488 16.2135 9.3165 16.8208 9.55862C17.3801 9.77619 17.8753 10.1315 18.2607 10.5915C18.646 11.0515 18.9089 11.6014 19.0251 12.1902Z" fill="#4195D5"/>
<path id="Vector_2" d="M15.1124 3.43129C13.1606 2.18958 10.796 1.77237 8.53712 2.27112C6.2782 2.76986 4.30917 4.14387 3.06162 6.09198C2.40452 7.13049 1.97127 8.29465 1.78954 9.51008C1.5288 11.3612 1.86848 13.2471 2.75871 14.8909C3.64893 16.5347 5.04278 17.8498 6.73556 18.6429C8.42834 19.4361 10.3308 19.6655 12.1636 19.2976C13.9965 18.9297 15.663 17.9838 16.9185 16.5988C17.2427 16.2583 17.5292 15.8839 17.7731 15.4821C18.6621 14.0901 19.1385 12.4748 19.1471 10.8232C19.1557 9.17157 18.6961 7.55134 17.8216 6.15024" stroke="#4195D5" stroke-linecap="round" stroke-linejoin="round"/>
<path id="polygon4" d="M6.72266 14.4915L8.57737 8.93704L14.1221 7.09204L12.2771 12.6368L6.72266 14.4915V14.4915Z" stroke="#4195D5" stroke-linecap="round" stroke-linejoin="round"/>
</g>
</svg>
