<svg width="33" height="32" viewBox="0 0 33 32" fill="none" xmlns="http://www.w3.org/2000/svg">
<g id="Logo/Partner">
<path id="Vector" d="M12.0459 12.6628H18.7137V16.7077H15.9164L18.7137 19.2963H16.3374L13.5941 16.7077V19.2963H12.0459V15.1843H16.9347L16.9347 14.2H12.0459V12.6628Z" fill="white"/>
<path id="Vector_2" d="M19.4062 19.2964H21.0358V12.6495H19.4062V19.2964Z" fill="white"/>
<path id="Vector_3" d="M6.35569 17.6919L6.35568 12.6628H5.07917C4.84833 12.6628 4.67176 12.8383 4.67176 13.0537C4.67177 14.2406 4.6582 17.7324 4.6582 18.8918C4.65821 19.1076 4.83477 19.2963 5.05204 19.2963C5.93471 19.2963 8.47405 19.2963 8.84057 19.2963V17.6919H6.35569Z" fill="white"/>
<path id="Vector_4" d="M9.68262 20.9548C9.83221 20.9548 10.9728 20.9548 11.3532 20.9548C11.3532 20.9548 11.3531 17.6786 11.3531 17.6246C10.8098 17.6246 10.2398 17.6246 9.68262 17.6246C9.68262 18.7302 9.68262 19.8357 9.68262 20.9548Z" fill="white"/>
<path id="Vector_5" d="M7.1709 12.6628C7.1709 12.69 7.1709 14.3211 7.1709 14.3211C7.9178 14.3211 8.86826 14.3211 9.68297 14.3211C9.68297 15.4675 9.68297 16.8021 9.68297 16.8021C10.0633 16.8021 11.2039 16.8021 11.3535 16.8021V13.0675C11.3535 12.8516 11.1767 12.6762 10.9598 12.6628C10.145 12.6628 8.21647 12.6628 7.1709 12.6628Z" fill="white"/>
<path id="Vector_6" d="M7.1709 15.13C7.1709 15.6829 7.1709 16.2359 7.1709 16.8154C7.30672 16.8154 7.45609 16.8154 7.59187 16.8154C7.97228 16.8154 8.44725 16.8154 8.82762 16.8154C8.82762 16.8154 8.82762 15.1572 8.82762 15.13C8.28432 15.13 7.72769 15.13 7.1709 15.13ZM8.3388 16.303C8.17584 16.303 7.98565 16.303 7.8361 16.303C7.78202 16.303 7.72769 16.303 7.6598 16.303C7.6598 16.0738 7.65976 15.8583 7.65976 15.6291C7.89058 15.6291 8.10799 15.6291 8.3388 15.6291C8.3388 15.6424 8.3388 16.303 8.3388 16.303Z" fill="white"/>
<path id="Vector_7" d="M29.0337 17.6246V20.1054C29.0337 20.3211 28.8435 20.4964 28.6265 20.4964H26.1279V20.9008H29.0337H29.0475C29.2511 20.9008 29.4274 20.7256 29.4274 20.5098V20.4964L29.4274 17.6246H29.0337Z" fill="white"/>
<path id="Vector_8" d="M3.97968 14.3078L3.97967 11.8269C3.97967 11.6114 4.14262 11.4494 4.35989 11.4494H6.85858C6.87215 11.4494 6.87215 11.436 6.87215 11.436V11.0585C6.87215 11.0585 6.87215 11.0452 6.85858 11.0452H3.97967C3.74883 11.0452 3.57227 11.2206 3.57227 11.4494L3.57227 14.3078C3.57227 14.3212 3.58584 14.3212 3.58584 14.3212H3.96611C3.96611 14.3212 3.97968 14.3212 3.97968 14.3078Z" fill="white"/>
<path id="Vector_9" d="M28.3283 14.3078V12.6628H21.7422V15.13V16.7888H26.1288V17.611H21.7422V19.2693H28.3283V15.1438H23.9422V14.3078H28.3283Z" fill="white"/>
</g>
</svg>
