<svg xmlns="http://www.w3.org/2000/svg" width="135" height="101" fill="none" viewBox="0 0 135 101">
    <path fill="url(#a)" fill-rule="evenodd" d="M12.641 23.337c8.777-10.23 22.038-15.869 41.84-12.532 10.087 1.68 17.369 5.038 23.637 4.632 12.266-.79 22.07-8.165 40.551 2.879 16.133 9.656 20.245 37.884 5.501 56.504-10.476 13.252-25.534 22.356-53.717 24.838C40.68 102.278.75 83.97 1.549 49.44c.233-10.85 2.867-16.515 11.092-26.103" clip-rule="evenodd"/>
    <path fill="#edd9c5" d="m80.165 20.305-7.28 6.064-5.453-6.521 7.28-6.062a4.185 4.185 0 0 1 5.891.53l.093.109a4.17 4.17 0 0 1-.531 5.88"/>
    <path stroke="#133f5d" stroke-linecap="round" stroke-linejoin="round" stroke-width=".37" d="m80.165 20.305-7.28 6.064-5.453-6.521 7.28-6.062a4.185 4.185 0 0 1 5.891.53l.093.109a4.17 4.17 0 0 1-.531 5.88"/>
    <path fill="#edd9c5" d="M42.549 48.548 31.497 61.58l14.066 12.518 12.598-14.52z"/>
    <path stroke="#133f5d" stroke-linecap="round" stroke-linejoin="round" stroke-width=".37" d="M42.549 48.548 31.497 61.58l14.066 12.518 12.598-14.52z"/>
    <path fill="#edd9c5" d="M36.85 57.508a15.53 15.53 0 0 1 3.108-20.844L54.537 25.14c7.713-6.1 29.29 21.067 21.575 27.167L61.534 63.834a15.29 15.29 0 0 1-11.729 3.125"/>
    <path stroke="#133f5d" stroke-linecap="round" stroke-linejoin="round" stroke-width=".37" d="M36.85 57.508a15.53 15.53 0 0 1 3.108-20.844L54.537 25.14c7.713-6.1 29.29 21.067 21.575 27.167L61.534 63.834a15.29 15.29 0 0 1-11.729 3.125"/>
    <path fill="#f7fbfd" d="m68.146 3.41-29.07 8.202a2.63 2.63 0 0 0-1.82 3.246L53.75 73.066A2.636 2.636 0 0 0 57 74.88l29.071-8.203a2.63 2.63 0 0 0 1.819-3.246L71.399 5.224a2.636 2.636 0 0 0-3.253-1.815"/>
    <path stroke="#133f5d" stroke-linecap="round" stroke-linejoin="round" stroke-width=".37" d="m68.146 3.41-29.07 8.202a2.63 2.63 0 0 0-1.82 3.246L53.75 73.066A2.636 2.636 0 0 0 57 74.88l29.071-8.203a2.63 2.63 0 0 0 1.819-3.246L71.399 5.224a2.636 2.636 0 0 0-3.253-1.815"/>
    <path stroke="#133f5d" stroke-linecap="round" stroke-linejoin="round" stroke-width=".37" d="m68.146 3.41-29.07 8.202a2.63 2.63 0 0 0-1.82 3.246L53.75 73.066A2.636 2.636 0 0 0 57 74.88l29.071-8.203a2.63 2.63 0 0 0 1.819-3.246L71.399 5.224a2.636 2.636 0 0 0-3.253-1.815"/>
    <path fill="#fff" d="m68.136 3.412-29.05 8.197a2.64 2.64 0 0 0-1.826 3.26l16.486 58.186a2.647 2.647 0 0 0 3.266 1.823l29.05-8.197a2.64 2.64 0 0 0 1.826-3.26L71.402 5.236a2.647 2.647 0 0 0-3.266-1.823"/>
    <path fill="#133f5d" d="M67.65 9.11a1.039 1.039 0 1 0 .002-2.076 1.039 1.039 0 0 0-.002 2.077"/>
    <path stroke="#133f5d" stroke-linecap="round" stroke-linejoin="round" stroke-width=".37" d="m68.146 3.41-29.07 8.202a2.63 2.63 0 0 0-1.82 3.246L53.75 73.066A2.636 2.636 0 0 0 57 74.88l29.071-8.203a2.63 2.63 0 0 0 1.819-3.246L71.399 5.224a2.636 2.636 0 0 0-3.253-1.815"/>
    <path fill="#93c854" d="m72.935 35.056-2.577-1.292-.312-2.861a.91.91 0 0 0-1.005-.804l-2.155.234-1.142-1.838a.91.91 0 0 0-1.253-.294l-2.343 1.45-2.462-1.234a.91.91 0 0 0-1.222.404l-1.294 2.572-2.868.311a.91.91 0 0 0-.806 1.002l.236 2.151-1.843 1.14a.91.91 0 0 0-.293 1.25l1.451 2.339-1.236 2.457a.906.906 0 0 0 .405 1.219l2.577 1.292.313 2.861a.91.91 0 0 0 1.003.804l2.156-.234 1.142 1.838a.91.91 0 0 0 1.254.294l2.342-1.45 2.462 1.235a.91.91 0 0 0 1.223-.405l1.294-2.572 2.867-.311a.91.91 0 0 0 .806-1.002l-.236-2.151 1.843-1.14a.91.91 0 0 0 .294-1.25l-1.452-2.339 1.237-2.457a.907.907 0 0 0-.406-1.219"/>
    <path stroke="#fff" stroke-linecap="round" stroke-linejoin="round" stroke-width="2.222" d="m58.065 40.896 3.436 2.146 4.769-8.507"/>
    <path fill="#edd9c5" d="M38.69 59.556s-8.508-6.772-2.265-20.234c1.99-4.29-.407-16.394-.407-16.394-1.056-3.726 6.096-5.742 7.15-2.016l3.538 12.493c2.948 10.415 4.633 15.333 1.614 20.154"/>
    <path fill="#e9d0b8" d="M37.265 52.398a11.26 11.26 0 0 1-.468-7.48c1.064-3.45 1.054-8.205.45-13.503.182 2.974.046 5.967-.71 7.724-3.993 9.286-2.114 14.046.104 17.907a23 23 0 0 0 2.074 2.441l.708-1.002c.494-2.544-.765-2.886-2.158-6.087"/>
    <path fill="#edd9c5" d="m80.595 29.863-2.282 1.9a3.83 3.83 0 0 1-6.102-1.793 3.81 3.81 0 0 1 1.2-4.068l2.281-1.9a3.825 3.825 0 0 1 4.226-.451 3.813 3.813 0 0 1 1.614 5.153 3.8 3.8 0 0 1-.937 1.159"/>
    <path fill="#fff" d="m79.835 28.583-2.647 2.205a8.86 8.86 0 0 0-3.02-3.608l2.647-2.203c1.57.603 2.519 1.866 3.02 3.606" opacity=".5"/>
    <path fill="#edd9c5" d="m83.089 38.157-2.51 1.588a3.833 3.833 0 0 1-5.279-1.18 3.81 3.81 0 0 1 1.182-5.268l2.51-1.587a3.83 3.83 0 0 1 5.279 1.179 3.81 3.81 0 0 1-1.182 5.268"/>
    <path fill="#fff" d="m82.499 36.67-2.857 1.927a8.85 8.85 0 0 0-2.635-3.894l2.855-1.925c1.501.758 2.316 2.11 2.637 3.892" opacity=".5"/>
    <path fill="#edd9c5" d="M83.52 46.888a3.83 3.83 0 0 1-5.28-1.18 3.81 3.81 0 0 1 1.183-5.268 3.827 3.827 0 0 1 5.279 1.18 3.81 3.81 0 0 1-1.182 5.268"/>
    <path stroke="#133f5d" stroke-linecap="round" stroke-linejoin="round" stroke-width=".37" d="m80.595 29.863-2.282 1.9a3.83 3.83 0 0 1-6.102-1.793 3.81 3.81 0 0 1 1.2-4.068l2.281-1.9a3.825 3.825 0 0 1 4.226-.451c.445.233.84.55 1.161.936v0a3.81 3.81 0 0 1 .453 4.217 3.8 3.8 0 0 1-.937 1.159M83.089 38.157l-2.51 1.588a3.833 3.833 0 0 1-5.279-1.18v0a3.81 3.81 0 0 1 1.182-5.268l2.51-1.587a3.83 3.83 0 0 1 5.279 1.179v0a3.81 3.81 0 0 1-1.182 5.268"/>
    <path stroke="#133f5d" stroke-linecap="round" stroke-linejoin="round" stroke-width=".37" d="M83.52 46.888a3.83 3.83 0 0 1-5.28-1.18v0a3.81 3.81 0 0 1 1.183-5.268v0a3.827 3.827 0 0 1 5.279 1.18v0a3.81 3.81 0 0 1-1.182 5.268"/>
    <path fill="#fff" d="m84.273 44.467-1.55 1.045c-.118-1.344-.885-2.572-2.476-3.654l1.55-1.047c1.604.57 2.408 1.812 2.476 3.656" opacity=".5"/>
    <path fill="#f7fbfd" d="M45.013 77.622 27.369 64.558a2.115 2.115 0 0 1-.439-2.961l2.827-3.805a2.123 2.123 0 0 1 2.968-.438l17.643 13.062a2.12 2.12 0 0 1 .794 2.215c-.068.27-.188.523-.355.746l-2.827 3.803a2.12 2.12 0 0 1-2.22.794 2.1 2.1 0 0 1-.747-.353"/>
    <path stroke="#133f5d" stroke-linecap="round" stroke-linejoin="round" stroke-width=".37" d="M45.013 77.622 27.369 64.558a2.115 2.115 0 0 1-.439-2.961l2.827-3.805a2.123 2.123 0 0 1 2.968-.438l17.643 13.062a2.12 2.12 0 0 1 .794 2.215c-.068.27-.188.523-.355.746l-2.827 3.803a2.12 2.12 0 0 1-2.22.794 2.1 2.1 0 0 1-.747-.353"/>
    <path fill="#9cc8e7" d="M39.565 91.324c-3.246 4.364-26.718-13.012-23.472-17.378l9.515-13.456L49.08 77.868z"/>
    <path stroke="#133f5d" stroke-linecap="round" stroke-linejoin="round" stroke-width=".37" d="M39.565 91.324c-3.246 4.364-26.718-13.012-23.472-17.378l9.515-13.456L49.08 77.868zM38.69 59.556s-8.508-6.772-2.265-20.234c1.99-4.29-.407-16.394-.407-16.394-1.056-3.726 6.096-5.742 7.15-2.016l3.538 12.493c2.948 10.415 4.633 15.333 1.614 20.154"/>
    <path fill="#93c854" d="M101.965 25.671c-1.601 1.195-8.544 1.865-8.544 1.865s2.61-6.456 4.21-7.65a3.624 3.624 0 0 1 5.065.73 3.605 3.605 0 0 1-.732 5.055z"/>
    <path fill="#9cc8e7" d="m104.523 23.862-4.43-5.913c7.479-14.868 21.671-16.77 26.889-16.948a1.47 1.47 0 0 1 1.495 1.228c.038.232.019.47-.056.694-1.646 4.944-7.491 17.989-23.898 20.939"/>
    <path fill="#ddedc8" d="m124.649 10.658-6.169-8.236a34 34 0 0 1 8.486-1.42 1.48 1.48 0 0 1 1.232.587 1.457 1.457 0 0 1 .216 1.346 33.7 33.7 0 0 1-3.765 7.723"/>
    <path stroke="#133f5d" stroke-linecap="round" stroke-linejoin="round" stroke-width=".37" d="m104.523 23.862-4.43-5.913c7.479-14.868 21.671-16.77 26.889-16.948a1.47 1.47 0 0 1 1.495 1.228c.038.232.019.47-.056.694-1.646 4.944-7.491 17.989-23.898 20.939"/>
    <path fill="#fff" d="M116.381 13.176a2.77 2.77 0 0 0 2.774-2.768 2.77 2.77 0 0 0-2.774-2.769 2.77 2.77 0 0 0-2.775 2.769 2.77 2.77 0 0 0 2.775 2.768"/>
    <path fill="#ddedc8" d="m106.176 18.328-.296-.395a.68.68 0 0 0-.948-.136l-7.304 5.45a.675.675 0 0 0-.137.946l.296.396c.224.299.649.36.949.136l7.304-5.45a.676.676 0 0 0 .136-.947M104.523 23.862c3.322 4.435-1.429 7.979-1.429 7.979 7.839-3.544 6.388-8.91 6.184-9.2a33 33 0 0 1-4.755 1.221M102.613 13.743c-.219-.277-4.968-3.184-10.592 3.316 0 0 4.752-3.544 8.074.89a32.5 32.5 0 0 1 2.518-4.206"/>
    <path stroke="#133f5d" stroke-linecap="round" stroke-linejoin="round" stroke-width=".37" d="m106.176 18.328-.296-.395a.68.68 0 0 0-.948-.136l-7.304 5.45a.675.675 0 0 0-.137.946l.296.396c.224.299.649.36.949.136l7.304-5.45a.676.676 0 0 0 .136-.947M104.523 23.862c3.322 4.435-1.429 7.979-1.429 7.979 7.839-3.544 6.388-8.91 6.184-9.2a33 33 0 0 1-4.755 1.221M102.613 13.743c-.219-.277-4.968-3.184-10.592 3.316 0 0 4.752-3.544 8.074.89a32.5 32.5 0 0 1 2.518-4.206"/>
    <defs>
        <linearGradient id="a" x1="66.709" x2="68.284" y1="9.434" y2="99.853" gradientUnits="userSpaceOnUse">
            <stop stop-color="#fff"/>
            <stop offset="1" stop-color="#fff" stop-opacity="0"/>
        </linearGradient>
    </defs>
</svg>
