<svg xmlns="http://www.w3.org/2000/svg" width="24" height="24" fill="none" viewBox="0 0 24 24">
    <g clip-path="url(#a)">
        <path fill="#4195d5" d="M21 12.018a8.95 8.95 0 0 1-2.021 5.677l-.633.703A9.017 9.017 0 0 1 3 12.018q0-.655.105-1.301A9 9 0 0 1 21 12.017"/>
        <path fill="#fff" fill-rule="evenodd" d="m18.979 17.695-.633.703A9.018 9.018 0 0 1 3 12.019q0-.655.105-1.301a5.61 5.61 0 0 1 5.96 0c1.23.773 1.529 2.584 3.515 3.217 1.635.545 3.902-.282 5.73 2.056.37.5.6 1.088.669 1.705" clip-rule="evenodd" opacity=".2"/>
        <path fill="#fff" d="M11.99 6c.592 0 1.072.48 1.072 1.072v4.49q0 .681-.081 1.353-.05.405-.118.818a.65.65 0 0 1-.648.543h-.45a.65.65 0 0 1-.648-.543 20 20 0 0 1-.118-.818q-.08-.673-.08-1.353v-4.49c0-.592.48-1.072 1.071-1.072m-1.323 10.945q0-.267.096-.495.104-.23.273-.4.178-.17.415-.266.236-.104.517-.104.273 0 .51.104.237.096.414.266.178.17.274.4.103.228.103.495 0 .266-.103.503a1.2 1.2 0 0 1-.274.399 1.3 1.3 0 0 1-.414.266 1.3 1.3 0 0 1-.51.096q-.28 0-.518-.096a1.3 1.3 0 0 1-.414-.266 1.3 1.3 0 0 1-.273-.4 1.3 1.3 0 0 1-.096-.502"/>
    </g>
    <defs>
        <clipPath id="a">
            <path fill="#fff" d="M3 3h18v18H3z"/>
        </clipPath>
    </defs>
</svg>
