<svg xmlns="http://www.w3.org/2000/svg" width="24" height="25" fill="none" viewBox="0 0 24 25">
    <path fill="#fff" fill-rule="evenodd" d="M20.547 14.564c-1.9 2.7-4.8 4.3-8.1 4.6-4.7 0-7.9-4.2-9.1-6.1-.4-.6-.4-1.4 0-1.9l.2-.3.3-.1c2-.7 4.3-.6 6.3.3q.3 0 .6.3c1.2.9 2.5 1.7 3.8 2.3h.1c.1.1.3.1.4.1 1.7.6 3.5-.2 5.5.8" clip-rule="evenodd" opacity=".15"/>
    <path fill="#133f5d" fill-rule="evenodd" d="M20.547 14.564c-1.9 2.7-4.8 4.3-8.1 4.6-4.7 0-7.9-4.2-9.1-6.1-.4-.6-.4-1.4 0-1.9l.2-.3.3-.1c2-.7 4.3-.6 6.3.3q.3 0 .6.3c1.2.9 2.5 1.7 3.8 2.3h.1c.1.1.3.1.4.1 1.7.6 3.5-.2 5.5.8" clip-rule="evenodd" opacity=".15"/>
    <path stroke="#133f5d" stroke-linecap="round" stroke-linejoin="round" stroke-width="1.5" d="M19.35 8.664c.7.7 1.3 1.6 1.8 2.4.4.6.4 1.4 0 2a14.5 14.5 0 0 1-2.139 2.766M16.95 6.464c-1.4-1-3.1-1.5-4.8-1.5a9.2 9.2 0 0 0-3.503.696M4.966 8.18a13 13 0 0 0-1.813 2.284l-.303.5c-.4.6-.4 1.4 0 2 1.2 2 4.4 6.2 9.1 6.2a10.2 10.2 0 0 0 3.374-.796"/>
    <path stroke="#133f5d" stroke-linecap="round" stroke-linejoin="round" stroke-width="1.5" d="M11.9 14.664a2.6 2.6 0 1 0 0-5.2 2.6 2.6 0 0 0 0 5.2"/>
    <path stroke="#133f5d" stroke-linecap="round" stroke-linejoin="round" stroke-miterlimit="10" stroke-width="1.5" d="m3.64 3.705 16.72 16.719"/>
</svg>
