<svg xmlns="http://www.w3.org/2000/svg" width="26" height="32" fill="none" viewBox="0 0 26 32">
    <rect width="18.284" height="26.65" x=".419" y=".484" fill="#fff" stroke="url(#a)" stroke-width=".839" rx=".419"/>
    <rect width="18.284" height="26.65" x="3.355" y="3.419" fill="#fff" stroke="url(#b)" stroke-width=".839" rx=".419"/>
    <path fill="url(#c)" d="M5.452 17.677H19.71v2.516H5.452z"/>
    <path fill="url(#d)" d="M5.452 21.871H19.71v1.677H5.452z"/>
    <circle cx="21.5" cy="27.436" r="4.5" fill="#93c854" transform="rotate(-180 21.5 27.436)"/>
    <path fill="#fff" fill-rule="evenodd" d="M22.085 29.884a.21.21 0 0 0 .21-.21v-1.95a.42.42 0 0 1 .42-.419h.88a.21.21 0 0 0 .154-.352l-2.213-2.392a.21.21 0 0 0-.308 0l-2.213 2.392a.21.21 0 0 0 .154.352h.881a.42.42 0 0 1 .42.42v1.95c0 .115.093.21.21.21z" clip-rule="evenodd"/>
    <circle cx="21.68" cy="27.449" r="4.18" fill="#93c854"/>
    <path stroke="#fff" stroke-linecap="round" stroke-linejoin="round" stroke-width="1.258" d="m23.425 26.051-2.179 3.13-1.298-1.177"/>
    <path fill="url(#e)" d="M8.713 8.424q0 .398-.138.735-.136.334-.385.58-.25.244-.601.383a2.1 2.1 0 0 1-.778.136H5.387V6.592h1.424q.427 0 .778.138.351.139.601.383.249.244.385.581.138.334.138.73m-.87 0q0-.272-.07-.49a1 1 0 0 0-.204-.37.85.85 0 0 0-.323-.235 1.1 1.1 0 0 0-.435-.083h-.568v2.358h.568q.244 0 .435-.08a.9.9 0 0 0 .323-.235 1.05 1.05 0 0 0 .203-.372q.07-.219.07-.493m2.666-.033q.331 0 .478-.158.146-.16.146-.443a.7.7 0 0 0-.038-.23.493.493 0 0 0-.31-.292.9.9 0 0 0-.276-.04h-.443v1.163zm0-1.799q.388 0 .664.093.28.09.458.252.18.16.267.38.085.218.085.473 0 .274-.088.503a1 1 0 0 1-.27.392 1.3 1.3 0 0 1-.46.257 2.1 2.1 0 0 1-.656.09h-.443v1.226h-.85V6.592z"/>
    <path fill="url(#f)" d="M6.057 16.484h-.428V14.65h.428zm.648-1.164a1 1 0 0 1 .078-.065.44.44 0 0 1 .185-.083.5.5 0 0 1 .306.025.4.4 0 0 1 .14.103.4.4 0 0 1 .085.157q.03.09.029.198v.829h-.39v-.83a.23.23 0 0 0-.044-.148q-.045-.054-.13-.054a.3.3 0 0 0-.12.028.5.5 0 0 0-.109.073v.93h-.39V15.18h.242q.073 0 .096.066zm2.273-.14-.506 1.304h-.355l-.506-1.305h.325q.041 0 .07.02.027.02.038.048l.181.585a2 2 0 0 1 .074.276 2 2 0 0 1 .077-.276l.189-.585a.1.1 0 0 1 .038-.048.1.1 0 0 1 .065-.02zm.684-.02q.15 0 .27.046a.59.59 0 0 1 .345.344q.05.124.05.278a.8.8 0 0 1-.05.282.6.6 0 0 1-.345.348.8.8 0 0 1-.27.046q-.15 0-.273-.047a.6.6 0 0 1-.211-.134.6.6 0 0 1-.138-.213.8.8 0 0 1-.047-.282q0-.154.047-.278a.6.6 0 0 1 .138-.211.6.6 0 0 1 .21-.133.8.8 0 0 1 .274-.047m0 1.055q.135 0 .197-.095a.53.53 0 0 0 .065-.29.5.5 0 0 0-.065-.287q-.062-.095-.197-.095-.138 0-.203.095a.5.5 0 0 0-.064.288q0 .194.064.29.064.094.203.094m1.26-1.036v1.305h-.39v-1.305zm.04-.357a.2.2 0 0 1-.02.088.24.24 0 0 1-.22.138.23.23 0 0 1-.163-.066.3.3 0 0 1-.05-.072.227.227 0 0 1 .05-.25.227.227 0 0 1 .163-.067.24.24 0 0 1 .22.14.2.2 0 0 1 .02.089m1.19.667a.2.2 0 0 1-.034.034.08.08 0 0 1-.046.012.1.1 0 0 1-.053-.014l-.052-.03a.293.293 0 0 0-.165-.045.3.3 0 0 0-.124.026.23.23 0 0 0-.086.076.3.3 0 0 0-.05.12.7.7 0 0 0-.017.16q0 .187.072.288.074.101.2.101.068 0 .107-.016a.4.4 0 0 0 .068-.038l.05-.039a.1.1 0 0 1 .06-.017.08.08 0 0 1 .07.033l.113.14a.64.64 0 0 1-.264.181.97.97 0 0 1-.277.043.6.6 0 0 1-.42-.176.7.7 0 0 1-.13-.213.8.8 0 0 1-.048-.287.8.8 0 0 1 .041-.262.583.583 0 0 1 .328-.355.7.7 0 0 1 .282-.052q.154 0 .27.05.115.048.208.143zm1.054.186a.3.3 0 0 0-.012-.09.2.2 0 0 0-.04-.079.2.2 0 0 0-.07-.056.24.24 0 0 0-.107-.022.23.23 0 0 0-.173.064.33.33 0 0 0-.083.183zm-.49.226q.019.165.1.238a.3.3 0 0 0 .207.073.4.4 0 0 0 .117-.016 1 1 0 0 0 .086-.037l.071-.036a.15.15 0 0 1 .068-.017.08.08 0 0 1 .07.034l.114.14a.6.6 0 0 1-.275.181 1.024 1.024 0 0 1-.287.043.8.8 0 0 1-.257-.044.6.6 0 0 1-.353-.352.83.83 0 0 1-.007-.553.6.6 0 0 1 .128-.205.62.62 0 0 1 .472-.19q.13-.001.236.04a.5.5 0 0 1 .306.305.7.7 0 0 1 .04.323.1.1 0 0 1-.013.045.05.05 0 0 1-.028.022.1.1 0 0 1-.043.006z"/>
    <defs>
        <linearGradient id="a" x1="-6.619" x2="21.574" y1="27.553" y2="27.553" gradientUnits="userSpaceOnUse">
            <stop stop-color="#93c854"/>
            <stop offset="1" stop-color="#4195d5"/>
        </linearGradient>
        <linearGradient id="b" x1="-3.684" x2="24.51" y1="30.489" y2="30.489" gradientUnits="userSpaceOnUse">
            <stop stop-color="#93c854"/>
            <stop offset="1" stop-color="#4195d5"/>
        </linearGradient>
        <linearGradient id="c" x1="14.617" x2="27.972" y1="20.21" y2="20.21" gradientUnits="userSpaceOnUse">
            <stop stop-color="#3986c1"/>
            <stop offset="1" stop-color="#133f5d"/>
        </linearGradient>
        <linearGradient id="d" x1="14.617" x2="27.972" y1="23.559" y2="23.559" gradientUnits="userSpaceOnUse">
            <stop stop-color="#3986c1"/>
            <stop offset="1" stop-color="#133f5d"/>
        </linearGradient>
        <linearGradient id="e" x1="11.771" x2="21.591" y1="13.121" y2="13.121" gradientUnits="userSpaceOnUse">
            <stop stop-color="#3986c1"/>
            <stop offset="1" stop-color="#133f5d"/>
        </linearGradient>
        <linearGradient id="f" x1="11.382" x2="20.024" y1="22.347" y2="22.347" gradientUnits="userSpaceOnUse">
            <stop stop-color="#3986c1"/>
            <stop offset="1" stop-color="#133f5d"/>
        </linearGradient>
    </defs>
</svg>
