<svg xmlns="http://www.w3.org/2000/svg" data-name="Layer 1" viewBox="0 0 14.77 12.25">
    <title>SVG - Onboarding Ionic Paper Phase 1</title>
    <path fill="#4198d3" fill-rule="evenodd" d="M14.39 8.21v1.52a2.17 2.17 0 0 1-1.91 2.15s-10.27 0-10.4-.06a2.15 2.15 0 0 1-1.62-1.56c1.19-1 1.58-1.9 3.62-2 1.78-.09 2.08 1 3.86.9s2.58-2.56 5.32-1.63a3.2 3.2 0 0 1 1.13.68" opacity=".3"/>
    <path fill="none" stroke="#133f5d" stroke-linecap="round" stroke-linejoin="round" stroke-width=".75" d="M3.27 11.86H2.08a2.15 2.15 0 0 1-1.62-1.6 2.1 2.1 0 0 1-.08-.57V2.55A2.17 2.17 0 0 1 2.46.38l9.68.06a2.17 2.17 0 0 1 2.25 2.17v7.12a2.17 2.17 0 0 1-1.91 2.15H6"/>
    <path fill="none" stroke="#133f5d" stroke-linecap="round" stroke-linejoin="round" stroke-width=".75" d="m.38 2.55 7.19 4.21 6.83-4.15"/>
</svg>
