<svg xmlns="http://www.w3.org/2000/svg" data-name="Layer 1" viewBox="0 0 12 14.48">
    <title>SVG - Onboarding Ionic Paper Phase 1</title>
    <path fill="none" stroke="#133f5d" stroke-linecap="round" stroke-linejoin="round" stroke-width=".75" d="M2.81 5.1V3.56a3.19 3.19 0 1 1 6.37 0v1.49"/>
    <path fill="#4198d3" fill-rule="evenodd" d="M11.29 13.27a1.91 1.91 0 0 1-1.58.83H2.29a1.91 1.91 0 0 1-1.91-1.92V8.5a4.87 4.87 0 0 1 3.86.28 10.4 10.4 0 0 0 2.39 1.37c1.23.33 2.54-.55 4 1.1a2.9 2.9 0 0 1 .66 2.02" opacity=".3"/>
    <circle cx="6" cy="8.48" r="1.25" fill="#133f5d"/>
    <path fill="none" stroke="#133f5d" stroke-linecap="round" stroke-linejoin="round" stroke-width=".75" d="M6 8.48V12M11.62 9.55v2.63a1.9 1.9 0 0 1-1.91 1.92H2.29a1.91 1.91 0 0 1-1.91-1.92V7.05a1.92 1.92 0 0 1 1.91-1.92h7.42a1.92 1.92 0 0 1 1.91 1.92"/>
</svg>
