<svg xmlns="http://www.w3.org/2000/svg" width="28" height="29" fill="none" viewBox="0 0 28 29">
    <path fill="#4199d5" fill-rule="evenodd" d="M23.942 18.797v1.633a2.673 2.673 0 0 1-2.683 2.45h-14.7c-1.05-.117-1.867-.817-2.333-1.75 1.633-1.167 2.216-2.1 5.133-2.217 2.567-.116 2.917 1.167 5.483 1.05 2.334-.117 3.617-2.916 7.584-1.867.466 0 .933.35 1.516.7" clip-rule="evenodd" opacity=".15"/>
    <path stroke="#4199d5" stroke-linecap="round" stroke-linejoin="round" stroke-width="1.313" d="M8.146 22.826H6.512c-1.166-.233-1.983-1.05-2.333-2.217-.117-.233-.117-.583-.117-.816V9.643c0-1.634 1.284-2.917 2.917-3.034l13.65.117c1.75-.117 3.15 1.283 3.267 2.917v10.15c0 1.516-1.167 2.916-2.684 3.033h-7.7"/>
    <path stroke="#4199d5" stroke-linecap="round" stroke-linejoin="round" stroke-width="1.167" d="m4.058 10.11 10.15 4.666 9.683-4.667"/>
</svg>
