<svg xmlns="http://www.w3.org/2000/svg" width="24" height="24" fill="none" viewBox="0 0 24 24">
    <path fill="#d7e9f6" d="M12 22c-4-4-8-7.582-8-12 0-1.447.384-2.804 1.056-3.975 1.067 6.471 4.987 10.073 11.953 10.747-1.431 1.734-3.22 3.44-5.009 5.228"/>
    <path stroke="#4195d5" stroke-linecap="round" stroke-linejoin="round" stroke-width="1.5" d="M17.009 16.772C15.578 18.506 13.789 20.212 12 22c-4-4-8-7.582-8-12a8 8 0 1 1 16 0c0 .86-.152 1.69-.426 2.496M15 10a3 3 0 1 1-6 0 3 3 0 0 1 6 0"/>
</svg>
