<svg xmlns="http://www.w3.org/2000/svg" width="50" height="50" fill="none" viewBox="0 0 50 50">
    <path fill="#fff" fill-rule="evenodd" d="M38.38 46.829a1 1 0 0 0 1-1V26.104a1 1 0 0 0-1-1H25.653v21.725zM21.73 25.104v21.725H9a1 1 0 0 1-1-1V26.104a1 1 0 0 1 1-1z" clip-rule="evenodd"/>
    <path fill="url(#a)" d="M23.69 25.104h-1.96v21.725h3.922V25.104z"/>
    <path stroke="url(#b)" d="M21.73 25.104h3.922m-3.923 0v21.725m0-21.725H9a1 1 0 0 0-1 1v19.725a1 1 0 0 0 1 1h12.73m0 0h3.922m0-21.725v21.725m0-21.725H38.38a1 1 0 0 1 1 1v19.725a1 1 0 0 1-1 1H25.65"/>
    <path fill="#fff" fill-rule="evenodd" d="M39.777 21.462a1 1 0 0 1 .707 1.224l-.825 3.08a1 1 0 0 1-1.225.707l-12.302-3.296 1.343-5.012 4.122 1.105 2.512.673zm-17.436.699 1.343-5.012-4.123-1.104-8.18-2.192a1 1 0 0 0-1.225.707l-.825 3.08a1 1 0 0 0 .707 1.224z" clip-rule="evenodd"/>
    <path fill="url(#c)" d="m24.236 22.669-1.895-.508 1.343-5.012 1.895.508 1.896.508-1.343 5.012z"/>
    <path stroke="url(#d)" d="m25.58 17.657-1.896-.508m1.895.508 1.896.508m-1.896-.508 2.643-5.039m-2.643 5.04.23-5.687m-3.468 10.19 1.895.508 1.896.508M22.34 22.16l1.343-5.012m-1.343 5.012-12.303-3.297a1 1 0 0 1-.707-1.224l.825-3.08a1 1 0 0 1 1.225-.707l8.18 2.192m4.123 1.104-4.123-1.104m6.57 7.131 1.344-5.01m-1.343 5.01 12.302 3.297a1 1 0 0 0 1.225-.707l.825-3.08a1 1 0 0 0-.707-1.224l-5.668-1.52-2.512-.672m-4.122-1.105 4.122 1.105m0 0a2.6 2.6 0 0 0 3.185-1.839m0 0a5.2 5.2 0 0 0-2.062-5.621m2.062 5.621a5.2 5.2 0 0 0-2.062-5.621m0 0-.317-.22m0 0a2.873 2.873 0 0 0-4.18 1.028m4.18-1.027a2.873 2.873 0 0 0-4.18 1.027m-2.414-.646a2.874 2.874 0 0 0-3.107-2.98m3.107 2.98a2.874 2.874 0 0 0-3.107-2.98m0 0-.383.031m0 0a5.2 5.2 0 0 0-4.597 3.837m4.597-3.837a5.2 5.2 0 0 0-4.597 3.837m0 0a2.6 2.6 0 0 0 1.839 3.185m-1.839-3.185a2.6 2.6 0 0 0 1.839 3.185"/>
    <path stroke="url(#e)" stroke-width="3" d="m25.579 17.086-1.896-.508-4.122-1.104a2.6 2.6 0 0 1-1.84-3.185m7.858 4.797 1.895.508 4.123 1.105a2.6 2.6 0 0 0 3.184-1.839m-9.202.226 2.643-5.039m-2.643 5.04.23-5.686m8.972 5.46a5.2 5.2 0 0 0-2.062-5.622m2.062 5.621a5.2 5.2 0 0 0-2.062-5.621m0 0-.316-.22m0 0a2.874 2.874 0 0 0-4.181 1.028m4.18-1.027a2.874 2.874 0 0 0-4.18 1.027m-2.413-.646a2.874 2.874 0 0 0-3.107-2.98m3.107 2.98a2.874 2.874 0 0 0-3.107-2.98m0 0-.384.031m0 0a5.2 5.2 0 0 0-4.596 3.837m4.596-3.837a5.2 5.2 0 0 0-4.596 3.837"/>
    <g filter="url(#f)">
        <path fill="#93c854" d="M37 48a8 8 0 1 0 0-16 8 8 0 0 0 0 16"/>
    </g>
    <path fill="#fff" d="M36.175 35.204a1 1 0 0 1 1.65 0l1.09 1.59a1 1 0 0 0 .542.394l1.85.545a1 1 0 0 1 .51 1.57L40.64 40.83a1 1 0 0 0-.207.637l.053 1.927a1 1 0 0 1-1.335.97l-1.817-.646a1 1 0 0 0-.67 0l-1.817.646a1 1 0 0 1-1.335-.97l.053-1.927a1 1 0 0 0-.207-.637l-1.176-1.529a1 1 0 0 1 .51-1.569l1.85-.545a1 1 0 0 0 .542-.394z"/>
    <defs>
        <linearGradient id="a" x1="7.999" x2="48.601" y1="35.98" y2="35.98" gradientUnits="userSpaceOnUse">
            <stop stop-color="#3986c1"/>
            <stop offset=".179" stop-color="#3782bc"/>
            <stop offset=".39" stop-color="#3278ae"/>
            <stop offset=".617" stop-color="#296796"/>
            <stop offset=".855" stop-color="#1c5075"/>
            <stop offset="1" stop-color="#133f5d"/>
        </linearGradient>
        <linearGradient id="b" x1="-2.863" x2="43.404" y1="46.829" y2="46.829" gradientUnits="userSpaceOnUse">
            <stop stop-color="#93c854"/>
            <stop offset="1" stop-color="#4195d5"/>
        </linearGradient>
        <linearGradient id="c" x1="10.874" x2="50.114" y1="11.879" y2="22.393" gradientUnits="userSpaceOnUse">
            <stop stop-color="#3986c1"/>
            <stop offset=".179" stop-color="#3782bc"/>
            <stop offset=".39" stop-color="#3278ae"/>
            <stop offset=".617" stop-color="#296796"/>
            <stop offset=".855" stop-color="#1c5075"/>
            <stop offset="1" stop-color="#133f5d"/>
        </linearGradient>
        <linearGradient id="d" x1="2.174" x2="46.889" y1="2.357" y2="14.338" gradientUnits="userSpaceOnUse">
            <stop stop-color="#93c854"/>
            <stop offset="1" stop-color="#4195d5"/>
        </linearGradient>
        <linearGradient id="e" x1="18.178" x2="40.251" y1="10.583" y2="16.497" gradientUnits="userSpaceOnUse">
            <stop stop-color="#3986c1"/>
            <stop offset=".179" stop-color="#3782bc"/>
            <stop offset=".39" stop-color="#3278ae"/>
            <stop offset=".617" stop-color="#296796"/>
            <stop offset=".855" stop-color="#1c5075"/>
            <stop offset="1" stop-color="#133f5d"/>
        </linearGradient>
        <filter id="f" width="17.991" height="17.991" x="28.005" y="31.005" color-interpolation-filters="sRGB" filterUnits="userSpaceOnUse">
            <feFlood flood-opacity="0" result="BackgroundImageFix"/>
            <feGaussianBlur in="BackgroundImageFix" stdDeviation=".498"/>
            <feComposite in2="SourceAlpha" operator="in" result="effect1_backgroundBlur_374_41637"/>
            <feBlend in="SourceGraphic" in2="effect1_backgroundBlur_374_41637" result="shape"/>
        </filter>
    </defs>
</svg>
