<svg xmlns="http://www.w3.org/2000/svg" width="36" height="37" fill="none" viewBox="0 0 36 37">
    <path fill="#133f5d" fill-rule="evenodd" d="M23.03 30.278a3.12 3.12 0 0 1-2.586 1.362H8.316a3.133 3.133 0 0 1-3.141-3.129v-6.034a7.95 7.95 0 0 1 6.32.452 17.2 17.2 0 0 0 3.916 2.234c2.017.54 4.155-.894 6.55 1.8a4.7 4.7 0 0 1 1.07 3.315" clip-rule="evenodd" opacity=".3"/>
    <path stroke="#133f5d" stroke-linecap="round" stroke-linejoin="round" stroke-miterlimit="10" stroke-width="1.5" d="M24.506 10C28.084 10 31 12.915 31 16.497q-.001 1.048-.32 1.998A6.49 6.49 0 0 1 24.507 23a6.44 6.44 0 0 1-3.578-1.075l-2.5.802.813-2.417a7 7 0 0 1-.283-.419A6.5 6.5 0 0 1 18 16.497a6.5 6.5 0 0 1 3.169-5.574"/>
    <path fill="#133f5d" fill-rule="evenodd" d="M27.974 18.184c-.044-.075-.158-.122-.329-.218-.17-.088-1.018-.537-1.176-.598-.158-.062-.272-.096-.386.088a10 10 0 0 1-.543.721c-.101.123-.203.136-.373.048-.171-.089-.728-.286-1.385-.912a5.6 5.6 0 0 1-.961-1.272c-.101-.177-.013-.279.07-.367.075-.082.17-.218.259-.32.088-.116.114-.19.17-.313a.35.35 0 0 0-.012-.32c-.044-.095-.386-1-.531-1.367-.14-.367-.285-.354-.386-.354s-.284.034-.284.034-.348.048-.506.231c-.158.177-.601.626-.601 1.531s.62 1.782.702 1.905c.088.122 1.188 2.04 2.946 2.776 1.752.734 1.752.49 2.068.462s1.018-.442 1.163-.877c.14-.429.14-.796.095-.878" clip-rule="evenodd"/>
    <path stroke="#133f5d" stroke-linecap="round" stroke-linejoin="round" stroke-width="1.5" d="M23.655 26v2.949a2.62 2.62 0 0 1-2.622 2.621H7.925a2.62 2.62 0 0 1-2.621-2.621V7.98A2.62 2.62 0 0 1 7.925 5.36h13.108a2.62 2.62 0 0 1 2.422 1.618M14.481 27.711h.014"/>
</svg>
