<svg xmlns="http://www.w3.org/2000/svg" width="36" height="37" fill="none" viewBox="0 0 36 37">
    <path stroke="#133f5d" stroke-linecap="round" stroke-linejoin="round" stroke-width="1.5" d="M14.58 17.92c.238-.238.357-.357.425-.478a.85.85 0 0 0 .117-.346c.02-.138-.01-.355-.068-.789a6 6 0 1 1 5.14 5.14c-.435-.06-.652-.088-.79-.069a.85.85 0 0 0-.346.117c-.121.068-.24.187-.479.426l-5.11 5.11c-.173.173-.26.26-.36.322a1 1 0 0 1-.29.12c-.115.027-.237.027-.482.027H10.6c-.56 0-.84 0-1.054-.109a1 1 0 0 1-.437-.437C9 26.74 9 26.46 9 25.9v-1.737c0-.245 0-.367.028-.482a1 1 0 0 1 .12-.29c.061-.1.148-.187.32-.36l2.556-2.555M21 15.5h.01"/>
    <path fill="#133f5d" fill-rule="evenodd" d="M31.869 13.219a2.32 2.32 0 0 1-.664 1.876l-2.53 5.475-5.175 2.583a2.47 2.47 0 0 1-2.674.562c-.299-.12-.572-.3-.802-.525l-3.423 1.682c-.047-1.038.004-6.081.464-7.013a7.4 7.4 0 0 1 4.482-3.881 18.3 18.3 0 0 0 3.67-.973l.33-.145c1.667-.963 2.197-3.352 5.47-3.093.614.077.2 1.339.731 1.654.532.316-.24 1.296.12 1.798" clip-rule="evenodd" opacity=".3"/>
</svg>
