<svg xmlns="http://www.w3.org/2000/svg" width="24" height="25" fill="none" viewBox="0 0 24 25">
    <path fill="#fff" stroke="#4195d5" stroke-linecap="square" stroke-linejoin="round" stroke-width=".676" d="M12 21.5c4.973 0 9.004-4.03 9.004-9S16.973 3.501 12 3.501s-9.003 4.029-9.003 9c0 4.97 4.03 8.998 9.003 8.998Z"/>
    <path fill="#4195d5" fill-rule="evenodd" stroke="#4195d5" stroke-width=".25" d="M11.07 17.748a6.54 6.54 0 0 1-2.405-5.129c.01-.801.173-1.6.546-2.29.373-.691.966-1.268 1.685-1.547a2.82 2.82 0 0 1 2.46.219 2.624 2.624 0 0 1 1.27 2.129c.03.816-.346 1.637-.962 2.198s-1.454.865-2.3.889c-.986.026-1.987-.331-2.707-1.009s-1.142-1.676-1.084-2.666c.03-.55.201-1.093.487-1.569a3.8 3.8 0 0 1 1.15-1.195c.936-.613 2.12-.81 3.23-.619a5.19 5.19 0 0 1 3.57 2.515 5.21 5.21 0 0 0-3.562-2.557c-1.116-.207-2.32-.025-3.284.59a3.9 3.9 0 0 0-1.212 1.2 3.57 3.57 0 0 0-.548 1.624c-.076 1.042.353 2.101 1.106 2.83s1.81 1.124 2.86 1.11c.898-.01 1.808-.32 2.492-.922s1.123-1.503 1.103-2.429a3 3 0 0 0-.379-1.407c-.24-.43-.588-.8-1.002-1.07a3.26 3.26 0 0 0-2.854-.298c-.844.312-1.53.965-1.965 1.737-.434.773-.627 1.657-.652 2.526a7.12 7.12 0 0 0 2.582 5.601z" clip-rule="evenodd"/>
    <path fill="#a5ed5e" fill-rule="evenodd" d="m19.3 10.014-2.735.588-.571-1.194zm-3.334-.589-.537.918.9-.139zm-.034-.12-.531-.854 3.9 1.545z" clip-rule="evenodd"/>
    <path fill="#4195d5" fill-rule="evenodd" d="M8.108 12.896c.154.245.302.515.613.655l-.035-.315c-.19-.25-.306-.323-.43-.508-.03-.05-.142-.178-.142-.178-.042.115-.005.23-.005.346" clip-rule="evenodd"/>
</svg>
