<svg xmlns="http://www.w3.org/2000/svg" width="76" height="16" fill="none" viewBox="0 0 76 16">
    <path fill="url(#a)" d="M70.868 2.667H47.445a2.463 2.463 0 0 0-2.465 2.461v5.744a2.463 2.463 0 0 0 2.465 2.461h23.423a2.463 2.463 0 0 0 2.465-2.461V5.128a2.463 2.463 0 0 0-2.465-2.461"/>
    <path fill="#3e5567" d="M8.549 6.18q-.023-1.432-.85-2.016-.825-.582-2.202-.563h-2.83v8.822h1.366V8.84H5.65q1.347.012 2.116-.615.769-.626.784-2.045m-1.397 0q-.01.923-.443 1.274-.432.351-1.17.335H4.033V4.651H5.47q.725-.026 1.196.274.47.3.487 1.254M16.014 12.424l-.877-2.502H11.74l-.931 2.502H9.37l3.603-8.848h1.205l3.343 8.848zm-2.507-7.261-1.383 3.733h2.67zM22.588 8.827h-1.616v3.596h-1.37V3.576h2.835c1.808 0 3.055.642 3.055 2.584s-1.124 2.667-2.904 2.667M22.41 4.63h-1.438v3.145h1.506c.972 0 1.617-.356 1.617-1.614 0-1.26-.74-1.532-1.685-1.532M27.862 12.424V3.576h5.082v1.053h-3.712v2.693h3.425v1.053h-3.425v2.995h3.836v1.053h-5.205zM40.697 12.424 37.875 8.61h-.643v3.815h-1.37V3.576h3.04c1.412 0 2.918.492 2.918 2.461 0 1.245-.575 2.353-2.356 2.53l2.89 3.856zM38.97 4.63h-1.74v2.927h1.753c1.041 0 1.438-.656 1.438-1.518 0-.861-.493-1.409-1.452-1.409z"/>
    <path fill="#fff" d="M58.832 9.847h-1.833l.855-4.005a.504.504 0 0 0-.988-.21l-.957 4.504a.5.5 0 0 0 .49.605h2.433a.447.447 0 1 0 0-.894M64.332 5.275a.5.5 0 0 0-.484.391l-.603 2.822q-.113.546-.462.924-.424.454-1.01.454-.584 0-.818-.454a1.2 1.2 0 0 1-.111-.526q0-.187.043-.398l.558-2.616a.495.495 0 0 0-.97-.206l-.602 2.821a3 3 0 0 0-.063.59c0 .378.092.708.271.999q.466.71 1.496.709 1.028.001 1.799-.71c.454-.43.75-.96.88-1.588l.559-2.615a.495.495 0 0 0-.485-.598zM68.91 5.445a3 3 0 0 0-.352-.122 3.4 3.4 0 0 0-.937-.123q-.77.002-1.351.426a1.77 1.77 0 0 0-.738 1.406q0 .693.73 1.087c.178.1.386.2.613.295.147.06.304.13.459.21q.425.227.426.514-.001.044-.008.088c-.092.418-.527.661-1.12.661q-.45 0-.79-.12-.12-.045-.273-.12a.49.49 0 1 0-.405.894q.173.075.335.118c.299.084.614.127.953.127a2.76 2.76 0 0 0 1.424-.382q.73-.434.893-1.21.031-.16.032-.303 0-.658-.682-1.063a6 6 0 0 0-.754-.367c-.299-.123-.506-.235-.618-.327a.45.45 0 0 1-.163-.342c0-.047.004-.1.015-.15q.114-.555.838-.555c.243 0 .478.036.714.104q.162.05.358.142a.488.488 0 1 0 .4-.889M55.301 5.682q-.524-.39-1.321-.389h-2.113c-.44 0-.773.337-.834.62l-.381 1.77h.002l-.036.135-.37 1.77-.105.872a.316.316 0 0 0 .305.379l.461.008a.316.316 0 0 0 .313-.25l.317-1.139a.32.32 0 0 1 .308-.25h.222l.756-.01h.327c.528 0 1.105-.132 1.565-.393.66-.394.98-.912 1.118-1.562a2 2 0 0 0 .045-.409q0-.694-.577-1.152zm-.72 1.561c-.119.567-.685.867-1.199.867l-.801-.01-.353-.018-.026-.002a.312.312 0 0 1-.295-.377l.248-1.337 1.592.015c.35 0 .656.143.77.355a.7.7 0 0 1 .084.315q.001.09-.02.192"/>
    <path fill="#abdd62" d="m53.383 8.11-.801-.012-.353-.017-.026-.001a.312.312 0 0 1-.295-.378l.248-1.336h-.674a.676.676 0 0 0-.66.533l-.168.783s-.114.384-.263.384l-1.373.045a.315.315 0 0 0-.319.241l-.104.447a.315.315 0 0 0 .293.388l1.248.02c.2 0 .11.38.11.38l-.104.872a.316.316 0 0 0 .305.38l.461.007a.316.316 0 0 0 .313-.25l.317-1.139a.32.32 0 0 1 .308-.25h.222l.756-.01h.042a.316.316 0 0 0 .319-.242z"/>
    <defs>
        <linearGradient id="a" x1="46.616" x2="74.944" y1="-1.263" y2="19.73" gradientUnits="userSpaceOnUse">
            <stop stop-color="#438dc5"/>
            <stop offset=".15" stop-color="#4991c2"/>
            <stop offset=".35" stop-color="#5a9bb9"/>
            <stop offset=".58" stop-color="#77acab"/>
            <stop offset=".83" stop-color="#9ec497"/>
            <stop offset="1" stop-color="#bcd688"/>
        </linearGradient>
    </defs>
</svg>
