<svg xmlns="http://www.w3.org/2000/svg" width="70" height="16" fill="none" viewBox="0 0 70 16">
    <path fill="url(#a)" d="M64.9 3.077H43.45a2.265 2.265 0 0 0-2.258 2.272v5.302a2.265 2.265 0 0 0 2.258 2.272H64.9a2.265 2.265 0 0 0 2.258-2.272V5.349A2.265 2.265 0 0 0 64.9 3.077"/>
    <path fill="#fff" d="M7.829 6.32q-.021-1.321-.778-1.86-.756-.539-2.017-.52H2.442v8.143h1.252V8.774h1.48q1.234.013 1.938-.567.703-.577.717-1.888m-1.279 0q-.009.852-.406 1.176-.396.325-1.071.31h-1.38V4.908H5.01q.663-.025 1.095.252.43.276.445 1.158zM14.665 12.084l-.803-2.31h-3.11l-.853 2.31H8.58l3.3-8.168h1.103l3.061 8.168zM12.37 5.38l-1.267 3.446h2.446zM20.686 8.763h-1.48v3.32H17.95V3.916h2.597c1.656 0 2.797.593 2.797 2.386s-1.029 2.461-2.659 2.461m-.163-3.875h-1.317V7.79h1.38c.89 0 1.48-.328 1.48-1.49s-.678-1.414-1.543-1.414M25.516 12.084V3.916h4.654v.972h-3.4v2.486h3.137v.972H26.77v2.765h3.513v.971h-4.767zM37.27 12.084l-2.584-3.522h-.59v3.522h-1.254V3.916h2.785c1.292 0 2.672.455 2.672 2.272 0 1.15-.527 2.172-2.158 2.335l2.647 3.56zm-1.58-7.195h-1.594V7.59H35.7c.954 0 1.317-.606 1.317-1.4 0-.796-.451-1.301-1.33-1.301zM53.878 9.705h-1.679l.783-3.697a.463.463 0 1 0-.905-.193L51.2 9.972a.46.46 0 0 0 .45.558h2.227a.412.412 0 0 0 0-.825M58.915 5.485a.456.456 0 0 0-.444.361l-.552 2.605a1.77 1.77 0 0 1-.423.852q-.389.42-.925.42t-.749-.42a1.1 1.1 0 0 1-.102-.485q0-.173.04-.367l.51-2.415a.455.455 0 1 0-.888-.19l-.55 2.604q-.06.285-.059.544 0 .522.249.922.426.656 1.37.655a2.34 2.34 0 0 0 1.647-.655q.625-.596.807-1.466l.51-2.415a.456.456 0 0 0-.443-.551zM63.106 5.641a3 3 0 0 0-.321-.112 3.1 3.1 0 0 0-.858-.113q-.707 0-1.238.393a1.63 1.63 0 0 0-.676 1.297q0 .64.668 1.004.25.138.563.272c.134.055.277.12.42.194q.388.21.39.475a1 1 0 0 1-.007.08c-.085.387-.483.611-1.027.611q-.411 0-.723-.11a3 3 0 0 1-.25-.111.445.445 0 0 0-.546.129.454.454 0 0 0 .176.696q.157.068.306.109c.274.077.562.117.873.117q.706 0 1.304-.353.67-.402.818-1.117c.018-.1.03-.19.03-.28q-.001-.606-.626-.981a6 6 0 0 0-.69-.339c-.274-.113-.463-.216-.566-.301a.41.41 0 0 1-.15-.316q0-.067.015-.14.104-.51.767-.51.332.001.654.095.148.045.328.131c.189.09.415.04.544-.125a.452.452 0 0 0-.178-.695M50.644 5.86q-.479-.36-1.21-.359h-1.935c-.404 0-.708.312-.763.572l-.35 1.635h.002l-.032.124c-.029.134-.303 1.453-.34 1.634l-.096.805a.29.29 0 0 0 .28.35l.422.007a.29.29 0 0 0 .286-.23l.29-1.052a.29.29 0 0 1 .283-.231h.203l.692-.01h.3c.483 0 1.012-.121 1.433-.362.605-.364.898-.842 1.024-1.442.027-.132.041-.255.041-.377q0-.64-.528-1.064zm-.66 1.442c-.108.522-.627.8-1.097.8l-.734-.01-.323-.016-.024-.002a.288.288 0 0 1-.27-.348l.227-1.234 1.458.014c.32 0 .6.131.704.328.05.095.078.195.078.29a1 1 0 0 1-.018.178z"/>
    <path fill="#abdd62" d="m48.888 8.1-.734-.01-.323-.015-.024-.002a.288.288 0 0 1-.27-.348l.227-1.234h-.617a.62.62 0 0 0-.605.493l-.154.723s-.104.354-.24.354l-1.258.041a.29.29 0 0 0-.292.223l-.095.413a.29.29 0 0 0 .268.358l1.143.018c.183 0 .101.35.101.35l-.095.806a.29.29 0 0 0 .28.35l.421.007a.29.29 0 0 0 .286-.23l.29-1.052a.29.29 0 0 1 .283-.23h.203l.693-.01h.038a.29.29 0 0 0 .292-.223z"/>
    <defs>
        <linearGradient id="a" x1="42.69" x2="68.779" y1="-.55" y2="18.63" gradientUnits="userSpaceOnUse">
            <stop stop-color="#438dc5"/>
            <stop offset=".15" stop-color="#4991c2"/>
            <stop offset=".35" stop-color="#5a9bb9"/>
            <stop offset=".58" stop-color="#77acab"/>
            <stop offset=".83" stop-color="#9ec497"/>
            <stop offset="1" stop-color="#bcd688"/>
        </linearGradient>
    </defs>
</svg>
