<svg xmlns="http://www.w3.org/2000/svg" width="30" height="30" fill="none" viewBox="0 0 30 30">
    <path fill="#fff" d="m11.625 21.042 3.582-10.785a1.87 1.87 0 0 1 .94-1.102 1.82 1.82 0 0 1 1.435-.082l7.118 2.414a1.83 1.83 0 0 1 1.102.94 1.88 1.88 0 0 1 .095 1.456L22.334 24.65a1.87 1.87 0 0 1-.919 1.139 1.82 1.82 0 0 1-1.448.11l-1.289-.438"/>
    <path stroke="#4199d5" stroke-linecap="round" stroke-linejoin="round" d="M12.803 23.466a1.9 1.9 0 0 1-1.085-.965 1.93 1.93 0 0 1-.093-1.459l3.582-10.785a1.87 1.87 0 0 1 .94-1.102 1.82 1.82 0 0 1 1.436-.082l7.118 2.414a1.83 1.83 0 0 1 1.101.94 1.88 1.88 0 0 1 .096 1.456L22.334 24.65a1.87 1.87 0 0 1-.919 1.139 1.83 1.83 0 0 1-1.448.11l-2.688-.932"/>
    <ellipse cx="14.81" cy="18.386" fill="#4199d5" rx=".396" ry=".401"/>
    <path stroke="#4199d5" stroke-linecap="round" stroke-linejoin="round" stroke-width=".86" d="m16.32 18.898 2.496.849"/>
    <path fill="#fff" d="m9.626 24.166-1.031.149a2.22 2.22 0 0 1-1.671-.429 2.27 2.27 0 0 1-.88-1.501L4.028 8.924a2.3 2.3 0 0 1 .416-1.71 2.25 2.25 0 0 1 1.499-.891l8.84-1.296a2.22 2.22 0 0 1 1.654.402c.477.349.8.874.897 1.462l1.97 13.415a2.31 2.31 0 0 1-.38 1.706 2.27 2.27 0 0 1-1.462.932h-.046l-1.602.243"/>
    <path fill="#4198d3" fill-rule="evenodd" d="M18.116 23.15 7.987 24.67a1.6 1.6 0 0 1-1.191-.285 1.63 1.63 0 0 1-.65-1.049l-.664-4.484c.194-.13.406-.27.663-.42a5.47 5.47 0 0 1 4.402-.26c.868.5 1.796.882 2.762 1.137 1.4.186 2.763-.933 4.605.634 1.15 1.016 1.012 1.584.202 3.206" clip-rule="evenodd" opacity=".3"/>
    <path stroke="#4199d5" stroke-linecap="round" stroke-linejoin="round" d="M8.549 24.315a2.22 2.22 0 0 1-1.671-.429 2.27 2.27 0 0 1-.88-1.501L4.028 8.924a2.3 2.3 0 0 1 .416-1.71 2.25 2.25 0 0 1 1.499-.891l8.84-1.296a2.22 2.22 0 0 1 1.654.402c.477.349.8.874.897 1.462l1.97 13.415a2.31 2.31 0 0 1-.38 1.706 2.27 2.27 0 0 1-1.462.932h-.046l-5.34.802"/>
    <ellipse cx="7.959" cy="17.817" fill="#4199d5" rx=".47" ry=".475"/>
    <path stroke="#4199d5" stroke-linecap="round" stroke-linejoin="round" d="m9.838 17.528 3.112-.466"/>
    <path fill="#4199d5" d="m8.985 8.782-2.323.349a.39.39 0 0 0-.326.445l.38 2.591a.387.387 0 0 0 .44.33l2.322-.35a.39.39 0 0 0 .326-.444l-.38-2.591a.387.387 0 0 0-.44-.33"/>
</svg>
