<svg xmlns="http://www.w3.org/2000/svg" width="24" height="24" fill="none" viewBox="0 0 24 24">
    <path fill="#133f5d" fill-rule="evenodd" d="M14.05 20.532h-9.5c-.8 0-1.5-.7-1.5-1.5v-5.5c.2-.1.4-.2.7-.3 1.3-.5 2.8-.3 4 .4.7.6 1.6 1.1 2.4 1.5 1.3.4 2.6-.5 4.1 1.2.9 1.3.8 3-.2 4.2" clip-rule="evenodd" opacity=".15"/>
    <path stroke="#133f5d" stroke-linecap="round" stroke-linejoin="round" stroke-width="1.5" d="M3.05 12.432h17.9M5.45 20.532h-.367m15.867-11.3v9.7c0 .9-.7 1.6-1.6 1.6H5.084m0 0H4.65c-.9 0-1.6-.7-1.6-1.6v-9.7c0-.9.7-1.6 1.6-1.6h9.934m1.5-1.598h2.433m2.433 0h-2.433m0 2.434V6.034m0 0V3.468M8.95 17.232h2.1"/>
</svg>
