<svg xmlns="http://www.w3.org/2000/svg" width="24" height="25" fill="none" viewBox="0 0 24 25">
    <path fill="#133f5d" d="M12.962 11.85c.383-2.445 3.853-4.352 5.54-5l-4.406-4.406L11.67 7.21 9.376 9.503l-4.95.692-.346.707 4.999 5.371c1.135-.456 3.501-1.979 3.883-4.423" opacity=".15"/>
    <path stroke="#133f5d" stroke-linecap="round" stroke-linejoin="round" stroke-width="1.5" d="M21.424 9.365c.56.56.264.263.323.559a1 1 0 0 1-.143.747c-.166.252-.53.408-1.257.72l-2.495 1.069a2 2 0 0 0-.208.096 1 1 0 0 0-.126.085c-.045.036-.085.076-.167.158l-1.56 1.56a2 2 0 0 0-.242.264 1 1 0 0 0-.11.207 2 2 0 0 0-.086.347l-.733 3.665c-.19.952-.286 1.428-.537 1.65a1 1 0 0 1-.8.243c-.333-.046-.677-.389-1.363-1.076l-7.086-7.085c-.687-.687-1.03-1.03-1.076-1.363A1 1 0 0 1 4 10.41c.223-.251.7-.346 1.651-.537l3.665-.733c.176-.035.265-.053.347-.085a1 1 0 0 0 .207-.11 2 2 0 0 0 .264-.242l1.56-1.561c.082-.082.122-.122.158-.167a1 1 0 0 0 .085-.126c.029-.05.051-.102.097-.208l1.069-2.495c.312-.727.467-1.091.72-1.256a1 1 0 0 1 .747-.144c.295.06.575.34 1.135.9l2.571 2.57m-9.9 9.9L2.72 21.773"/>
</svg>
