<svg xmlns="http://www.w3.org/2000/svg" width="14" height="14" fill="none" viewBox="0 0 14 14">
    <path fill="#133f5d" fill-rule="evenodd" d="M13 10.063v1.708c-.092.733-.825 1.302-1.74 1.221H2.74A1.65 1.65 0 0 1 1 11.772v-4.72c1.008-.082 1.924 0 2.84.406 1.74.896 2.107 1.872 3.389 2.198 1.832.406 3.023-.733 5.771.406" clip-rule="evenodd" opacity=".15"/>
    <path stroke="#133f5d" stroke-linecap="round" stroke-linejoin="round" stroke-width=".8" d="M4.804 5.745a.941.941 0 1 0 0-1.882.941.941 0 0 0 0 1.882"/>
    <path fill="#133f5d" fill-rule="evenodd" d="M2.608 1.753a.855.855 0 0 0-.855.855v8.784c0 .44.333.803.76.85L9.26 5.495a.353.353 0 0 1 .5 0l1.49 1.49-.5.5-1.24-1.24-6.003 6.002h2.481l-.8.8h-2.58c-.914 0-1.655-.741-1.655-1.655V2.608c0-.914.74-1.655 1.655-1.655h8.784c.914 0 1.655.74 1.655 1.655v2.58l-.8.8v-3.38a.855.855 0 0 0-.855-.855zm4.379 10.494h4.405a.855.855 0 0 0 .855-.855V6.986l.8-.8v5.206c0 .914-.741 1.655-1.655 1.655H6.187z" clip-rule="evenodd"/>
</svg>
