<svg xmlns="http://www.w3.org/2000/svg" width="24" height="24" fill="none" viewBox="0 0 24 24">
    <path stroke="#133f5d" stroke-width="1.5" d="M6 2.5H3.5a1 1 0 0 0-1 1V6a1 1 0 0 0 1 1H6a1 1 0 0 0 1-1V3.5a1 1 0 0 0-1-1ZM6 17H3.5a1 1 0 0 0-1 1v2.5a1 1 0 0 0 1 1H6a1 1 0 0 0 1-1V18a1 1 0 0 0-1-1ZM20.5 2.5H18a1 1 0 0 0-1 1V6a1 1 0 0 0 1 1h2.5a1 1 0 0 0 1-1V3.5a1 1 0 0 0-1-1Z"/>
    <path stroke="#133f5d" stroke-linecap="round" stroke-linejoin="round" stroke-width="1.5" d="M2.5 9.5H4v2.643M6.75 9.5H10V4m0-1.5V4m0 0h4m0 3h-1.5m0 2.5H14V12m0 0h3m-3 0h-1.5M17 9.5h4.406V13m0 2v-2M6.75 12.143h1.625m1.625 0H8.375m0 0v3.107H11v3.25H9.5m4.5 3v-4m3-2.75h-3v2.75m5.5-4.5h1.906M11 21.5H9.5M6 14.75H2.5m16.75-10h.25M4.75 19.25H5m-.25-14.5H5m9 12.75h1.25m6.156 0h-3.703M18 19.75h-1.5v1.75m4.906-1.75v1.75H19.25"/>
</svg>
