<svg xmlns="http://www.w3.org/2000/svg" width="25" height="24" fill="none" viewBox="0 0 25 24">
    <rect width="24" height="24" x=".747" fill="#e8f3fa" rx="4"/>
    <path fill="#4199d5" fill-rule="evenodd" d="M17.806 17.863c-.226.3-.6.45-.976.45H9.256c-.75-.075-1.275-.675-1.275-1.425v-2.7c.375-.45.825-.75 1.35-.975a3.46 3.46 0 0 1 3.076.3c.524.45 1.05.825 1.65 1.2.075 0 .075.075.15.075.975.3 1.95-.45 3.075 1.05.45.675.675 1.35.524 2.025" clip-rule="evenodd" opacity=".15"/>
    <path stroke="#4199d5" stroke-linecap="round" stroke-linejoin="round" stroke-width="1.125" d="M16.062 12.55h-5.775M16.062 15.474h-5.775M11.713 9.699h-1.425"/>
    <path stroke="#4199d5" stroke-linecap="round" stroke-linejoin="round" stroke-width="1.2" d="M9.338 18.375c-.675 0-1.275-.6-1.275-1.275V6.9c0-.675.6-1.275 1.275-1.275h5.1l3.826 3.825v7.65c0 .675-.6 1.275-1.276 1.275h-4.274"/>
    <path stroke="#4199d5" stroke-linecap="round" stroke-linejoin="round" stroke-width="1.125" d="M13.914 5.625v4.35h4.275"/>
</svg>
