<svg xmlns="http://www.w3.org/2000/svg" width="21" height="21" fill="none" viewBox="0 0 21 21">
    <path stroke="#f69e7d" stroke-linecap="round" stroke-linejoin="round" stroke-width=".87" d="M11.811 6.167a4.693 4.693 0 1 1-2.688.167"/>
    <path fill="#f37d51" fill-opacity=".2" d="M5.98 11.436c1.698-.478 2.627-.204 4.237 1.175 1.242 1.065 1.819-.155 4.17 1.065-.311.621-.638.625-.86.892-.222.266-2.861.864-2.861.864-1.444-.223-2.184-.576-3.393-1.508z"/>
    <path stroke="#f69e7d" stroke-linecap="round" stroke-linejoin="round" stroke-width=".87" d="M10.377 8.267v2.817l1.978.765M7.581 14.222 6.053 15.75M13.913 14.222l1.528 1.528M5.411 7.162v-.79a.643.643 0 0 1 .642-.642H6.8M16.083 7.162v-.79a.64.64 0 0 0-.641-.642h-.744"/>
</svg>
