<svg xmlns="http://www.w3.org/2000/svg" width="18" height="19" fill="none" viewBox="0 0 18 19">
    <path fill="#fff" fill-rule="evenodd" d="M15.375 10.909a6.43 6.43 0 0 1-7.65 4.875 6.2 6.2 0 0 1-3.45-2.1 5.55 5.55 0 0 1 2.775-1.27 13.6 13.6 0 0 0 3-.3c1.275-.526 1.875-2.1 4.2-1.65a1.52 1.52 0 0 1 1.125.445" clip-rule="evenodd" opacity=".2"/>
    <path stroke="#fff" stroke-linecap="round" stroke-linejoin="round" d="M14.916 7.08a6.3 6.3 0 1 0 .05 3.751"/>
    <path stroke="#fff" stroke-linecap="round" stroke-linejoin="round" d="M5.625 6.604V8.56h1.953"/>
    <path stroke="#fff" stroke-linecap="round" stroke-linejoin="round" d="M6.442 10.188a2.931 2.931 0 1 0 .694-3.05L5.625 8.56"/>
</svg>
