<svg xmlns="http://www.w3.org/2000/svg" width="24" height="25" fill="none" viewBox="0 0 24 25">
    <path fill="#133f5d" fill-rule="evenodd" d="M7.136 12.543c1.353-1.581 2.596-.786 3.754-1.125a10.2 10.2 0 0 0 2.227-1.335 4.6 4.6 0 0 1 3.348-.449v5.073h-9.84a2.55 2.55 0 0 1 .511-2.164" clip-rule="evenodd" opacity=".3"/>
    <path stroke="#133f5d" stroke-linecap="round" stroke-linejoin="round" stroke-width="1.5" d="M6.365 10.78V7.696a1.386 1.386 0 0 1 1.386-1.386h7.547a1.386 1.386 0 0 1 1.386 1.386v7.557H7.75a1.386 1.386 0 0 1-1.386-1.386M17.608 9.752h1.445c.245 0 .48.097.653.27l1.523 1.523c.173.173.27.408.27.653v2.133a.924.924 0 0 1-.923.924h-3.892v-4.58a.924.924 0 0 1 .924-.923"/>
    <path stroke="#133f5d" stroke-linecap="round" stroke-linejoin="round" stroke-width="1.5" d="M9.46 18.691a1.72 1.72 0 1 0 0-3.439 1.72 1.72 0 0 0 0 3.44M18.403 18.691a1.72 1.72 0 1 0 0-3.439 1.72 1.72 0 0 0 0 3.44M2.5 14.253h2.125M2.973 12.13h1.653"/>
</svg>
