<svg width="16" height="16" viewBox="0 0 16 16" fill="none" xmlns="http://www.w3.org/2000/svg">
<path d="M2.9987 14.6666V11.3333M2.9987 4.66659V1.33325M1.33203 2.99992H4.66536M1.33203 12.9999H4.66536M10.7206 9.58423C10.5384 9.71379 10.3792 9.87299 10.2497 10.0552C10.1035 10.2608 10.0095 10.5052 9.82148 10.994L8.66536 13.9999L7.50925 10.994C7.32124 10.5052 7.22723 10.2608 7.08105 10.0552C6.95149 9.87299 6.7923 9.71379 6.61009 9.58423C6.4045 9.43805 6.16009 9.34404 5.67127 9.15604L2.66536 7.99992L5.67127 6.8438C6.16009 6.65579 6.4045 6.56179 6.61009 6.41561C6.7923 6.28604 6.95149 6.12685 7.08105 5.94464C7.22723 5.73906 7.32124 5.49465 7.50925 5.00583L8.66536 1.99992L9.82148 5.00583C10.0095 5.49465 10.1035 5.73906 10.2497 5.94464C10.3792 6.12685 10.5384 6.28604 10.7206 6.4156C10.9262 6.56179 11.1706 6.65579 11.6595 6.8438L14.6654 7.99992L13.1624 8.57798" stroke="white" stroke-linecap="round" stroke-linejoin="round"/>
</svg>
