<svg xmlns="http://www.w3.org/2000/svg" width="18" height="18" fill="none" viewBox="0 0 18 18">
    <path fill="#fff" fill-rule="evenodd" d="M15.421 10.228c-.85 3.588-4.438 5.666-8.027 4.816-1.322-.284-2.455-1.04-3.305-1.984a4.67 4.67 0 0 1 2.833-1.322c1.04 0 2.078-.094 3.022-.377 1.322-.567 1.889-2.172 4.344-1.7q.708.284 1.133.567" clip-rule="evenodd" opacity=".3"/>
    <path stroke="#fff" stroke-linecap="round" stroke-linejoin="round" stroke-width="1.5" d="M10.416 2.767c3.4.756 5.572 4.25 4.816 7.65-.755 3.399-4.25 5.57-7.649 4.815s-5.571-4.25-4.816-7.649C3.24 5.506 4.75 3.806 6.827 3.05"/>
    <path stroke="#fff" stroke-linecap="round" stroke-linejoin="round" stroke-width="1.5" d="M8.528 5.6v3.872l2.55 1.227M4.656 13.721 2.58 15.8M13.344 13.721 15.42 15.8M1.729 4.09V3.05c0-.472.377-.85.85-.85h1.038M16.271 4.09V3.05a.846.846 0 0 0-.85-.85h-1.039"/>
</svg>
