<svg xmlns="http://www.w3.org/2000/svg" width="16" height="17" fill="none" viewBox="0 0 16 17">
    <g clip-path="url(#a)">
        <path fill="#4195d5" d="M14 8.512a5.97 5.97 0 0 1-1.348 3.785l-.421.469A6.012 6.012 0 0 1 2 8.512q0-.436.07-.867A6 6 0 0 1 14 8.512"/>
        <path fill="#fff" fill-rule="evenodd" d="m12.652 12.297-.421.469A6.012 6.012 0 0 1 2 8.512q0-.435.07-.868a3.74 3.74 0 0 1 3.973 0c.82.516 1.02 1.723 2.344 2.145 1.09.363 2.601-.187 3.82 1.371.246.333.4.725.445 1.137" clip-rule="evenodd" opacity=".2"/>
        <path fill="#fff" d="M6 5.493q.176-.156.384-.296.212-.14.456-.244.245-.105.53-.16.284-.063.617-.063.45 0 .82.124.373.125.638.359.264.228.41.555t.145.731q0 .394-.114.685a1.9 1.9 0 0 1-.29.498 2.2 2.2 0 0 1-.374.369l-.384.295q-.182.135-.317.27a.53.53 0 0 0-.155.296l-.12.757H7.37l-.088-.845a.2.2 0 0 1-.005-.042v-.047q0-.228.114-.394.114-.172.286-.316.17-.151.368-.29.197-.141.368-.302.172-.166.286-.373a1 1 0 0 0 .114-.488.7.7 0 0 0-.073-.332.7.7 0 0 0-.192-.254.85.85 0 0 0-.3-.166 1.2 1.2 0 0 0-.374-.058q-.296 0-.504.068-.201.062-.347.145-.14.078-.239.145a.34.34 0 0 1-.176.063.28.28 0 0 1-.27-.156zm.98 6.117a.8.8 0 0 1 .057-.306.8.8 0 0 1 .166-.25.9.9 0 0 1 .255-.165.78.78 0 0 1 .617 0q.145.062.25.166a.79.79 0 0 1 .227.555.78.78 0 0 1-.228.555.7.7 0 0 1-.249.16.782.782 0 0 1-.617 0 .8.8 0 0 1-.255-.16.8.8 0 0 1-.166-.244.8.8 0 0 1-.057-.311"/>
    </g>
    <defs>
        <clipPath id="a">
            <path fill="#fff" d="M2 2.5h12v12H2z"/>
        </clipPath>
    </defs>
</svg>
