<svg xmlns="http://www.w3.org/2000/svg" width="24" height="24" fill="none" viewBox="0 0 24 24">
    <path stroke="#133f5d" stroke-linecap="round" stroke-linejoin="round" stroke-width="1.5" d="M4 5.995h16"/>
    <path fill="#133f5d" fill-rule="evenodd" d="M18.5 17.295v2.1c-.1.9-.9 1.6-1.9 1.5H7.3c-.9.1-1.7-.6-1.9-1.5v-5.8c1.1-.1 2.1 0 3.1.5 1.9 1.1 2.3 2.3 3.7 2.7 2 .5 3.3-.9 6.3.5" clip-rule="evenodd" opacity=".15"/>
    <path stroke="#133f5d" stroke-linecap="round" stroke-linejoin="round" stroke-width="1.5" d="M18.5 15.895v3.6c-.1.9-.9 1.6-1.9 1.5H7.3c-.9.1-1.7-.6-1.9-1.5v-13M18.5 6.495v3.5M9 5.995v-1.5c0-.8.7-1.5 1.5-1.5h3c.8 0 1.5.7 1.5 1.5v1.5M10.2 11.695v4.5M13.8 11.695v4.5"/>
</svg>
