<svg xmlns="http://www.w3.org/2000/svg" width="20" height="21" fill="none" viewBox="0 0 20 21">
    <path fill="#e35273" d="M17.501 10.078a7.45 7.45 0 0 1-1.685 4.748 9 9 0 0 1-.524.585 7.43 7.43 0 0 1-3.817 2.039 7.4 7.4 0 0 1-4.298-.438 7.47 7.47 0 0 1-3.335-2.768 7.57 7.57 0 0 1-1.254-4.17 6.7 6.7 0 0 1 .082-1.078A7.54 7.54 0 0 1 5.385 4.24a7.4 7.4 0 0 1 5.195-1.63 7.43 7.43 0 0 1 4.91 2.365 7.56 7.56 0 0 1 2.01 5.1z"/>
    <path fill="#fff" fill-rule="evenodd" d="M15.727 14.714c-.166.2-.337.4-.523.585a7.44 7.44 0 0 1-3.817 2.039 7.4 7.4 0 0 1-4.297-.439 7.47 7.47 0 0 1-3.335-2.767A7.57 7.57 0 0 1 2.5 9.962a6.6 6.6 0 0 1 .083-1.078c.011 0 .011-.012.023-.012 1.37-.68 2.963-1.23 4.94-.012 1.011.634 1.254 2.145 2.835 2.674 1.348.457 3.23-.236 4.742 1.724.332.419.542.923.604 1.456" clip-rule="evenodd" opacity=".2"/>
    <path stroke="#fff" stroke-linecap="round" stroke-width="1.25" d="m6.667 13.828 7.071-7.071M6.667 6.756l7.071 7.071"/>
</svg>
