<svg xmlns="http://www.w3.org/2000/svg" width="25" height="24" fill="none" viewBox="0 0 25 24">
    <path fill="#d0d9df" d="M12.052 3.673a1 1 0 0 1 1.39 0l1.179 1.14a1 1 0 0 0 .835.27l1.623-.229a1 1 0 0 1 1.125.818l.284 1.614a1 1 0 0 0 .516.711l1.448.768a1 1 0 0 1 .43 1.323l-.72 1.473a1 1 0 0 0 0 .878l.72 1.473a1 1 0 0 1-.43 1.323l-1.448.768a1 1 0 0 0-.517.71l-.283 1.615a1 1 0 0 1-1.125.818l-1.623-.23a1 1 0 0 0-.835.271l-1.179 1.14a1 1 0 0 1-1.39 0l-1.178-1.14a1 1 0 0 0-.836-.27l-1.623.229a1 1 0 0 1-1.125-.818l-.283-1.614a1 1 0 0 0-.517-.711l-1.448-.768a1 1 0 0 1-.43-1.323l.72-1.473a1 1 0 0 0 0-.878l-.72-1.473a1 1 0 0 1 .43-1.323l1.448-.768a1 1 0 0 0 .517-.71l.283-1.615a1 1 0 0 1 1.125-.818l1.623.23a1 1 0 0 0 .835-.271z"/>
    <path stroke="#fff" stroke-linecap="round" stroke-width="1.5" d="m9.147 12 1.87 2.025a.5.5 0 0 0 .713.02L16.347 9.6"/>
</svg>
