<svg xmlns="http://www.w3.org/2000/svg" width="24" height="24" fill="none" viewBox="0 0 24 24">
    <path stroke="#133f5d" stroke-linecap="round" stroke-linejoin="round" stroke-width="1.5" d="M3 15v-4.953c0-.741 0-1.112.115-1.437a2 2 0 0 1 .487-.76c.247-.242.584-.397 1.257-.708l8.87-4.094c.756-.349 1.133-.523 1.439-.471a1 1 0 0 1 .657.42C16 3.253 16 3.67 16 4.501v.874m4.782 14.533a2 2 0 0 1-.874.874C19.48 21 18.92 21 17.8 21H6.2c-1.12 0-1.68 0-2.108-.218a2 2 0 0 1-.874-.874C3 19.48 3 18.92 3 17.8v-6.6c0-1.12 0-1.68.218-2.108a2 2 0 0 1 .874-.874C4.52 8 5.08 8 6.2 8h11.6c1.12 0 1.68 0 2.108.218a2 2 0 0 1 .874.874c.19.374.201 1.037.218 1.71v.398"/>
    <path stroke="#133f5d" stroke-linecap="round" stroke-linejoin="round" stroke-width="1.154" d="M20.875 18.275s2.307-1.1 2.307-2.75v-1.924L21.5 13a1.86 1.86 0 0 0-1.25 0l-1.682.601v1.924c0 1.65 2.307 2.75 2.307 2.75"/>
    <path fill="#133f5d" d="M20 20.518c.426-.416.5-1.31.5-1.414v-1l-1.038-1.13-.666-.394v-2.466C14 13.104 9.5 19.104 6 20.518zc.419 0-.272.27 0 0M15.522 3.687l.66 1.406c-2.767-2.532-7.578 2.921-11 2.702 2.7-1.505 8.075-4.216 8.708-4.647.632-.43 1.351.18 1.632.54" opacity=".2"/>
</svg>
