<svg xmlns="http://www.w3.org/2000/svg" width="19" height="19" fill="none" viewBox="0 0 19 19">
    <path fill="#4e6f86" fill-rule="evenodd" d="M11.187 14.899H4.062c-.6 0-1.125-.525-1.125-1.125V9.649c.15-.075.3-.15.525-.225.975-.375 2.1-.225 3 .3.525.45 1.2.825 1.8 1.125.975.3 1.95-.375 3.075.9.675.975.6 2.25-.15 3.15" clip-rule="evenodd" opacity=".15"/>
    <path stroke="#4195d5" stroke-linecap="round" stroke-linejoin="round" stroke-width=".75" d="M2.937 8.824h13.5M4.737 14.899h-.6c-.675 0-1.2-.525-1.2-1.2V6.424c0-.675.525-1.2 1.2-1.2h11.025c.675 0 1.2.525 1.2 1.2v7.275c0 .675-.525 1.2-1.2 1.2h-7.05M7.362 12.424h1.575"/>
</svg>
