<svg width="22" height="23" viewBox="0 0 22 23" fill="none" xmlns="http://www.w3.org/2000/svg">
<path d="M4.11974 19.322L16.5247 19.7355C16.8013 19.7448 17.0694 19.6389 17.2651 19.4432L17.5706 19.1378C17.7712 18.9371 18.0952 18.685 17.8812 18.4986C17.4874 18.1559 15.9155 17.5315 10.5417 16.5417C3.63185 15.269 2.77987 11.6733 2.75 11.5L3.15478 18.3813C3.18512 18.8971 3.60337 19.3048 4.11974 19.322Z" fill="#DDE1E5"/>
<path d="M2.75 14.25V9.71014C2.75 9.03017 2.75 8.69019 2.85588 8.39231C2.94948 8.12897 3.10205 7.89051 3.30193 7.69517C3.52802 7.47421 3.83671 7.33174 4.4541 7.04679L12.5854 3.29389C13.2776 2.97439 13.6238 2.81464 13.9038 2.86229C14.1484 2.90392 14.3657 3.04296 14.5061 3.24765C14.6667 3.48192 14.6667 3.86314 14.6667 4.62556V5.4275M19.0502 18.7489C18.8744 19.0939 18.5939 19.3744 18.249 19.5501C17.8568 19.75 17.3434 19.75 16.3167 19.75H5.68333C4.65657 19.75 4.14319 19.75 3.75102 19.5501C3.40605 19.3744 3.12559 19.0939 2.94982 18.7489C2.75 18.3568 2.75 17.8434 2.75 16.8166L2.75 10.7666C2.75 9.73987 2.75 9.22649 2.94982 8.83432C3.12559 8.48935 3.40605 8.20889 3.75102 8.03312C4.14319 7.8333 4.65657 7.8333 5.68333 7.8333L16.3167 7.8333C17.3434 7.8333 17.8568 7.8333 18.249 8.03312C18.5939 8.20889 18.8744 8.48935 19.0502 8.83432C19.25 9.22649 19.25 9.73987 19.25 10.7666V13.7916M15.125 13.7916H15.1342M15.5833 13.7916C15.5833 14.0448 15.3781 14.25 15.125 14.25C14.8719 14.25 14.6667 14.0448 14.6667 13.7916C14.6667 13.5385 14.8719 13.3333 15.125 13.3333C15.3781 13.3333 15.5833 13.5385 15.5833 13.7916Z" stroke="#133F5D" stroke-width="1.5" stroke-linecap="round" stroke-linejoin="round"/>
</svg>
