<svg xmlns="http://www.w3.org/2000/svg" width="24" height="24" fill="none" viewBox="0 0 24 24">
    <path fill="#eab11c" d="M21 11.978a8.95 8.95 0 0 1-2.021 5.677l-.633.703A9.017 9.017 0 0 1 3 11.979q0-.655.105-1.301A9 9 0 0 1 21 11.977"/>
    <path fill="#fff" fill-rule="evenodd" d="m18.979 17.655-.633.703A9.018 9.018 0 0 1 3 11.978q0-.656.105-1.302a5.61 5.61 0 0 1 5.96 0c1.23.774 1.529 2.584 3.515 3.217 1.635.545 3.902-.281 5.73 2.057.37.5.6 1.088.669 1.705" clip-rule="evenodd" opacity=".2"/>
    <path fill="#fff" d="M11.99 18.169c.592 0 1.072-.48 1.072-1.072v-4.49q0-.681-.08-1.353a19 19 0 0 0-.083-.596.91.91 0 0 0-.909-.765c-.45 0-.84.32-.908.765q-.045.3-.082.596-.082.673-.082 1.353v4.49c0 .592.48 1.072 1.072 1.072M10.667 7.224q0 .267.096.495.104.23.274.4.177.17.414.266.236.103.517.103.274 0 .51-.103.237-.096.414-.266.178-.17.274-.4a1.2 1.2 0 0 0 .104-.495 1.2 1.2 0 0 0-.104-.503 1.2 1.2 0 0 0-.274-.399 1.3 1.3 0 0 0-.414-.266 1.3 1.3 0 0 0-.51-.096q-.281 0-.517.096a1.3 1.3 0 0 0-.414.266 1.3 1.3 0 0 0-.274.4 1.3 1.3 0 0 0-.096.502"/>
</svg>
