<svg xmlns="http://www.w3.org/2000/svg" width="73" height="31" fill="none" viewBox="0 0 73 31">
    <path fill="#0171bc" fill-rule="evenodd" d="M15.632 6.008a2 2 0 0 0-1.146 1.09l-.162.378H26.46l.158-.298c.221-.416.199-.656-.092-.985l-.25-.283-5.118-.022c-4.19-.019-5.192.003-5.525.12m-4.488.123c-.45.249-9.453 8.652-9.804 9.15-.377.535-.46 1.128-.236 1.674.096.235.2.427.23.427.056 0 .23-.159 6.658-6.052 2.888-2.648 3.937-3.552 4.097-3.53.214.03.216.054.242 5.21.03 5.676-.01 5.361.627 5.039a1.97 1.97 0 0 0 .897-.994c.138-.32.16-1.05.159-5.002-.003-5.206.003-5.167-.78-5.748-.504-.375-1.566-.464-2.09-.174m18.277 0c-.358.187-1.055.814-4.331 3.899l-2.36 2.221V9.7h.47c.644 0 1.024-.188 1.812-.9l.674-.61-2.36-.003-2.36-.003v3.79c0 2.085.04 3.79.09 3.79.048 0 1.017-.825 2.152-1.835 7.775-6.916 7.25-6.466 7.462-6.387.129.049.151.628.151 3.938 0 2.27.04 3.88.095 3.88.052 0 1.978-1.728 4.279-3.84 2.94-2.698 4.254-3.84 4.418-3.84.283-.002.261-.53.234 5.735l-.02 4.776h.238c.356 0 .958-.454 1.241-.937l.252-.428v-4.7c0-4.557-.007-4.712-.215-5.099-.337-.626-.874-.991-1.536-1.045-.308-.025-.73.01-.938.077-.272.087-1.218.91-3.357 2.917l-2.979 2.796-.052-2.283-.052-2.283-.297-.417q-.592-.832-1.784-.825c-.36.003-.745.072-.927.167m-14.99 2.16c0 .369.675 1.118 1.174 1.302.16.059.914.107 1.674.107 1.221 0 1.391.02 1.453.177.038.097.059 1.746.046 3.664-.026 3.89-.02 3.933.667 4.52.44.377 1.09.575 1.556.477.804-.17 1.354-.598 4.39-3.425l3.096-2.88.052 2.397c.035 1.607.093 2.469.178 2.612.202.343.811.816 1.221.948.521.168 1.197.05 1.679-.291.218-.155 1.634-1.446 3.146-2.868l2.75-2.587.053 2.19c.042 1.74.088 2.269.225 2.565.184.4.925.992 1.241.992.184 0 .192-.195.192-4.7 0-2.585-.026-4.7-.057-4.7s-1.926 1.717-4.21 3.815c-2.285 2.099-4.222 3.853-4.306 3.9a.28.28 0 0 1-.302-.038c-.126-.102-.15-.733-.15-3.959 0-2.383-.037-3.824-.099-3.803-.092.032-6.806 5.961-8.486 7.495-.547.5-.82.68-.987.657l-.231-.032-.027-4.321-.027-4.321h-2.956c-1.994 0-2.955.034-2.955.106M6.76 13.332c-2.651 2.437-4.835 4.474-4.854 4.529-.054.16.609.38 1.115.371.257-.004.616-.084.798-.176.182-.093 1.44-1.204 2.794-2.469a269 269 0 0 1 2.962-2.739l.5-.438.002 2.157c.002 1.901.026 2.207.2 2.58.208.447.932 1.043 1.266 1.043.184 0 .192-.194.192-4.65 0-2.557-.035-4.647-.078-4.643-.043.003-2.247 2-4.897 4.435m-3.168 5.65c-.486.224-.823.556-.982.966-.063.16-.44 1.48-.84 2.93-.398 1.452-.75 2.72-.781 2.817-.052.163.066.176 1.532.175 2.194-.003 3.257-.124 3.911-.447 1.27-.628 1.54-2.163.508-2.892l-.417-.294.298-.105c.891-.316 1.202-.688 1.261-1.51.05-.695-.221-1.145-.915-1.52-.414-.223-.606-.253-1.812-.282-1.156-.027-1.408-.004-1.763.161m2.815 1.386q.473.461-.127 1.056c-.225.223-.36.257-1.14.288-.957.04-1.075.111-1.227.748l-.066.278h.721c.938 0 1.227.114 1.418.56.128.298.132.405.02.632-.232.478-.714.627-2.025.627-.645 0-1.167-.041-1.167-.093 0-.144 1.03-3.87 1.142-4.126.092-.215.158-.228 1.142-.228.981 0 1.06.016 1.31.258m3.608.146c-.735.284-1.294.786-1.71 1.534-.322.578-.356.717-.355 1.448.003 1.238.418 1.851 1.509 2.226.822.283 2.23.11 2.806-.345l.24-.189-.3-.391-.316-.418c-.01-.014-.242.07-.517.189-.69.297-1.31.225-1.75-.204-.295-.287-.325-.374-.323-.947.001-.502.059-.726.284-1.1.665-1.107 2.203-1.176 2.422-.11l.067.329-.92.001c-.507.001-.977.036-1.044.078-.136.085-.344.56-.344.787 0 .222 3.236.213 3.426-.01.073-.086.151-.484.174-.885.035-.623.006-.787-.198-1.13a2.7 2.7 0 0 0-.673-.696c-.585-.4-1.682-.474-2.478-.167m4.494-.075c-.096.07-.288.587-.442 1.187-.15.584-.457 1.693-.68 2.465s-.407 1.489-.407 1.592c0 .16.082.188.544.187.3-.001.604-.038.677-.084.073-.044.298-.692.499-1.438.201-.747.445-1.516.542-1.711.207-.418.915-.808 1.468-.81.202-.001.428-.04.502-.085.152-.094.425-1.01.359-1.202-.069-.197-1.051-.151-1.558.073l-.441.195.063-.248c.062-.238.044-.248-.446-.248-.28 0-.586.057-.68.127m4.348.014c-.788.287-1.21.867-1.21 1.668 0 .659.23.916 1.3 1.46.625.317.836.478.861.653.09.617-.817.724-1.811.215l-.606-.31-.346.367c-.32.34-.335.386-.198.59.263.39 1.262.718 2.201.722.715.003.895-.034 1.298-.265.867-.496 1.187-1.51.7-2.21-.154-.222-.503-.467-1.02-.717-.96-.465-1.104-.61-.943-.952.103-.22.182-.25.663-.249.387.001.676.073.986.246l.44.245.315-.373c.173-.204.302-.437.287-.516s-.261-.258-.546-.396c-.64-.31-1.77-.395-2.371-.178m4.911.073c-.507.15-.726.372-.724.737.002.53.115.612.656.479.974-.24 1.746-.106 1.953.337.097.206.076.414-.11 1.088-.125.459-.299.938-.385 1.066-.544.81-2.012.828-2.012.024 0-.468.845-1.01 1.58-1.013.214 0 .535-.56.448-.782-.05-.129-.183-.146-.74-.095-.852.077-1.766.471-2.278.982-.333.332-.4.473-.439.931-.04.475-.012.579.237.867.156.18.424.399.597.486.433.218 1.324.19 1.905-.06l.475-.205-.066.256-.066.257.704-.03.703-.03.339-1.162c.186-.64.415-1.527.51-1.971.167-.789.166-.82-.045-1.283-.302-.662-.815-.907-1.995-.953-.486-.018-1.047.015-1.247.074m6.33 0a2 2 0 0 0-.457.272c-.19.163-.197.161-.141-.056.056-.218.03-.228-.604-.228-.834 0-.84.01-1.34 1.87-.209.779-.493 1.8-.631 2.27-.367 1.246-.377 1.217.419 1.217.547 0 .69-.034.773-.187.057-.103.273-.85.48-1.657.209-.809.468-1.614.578-1.79.227-.363.835-.654 1.188-.567.667.163.706.605.213 2.383-.193.694-.38 1.388-.417 1.54l-.067.278h.664c.405 0 .704-.049.769-.126.058-.07.277-.763.486-1.541.48-1.78.682-2.205 1.155-2.424.625-.289 1.287.025 1.287.61 0 .117-.187.877-.415 1.688s-.415 1.546-.415 1.634c0 .129.13.16.677.16.8 0 .681.19 1.283-2.042.462-1.716.505-2.127.277-2.66-.422-.983-2.192-1.023-3.116-.07l-.303.313-.148-.297c-.225-.453-.722-.704-1.38-.696-.306.003-.673.051-.815.106m7.934-.025c-.683.174-.791.289-.758.803.03.46.041.473.343.447 1.951-.172 2.157-.123 2.212.525.043.518-.262 1.71-.52 2.031-.63.779-1.951.732-1.951-.068 0-.426.847-.996 1.481-.996.177 0 .292-.098.42-.36.248-.506.154-.586-.6-.518-1.824.166-3.074 1.268-2.747 2.421.11.387.558.797 1.024.935.43.128 1.245.062 1.709-.138l.442-.191-.043.221c-.041.21-.01.22.663.214l.707-.006.441-1.617c.657-2.41.588-3.053-.379-3.509-.501-.236-1.853-.344-2.444-.194" clip-rule="evenodd"/>
</svg>
