<svg xmlns="http://www.w3.org/2000/svg" width="71" height="64" fill="none" viewBox="0 0 71 64">
    <path fill="#008bd2" fill-rule="evenodd" d="M30.584 23.346a3.9 3.9 0 0 1 2.156-1.294 4 4 0 0 1 .629-.058l.377-.003v19.244l-.18.24c-.574.766-1.774 1.32-2.856 1.32h-.333V23.597zm24.93-.01c.502-.62 1.31-1.1 2.157-1.282a4 4 0 0 1 .622-.06l.358-.003v19.257l-.114.167c-.153.223-.6.632-.866.792a4 4 0 0 1-1.895.577l-.456.023V23.573zm-39.37 3.44a3.94 3.94 0 0 1 2.326-1.249 5 5 0 0 1 .49-.038l.262-.005v5.464c0 3.26.016 5.636.039 5.894.124 1.405.778 2.679 1.64 3.193.523.312 1.159.439 1.679.333.377-.076.995-.372 1.308-.627.813-.661 1.264-1.677 1.324-2.981.074-1.624-.655-2.918-2.02-3.588-1.066-.523-2.288-.649-3.03-.312-.14.064-.263.108-.273.099-.01-.01.029-.18.084-.38.257-.913.873-1.788 1.598-2.27l.205-.138.573.019c1.717.055 3.603.94 4.68 2.195a6.1 6.1 0 0 1 1.418 2.957c.118.66.117 1.775-.004 2.466-.293 1.685-1.117 2.984-2.462 3.883-2.187 1.462-5.07 1.544-7.132.204-1.458-.948-2.431-2.398-2.848-4.242l-.087-.389-.013-5.104-.012-5.104zm19.5.658a1.68 1.68 0 0 1 1.288-1.89c.315-.07.421-.07.732-.003.328.07.539.178.773.397.402.377.557.77.532 1.353-.014.318-.032.39-.16.65a1.64 1.64 0 0 1-.802.78c-.236.114-.279.12-.7.12-.438 0-.452-.002-.741-.145a1.65 1.65 0 0 1-.923-1.262m6.126-1.28c.428-.294 1.122-.563 1.62-.627.14-.018.37-.035.514-.038l.261-.005v5.677c0 4.904.009 5.727.06 6.045.248 1.545 1.02 2.688 2.059 3.047.382.133.815.184 1.125.135.949-.152 1.866-.877 2.312-1.827.307-.653.43-1.339.399-2.209-.025-.658-.106-1.02-.34-1.51-.452-.947-1.216-1.584-2.322-1.935a4.2 4.2 0 0 0-1.453-.22c-.492 0-.511.004-.85.144-.19.079-.35.138-.357.131-.036-.035.211-.758.373-1.093.306-.632.773-1.186 1.293-1.536l.239-.16.58.02c.956.034 1.799.263 2.767.75.865.434 1.557.992 2.111 1.703.892 1.142 1.297 2.362 1.3 3.908.001 1.216-.268 2.332-.786 3.26-.53.95-1.473 1.803-2.584 2.337-2.141 1.031-4.57.915-6.389-.305-1.64-1.1-2.66-2.831-2.866-4.867-.026-.257-.04-2.116-.04-5.146V27.09l.203-.234c.231-.265.525-.533.771-.702M60.56 27.28c-.046-.807.396-1.476 1.137-1.72.175-.058.314-.073.596-.065.32.01.403.028.63.134 1.073.505 1.327 1.904.496 2.728a1.678 1.678 0 0 1-2.699-.448c-.12-.244-.143-.334-.16-.63m-24.776 4.324c.59-.717 1.612-1.249 2.584-1.343.175-.017.383-.033.463-.036l.145-.005v11.109l-.154.185c-.638.764-1.846 1.318-2.876 1.32h-.34V31.82zm24.981-.088c.534-.61 1.394-1.085 2.238-1.239.153-.027.422-.052.597-.054l.32-.003v11.053l-.155.189c-.22.266-.628.604-.965.797a4.14 4.14 0 0 1-1.887.563l-.363.024V31.762zm-56.38-1.969c1.755-.104 4.425-.266 5.933-.358a274 274 0 0 1 3.023-.176c.356-.01.583.09.63.28.02.08-.02.503-.09.939-.296 1.84-.379 2.96-.38 5.102 0 2.55.165 4.46.564 6.526.14.725.11.903-.167 1.008-.098.038-2.547.06-6.629.06H.795l-.147-.148C.566 42.697.5 42.596.5 42.553s.068-.431.151-.862c.4-2.068.542-3.784.54-6.479-.003-2.163-.035-2.719-.25-4.345-.055-.417-.084-.802-.063-.855.098-.256.204-.27 3.507-.466m.391 2.425a.43.43 0 0 0-.135-.296c-.245-.22-.392-.22-.633 0a.43.43 0 0 0-.135.296c0 .218.241.469.451.469s.452-.251.452-.47m5.36.421a.434.434 0 0 0 .279-.776c-.225-.193-.416-.18-.604.045-.193.229-.196.363-.016.574.104.12.194.162.341.157m-5.34 1.593c-.025-.266-.074-.436-.151-.519-.157-.168-.489-.163-.65.01-.152.163-.163.588-.03 1.101.46 1.77 2.191 2.863 3.955 2.498 1.432-.297 2.616-1.688 2.658-3.123.013-.442-.108-.608-.441-.608-.315 0-.421.145-.487.67-.143 1.137-.93 1.976-2.041 2.171-1.349.238-2.683-.805-2.813-2.2" clip-rule="evenodd"/>
    <path fill="#e6007e" d="m12.658 26.303-.735-.108-.353 1.504c-.164.592-.289 1.082-.278 1.089.06.04 2.285-.13 2.33-.178.097-.107.443-1.64.4-1.776-.071-.223-1.118-.543-1.364-.531m-4.191-.871c-.065.064-.164.304-.222.531l-.336 1.084.426 1.939.86-.063c.263-.02.468.017.485 0 .035-.035.848-3.026.826-3.037-.007-.005-.159-.061-.383-.155a10 10 0 0 0-.815-.297c-.545-.182-.662-.182-.841-.002"/>
    <path fill="#f39200" d="M6.752 25.93c-.333.076-.51.11-.81.209l-.1.034a7 7 0 0 0-.525.096h-.001c-.036.034.18.828.358 1.629l.274 1.24.332-.036c.184-.02.72-.054 1.194-.076l.861-.04-.04-.187c-.418-1.97-.637-2.847-.728-2.913-.128-.094-.232-.089-.815.044m-5.398 1.188c-.66.141-.67.166-.433 1.236.104.473.201.902.215.952.022.08.166.083 1.203.023.647-.038 1.193-.084 1.212-.103.029-.029-.405-2.065-.51-2.43-.021-.07-.102-.01-.432.037-.62.09-.78.184-1.255.285"/>
    <path fill="#e30613" fill-rule="evenodd" d="M5.131 24.742c-.267.179-.546.6-.68 1.027-.092.292-.129.342-.253.342a.6.6 0 0 0-.256.069c-.093.058-.151.027-.384-.206-.404-.405-.732-.59-1.107-.63-.32-.033-.327-.03-.596.239-.296.297-.347.513-.177.756.2.286.664.414 1.803.494.775.055.785.054.997-.092a1.2 1.2 0 0 1 .253-.148c.047 0 .318-.154.585-.323.187-.119.371-.244.476-.328q.05-.04.095-.081c.536-.484.525-.976-.046-1.192l-.061-.022a.71.71 0 0 0-.649.095m.063 1.07c.377-.242.63-.515.586-.631-.06-.155-.36-.115-.537.071-.155.163-.44.739-.365.739.021 0 .163-.08.316-.179m-1.978.457a1.6 1.6 0 0 0-.253-.222q-.474-.338-.72-.216c-.193.096-.189.289.009.384.086.04.357.093.602.116.417.038.44.034.361-.062" clip-rule="evenodd"/>
    <path fill="#95c11f" d="M7.926 24.008c-.106.107-.45.157-.7.102-.2-.044-.275-.025-.58.148l-.352.198.142.165c.187.218.273.54.205.774l-.053.186.223-.05c.387-.088.832-.063.96.053.145.13.197.133.197.01 0-.286.385-.628.706-.628.152 0 .19-.038.302-.303.07-.167.13-.323.131-.347.003-.043-.924-.374-1.048-.374a.23.23 0 0 0-.133.066"/>
    <path fill="#04a64b" d="M8.33 22.55a7 7 0 0 1-.22.122c-.224.116-.336.148-.394.118a.64.64 0 0 0-.568.033c-.097.069-.165.07-.52-.04l-.163-.053c-.308-.099-.577-.163-.597-.142-.082.083-.03 1.143.068 1.367l.098.224.491-.276c.429-.241.51-.268.64-.21a.62.62 0 0 0 .645-.058l.16-.125.496.164c.273.09.534.179.58.196q.016.006.028.003c.045-.014.047-.145.021-.57-.036-.59-.129-1.05-.21-1.047-.024 0-.274.133-.555.294"/>
    <path fill="#f39200" fill-rule="evenodd" d="M9.479 24.58a1 1 0 0 0-.068.066c-.157.183-.16.43 0 .633l.054.057c.193.176.674.43 1.068.558.197.064.353.164.439.279.147.2.421.245.549.09.06-.071.194-.082.715-.055.747.038 1.107-.042 1.29-.288.147-.197.11-.397-.125-.659-.329-.369-.853-.28-1.534.26-.173.138-.25.167-.3.116-.038-.037-.168-.068-.289-.068-.199 0-.23-.023-.331-.249-.14-.309-.406-.649-.619-.79a.75.75 0 0 0-.85.05m.591.679c.563.3.63.247.242-.194-.135-.154-.29-.278-.346-.275-.381.018-.333.236.104.469m2.736.578c.404-.046.502-.162.286-.338-.076-.061-.155-.11-.176-.107-.085.008-.345.128-.541.25l-.208.128.144.054c.08.03.303.036.495.013" clip-rule="evenodd"/>
    <path fill="#95c11f" d="M7.078 21.926c-.073.051-.133.136-.133.187 0 .066-.031.08-.106.048a1.5 1.5 0 0 0-.301-.074c-.135-.019-.188-.006-.195.05v.012q-.002.078.066.138a.9.9 0 0 0 .288.139c.162.054.258.05.472-.023.19-.065.326-.076.463-.038.16.044.24.027.446-.095a.65.65 0 0 0 .23-.207.2.2 0 0 0 .027-.08c0-.055-.045-.09-.14-.089a.5.5 0 0 0-.25.088c-.1.076-.131.073-.264-.032a.5.5 0 0 0-.603-.024"/>
    <path fill="#f39200" d="m10.533 25.894-.027-.008c.022.011-.79 3.002-.826 3.037l1.612-.135c-.01-.007.114-.497.278-1.089l.353-1.504c-.268-.005-.357.014-.402.069-.128.154-.402.108-.55-.091-.085-.115-.241-.215-.438-.279"/>
    <path fill="#e30613" d="M3.481 26.833q-.24-.016-.44-.037c.105.365.539 2.401.51 2.43l2.397-.089-.274-1.24c-.177-.8-.394-1.594-.358-1.627-.267.169-.538.323-.585.323a1.2 1.2 0 0 0-.253.148c-.212.146-.222.147-.997.092"/>
    <path fill="#95c11f" fill-rule="evenodd" d="m6.525 23.903-.491.276c-.103.06-.298.236-.254.468l.061.022c.57.216.582.708.046 1.192l.055.278c.3-.1.477-.133.81-.21.583-.132.687-.137.815-.043.057.041.166.405.342 1.16l.336-1.083c.058-.227.157-.467.222-.531.18-.18.296-.18.841.002l.157.053v-.15l-.055-.058c-.16-.203-.156-.45.001-.633.105-.568-.166-.748-.337-.773a.04.04 0 0 1-.027-.003 40 40 0 0 0-.581-.196l-.497-.164-.159.125a.62.62 0 0 1-.646.058c-.128-.058-.21-.031-.639.21m.702.207c.25.055.593.005.699-.102a.23.23 0 0 1 .133-.066c.124 0 1.051.331 1.048.374-.001.024-.06.18-.13.347-.113.265-.151.303-.303.303-.32 0-.706.342-.706.627 0 .124-.052.122-.197-.01-.128-.115-.573-.14-.96-.052l-.223.05.053-.186c.068-.235-.018-.556-.205-.774l-.142-.165.351-.198c.306-.173.382-.192.582-.148" clip-rule="evenodd"/>
    <path fill="#95c11f" d="M6.697 22.426a.9.9 0 0 1-.288-.14l.22.496c.354.11.422.11.52.041a.64.64 0 0 1 .567-.033c.058.03.17-.002.393-.118l.2-.609a.65.65 0 0 1-.231.207c-.207.122-.287.14-.446.095-.137-.038-.273-.027-.463.038-.214.073-.31.077-.472.023"/>
</svg>
