<svg xmlns="http://www.w3.org/2000/svg" width="71" height="31" fill="none" viewBox="0 0 71 31">
    <g fill-rule="evenodd" clip-path="url(#a)" clip-rule="evenodd">
        <path fill="#f15a23" d="m1.343 14.068 4.613 5.741-4.613 3.772zM3.2 23.58l3.47-2.865 2.4 2.865zM1.343 10.995l1.204 1.503L7.496 18.6 9.1 17.34s-1.332-1.547-2.226-3.273c-1.747-3.374-.51-5.475-.51-5.475h-5.02zM8.2 19.543l1.634-1.332s1.56 2.027 3.368 2.505c2.37.627 3.42-.907 3.42-.907v3.772h-5.206l1.173-1.001s-.612.402-2.11-.621c-.884-.605-2.279-2.416-2.279-2.416M8.352 8.58s-.521.701-.15 2.415c.396 1.832 1.973 3.77 1.97 3.727 0 0 .1-1.925 1.245-3.055 2.44-2.408 5.206-.974 5.206-.974V8.592z"/>
        <path fill="#f15a23" d="M16.624 13.231s-1.543-1.304-2.885-1.304c-1.716 0-2.653 1.462-2.653 2.523 0 1.544.752 2.403 1.506 3.147 1.084 1.07 2.402 2.223 4.032 1.295z"/>
        <path fill="#005e6a" d="M34.195 8.738h3.642s3.225 4.82 4.81 6.811a230 230 0 0 1 3.292 4.26V9.817c0-.431-1.148-1.08-1.148-1.08h4.2s-1.379.56-1.379 1.08v14.536s-1.322-.724-2.82-2.443c-1.685-1.931-7.677-9.73-7.677-9.73v10.1c0 .518 1.148 1.3 1.148 1.3h-4.068s1.115-.788 1.115-1.3V9.818c0-.458-1.115-1.08-1.115-1.08m17.147 0h4.673s-1.255.586-1.255 1.08V22.28c0 .538 1.255 1.3 1.255 1.3h-4.673s1.168-.779 1.168-1.3V9.817c0-.474-1.168-1.08-1.168-1.08m-30.894.001s1.211.596 1.211 1.08V22.28c0 .53-1.211 1.3-1.211 1.3h6.923c.433 0 5.28-.782 5.28-4.47s-3.765-4.032-3.765-4.032 2.293-.63 2.293-3.152c0-2.72-3.375-3.19-3.808-3.19zm3.678 6.096v-4.64h2.812c.433 0 1.948.499 1.948 2.348 0 1.525-1.515 2.292-1.948 2.292zm0 1.217h3.245c.433 0 2.986.655 2.986 2.84 0 2.23-2.553 3.02-2.986 3.02h-3.245z"/>
    </g>
    <defs>
        <clipPath id="a">
            <path fill="#fff" d="M.5 6.882h70v18H.5z"/>
        </clipPath>
    </defs>
</svg>
