<svg xmlns="http://www.w3.org/2000/svg" width="71" height="31" fill="none" viewBox="0 0 71 31">
    <g fill="#00529c" clip-path="url(#a)">
        <path d="M19.445 11.779h3.772c1.528 0 2.667.67 2.667 2.08 0 1.034-.529 1.61-1.446 1.915v.023c1.093.224 1.657.811 1.657 1.81 0 1.963-1.727 2.374-3.196 2.374h-3.454zm2.185 3.243h.611c.717 0 1.458-.176 1.458-.87 0-.751-.706-.822-1.435-.822h-.634zm0 3.408h.646c.8 0 1.634-.118 1.634-.952 0-.893-.858-.975-1.61-.975h-.67zm7.333-6.651h2.68l3.16 8.202h-2.397l-.611-1.751h-3.079l-.646 1.75h-2.22zm1.34 1.692h-.024l-1.058 3.208h2.057zm4.804-1.692h2.785l2.774 5.57h.023l-.035-5.57h1.998v8.202h-2.715l-2.867-5.606h-.023l.07 5.606h-2.01zm8.288 0h2.185v3.349h.024l2.467-3.35h2.632l-3.03 3.82 3.266 4.383h-2.786l-2.549-3.725h-.024v3.725h-2.185zm10.253-.001h3.772c1.527 0 2.668.67 2.668 2.08 0 1.034-.529 1.61-1.445 1.915v.024c1.093.224 1.656.811 1.656 1.81 0 1.962-1.727 2.374-3.196 2.374h-3.455zm2.186 3.244h.61c.718 0 1.458-.176 1.458-.87 0-.751-.705-.822-1.434-.822h-.634zm0 3.408h.646c.799 0 1.634-.118 1.634-.952 0-.893-.858-.975-1.61-.975h-.67zm4.949-6.652h3.901c1.457 0 2.644.659 2.644 2.07 0 1.092-.517 1.82-1.575 2.066v.024c.705.188.752.811 1.164 1.81l.798 2.232h-2.279l-.47-1.48c-.447-1.41-.73-1.763-1.54-1.763h-.458v3.244h-2.185zm2.185 3.408h.576c.705 0 1.598-.024 1.598-.952 0-.763-.763-.904-1.598-.904h-.576zm5.35-3.408h2.185v8.202h-2.185zm-53.86-4.137H3.018C1.63 7.641.505 8.795.505 10.218v11.327c0 1.41 1.105 2.555 2.475 2.576h11.471c1.39 0 2.515-1.153 2.515-2.576l.005-11.327c0-1.423-1.125-2.577-2.514-2.577m-10.08 15.16-.623.007c-.756 0-1.368-.62-1.368-1.387l-.004-.109V10.851l.004-.564c.029-.74.592-1.337 1.329-1.337h1.269c1.15 0 2.082 1 2.082 2.179 0 .583-.229 1.112-.6 1.497L3.23 15.911 6.265 19c.391.403.627.932.627 1.512 0 1.264-1.125 2.288-2.514 2.288m9.327-.01-5.656-.003s.654-1.413.654-2.288c0-1.067-.357-2.02-.915-2.65l-1.935-1.973 1.975-2.04c.588-.552.978-1.532.978-2.65 0-.885-.244-1.668-.638-2.237h1.37c1.15 0 2.083 1 2.083 2.179 0 .583-.229 1.112-.599 1.497l-3.175 3.25 6.594 6.725c-.209.131-.472.19-.736.19m1.382-2.1-4.726-4.816 2.25-2.288c.458-.573.75-1.435.75-2.4 0-.89-.249-1.694-.646-2.262l1.007.03c.756 0 1.368.621 1.368 1.387z"/>
    </g>
    <defs>
        <clipPath id="a">
            <path fill="#fff" d="M.5 7.642h70v16.48H.5z"/>
        </clipPath>
    </defs>
</svg>
