<svg xmlns="http://www.w3.org/2000/svg" width="91" height="132" fill="none" viewBox="0 0 91 132">
    <mask id="a" width="28" height="22" x="10" y="10" maskUnits="userSpaceOnUse" style="mask-type:luminance">
        <path fill="#fff" d="M37.94 10H10.5v21.31h27.44z"/>
    </mask>
    <g mask="url(#a)">
        <path fill="#000" d="M15.472 31.264V29.85c0-.541-.33-.895-.896-.895-.282 0-.59.093-.802.4-.164-.257-.4-.4-.755-.4a.76.76 0 0 0-.659.33V29h-.494v2.263h.494v-1.25c0-.4.212-.59.541-.59s.495.212.495.59v1.25h.494v-1.25c0-.4.236-.59.54-.59.33 0 .495.212.495.59v1.25zm7.332-2.263h-.802v-.683h-.494V29h-.448v.448h.448v1.038c0 .52.211.824.777.824.211 0 .448-.071.612-.165l-.142-.425a.8.8 0 0 1-.426.118c-.236 0-.33-.143-.33-.377V29.45h.802v-.448zM27 28.952a.67.67 0 0 0-.59.33v-.283h-.495v2.263h.495v-1.275c0-.376.164-.59.472-.59.093 0 .211.025.307.047l.143-.473c-.099-.019-.239-.019-.332-.019m-6.34.236c-.237-.165-.567-.236-.92-.236-.566 0-.943.283-.943.73 0 .377.283.59.777.66l.237.024c.258.047.4.118.4.236 0 .165-.189.283-.518.283-.33 0-.59-.118-.756-.236l-.236.376c.258.19.613.283.967.283.659 0 1.038-.307 1.038-.73 0-.401-.308-.613-.777-.684l-.236-.025c-.212-.024-.377-.071-.377-.211 0-.165.165-.258.426-.258.283 0 .566.118.708.19zm13.15-.236a.67.67 0 0 0-.59.33v-.283h-.494v2.263h.494v-1.275c0-.376.165-.59.472-.59.094 0 .212.025.308.047l.143-.467c-.096-.025-.236-.025-.333-.025m-6.316 1.18c0 .685.473 1.179 1.203 1.179.33 0 .566-.071.802-.258l-.236-.401a.94.94 0 0 1-.59.211c-.401 0-.684-.282-.684-.73 0-.426.282-.709.683-.73.212 0 .401.07.59.21l.237-.4c-.236-.19-.472-.258-.802-.258-.73-.003-1.203.494-1.203 1.178m4.573 0v-1.13h-.495v.282a.85.85 0 0 0-.708-.33c-.637 0-1.132.495-1.132 1.179s.495 1.178 1.132 1.178c.33 0 .566-.118.708-.33v.283h.495zm-1.816 0c0-.4.259-.73.684-.73.401 0 .684.308.684.73 0 .402-.283.731-.684.731-.423-.024-.684-.332-.684-.73m-5.915-1.18c-.659 0-1.131.472-1.131 1.178 0 .709.472 1.178 1.156 1.178.33 0 .659-.093.92-.307l-.236-.355c-.19.143-.426.237-.66.237-.307 0-.612-.143-.683-.541h1.672v-.19c.022-.728-.403-1.2-1.038-1.2m0 .426c.308 0 .52.19.566.54h-1.178c.046-.304.258-.54.612-.54m12.281.755v-2.027h-.494v1.178a.85.85 0 0 0-.709-.33c-.637 0-1.131.495-1.131 1.179s.494 1.178 1.131 1.178c.33 0 .566-.118.709-.33v.283h.494zm-1.815 0c0-.401.258-.73.684-.73.4 0 .683.307.683.73 0 .4-.282.73-.683.73-.426-.024-.684-.332-.684-.73m-16.548 0V29h-.495v.283a.85.85 0 0 0-.708-.33c-.637 0-1.132.495-1.132 1.179s.495 1.178 1.132 1.178c.33 0 .565-.118.708-.33v.283h.494zm-1.838 0c0-.401.258-.73.684-.73.401 0 .684.307.684.73 0 .4-.283.73-.684.73-.426-.024-.684-.332-.684-.73"/>
        <path fill="#ff5a00" d="M27.918 11.816h-7.425v13.34h7.425z"/>
        <path fill="#eb001b" d="M20.988 18.486a8.51 8.51 0 0 1 3.23-6.67A8.44 8.44 0 0 0 18.982 10a8.48 8.48 0 0 0-8.486 8.485 8.48 8.48 0 0 0 8.486 8.486 8.44 8.44 0 0 0 5.234-1.815 8.47 8.47 0 0 1-3.23-6.67"/>
        <path fill="#f79e1b" d="M37.938 18.486a8.48 8.48 0 0 1-8.486 8.486 8.44 8.44 0 0 1-5.234-1.815 8.44 8.44 0 0 0 3.23-6.67 8.51 8.51 0 0 0-3.23-6.671A8.43 8.43 0 0 1 29.449 10c4.693 0 8.489 3.82 8.489 8.485"/>
    </g>
    <path fill="#00579f" fill-rule="evenodd" d="M31.244 46.31c.993 0 1.797.222 2.303.423l-.35 2.145-.232-.106a4.4 4.4 0 0 0-1.913-.38c-1.013 0-1.468.433-1.479.855 0 .465.55.772 1.449 1.226 1.48.708 2.166 1.575 2.155 2.705-.02 2.06-1.775 3.392-4.47 3.392-1.152-.01-2.261-.254-2.864-.529l.36-2.23.338.16c.835.37 1.384.528 2.41.528.739 0 1.532-.307 1.542-.972 0-.433-.338-.75-1.331-1.237-.973-.475-2.272-1.268-2.251-2.694.01-1.934 1.797-3.286 4.333-3.286M21.67 56.422h2.567l1.607-9.932h-2.568zm15.29-3.518c.212-.571 1.026-2.78 1.026-2.78-.005.01.029-.084.079-.222v-.001c.074-.204.183-.507.258-.727l.18.855s.486 2.378.592 2.874zm3.17-6.414h-1.986c-.613 0-1.078.18-1.343.824l-3.814 9.108h2.695l.539-1.49h3.297c.074.349.306 1.49.306 1.49h2.378zm-23.12 6.773 2.514-6.773h2.716l-4.036 9.921h-2.716l-2.29-8.63c.832.675 2.704 2.441 3.536 4.107z" clip-rule="evenodd"/>
    <path fill="#faa61a" d="m16.734 51.888-.898-4.563c-.148-.634-.602-.814-1.162-.835h-4.132l-.042.2a10.5 10.5 0 0 1 2.699 1.092c.831.674 2.703 2.44 3.535 4.106"/>
    <mask id="b" width="30" height="23" x="10" y="71" maskUnits="userSpaceOnUse" style="mask-type:luminance">
        <path fill="#fff" d="M39.277 71.57H10.5v22.207h28.777z"/>
    </mask>
    <g mask="url(#b)">
        <path fill="#fff" d="M39.187 89.243a4.444 4.444 0 0 1-4.438 4.438H10.602V76.104a4.444 4.444 0 0 1 4.438-4.438h24.147z"/>
        <path fill="url(#c)" d="M31.323 84.735h1.835c.052 0 .174-.017.227-.017a.82.82 0 0 0 .646-.822.85.85 0 0 0-.646-.82c-.053-.018-.157-.018-.227-.018h-1.835z"/>
        <path fill="url(#d)" d="M32.95 73.151a3.18 3.18 0 0 0-3.18 3.18v3.303h4.49c.105 0 .227 0 .315.017 1.013.053 1.764.577 1.764 1.485 0 .717-.506 1.328-1.45 1.45v.035c1.03.07 1.817.647 1.817 1.538 0 .961-.873 1.59-2.027 1.59h-4.927v6.465h4.665a3.18 3.18 0 0 0 3.18-3.18V73.15z"/>
        <path fill="url(#e)" d="M33.804 81.346a.743.743 0 0 0-.646-.752c-.035 0-.123-.017-.175-.017h-1.66v1.537h1.66c.052 0 .157 0 .175-.017a.743.743 0 0 0 .646-.751"/>
        <path fill="url(#f)" d="M15.37 73.152a3.18 3.18 0 0 0-3.18 3.18v7.845c.892.437 1.818.716 2.744.716 1.1 0 1.694-.664 1.694-1.573v-3.704h2.726v3.687c0 1.433-.89 2.603-3.914 2.603-1.834 0-3.267-.401-3.267-.401v6.692h4.665a3.18 3.18 0 0 0 3.18-3.18V73.152z"/>
        <path fill="url(#g)" d="M24.162 73.152a3.18 3.18 0 0 0-3.18 3.18v4.158c.803-.681 2.201-1.118 4.455-1.013 1.206.052 2.499.384 2.499.384v1.345c-.647-.332-1.416-.629-2.411-.699-1.713-.122-2.744.717-2.744 2.185 0 1.485 1.031 2.323 2.744 2.184.995-.07 1.764-.385 2.41-.7v1.346s-1.275.332-2.498.384c-2.254.105-3.652-.332-4.455-1.013v7.338h4.665a3.18 3.18 0 0 0 3.18-3.18v-15.9z"/>
    </g>
    <mask id="h" width="46" height="14" x="10" y="108" maskUnits="userSpaceOnUse" style="mask-type:luminance">
        <path fill="#fff" d="M55.947 108.777H10.5v12.725h45.447z"/>
    </mask>
    <g mask="url(#h)">
        <path fill="#006fcf" d="M54.175 118.003h-1.318c-.273 0-.5-.182-.5-.409 0-.273.227-.409.5-.409h2.408l.546-1.227h-2.954c-1.227 0-1.91.727-1.91 1.682 0 .999.683 1.59 1.728 1.59h1.318c.273 0 .5.182.5.409 0 .228-.182.409-.5.409h-2.909v1.227h2.909c1.227 0 1.909-.727 1.909-1.727 0-.999-.637-1.545-1.727-1.545m-5.318 0H47.54c-.272 0-.5-.182-.5-.409 0-.273.228-.409.5-.409h2.409l.545-1.227H47.54c-1.227 0-1.908.727-1.908 1.682 0 .999.681 1.59 1.727 1.59h1.318c.272 0 .5.182.5.409 0 .228-.182.409-.5.409h-2.91v1.227h2.91c1.227 0 1.908-.727 1.908-1.727.046-.999-.59-1.545-1.727-1.545m-8.407 3.318h4.544v-1.227h-3.09v-.864h3.045v-1.227h-3.045v-.863h3.09v-1.227H40.45zm-2.818-3.091h-1.5v-1.09h1.5c.409 0 .636.272.636.545 0 .318-.227.545-.636.545m2.09-.59c0-1.046-.727-1.727-1.908-1.727h-3.136v5.408h1.454v-1.864h.546l1.636 1.864h1.727l-1.773-1.954c.91-.228 1.454-.864 1.454-1.727m-7.771.681h-1.545v-1.181h1.545c.409 0 .636.272.636.591s-.181.59-.636.59m.182-2.408h-3.136v5.408h1.454v-1.773h1.682c1.227 0 1.954-.772 1.954-1.817-.045-1.091-.773-1.818-1.954-1.818m-3.409 0h-1.863l-1.364 1.636-1.408-1.636h-1.91l2.41 2.681-2.455 2.727h1.864l1.454-1.727 1.454 1.727h1.91l-2.455-2.772zm-11.316 5.408h4.545v-1.227h-3.136v-.864h3.045v-1.227h-3.045v-.863h3.136v-1.227h-4.545zm36.221-9.044-2.227-3.272h-1.818v5.362h1.455v-3.408l2.272 3.408h1.727v-5.362H53.63zm-8.362-.182.773-1.818.772 1.818zm-.182-3.09-2.363 5.408h1.59l.455-1.091h2.5l.454 1.091h1.636l-2.408-5.408zm-4.726 2.726v-.09c0-.818.454-1.364 1.363-1.364h1.59v-1.318h-1.726c-1.773 0-2.682 1.136-2.682 2.636v.091c0 1.682 1.046 2.636 2.636 2.636h.5l.591-1.227h-.863c-.864.045-1.41-.455-1.41-1.364m-3.636-2.726v5.362h1.454v-5.362zm-2.818 2.272h-1.5v-1.091h1.5c.41 0 .636.273.636.546 0 .318-.227.545-.636.545m2.09-.545c0-1.046-.726-1.727-1.908-1.727h-3.136v5.408h1.455v-1.909h.545l1.636 1.863h1.772l-1.818-1.954c.91-.182 1.455-.863 1.455-1.681m-10.543 3.635h4.545v-1.227h-3.09v-.863h2.999v-1.227h-3v-.864h3.09v-1.181h-4.544zm-4.59-1.999-1.227-3.363h-2.227v5.362h1.409v-3.863l1.409 3.863h1.272l1.409-3.863v3.863h1.454v-5.362H22.09zm-7.817-.273.773-1.818.772 1.818zm-.182-3.09-2.363 5.362h1.59l.455-1.09h2.5l.454 1.09h1.636l-2.408-5.362z"/>
    </g>
    <defs>
        <linearGradient id="c" x1="29.765" x2="37.617" y1="83.899" y2="83.899" gradientUnits="userSpaceOnUse">
            <stop stop-color="#007940"/>
            <stop offset=".229" stop-color="#00873f"/>
            <stop offset=".743" stop-color="#40a737"/>
            <stop offset="1" stop-color="#5cb531"/>
        </linearGradient>
        <linearGradient id="d" x1="29.766" x2="37.619" y1="82.675" y2="82.675" gradientUnits="userSpaceOnUse">
            <stop stop-color="#007940"/>
            <stop offset=".229" stop-color="#00873f"/>
            <stop offset=".743" stop-color="#40a737"/>
            <stop offset="1" stop-color="#5cb531"/>
        </linearGradient>
        <linearGradient id="e" x1="29.765" x2="37.617" y1="81.343" y2="81.343" gradientUnits="userSpaceOnUse">
            <stop stop-color="#007940"/>
            <stop offset=".229" stop-color="#00873f"/>
            <stop offset=".743" stop-color="#40a737"/>
            <stop offset="1" stop-color="#5cb531"/>
        </linearGradient>
        <linearGradient id="f" x1="12.187" x2="20.16" y1="82.675" y2="82.675" gradientUnits="userSpaceOnUse">
            <stop stop-color="#1f286f"/>
            <stop offset=".475" stop-color="#004e94"/>
            <stop offset=".826" stop-color="#0066b1"/>
            <stop offset="1" stop-color="#006fbc"/>
        </linearGradient>
        <linearGradient id="g" x1="20.936" x2="28.68" y1="82.675" y2="82.675" gradientUnits="userSpaceOnUse">
            <stop stop-color="#6c2c2f"/>
            <stop offset=".173" stop-color="#882730"/>
            <stop offset=".573" stop-color="#be1833"/>
            <stop offset=".859" stop-color="#dc0436"/>
            <stop offset="1" stop-color="#e60039"/>
        </linearGradient>
    </defs>
</svg>
