<svg xmlns="http://www.w3.org/2000/svg" width="71" height="31" fill="none" viewBox="0 0 71 31">
    <g clip-path="url(#a)">
        <path fill="#003a70" d="M.566 19.709c0-1.015-.02-1.866-.074-2.625h1.92l.09 1.303h.053c.434-.689 1.231-1.504 2.716-1.504 1.158 0 2.063.655 2.443 1.63h.037c.309-.488.67-.849 1.085-1.103.489-.344 1.05-.527 1.776-.527 1.464 0 2.947.996 2.947 3.822v5.193h-2.171V21.03c0-1.466-.506-2.335-1.573-2.335-.762 0-1.324.544-1.558 1.178a3.2 3.2 0 0 0-.109.74v5.286H5.976v-5.104c0-1.23-.489-2.1-1.52-2.1-.833 0-1.393.652-1.592 1.266-.09.22-.129.472-.129.725v5.213H.565zm19.284 1.884c-1.574-.038-3.076.305-3.076 1.646 0 .867.562 1.267 1.268 1.267.885 0 1.538-.579 1.735-1.212.055-.163.074-.345.074-.489zm2.172 2.19c0 .795.037 1.57.128 2.116h-2.01l-.144-.978h-.056c-.542.689-1.465 1.177-2.604 1.177-1.775 0-2.77-1.283-2.77-2.625 0-2.226 1.972-3.347 5.23-3.33v-.145c0-.579-.236-1.538-1.79-1.538-.87 0-1.776.273-2.373.652l-.434-1.447c.651-.4 1.792-.78 3.186-.78 2.824 0 3.637 1.793 3.637 3.71zm1.541-4.074c0-1.015-.02-1.866-.073-2.625h1.953l.109 1.32h.053c.38-.686 1.34-1.52 2.805-1.52 1.54 0 3.133.995 3.133 3.783v5.231h-2.227v-4.977c0-1.267-.47-2.227-1.683-2.227-.887 0-1.501.633-1.738 1.303-.07.2-.09.472-.09.723v5.178h-2.242zm15.404 1.049c0-.18-.018-.397-.054-.578-.2-.87-.905-1.575-1.919-1.575-1.43 0-2.225 1.268-2.225 2.915 0 1.61.796 2.788 2.208 2.788.904 0 1.701-.616 1.918-1.575.053-.2.072-.419.072-.654zm2.226-7.215v9.876c0 .905.037 1.883.072 2.48h-1.99l-.09-1.393h-.037c-.524.976-1.595 1.592-2.878 1.592-2.1 0-3.765-1.79-3.765-4.505-.017-2.952 1.83-4.709 3.947-4.709 1.212 0 2.081.508 2.479 1.162h.036v-4.503zm1.575 3.541h2.247v8.814h-2.247zm3.818 2.842c0-1.195-.018-2.047-.073-2.842h1.938l.071 1.682h.074c.434-1.25 1.466-1.682 2.407-1.682.217 0 .344-.037.525 0v1.955a3 3 0 0 0-.653-.073c-1.066 0-1.79.687-1.989 1.683a4 4 0 0 0-.072.69v4.559h-2.228zm5.976-2.842h2.243v8.814h-2.243z"/>
        <path fill="#ffb700" fill-rule="evenodd" d="M68.652 7.773c-1.108-1.262-2.283-.692-3.221-.227-.393.194-1.82 1.144-3.234 1.806-1.008.472-2.454.33-3.248-.65-.048-.06-1.33-1.612-1.465-1.804-.833-1.044-2.94-1.91-5.456-.47-1.348.78-4.525 2.604-5.713 3.282-.722.368-2.398.53-3.344-.75-.016-.02-1.26-1.572-1.31-1.632-.036-.042-.84-1.234-2.63-1.27-.264-.007-1.58-.015-2.865.715l-5.67 3.243q-.005.001-.004.002c-1.63.933-2.902 1.658-2.902 1.658l1.501 1.846c.703.871 2.286 1.546 3.66.758 0 0 5.075-2.939 5.093-2.947 2.195-1.205 3.889-1.205 5.011-.756 1.01.425 1.887 1.487 1.887 1.487s1.148 1.422 1.35 1.67c.653.804 1.732.489 1.732.489s.399-.046 1.005-.404c0 0 4.914-2.85 4.917-2.85 1.561-.916 2.994-1.087 3.724-1.02 2.292.209 3.004 1.81 3.998 2.925.585.658 1.112 1.03 1.92 1.011.53-.011 1.13-.332 1.218-.39l5.886-3.397s-.603-.909-1.84-2.325" clip-rule="evenodd"/>
    </g>
    <defs>
        <clipPath id="a">
            <path fill="#fff" d="M.5 5.667h70v20.428H.5z"/>
        </clipPath>
    </defs>
</svg>
