<svg xmlns="http://www.w3.org/2000/svg" width="91" height="41" fill="none" viewBox="0 0 91 41">
    <path fill="#4b2489" fill-rule="evenodd" d="M18.752 11.909a9.53 9.53 0 0 0-5.253 2.254 8.77 8.77 0 0 0-2.963 5.652 13 13 0 0 0 0 1.91A8.73 8.73 0 0 0 14 27.783c1.366 1.012 2.881 1.61 4.64 1.829.472.058 1.904.058 2.38 0a9.4 9.4 0 0 0 1.939-.433c1.702-.564 3.178-1.573 4.257-2.91a8.2 8.2 0 0 0 1.01-1.572 8.6 8.6 0 0 0 .88-2.867c.06-.44.06-1.706 0-2.145a8.7 8.7 0 0 0-.902-2.913c-.866-1.7-2.198-3.005-3.987-3.903-.977-.49-1.937-.782-3.1-.941-.375-.052-1.933-.065-2.364-.02m39.922-.02a9.87 9.87 0 0 0-5.656 2.15 10 10 0 0 0-1.187 1.173 8.8 8.8 0 0 0-1.945 4.659 11 11 0 0 0-.01 1.7 8.8 8.8 0 0 0 1.501 4.154c.641.94 1.386 1.665 2.389 2.326 1.303.858 2.717 1.367 4.341 1.562.467.056 1.667.056 2.13 0 1.412-.172 2.664-.576 3.8-1.225 1.247-.713 2.21-1.588 2.954-2.685.807-1.19 1.272-2.426 1.469-3.906.03-.223.04-.465.04-1.005.001-.745-.012-.921-.114-1.513-.358-2.078-1.477-3.985-3.093-5.27-.314-.25-.936-.67-1.258-.853a10 10 0 0 0-3.846-1.225c-.32-.034-1.228-.06-1.515-.043m-28.587 1.904v1.422l1.012.006 1.011.006.765 1.66A5790 5790 0 0 0 37.63 27.19c.406.861.703 1.338 1.06 1.696.4.4.793.603 1.52.787.425.108 1.095.23 1.12.203.012-.012 1.63-3.592 3.594-7.957l3.572-7.936v-1.614h-6.347v2.845h1.124c.89 0 1.122.006 1.113.028l-1.193 2.749-2.071 4.768c-.489 1.126-.895 2.04-.903 2.031a78 78 0 0 1-.553-1.223l-1.009-2.258c-1.737-3.88-2.705-6.043-2.714-6.067-.009-.022.18-.028.898-.028h.91V12.37h-7.662zm-9.385 1.049c.332.05.849.18 1.145.287.373.135.898.4 1.231.623a5.8 5.8 0 0 1 2.548 3.99c.072.458.07 1.387-.002 1.86a5.77 5.77 0 0 1-1.756 3.382 5.85 5.85 0 0 1-6.06 1.26 7 7 0 0 1-1.213-.62 5.8 5.8 0 0 1-2.015-2.292c-.36-.737-.532-1.392-.59-2.247-.062-.93.064-1.788.381-2.596.79-2.013 2.58-3.394 4.752-3.668.336-.043 1.247-.03 1.579.02m39.377 0a5.85 5.85 0 0 1 4.261 2.946c.541.97.781 2.09.705 3.284-.055.86-.226 1.518-.59 2.26a5.8 5.8 0 0 1-2.687 2.676 5.7 5.7 0 0 1-2.221.584 5.84 5.84 0 0 1-4.379-1.608c-1.153-1.103-1.76-2.48-1.813-4.113a6 6 0 0 1 .343-2.26c.2-.547.6-1.248.958-1.685 1.001-1.22 2.404-1.96 4.029-2.125.217-.022 1.166.005 1.394.04" clip-rule="evenodd"/>
</svg>
