<svg xmlns="http://www.w3.org/2000/svg" width="71" height="31" fill="none" viewBox="0 0 71 31">
    <path fill="#d7042f" fill-rule="evenodd" d="m59.587 7.234 2.321.928 3.018-.986z" clip-rule="evenodd"/>
    <path fill="#ad222d" fill-rule="evenodd" d="M59.297 7.583c.504.267 1.902.84 2.206 1.16l.406-.522v-.058l-2.322-.928-.183-.004z" clip-rule="evenodd"/>
    <path fill="#dc4958" fill-rule="evenodd" d="M61.909 8.162v.058l.638.465L65.45 7.64l-.348-.464h-.174z" clip-rule="evenodd"/>
    <path fill="#7eb033" fill-rule="evenodd" d="m67.363 12.748 3.018-.058-4.237-1.916z" clip-rule="evenodd"/>
    <path fill="#0096b7" fill-rule="evenodd" d="m55.116 12.806 1.973.116 1.567-1.916z" clip-rule="evenodd"/>
    <path fill="#5a891d" fill-rule="evenodd" d="m65.679 10.949.986 2.263.697-.406v-.058l-1.219-1.974z" clip-rule="evenodd"/>
    <path fill="#29b5e4" fill-rule="evenodd" d="m58.657 11.006-1.567 1.916v.057l.754.29 1.51-2.03-.525-.353z" clip-rule="evenodd"/>
    <path fill="#a1c24a" fill-rule="evenodd" d="M67.366 12.749v.058l.174.754 2.96-.232-.003-.576-.113-.063z" clip-rule="evenodd"/>
    <path fill="#00738f" fill-rule="evenodd" d="m55.057 13.211 2.032.349v-.639l-1.974-.116-.123.059z" clip-rule="evenodd"/>
    <path fill="#39772f" fill-rule="evenodd" d="m62.836 24.414.116-.29 3.714-10.912-.986-2.263c-.107.168-1.409 6.065-1.514 6.727-.17 1.064-.539 2.266-.754 3.367-.117.595-.818 3.023-.576 3.371" clip-rule="evenodd"/>
    <path fill="#d2072e" fill-rule="evenodd" d="m61.5 8.743 1.045 7.661v-7.72l-.638-.463z" clip-rule="evenodd"/>
    <path fill="#731c18" fill-rule="evenodd" d="M62.547 16.695v-.29l-1.044-7.662c-.304-.32-1.702-.894-2.206-1.161l3.08 9.044z" clip-rule="evenodd"/>
    <path fill="#b12130" fill-rule="evenodd" d="M62.547 8.684v8.01c.288.168.403-.602.487-.906.115-.41.23-.737.349-1.16.223-.8.47-1.511.696-2.322.223-.799.469-1.512.697-2.321.164-.586.63-1.831.673-2.345z" clip-rule="evenodd"/>
    <path fill="#0094b5" fill-rule="evenodd" d="m57.09 13.56 4.817 7.313-4.063-7.603-.754-.29z" clip-rule="evenodd"/>
    <path fill="#343434" fill-rule="evenodd" d="m10.89 23.253-.068.753-.613.276-.016.19h2.553v-.233c-.516 0-.754-.182-.754-.696v-2.031c0-.541.294-1.394.813-1.394.324 0 .154.58.522.58h.29a.524.524 0 0 0 .522-.521v-.059a.657.657 0 0 0-.638-.638h-.232c-.73 0-.961.624-1.277.986v-.986l-1.8.116v.232h.232c.3 0 .465.242.465.523z" clip-rule="evenodd"/>
    <path fill="#005471" fill-rule="evenodd" d="m62.081 21.28-.174-.407-4.817-7.313-2.032-.348c.907 1.355 2.456 2.732 3.46 4.086.392.53 3.2 3.897 3.563 3.982" clip-rule="evenodd"/>
    <path fill="#00738f" fill-rule="evenodd" d="m57.846 13.27 4.063 7.603.174.406c.104-.038.174-.042.174-.232 0-.185-2.715-9.42-2.902-9.81z" clip-rule="evenodd"/>
    <path fill="#343434" fill-rule="evenodd" d="M27.897 19.885h.523v3.425c0 .822.342 1.277 1.16 1.277.37 0 1.277-.222 1.277-.465 0-.122-.02-.076-.058-.232-.179.095-.405.29-.638.29-.377 0-.58-.372-.58-.754v-3.54h1.102v-.29H29.58v-1.51h-.29c-.28 0-.287 1.51-1.219 1.51h-.174z" clip-rule="evenodd"/>
    <path fill="#7cad31" fill-rule="evenodd" d="m66.667 13.211-3.715 10.912 4.585-10.563-.174-.755z" clip-rule="evenodd"/>
    <path fill="#343434" fill-rule="evenodd" d="M2.415 17.797h.871c.643 0 1.16.745 1.16 1.45v.639c0 .82-.663 1.393-1.508 1.393h-.523zm3.25 1.625c0-1.27-.908-1.916-2.146-1.916H.559v.233c.436 0 .754.153.754.58v5.34c0 .376-.261.522-.639.522H.5v.29h2.728v-.29h-.174c-.46 0-.639-.179-.639-.638V21.51h.93c1.412 0 2.32-.653 2.32-2.09m14.685.466h.057c.59 0 .697.618.697 1.219v2.67c0 .374-.261.464-.639.464v.232h2.496v-.232h-.174c-1.367 0 .48-4.759-1.683-4.759h-.465c-.58 0-1.287.474-1.393.87h-.116c-.095-.405-.469-.87-.928-.87h-.697c-.631 0-.974.648-1.277.87v-.87l-1.8.116v.232h.175c.376 0 .523.261.523.639v3.018c0 .299-.066.697-.349.697h-.406v.29h2.554v-.233h-.175c-.515 0-.522-.473-.522-.986V21.57c0-.838.354-1.684 1.16-1.684.418 0 .697.449.697.87v3.019c0 .374-.26.464-.638.464v.232h2.496v-.29h-.29c-.278 0-.407-.196-.407-.464v-2.554c0-.561.5-1.277 1.103-1.277m17.586.987h1.393c.888 0 1.625.642 1.625 1.509v.232c0 1.002-.75 1.625-1.742 1.625h-1.276zm0-3.134h1.16c.91 0 1.626.422 1.626 1.335v.173c0 .996-.853 1.394-1.858 1.394h-.928zm1.393-.233h-2.902v.175h.232c.28 0 .464.183.464.464v5.746c0 .293-.371.406-.696.406v.116h3.25c1.146 0 2.147-.545 2.147-1.683v-.29c0-1.05-1.044-1.683-2.09-1.683.433-.376 1.858-.07 1.858-1.683v-.175c0-.96-1.248-1.393-2.263-1.393" clip-rule="evenodd"/>
    <path fill="#6b8f16" fill-rule="evenodd" d="m67.539 13.56-4.586 10.563-.116.29c.371.216.933-.876 1.115-1.149.327-.49.606-.943.94-1.44.646-.962 1.223-1.863 1.868-2.832 1.265-1.9 2.478-3.782 3.739-5.664z" clip-rule="evenodd"/>
    <path fill="#343434" fill-rule="evenodd" d="M24.357 22.905c0-.697.752-1.104 1.451-1.104h.348v1.161c0 .62-.47 1.22-1.102 1.22-.38 0-.697-.51-.697-.93zm-.116-1.8c.791 0 .04-1.45 1.219-1.45h.058c.417 0 .638.393.638.811v1.104c-1.324 0-3.018.287-3.018 1.567v.116c0 .819.51 1.17 1.264 1.29 1.103.176 1.337-.525 1.812-.652.01.454.414.58.871.58h.812v-.232c-.675 0-.64-.382-.638-1.044v-1.683c0-1.279-.054-2.032-1.335-2.032h-.638c-.79 0-1.8.402-1.8 1.16v.117c0 .238.32.348.581.348zm8.125 1.8c0-.753.8-1.104 1.567-1.104h.232v.93c0 .76-.36 1.45-1.103 1.45-.325 0-.696-.48-.696-.812zm-.058-1.8c.648 0 .018-1.45 1.16-1.45h.058c.498 0 .639.53.639 1.044v.87h-.348c-1.441 0-2.67.383-2.67 1.858 0 .517.688 1.16 1.219 1.16h.174c.862 0 1.124-.36 1.625-.696.035.427.466.58.929.58h.813v-.232c-.714 0-.64-.364-.639-1.044V21.57c0-.677.085-1.058-.175-1.51-.174-.303-.58-.58-1.044-.58h-.754c-.789 0-1.858.448-1.858 1.16 0 .399.36.465.755.465zm10.795 2.147c0-1.215 1.175-1.567 2.38-1.567v.754c0 .956-.54 1.8-1.451 1.8h-.116c-.448 0-.813-.52-.813-.987m13.383-3.275c.316-.186.535-.062.605-.323H55v.116c.276 0 .639.107.639.348 0 .32-1.784 2.27-1.974 2.321v-3.192l.07-1.798-1.405.057v.174h.349c.188 0 .29.21.29.406v5.746c0 .281-.184.465-.465.465h-.464c-1.319 0 .75-4.818-1.857-4.818-1.444 0-1.289.686-1.857 1.103v-1.045l-1.334.074-.001.159c.439.01.638.192.638.638v3.366c0 .316-.206.523-.522.523h-.465c-.258 0-.361-.137-.464-.29 0-.987-.005-1.974 0-2.96.006-1.053-.282-1.568-1.335-1.568h-.406c-.76 0-1.8.38-1.8 1.045v.174c0 .134.041.174.175.174h.406c.13 0 .127-.046.232-.116 0-.698.254-1.16.929-1.16.768 0 1.102.337 1.102 1.102v.349l-.064.521h-.284c-1.073 0-2.786.406-2.786 1.394v.522c0 .426.561.987.987.987h.754c.56 0 1.068-.653 1.394-.871 0 .574.066.87.638.87h2.96v-.173h-.232c-.368 0-.522-.332-.522-.697v-1.973c0-.812.544-1.857 1.335-1.857h.348c.624 0 .87.797.87 1.45v1.916c0 .532.004 1.16-.522 1.16h-.232v.175h4.295v-.174h-.233c-.368 0-.522-.332-.522-.697v-.697c0-.177.71-.943.871-.986l1.49 2.53 1.238.024v-.174c-.691-.058-.969-.818-1.3-1.312-.134-.2-.964-1.463-.964-1.59 0 0 .826-.916.913-1.003.172-.168.352-.286.572-.415M6.883 21.395c0-.71.39-1.74 1.044-1.74.717 0 .93 1.133.93 1.915H6.882zm1.219 2.787c-.871 0-1.277-1.43-1.277-2.38h3.192v-.174c0-1.259-.72-2.148-1.973-2.148H7.87c-3.014 0-3.052 5.05 0 5.05h.406c.706 0 1.683-.706 1.683-1.22 0-.118-.12-.106-.232-.115-.111.415-.73.986-1.277.986z" clip-rule="evenodd"/>
</svg>
