<svg xmlns="http://www.w3.org/2000/svg" width="71" height="29" fill="none" viewBox="0 0 71 29">
    <path fill="#42b549" fill-rule="evenodd" d="M15.91.76c-.374.114-.753.433-.947.8l-.106.2v9.336l.101.202a1.57 1.57 0 0 0 1.261.87l.274.024V8.675l.907.016c.847.015.922.023 1.125.121.246.12.452.37.529.642.028.1.063.51.079.912.024.65.04.753.137.95a1.6 1.6 0 0 0 1.259.852l.266.024v-1.464c0-.913-.019-1.553-.05-1.699a1.99 1.99 0 0 0-1.093-1.408l-.331-.164c-.01-.005.062-.095.159-.2.097-.104.259-.308.359-.454.184-.268 1.433-2.363 1.479-2.48.02-.054-.12-.064-.939-.064h-.963l-.683 1.14a36 36 0 0 1-.796 1.288c-.173.23-.503.356-1.013.39l-.431.028V.719l-.235.004c-.13.002-.286.02-.348.038m40.221.087a1.63 1.63 0 0 0-.77.78l-.126.265-.025 3.363c-.024 3.335-.025 3.365-.126 3.694-.147.479-.349.826-.656 1.129a2.1 2.1 0 0 1-1.566.64c-.695 0-1.24-.218-1.71-.68-.5-.494-.733-1.08-.733-1.84 0-1.03.47-1.872 1.257-2.253.859-.414 1.826-.311 2.867.307.203.12.377.22.385.22s.016-.408.016-.907V4.66l-.225-.112c-.667-.334-1.489-.493-2.33-.45-.613.031-.917.105-1.456.357-1.297.606-2.133 1.878-2.206 3.355-.113 2.28 1.244 4.111 3.304 4.462.465.079 1.331.067 1.77-.024 1.47-.306 2.563-1.39 2.992-2.966.095-.348.097-.419.111-4.458L56.92.72h-.26c-.193 0-.327.033-.528.128m3.316.843a.89.89 0 0 0-.697.68c-.155.611.217 1.17.833 1.25.404.052.832-.131.984-.42.437-.835-.223-1.725-1.12-1.51m-57.8.626a1.6 1.6 0 0 0-1.02.816l-.11.22-.012 3.375C.49 10.449.488 10.393.77 10.98c.18.373.591.786.948.951.456.212.745.247 2.058.248h1.199v-1.582l-1.132-.018c-1.052-.017-1.144-.025-1.316-.114-.357-.184-.351-.147-.367-2.522l-.013-2.09h2.828V4.258H2.152v-1.99l-.168.005a2 2 0 0 0-.337.043m41.914 1.75c-.768.108-1.184.23-1.654.486-.773.419-1.369 1.05-1.772 1.878-.324.664-.398 1.002-.399 1.812 0 .621.011.723.122 1.082.406 1.314 1.289 2.253 2.604 2.77.597.235 1.115.32 1.793.293 1.062-.041 1.832-.351 2.488-1.003.388-.386.725-.869.643-.923l-.676-.483c-.346-.25-.645-.453-.663-.453s-.227.184-.465.41c-.947.895-1.717 1.043-2.768.53-.683-.333-1.166-.903-1.331-1.57l-.03-.122h6.624l.029-.189c.045-.297-.052-1.177-.176-1.6-.328-1.116-1.11-1.996-2.252-2.529-.666-.311-1.537-.471-2.117-.39m-34.828.083a4.07 4.07 0 0 0-3.034 2.457c-.213.528-.29.96-.288 1.636.002.666.068 1.039.28 1.581.328.838 1.113 1.664 1.996 2.102.792.393 1.96.514 2.906.301C11.777 11.96 12.95 11 13.41 9.917c.23-.54.318-1.01.318-1.698-.001-1.205-.327-2.043-1.105-2.843a4.17 4.17 0 0 0-1.977-1.17c-.426-.115-1.439-.146-1.912-.057m16.454-.037c-1.684.261-2.95 1.358-3.415 2.957-.091.314-.103.447-.1 1.173.002.763.01.845.125 1.216.288.93.846 1.657 1.702 2.222.768.506 1.753.734 2.743.632.556-.057.882-.143 1.35-.355.474-.215.723-.386 1.129-.77.582-.552.918-1.105 1.116-1.836.101-.373.115-.51.114-1.154 0-.61-.016-.788-.097-1.084a4.16 4.16 0 0 0-3.258-2.963c-.354-.061-1.127-.082-1.41-.038m9.075.001c-.074.01-.286.055-.47.102-1.39.347-2.39 1.392-2.782 2.91-.158.608-.182 1.236-.168 4.325l.014 2.964.125.266c.25.53.71.859 1.253.897l.302.022V12.04c0-2.15.019-3.707.046-3.933.096-.786.348-1.361.784-1.791a2.03 2.03 0 0 1 1.076-.575c.383-.08.53-.08.969-.003.898.158 1.557.745 1.843 1.64.149.466.139 1.284-.021 1.758-.143.425-.333.722-.637.996-.555.5-1.423.704-2.218.518-.312-.072-.933-.345-1.262-.553a1.4 1.4 0 0 0-.236-.13c-.017 0-.03.398-.03.885v.886l.146.088c.232.14.788.339 1.176.42.435.09 1.358.102 1.77.024 1.434-.27 2.66-1.465 3.033-2.952.107-.425.107-1.457 0-1.954-.193-.902-.592-1.626-1.224-2.223-.583-.55-1.198-.852-2.017-.993-.351-.06-1.136-.08-1.472-.036m31.347.018c-.395.059-1.106.304-1.413.487a3.82 3.82 0 0 0-1.749 2.232c-.17.561-.204 1.612-.074 2.233.444 2.117 2.206 3.443 4.292 3.23a2.94 2.94 0 0 0 1.426-.502l.387-.249-.002-1.074-.001-1.074-.141.177c-.338.424-.75.777-1.09.937-.284.133-.4.162-.729.18-.707.04-1.272-.173-1.784-.673-.51-.499-.751-1.093-.745-1.837.007-.888.41-1.673 1.093-2.122.39-.257.81-.375 1.337-.375.492 0 .806.065 1.195.246.49.226.873.61 1.056 1.056.097.235.101.308.124 2.124l.023 1.88.125.266c.206.434.52.703.974.837.131.038.317.07.412.07h.174l-.016-2.534c-.016-2.415-.02-2.55-.112-2.887-.355-1.32-1.247-2.17-2.655-2.53-.341-.088-.564-.113-1.12-.126a8 8 0 0 0-.987.028m-6.757 3.48.013 3.352.103.252c.21.515.743.902 1.311.953l.266.024V4.259H58.84zm-48.53-1.803c1.182.36 1.857 1.644 1.575 2.994-.25 1.19-1.139 1.915-2.352 1.917-1.12.002-2.045-.73-2.306-1.825-.085-.355-.085-1.039 0-1.394.13-.547.458-1.054.876-1.358.61-.443 1.437-.568 2.206-.334m15.873-.087c.84.119 1.574.74 1.869 1.583.14.4.15 1.354.02 1.734-.371 1.075-1.197 1.68-2.292 1.68-1.396 0-2.396-1.052-2.396-2.52 0-.856.34-1.595.94-2.042.313-.232.569-.343.963-.415.393-.072.506-.075.896-.02m18.282.022c.387.1.947.405 1.211.66.203.195.472.637.472.774 0 .032-.684.047-2.221.047h-2.221l.125-.232c.16-.297.775-.907 1.073-1.063a2.24 2.24 0 0 1 1.56-.186" clip-rule="evenodd"/>
    <path fill="#133f5d" d="M1.276 21.94h.808q.105 0 .164.052.065.051.08.132l.432 2.192q.04.195.056.392l.028.384q.055-.192.12-.38.068-.192.16-.396l.98-2.192a.3.3 0 0 1 .108-.132.3.3 0 0 1 .164-.052h.78l-2.024 4.104H2.3zm5.544 0-.492 4.104h-.976l.492-4.104zm.248-1.196a.64.64 0 0 1-.196.436.58.58 0 0 1-.656.136.7.7 0 0 1-.328-.332.6.6 0 0 1 .004-.484.66.66 0 0 1 .328-.336.54.54 0 0 1 .46 0 .6.6 0 0 1 .196.132.63.63 0 0 1 .192.448m3.563 5.3h-.52q-.18 0-.252-.084a.3.3 0 0 1-.072-.212l.032-.56a2.5 2.5 0 0 1-.612.672 1.25 1.25 0 0 1-.748.244q-.232 0-.436-.092a1 1 0 0 1-.352-.272 1.4 1.4 0 0 1-.236-.456 2.2 2.2 0 0 1-.084-.644q0-.368.092-.716t.26-.652q.172-.309.412-.564.24-.257.536-.44a2.63 2.63 0 0 1 1.376-.388q.276 0 .552.04.28.039.548.144zm-1.784-.748q.165 0 .32-.112.16-.113.3-.308.14-.201.26-.468a4 4 0 0 0 .208-.576l.156-1.24a2 2 0 0 0-.2-.012q-.332 0-.616.152-.284.151-.492.412-.208.255-.328.6a2.2 2.2 0 0 0-.116.72q0 .431.136.632.136.2.372.2m6.911-.068q.244 0 .424-.036a1.6 1.6 0 0 0 .716-.352q.072-.06.128-.096a.2.2 0 0 1 .112-.04q.049 0 .08.02a.3.3 0 0 1 .052.04l.364.452q-.375.432-.884.664a2.8 2.8 0 0 1-1.168.228 2.3 2.3 0 0 1-.948-.188 2 2 0 0 1-.704-.528 2.3 2.3 0 0 1-.44-.796 3.3 3.3 0 0 1-.148-1.004q0-.5.108-.944.108-.449.308-.824.201-.38.48-.68.28-.3.62-.512t.732-.324a3 3 0 0 1 1.4-.052q.26.055.472.16.212.103.38.252.168.144.304.324l-.36.432a.4.4 0 0 1-.096.084.23.23 0 0 1-.132.036.25.25 0 0 1-.168-.072 2 2 0 0 0-.204-.156 1.3 1.3 0 0 0-.316-.16 1.5 1.5 0 0 0-.508-.072 1.75 1.75 0 0 0-.772.172 1.8 1.8 0 0 0-.62.484q-.263.315-.416.764-.148.444-.148 1 0 .403.1.724.104.32.284.544.18.22.428.34.249.116.54.116m3.96-3.288-.491 4.104h-.976l.492-4.104zm.249-1.196a.64.64 0 0 1-.196.436.58.58 0 0 1-.656.136.7.7 0 0 1-.328-.332.6.6 0 0 1 .004-.484.66.66 0 0 1 .328-.336.54.54 0 0 1 .46 0 .6.6 0 0 1 .196.132.63.63 0 0 1 .192.448m3.482 4.572q-.204.223-.392.376a1.8 1.8 0 0 1-.376.244 1.5 1.5 0 0 1-.404.128q-.212.04-.464.04-.355 0-.64-.12a1.35 1.35 0 0 1-.476-.348q-.195-.225-.3-.54-.1-.317-.1-.704 0-.5.16-.952.16-.456.448-.8a2.2 2.2 0 0 1 .684-.552 1.8 1.8 0 0 1 .864-.208q.408 0 .692.144a1.5 1.5 0 0 1 .512.432l-.316.376a1 1 0 0 1-.084.068.2.2 0 0 1-.1.028.2.2 0 0 1-.124-.04 2 2 0 0 0-.132-.092.85.85 0 0 0-.904-.008q-.208.123-.368.352a2 2 0 0 0-.252.548q-.092.32-.092.708 0 .451.2.7a.66.66 0 0 0 .54.244 1 1 0 0 0 .376-.064q.152-.069.256-.144l.184-.144a.28.28 0 0 1 .18-.068q.048 0 .092.028a.3.3 0 0 1 .084.064zm1.976-3.376-.492 4.104h-.976l.492-4.104zm.248-1.196a.64.64 0 0 1-.196.436.58.58 0 0 1-.656.136.7.7 0 0 1-.328-.332.6.6 0 0 1 .004-.484.66.66 0 0 1 .328-.336.54.54 0 0 1 .46 0q.112.048.196.132a.63.63 0 0 1 .192.448m.39 5.3.72-5.944h.973l-.72 5.944zm5.245 0h-.52q-.18 0-.252-.084a.3.3 0 0 1-.072-.212l.032-.56a2.5 2.5 0 0 1-.612.672 1.25 1.25 0 0 1-.748.244q-.232 0-.436-.092a1 1 0 0 1-.352-.272 1.4 1.4 0 0 1-.236-.456 2.2 2.2 0 0 1-.084-.644q0-.368.092-.716a3 3 0 0 1 .26-.652q.172-.309.412-.564.24-.257.536-.44a2.63 2.63 0 0 1 1.376-.388q.276 0 .552.04.28.039.548.144zm-1.784-.748q.165 0 .32-.112.16-.113.3-.308.14-.201.26-.468.12-.268.208-.576l.156-1.24a2 2 0 0 0-.2-.012q-.332 0-.616.152-.284.151-.492.412-.208.255-.328.6a2.2 2.2 0 0 0-.116.72q0 .431.136.632.136.2.372.2m2.78.748.493-4.108h.504q.156 0 .24.076.087.076.088.244l-.028.532q.312-.46.692-.684.38-.228.784-.228.229 0 .412.084a.8.8 0 0 1 .32.24q.132.156.204.388a1.8 1.8 0 0 1 .064.684l-.012.16-.308 2.612h-.988l.228-1.928.056-.488a13 13 0 0 0 .044-.444q0-.264-.096-.38-.096-.12-.3-.12a.7.7 0 0 0-.34.096q-.177.096-.336.272a2 2 0 0 0-.292.424q-.132.247-.216.552l-.224 2.016zM41.02 20.2q.305 0 .552.092a1.18 1.18 0 0 1 .692.664q.096.235.096.528l-.568.112a.5.5 0 0 1-.096.012q-.144 0-.184-.16a1 1 0 0 0-.076-.204.58.58 0 0 0-.288-.276.67.67 0 0 0-.52.028.7.7 0 0 0-.228.188.9.9 0 0 0-.144.276 1.1 1.1 0 0 0-.048.336q0 .192.068.4.073.203.244.428l1.184 1.536q.132-.24.224-.5a3.3 3.3 0 0 0 .148-.536.4.4 0 0 1 .064-.148q.048-.057.148-.056h.668a4 4 0 0 1-.264 1.012q-.192.48-.484.88l.952 1.232h-.828q-.116 0-.2-.012a.7.7 0 0 1-.148-.048.6.6 0 0 1-.12-.088 2 2 0 0 1-.112-.128l-.208-.272a3.1 3.1 0 0 1-.8.452q-.428.16-.896.16a2 2 0 0 1-.66-.1 1.4 1.4 0 0 1-.496-.292 1.3 1.3 0 0 1-.312-.46 1.6 1.6 0 0 1-.108-.608q0-.309.096-.58.1-.276.272-.504.177-.233.412-.416.24-.184.516-.312a2.3 2.3 0 0 1-.188-.5 2 2 0 0 1-.06-.476q0-.34.12-.64.12-.305.34-.528a1.6 1.6 0 0 1 .532-.36 1.8 1.8 0 0 1 .708-.132m-1.768 4.32q0 .387.204.608.209.22.596.22.288 0 .552-.112.264-.117.496-.32l-1.184-1.564a1.45 1.45 0 0 0-.512.532q-.152.295-.152.636m7.365-4.26q.068 0 .112.008.048.003.084.024.036.015.064.048.027.031.06.088l2.252 3.948.016-.224.024-.208.452-3.684h.916l-.716 5.784h-.532a.5.5 0 0 1-.204-.036.32.32 0 0 1-.14-.144l-2.24-3.948-.032.356-.456 3.772h-.916l.712-5.784zm5.954 5.084a.76.76 0 0 0 .448-.14q.2-.144.34-.38.145-.24.22-.556t.076-.664q0-.5-.172-.736-.168-.236-.512-.236a.76.76 0 0 0-.448.14 1.2 1.2 0 0 0-.34.38 2 2 0 0 0-.216.556q-.075.315-.076.668 0 .5.168.736.168.232.512.232m-.088.76a1.8 1.8 0 0 1-.632-.112 1.4 1.4 0 0 1-.5-.336 1.6 1.6 0 0 1-.328-.54 2.1 2.1 0 0 1-.12-.732q0-.533.168-.992.173-.46.464-.796a2.2 2.2 0 0 1 .688-.528q.392-.192.836-.192.34 0 .628.116.293.111.504.332.212.219.332.54.12.32.12.732 0 .528-.172.988a2.6 2.6 0 0 1-.468.796 2.2 2.2 0 0 1-.684.532q-.392.192-.836.192m2.614-.06.492-4.108h.504q.156 0 .24.076.088.076.088.244l-.028.532q.312-.46.692-.684.38-.228.784-.228.229 0 .412.084a.8.8 0 0 1 .32.24q.132.156.204.388a1.8 1.8 0 0 1 .064.684q-.003.076-.012.16l-.308 2.612h-.988l.228-1.928.056-.488a13 13 0 0 0 .044-.444q0-.264-.096-.38-.096-.12-.3-.12a.7.7 0 0 0-.34.096q-.176.096-.336.272a2 2 0 0 0-.292.424q-.132.247-.216.552l-.224 2.016zm8.516-.816q.244 0 .424-.036a1.6 1.6 0 0 0 .716-.352q.072-.06.128-.096a.2.2 0 0 1 .112-.04q.048 0 .08.02a.3.3 0 0 1 .052.04l.364.452q-.376.432-.884.664a2.8 2.8 0 0 1-1.168.228 2.3 2.3 0 0 1-.948-.188 2 2 0 0 1-.704-.528 2.3 2.3 0 0 1-.44-.796 3.3 3.3 0 0 1-.148-1.004q0-.5.108-.944.108-.449.308-.824a3.1 3.1 0 0 1 1.1-1.192q.34-.213.732-.324a3 3 0 0 1 1.4-.052q.26.055.472.16.212.103.38.252.168.144.304.324l-.36.432a.4.4 0 0 1-.096.084.23.23 0 0 1-.132.036.25.25 0 0 1-.168-.072 2 2 0 0 0-.204-.156 1.3 1.3 0 0 0-.316-.16 1.5 1.5 0 0 0-.508-.072 1.75 1.75 0 0 0-.772.172 1.8 1.8 0 0 0-.62.484 2.4 2.4 0 0 0-.416.764q-.148.444-.148 1 0 .403.1.724.105.32.284.544.18.22.428.34.248.116.54.116m4.908 0q.244 0 .424-.036a1.6 1.6 0 0 0 .716-.352q.072-.06.128-.096a.2.2 0 0 1 .112-.04q.048 0 .08.02a.3.3 0 0 1 .052.04l.364.452q-.375.432-.884.664a2.8 2.8 0 0 1-1.168.228 2.3 2.3 0 0 1-.948-.188 2 2 0 0 1-.704-.528 2.3 2.3 0 0 1-.44-.796 3.3 3.3 0 0 1-.148-1.004q0-.5.108-.944.108-.449.308-.824.2-.38.48-.68t.62-.512q.34-.213.732-.324a3 3 0 0 1 1.4-.052q.26.055.472.16.212.103.38.252.168.144.304.324l-.36.432a.4.4 0 0 1-.096.084.23.23 0 0 1-.132.036.25.25 0 0 1-.168-.072 2 2 0 0 0-.204-.156 1.3 1.3 0 0 0-.316-.16 1.5 1.5 0 0 0-.508-.072 1.75 1.75 0 0 0-.772.172 1.8 1.8 0 0 0-.62.484q-.264.315-.416.764-.148.444-.148 1 0 .403.1.724.104.32.284.544.18.22.428.34.248.116.54.116"/>
</svg>
