<svg xmlns="http://www.w3.org/2000/svg" width="71" height="15" fill="none" viewBox="0 0 71 15">
    <path fill="#42b549" fill-rule="evenodd" d="M15.91.107c-.374.113-.753.432-.947.8l-.106.198v9.337l.101.202a1.57 1.57 0 0 0 1.261.87l.274.024V8.02l.907.016c.847.015.922.023 1.125.12.246.12.452.37.529.643.028.1.063.51.079.911.024.652.04.754.137.95a1.6 1.6 0 0 0 1.259.853l.266.024v-1.464c0-.913-.019-1.553-.05-1.699a1.99 1.99 0 0 0-1.093-1.408l-.331-.164c-.01-.006.062-.095.159-.2.097-.104.259-.308.359-.454.184-.268 1.433-2.363 1.479-2.48.02-.054-.12-.064-.939-.064h-.963l-.683 1.14a36 36 0 0 1-.796 1.288c-.173.23-.503.356-1.013.39l-.431.027V.065l-.235.004c-.13.002-.286.02-.348.038m40.221.086a1.63 1.63 0 0 0-.77.78l-.126.265-.025 3.363c-.024 3.335-.025 3.365-.126 3.694-.147.479-.349.826-.656 1.129a2.1 2.1 0 0 1-1.566.64c-.695 0-1.24-.218-1.71-.68-.5-.495-.733-1.08-.733-1.84 0-1.03.47-1.872 1.257-2.253.859-.414 1.826-.311 2.867.307.203.12.377.22.385.22s.016-.408.016-.907v-.906l-.225-.112c-.667-.334-1.489-.493-2.33-.45-.613.03-.917.105-1.456.357-1.297.606-2.133 1.878-2.206 3.355-.113 2.28 1.244 4.111 3.304 4.462.465.079 1.331.067 1.77-.024 1.47-.306 2.563-1.39 2.992-2.966.095-.348.097-.419.111-4.458L56.92.065h-.26c-.193 0-.327.033-.528.128m3.316.843a.89.89 0 0 0-.697.68c-.155.611.217 1.17.833 1.25.404.052.832-.131.984-.42.437-.835-.223-1.725-1.12-1.51m-57.8.626a1.6 1.6 0 0 0-1.02.816l-.11.22-.012 3.375C.49 9.795.488 9.739.77 10.326c.18.373.591.785.948.951.456.212.745.247 2.058.248h1.199V9.943l-1.132-.018C2.792 9.908 2.7 9.9 2.528 9.811c-.357-.185-.351-.147-.367-2.522l-.013-2.09h2.828V3.604H2.152v-1.99l-.168.005a2 2 0 0 0-.337.043m41.914 1.75c-.768.108-1.184.23-1.654.486-.773.419-1.369 1.05-1.772 1.878-.324.664-.398 1.002-.399 1.812 0 .621.011.723.122 1.082.406 1.314 1.289 2.253 2.604 2.77.597.235 1.115.32 1.793.293 1.062-.041 1.832-.352 2.488-1.003.388-.386.725-.869.643-.923l-.676-.483c-.346-.25-.645-.453-.663-.453s-.227.184-.465.409c-.947.896-1.717 1.044-2.768.531-.683-.333-1.166-.903-1.331-1.57l-.03-.122h6.624l.029-.189c.045-.297-.052-1.177-.176-1.6-.328-1.116-1.11-1.996-2.252-2.529-.666-.311-1.537-.471-2.117-.39m-34.828.083a4.07 4.07 0 0 0-3.034 2.457c-.213.528-.29.96-.288 1.636.002.666.068 1.039.28 1.581.328.838 1.113 1.664 1.996 2.102.792.393 1.96.514 2.906.301 1.184-.267 2.356-1.227 2.816-2.309.23-.54.318-1.01.318-1.698-.001-1.205-.327-2.043-1.105-2.843a4.17 4.17 0 0 0-1.977-1.17c-.426-.115-1.439-.146-1.912-.057m16.454-.037c-1.684.261-2.95 1.358-3.415 2.957-.091.314-.103.447-.1 1.173.002.763.01.845.125 1.216.288.93.846 1.657 1.702 2.222.768.506 1.753.733 2.743.632.556-.057.882-.143 1.35-.355.474-.215.723-.386 1.129-.77.582-.552.918-1.105 1.116-1.836.101-.374.115-.51.114-1.154 0-.61-.016-.788-.097-1.084a4.16 4.16 0 0 0-3.258-2.963c-.354-.061-1.127-.082-1.41-.038m9.075.001c-.074.01-.286.055-.47.102-1.39.347-2.39 1.392-2.782 2.91-.158.608-.182 1.236-.168 4.325l.014 2.964.125.266c.25.53.71.858 1.253.897l.302.022v-3.558c0-2.15.019-3.707.046-3.933.096-.786.348-1.361.784-1.791a2.03 2.03 0 0 1 1.076-.575c.383-.08.53-.08.969-.003.898.158 1.557.744 1.843 1.64.149.466.139 1.284-.021 1.758-.143.425-.333.722-.637.996-.555.5-1.423.703-2.218.518-.312-.072-.933-.345-1.262-.553a1.4 1.4 0 0 0-.236-.13c-.017 0-.03.398-.03.885v.885l.146.089c.232.14.788.339 1.176.42.435.09 1.358.102 1.77.024 1.434-.27 2.66-1.465 3.033-2.952.107-.425.107-1.457 0-1.955-.193-.901-.592-1.626-1.224-2.222-.583-.55-1.198-.852-2.017-.993-.351-.06-1.136-.08-1.472-.036m31.347.018c-.395.059-1.106.304-1.413.487a3.82 3.82 0 0 0-1.749 2.232c-.17.561-.204 1.612-.074 2.233.444 2.117 2.206 3.443 4.292 3.23a2.94 2.94 0 0 0 1.426-.502l.387-.249-.002-1.074-.001-1.074-.141.177c-.338.424-.75.777-1.09.937-.284.133-.4.162-.729.18-.707.04-1.272-.173-1.784-.673-.51-.499-.751-1.093-.745-1.838.007-.887.41-1.672 1.093-2.121.39-.257.81-.375 1.337-.375.492 0 .806.065 1.195.245.49.227.873.611 1.056 1.057.097.235.101.308.124 2.124l.023 1.88.125.265c.206.435.52.704.974.838.131.038.317.07.412.07h.174l-.016-2.534c-.016-2.415-.02-2.55-.112-2.887-.355-1.32-1.247-2.17-2.655-2.53-.341-.088-.564-.113-1.12-.126a8 8 0 0 0-.987.028m-6.757 3.48.013 3.352.103.252c.21.515.743.902 1.311.953l.266.024V3.605H58.84zm-48.53-1.803c1.182.36 1.857 1.644 1.575 2.994-.25 1.19-1.139 1.914-2.352 1.917-1.12.002-2.045-.73-2.306-1.825-.085-.355-.085-1.039 0-1.394.13-.547.458-1.054.876-1.358.61-.443 1.437-.568 2.206-.334m15.873-.087c.84.119 1.574.74 1.869 1.583.14.4.15 1.354.02 1.734-.371 1.075-1.197 1.68-2.292 1.68-1.396 0-2.396-1.052-2.396-2.52 0-.856.34-1.595.94-2.042.313-.232.569-.343.963-.415.393-.072.506-.075.896-.02m18.282.022c.387.1.947.405 1.211.66.203.195.472.637.472.774 0 .032-.684.047-2.221.047h-2.221l.125-.232c.16-.297.775-.907 1.073-1.063a2.24 2.24 0 0 1 1.56-.186" clip-rule="evenodd"/>
</svg>
