<svg xmlns="http://www.w3.org/2000/svg" width="91" height="48" fill="none" viewBox="0 0 91 48">
    <path fill="#42b549" fill-rule="evenodd" d="M25.91 10.544c-.374.113-.753.432-.947.8l-.106.198v9.336l.101.203a1.57 1.57 0 0 0 1.261.87l.274.024v-3.517l.907.016c.847.015.922.023 1.125.121.246.12.452.37.529.642.028.1.063.51.079.912.024.65.04.753.137.95a1.6 1.6 0 0 0 1.259.852l.266.024V20.51c0-.913-.019-1.553-.05-1.699a1.99 1.99 0 0 0-1.093-1.408l-.331-.164c-.01-.005.062-.095.159-.2.097-.104.259-.308.359-.454.184-.268 1.433-2.363 1.479-2.48.02-.054-.12-.064-.939-.064h-.963l-.683 1.14a36 36 0 0 1-.796 1.288c-.173.23-.503.356-1.013.39l-.431.027v-6.385l-.235.004c-.13.002-.286.02-.348.038m40.221.086a1.63 1.63 0 0 0-.77.78l-.126.265-.025 3.363c-.024 3.335-.025 3.365-.126 3.694-.147.479-.349.826-.656 1.129a2.1 2.1 0 0 1-1.566.64c-.695 0-1.24-.218-1.71-.68-.5-.495-.733-1.08-.733-1.84 0-1.03.47-1.872 1.257-2.253.859-.414 1.826-.311 2.867.307.203.12.377.22.385.22s.016-.408.016-.907v-.906l-.225-.112c-.667-.334-1.489-.493-2.33-.45-.613.03-.917.105-1.456.357-1.297.606-2.133 1.878-2.206 3.355-.113 2.28 1.244 4.111 3.304 4.462.465.079 1.331.067 1.77-.024 1.47-.306 2.563-1.39 2.992-2.966.095-.348.097-.419.111-4.458l.015-4.104h-.26c-.193 0-.327.033-.528.128m3.317.843c-.368.088-.606.32-.698.68-.155.611.217 1.17.833 1.25.404.052.832-.131.984-.42.437-.835-.223-1.726-1.12-1.51m-57.8.626a1.6 1.6 0 0 0-1.022.816l-.11.22-.011 3.375c-.014 3.722-.017 3.666.266 4.253.18.373.591.785.948.951.456.212.745.247 2.058.248h1.199V20.38l-1.132-.018c-1.052-.017-1.144-.025-1.316-.114-.357-.184-.351-.147-.367-2.522l-.013-2.09h2.828v-1.594h-2.824v-1.991l-.168.005a2 2 0 0 0-.336.043m41.913 1.75c-.768.108-1.184.23-1.654.486-.773.419-1.369 1.05-1.772 1.878-.324.664-.398 1.002-.399 1.812 0 .621.011.723.122 1.082.406 1.314 1.289 2.253 2.604 2.77.597.235 1.115.32 1.793.293 1.062-.041 1.832-.352 2.488-1.003.388-.386.725-.869.643-.923l-.676-.483c-.346-.25-.645-.453-.663-.453s-.227.184-.465.409c-.947.896-1.717 1.044-2.768.531-.683-.333-1.166-.903-1.331-1.57l-.03-.123h6.624l.029-.188c.045-.297-.052-1.177-.176-1.6-.328-1.116-1.11-1.996-2.252-2.529-.666-.311-1.537-.471-2.117-.39m-34.828.083a4.07 4.07 0 0 0-3.035 2.457c-.212.528-.288.96-.287 1.636.002.666.068 1.039.28 1.581.329.838 1.113 1.664 1.996 2.102.792.393 1.96.514 2.906.301 1.184-.267 2.356-1.227 2.816-2.309.23-.54.318-1.01.318-1.698-.001-1.205-.326-2.043-1.105-2.843a4.17 4.17 0 0 0-1.977-1.17c-.426-.116-1.439-.146-1.912-.057m16.454-.037c-1.684.261-2.95 1.358-3.415 2.957-.091.314-.103.447-.1 1.173.002.764.01.845.125 1.216.289.93.846 1.657 1.702 2.222.768.506 1.753.733 2.743.632.556-.057.882-.143 1.35-.355.474-.215.723-.386 1.129-.77.582-.552.918-1.105 1.116-1.836.101-.373.115-.51.114-1.154 0-.61-.016-.788-.097-1.084a4.16 4.16 0 0 0-3.258-2.964c-.353-.06-1.127-.081-1.41-.037m9.075.001a6 6 0 0 0-.47.101c-1.39.348-2.39 1.393-2.782 2.911-.158.608-.182 1.236-.168 4.325l.014 2.964.125.266c.25.53.71.858 1.253.897l.302.022v-3.558c0-2.15.019-3.707.046-3.933.096-.786.348-1.361.784-1.791.314-.31.64-.484 1.076-.575.383-.08.53-.08.969-.003.898.158 1.557.745 1.843 1.64.149.466.139 1.284-.021 1.758-.143.425-.333.722-.637.996-.555.5-1.423.703-2.218.518-.312-.072-.933-.345-1.262-.553a1.4 1.4 0 0 0-.236-.13c-.017 0-.03.398-.03.885v.885l.146.089c.232.14.788.339 1.176.42.435.09 1.358.102 1.77.024 1.434-.27 2.66-1.465 3.033-2.952.107-.425.107-1.457 0-1.954-.193-.902-.592-1.626-1.224-2.223-.583-.55-1.198-.852-2.017-.993-.351-.06-1.136-.08-1.472-.036m31.347.018c-.395.059-1.106.304-1.413.487a3.82 3.82 0 0 0-1.749 2.232c-.17.561-.204 1.612-.074 2.233.444 2.117 2.206 3.443 4.292 3.23a2.94 2.94 0 0 0 1.426-.502l.387-.249-.002-1.074-.001-1.074-.141.177c-.338.424-.75.777-1.09.937-.284.133-.4.162-.729.18-.707.04-1.272-.173-1.784-.673-.51-.499-.751-1.093-.745-1.838.007-.887.41-1.672 1.093-2.121.39-.257.81-.375 1.337-.375.492 0 .806.065 1.195.245.49.227.873.611 1.056 1.057.097.235.101.308.124 2.124l.023 1.88.125.265c.206.435.52.704.974.837.131.04.317.07.412.07h.174l-.016-2.533c-.016-2.415-.02-2.55-.112-2.887-.355-1.32-1.247-2.17-2.655-2.53-.341-.088-.564-.113-1.12-.126a8 8 0 0 0-.987.028m-6.757 3.48.013 3.352.103.252c.21.515.743.902 1.311.953l.266.024v-7.933H68.84zM20.32 15.59c1.182.36 1.857 1.644 1.575 2.994-.25 1.19-1.139 1.914-2.352 1.917-1.12.002-2.045-.73-2.306-1.825-.085-.355-.085-1.039 0-1.394.13-.547.457-1.054.875-1.358.61-.443 1.438-.568 2.207-.334m15.873-.087c.84.119 1.574.74 1.868 1.583.14.4.151 1.354.02 1.734-.37 1.075-1.196 1.68-2.291 1.68-1.396 0-2.396-1.052-2.396-2.52 0-.856.34-1.595.94-2.042.313-.232.569-.343.963-.415.393-.072.506-.075.896-.02m18.282.022c.387.1.947.405 1.211.66.203.195.472.637.472.774 0 .032-.684.047-2.221.047h-2.221l.125-.232c.16-.297.775-.907 1.073-1.063a2.24 2.24 0 0 1 1.56-.186" clip-rule="evenodd"/>
    <path fill="#133f5d" d="M25.576 31.778h.808q.104 0 .164.052.063.051.08.132l.432 2.192q.04.194.056.392.016.192.028.384.056-.192.12-.38.067-.192.16-.396l.98-2.192a.3.3 0 0 1 .108-.132.3.3 0 0 1 .164-.052h.78l-2.024 4.104H26.6zm5.464 0-.492 4.104h-.976l.492-4.104zm.248-1.196a.64.64 0 0 1-.196.436.58.58 0 0 1-.656.136.7.7 0 0 1-.328-.332.6.6 0 0 1 .004-.484.66.66 0 0 1 .328-.336.54.54 0 0 1 .46 0q.112.048.196.132a.63.63 0 0 1 .192.448m3.483 5.3h-.52q-.18 0-.252-.084a.3.3 0 0 1-.072-.212l.032-.56a2.5 2.5 0 0 1-.612.672 1.25 1.25 0 0 1-.748.244q-.232 0-.436-.092a1 1 0 0 1-.352-.272 1.4 1.4 0 0 1-.236-.456 2.2 2.2 0 0 1-.084-.644q0-.369.092-.716a3 3 0 0 1 .26-.652q.172-.309.412-.564.24-.257.536-.44a2.63 2.63 0 0 1 1.376-.388q.276 0 .552.04.28.039.548.144zm-1.784-.748q.165 0 .32-.112.159-.113.3-.308.14-.201.26-.468.12-.27.208-.576l.156-1.24a2 2 0 0 0-.2-.012q-.333 0-.616.152-.285.15-.492.412-.208.255-.328.6a2.2 2.2 0 0 0-.116.72q0 .431.136.632.135.2.372.2m5.791-2.592h.224a.6.6 0 0 0 .236-.04.5.5 0 0 0 .18-.14l1.672-2.04a.6.6 0 0 1 .22-.176.7.7 0 0 1 .272-.048h.892l-2.048 2.42a2 2 0 0 1-.18.184.7.7 0 0 1-.18.12q.12.048.204.132.088.084.16.22l1.468 2.708h-.912a1 1 0 0 1-.156-.012.6.6 0 0 1-.112-.04.4.4 0 0 1-.076-.064 1 1 0 0 1-.052-.088l-1.192-2.156a.34.34 0 0 0-.144-.148.56.56 0 0 0-.26-.048h-.312l-.316 2.556h-1.032l.708-5.788h1.04zm6.837 3.34h-.52q-.18 0-.252-.084a.3.3 0 0 1-.073-.212l.032-.56a2.5 2.5 0 0 1-.611.672 1.25 1.25 0 0 1-.748.244q-.232 0-.436-.092a1 1 0 0 1-.352-.272 1.4 1.4 0 0 1-.236-.456 2.2 2.2 0 0 1-.084-.644q0-.369.091-.716.093-.349.26-.652.172-.309.413-.564.24-.257.536-.44a2.63 2.63 0 0 1 1.376-.388q.275 0 .551.04.28.039.549.144zm-1.785-.748q.165 0 .32-.112.16-.113.3-.308.14-.201.26-.468.12-.27.209-.576l.156-1.24a2 2 0 0 0-.2-.012q-.332 0-.617.152-.284.15-.492.412-.207.255-.328.6a2.2 2.2 0 0 0-.116.72q0 .431.136.632.136.2.373.2m2.701.748.5-4.108h.5q.144-.001.236.064.092.063.092.204v.016l-.004.08-.008.216q-.004.144-.016.408.252-.484.552-.748t.624-.264q.164 0 .332.072l-.18.944a1 1 0 0 0-.38-.084q-.356 0-.624.34-.267.338-.44 1.064l-.216 1.796zm3.286-.836v-.064a2 2 0 0 1 .024-.308l.04-.316.228-1.84h-.388a.16.16 0 0 1-.112-.04q-.04-.044-.04-.128v-.016a.3.3 0 0 0 .008-.052l.012-.128q.013-.084.028-.236l.624-.108.328-1.12a.24.24 0 0 1 .08-.124.24.24 0 0 1 .144-.044h.528l-.16 1.292h.992l-.084.704h-.996l-.22 1.788-.032.26-.016.152q-.003.051-.008.076v.028q0 .15.072.24.077.088.212.088a.5.5 0 0 0 .144-.02 1 1 0 0 0 .18-.092.12.12 0 0 1 .068-.024q.044 0 .068.024a.16.16 0 0 1 .048.064l.212.48q-.22.18-.488.272a1.7 1.7 0 0 1-.54.092q-.435-.001-.692-.236-.252-.238-.264-.664m3.884-3.268-.228 1.924-.1.888v.052q0 .263.096.38.1.111.3.112a.7.7 0 0 0 .32-.084q.168-.09.32-.248.156-.16.288-.388t.224-.508l.256-2.128h.988l-.496 4.104h-.5a.5.5 0 0 1-.132-.016.4.4 0 0 1-.112-.056.3.3 0 0 1-.08-.092.3.3 0 0 1-.028-.132v-.016l.024-.5a2.2 2.2 0 0 1-.684.656q-.368.216-.764.216-.227 0-.416-.08a.9.9 0 0 1-.316-.24 1.1 1.1 0 0 1-.204-.384 1.8 1.8 0 0 1-.072-.528q0-.08.004-.16.004-.081.016-.168l.308-2.604zm5.96.764h.224a.6.6 0 0 0 .236-.04.5.5 0 0 0 .18-.14l1.672-2.04a.6.6 0 0 1 .22-.176.7.7 0 0 1 .272-.048h.892l-2.048 2.42a2 2 0 0 1-.18.184.7.7 0 0 1-.18.12q.12.048.204.132.088.084.16.22l1.468 2.708h-.912a1 1 0 0 1-.156-.012.6.6 0 0 1-.112-.04.4.4 0 0 1-.076-.064 1 1 0 0 1-.052-.088l-1.192-2.156a.34.34 0 0 0-.144-.148.56.56 0 0 0-.26-.048h-.312l-.316 2.556h-1.032l.708-5.788h1.04zm3.612 3.34.5-4.108h.5q.144-.001.236.064.093.063.092.204v.016l-.004.08-.008.216q-.003.144-.016.408.252-.484.552-.748t.624-.264q.165 0 .332.072l-.18.944a1 1 0 0 0-.38-.084q-.355 0-.624.34-.267.338-.44 1.064l-.216 1.796zm6.214-3.152q0 .276-.112.504a1 1 0 0 1-.392.408q-.283.18-.772.312a8 8 0 0 1-1.236.204v.052q0 .968.82.968.177 0 .312-.032.137-.036.236-.084.105-.048.184-.108l.152-.108a1 1 0 0 1 .14-.08.3.3 0 0 1 .148-.036q.048 0 .096.024a.2.2 0 0 1 .08.064l.252.304q-.212.211-.416.368-.203.156-.416.256-.211.1-.448.148-.235.048-.516.048a1.7 1.7 0 0 1-.652-.12 1.5 1.5 0 0 1-.5-.344 1.6 1.6 0 0 1-.324-.536 2.1 2.1 0 0 1-.112-.704q0-.324.068-.636.072-.312.204-.592.132-.281.324-.516.192-.237.432-.408.244-.172.532-.268.292-.096.624-.096.324 0 .564.092.245.09.404.24.165.144.244.324.08.18.08.352m-1.348-.32a.84.84 0 0 0-.372.084q-.171.08-.312.228-.135.147-.24.356-.1.204-.16.448.496-.069.796-.148a2 2 0 0 0 .468-.176.5.5 0 0 0 .22-.204.5.5 0 0 0 .056-.232q0-.06-.028-.124a.3.3 0 0 0-.08-.112.53.53 0 0 0-.348-.12m4.502 3.472q-.18 0-.252-.084a.3.3 0 0 1-.072-.212l.032-.6a2.7 2.7 0 0 1-.664.7q-.369.256-.784.256-.257 0-.468-.092a.96.96 0 0 1-.356-.284 1.3 1.3 0 0 1-.228-.476 2.6 2.6 0 0 1-.08-.68q0-.349.072-.68.072-.336.204-.636t.312-.552q.183-.252.408-.436.224-.185.476-.288.255-.105.528-.104a1.2 1.2 0 0 1 .892.372l.268-2.148h.968l-.732 5.944zm-1.356-.716a.6.6 0 0 0 .328-.108q.168-.112.324-.304.156-.197.288-.456a3.6 3.6 0 0 0 .232-.568l.124-.996a.75.75 0 0 0-.312-.208 1 1 0 0 0-.344-.06.78.78 0 0 0-.48.164q-.216.164-.372.428-.153.264-.236.596a2.7 2.7 0 0 0-.084.66q0 .431.14.644a.45.45 0 0 0 .392.208m4.388-3.388-.492 4.104h-.976l.492-4.104zm.248-1.196a.64.64 0 0 1-.196.436.58.58 0 0 1-.656.136.7.7 0 0 1-.328-.332.6.6 0 0 1 .004-.484.66.66 0 0 1 .328-.336.54.54 0 0 1 .46 0 .6.6 0 0 1 .196.132.63.63 0 0 1 .192.448m.639 4.464v-.064a2 2 0 0 1 .024-.308l.04-.316.228-1.84h-.388a.16.16 0 0 1-.112-.04q-.04-.044-.04-.128v-.016a.3.3 0 0 0 .008-.052l.012-.128q.012-.084.028-.236l.624-.108.328-1.12a.24.24 0 0 1 .08-.124.24.24 0 0 1 .144-.044h.528l-.16 1.292h.992l-.084.704h-.996l-.22 1.788-.032.26-.016.152-.008.076v.028q0 .15.072.24.075.088.212.088a.5.5 0 0 0 .144-.02 1 1 0 0 0 .18-.092.12.12 0 0 1 .068-.024q.044 0 .068.024a.16.16 0 0 1 .048.064l.212.48q-.22.18-.488.272a1.7 1.7 0 0 1-.54.092q-.437-.001-.692-.236-.252-.238-.264-.664"/>
</svg>
