<svg xmlns="http://www.w3.org/2000/svg" width="22" height="22" fill="none" viewBox="0 0 22 22">
    <g clip-path="url(#a)">
        <path fill="#93c854" d="M11 18.23a7.23 7.23 0 1 0 0-14.46 7.23 7.23 0 0 0 0 14.46"/>
        <path fill="#fff" fill-rule="evenodd" d="M16.59 15.57c-.15.19-.32.38-.5.57A7.23 7.23 0 0 1 3.77 11a6 6 0 0 1 .08-1 4.51 4.51 0 0 1 4.79 0c1 .61 1.22 2.06 2.75 2.57 1.31.44 3.13-.23 4.6 1.65.319.387.526.854.6 1.35" clip-rule="evenodd" opacity=".2"/>
        <path stroke="#fff" stroke-linecap="round" stroke-linejoin="round" stroke-width="1.5" d="m7.77 11.58 1.77 1.77 4.69-4.69"/>
        <path stroke="#93c854" stroke-linecap="round" stroke-linejoin="round" stroke-width=".5" d="M21 11A10 10 0 1 1 11 1m3.55.64a10 10 0 0 1 6.3 7.62m-8.43-8.14q.4 0 .78.12"/>
    </g>
    <defs>
        <clipPath id="a">
            <path fill="#fff" d="M0 0h22v22H0z"/>
        </clipPath>
    </defs>
</svg>
