<svg width="16" height="16" viewBox="0 0 16 16" fill="none" xmlns="http://www.w3.org/2000/svg">
<g clip-path="url(#clip0_1265_66496)">
<path d="M9.5399e-08 8C1.48086e-07 12.4183 3.58172 16 8 16C12.4183 16 16 12.4183 16 8C16 3.58172 12.4183 4.27116e-08 8 9.5399e-08C3.58172 1.48086e-07 4.27116e-08 3.58172 9.5399e-08 8Z" fill="#97CC56"/>
<path d="M3.88006 7.14402C3.8003 7.1436 3.72143 7.12728 3.64806 7.09602C3.50064 7.0329 3.38318 6.91544 3.32006 6.76802C3.28816 6.69485 3.27181 6.61584 3.27206 6.53602C3.27248 6.45627 3.2888 6.3774 3.32006 6.30402C3.35042 6.23262 3.39383 6.16751 3.44806 6.11202L5.84806 3.71202C5.9618 3.60604 6.11224 3.54834 6.26768 3.55108C6.42312 3.55382 6.57143 3.61679 6.68136 3.72672C6.79129 3.83665 6.85426 3.98496 6.857 4.1404C6.85974 4.29584 6.80204 4.44628 6.69606 4.56002L5.28806 5.96802L12.1201 5.96802C12.2792 5.96802 12.4318 6.03123 12.5443 6.14376C12.6568 6.25628 12.7201 6.40889 12.7201 6.56802C12.7201 6.72715 12.6568 6.87976 12.5443 6.99228C12.4318 7.10481 12.2792 7.16802 12.1201 7.16802L3.88006 7.16802L3.88006 7.14402ZM9.26406 12.312C9.1517 12.1995 9.08859 12.047 9.08859 11.888C9.08859 11.729 9.1517 11.5765 9.26406 11.464L10.6721 10.056L3.87206 10.056C3.71293 10.056 3.56032 9.99281 3.44779 9.88028C3.33527 9.76776 3.27206 9.61515 3.27206 9.45602C3.27206 9.29689 3.33527 9.14428 3.44779 9.03176C3.56032 8.91923 3.71293 8.85602 3.87206 8.85602L12.1201 8.85602C12.1998 8.85644 12.2787 8.87276 12.3521 8.90402C12.4995 8.96714 12.6169 9.0846 12.6801 9.23202C12.7116 9.3039 12.7278 9.38154 12.7278 9.46002C12.7278 9.5385 12.7116 9.61614 12.6801 9.68802C12.6497 9.75942 12.6063 9.82453 12.5521 9.88002L10.1521 12.28C10.0968 12.3419 10.0295 12.392 9.95441 12.4272C9.87929 12.4625 9.79781 12.4822 9.71488 12.4852C9.63194 12.4882 9.54926 12.4744 9.47179 12.4446C9.39432 12.4149 9.32366 12.3698 9.26406 12.312Z" fill="white"/>
</g>
<defs>
<clipPath id="clip0_1265_66496">
<rect width="16" height="16" fill="white" transform="translate(16) rotate(90)"/>
</clipPath>
</defs>
</svg>
