<svg xmlns="http://www.w3.org/2000/svg" width="24" height="25" fill="none">
    <path stroke="#133f5d" stroke-linecap="round" stroke-linejoin="round" stroke-width="1.2" d="M16.775 8.825h3.204V7.19l-8.157-3.93-7.8 3.932v1.634h3.02m-1.748.023v1.732h13.412V8.85"/>
    <path fill="#133f5d" d="M9.954 19.363v-6.245c0 2.28-3.363 5.134-3.363 6.245zm3.49 0v-6.245c0 2.28-3.244 5.039-3.244 6.245zm3.617.001v-4.042c0 .751-2.93 1.99-3.243 4.042z" opacity=".2"/>
    <path stroke="#133f5d" stroke-linecap="round" stroke-linejoin="round" stroke-width="1.2" d="M18.48 21.74h1.499v-2.377H4.02v2.378h11.982M6.6 10.815v8.548"/>
    <path stroke="#133f5d" stroke-linecap="round" stroke-linejoin="round" stroke-width="1.2" d="M10.2 19.364v-5.915h3.186v5.915m4.014-8.782v2.537m0 6.244v-3.848"/>
    <path fill="#133f5d" stroke="#133f5d" stroke-width=".1" d="m11.246 8.808-.694-1.058m.694 1.058-.041.028-.695-1.058a.2.2 0 0 0-.068-.068h-.001a.25.25 0 0 0-.113-.02h-.074a.14.14 0 0 0-.139.14v.913a.24.24 0 0 1-.238.239h-.238a.24.24 0 0 1-.238-.239V5.816c0-.131.106-.238.238-.238h.82q.342 0 .591.073.25.07.413.203.165.133.24.321.078.184.078.403a1.03 1.03 0 0 1-.202.616 1 1 0 0 1-.24.223l-.029-.041-.053.034c-.092.054-.114.214-.054.302l-.651.038m.694 1.058q.039.06.094.092l-.135-.064zm-.694-1.058a.24.24 0 0 0-.087-.084zm2.378-1.07a.07.07 0 0 0 .049.05.09.09 0 0 0 .077-.015.94.94 0 0 1 .627-.22.81.81 0 0 1 .664.332l-.04.03q.116.15.178.375zm0 0a.17.17 0 0 0-.072-.11.2.2 0 0 0-.12-.033h-.157a.24.24 0 0 0-.239.239v2.733c0 .131.107.238.239.238h.187a.24.24 0 0 0 .239-.238v-.471c0-.032.02-.062.057-.08a.14.14 0 0 1 .119-.006.9.9 0 0 0 .358.064 1 1 0 0 0 .438-.097 1 1 0 0 0 .335-.272M12.93 6.68l1.603.538q.066.23.066.523 0 .27-.073.502a1.2 1.2 0 0 1-.212.404m0 0-.04-.03zm-.386-.552-.049-.012a.7.7 0 0 1-.104.23.4.4 0 0 1-.156.13.5.5 0 0 1-.21.043.6.6 0 0 1-.225-.042.5.5 0 0 1-.147-.105.12.12 0 0 1-.03-.082V7.34a.12.12 0 0 1 .03-.083.8.8 0 0 1 .176-.148.53.53 0 0 1 .453-.032q.077.034.131.113a.6.6 0 0 1 .086.216q.033.135.033.336 0 .199-.037.342l.049.012Zm0 0q.038-.15.038-.354a1.5 1.5 0 0 0-.034-.347m-.004.701a.7.7 0 0 1-.112.247.44.44 0 0 1-.176.146.54.54 0 0 1-.231.048.7.7 0 0 1-.245-.045.5.5 0 0 1-.163-.117.17.17 0 0 1-.044-.117V7.34c0-.043.014-.085.042-.116a.8.8 0 0 1 .188-.158l.745.329m0 0a.7.7 0 0 0-.094-.233.4.4 0 0 0-.15-.13zm-3.197-.285a.9.9 0 0 1-.286.04h-.195a.14.14 0 0 1-.139-.138v-.72c0-.076.062-.138.139-.138h.204q.331.002.473.124.148.117.149.347a.6.6 0 0 1-.038.213.44.44 0 0 1-.113.164.5.5 0 0 1-.194.108Z"/>
</svg>
