<svg xmlns="http://www.w3.org/2000/svg" width="24" height="25" fill="none">
    <path fill="#133f5d" fill-rule="evenodd" d="M18.934 19.909c-.319.394-.85.591-1.382.591H6.808C5.745 20.401 5 19.613 5 18.628v-3.546c.532-.591 1.17-.985 1.915-1.28a5.25 5.25 0 0 1 4.36.393c.745.591 1.49 1.084 2.34 1.576.107 0 .107.099.214.099 1.382.394 2.765-.591 4.36 1.379.639.887.958 1.773.745 2.66" clip-rule="evenodd" opacity=".15"/>
    <path stroke="#133f5d" stroke-linecap="round" stroke-linejoin="round" stroke-width="1.5" d="M7 20.5c-.667 0-2-.4-2-2m0 0v-12c0-.667.4-2 2-2h12V17M5 18.5C5 16.9 7 17 8 17h11m0 0v3.5h-9"/>
    <mask id="a" fill="#fff">
        <path d="M9 14.5a3 3 0 0 1 6 0z"/>
    </mask>
    <path stroke="#133f5d" stroke-width="2" d="M9 14.5a3 3 0 0 1 6 0z" mask="url(#a)"/>
    <circle cx="12" cy="8.5" r="1.5" stroke="#133f5d"/>
</svg>
