<svg xmlns="http://www.w3.org/2000/svg" width="24" height="24" fill="none">
    <path fill="#133f5d" d="M5 22h10a1 1 0 0 0 1-1v-1.801s0-4.094-5.26-2.959C5.308 17.413 4 12.014 4 10v11a1 1 0 0 0 1 1" opacity=".2"/>
    <path stroke="#133f5d" stroke-linecap="round" stroke-linejoin="round" stroke-width="1.5" d="M14 2.27V6.4c0 .56 0 .84.109 1.054a1 1 0 0 0 .437.437c.214.11.494.11 1.054.11h4.13M11 22H8.8c-1.68 0-2.52 0-3.162-.327a3 3 0 0 1-1.311-1.311C4 19.72 4 18.88 4 17.2V6.8c0-1.68 0-2.52.327-3.162a3 3 0 0 1 1.311-1.311C6.28 2 7.12 2 8.8 2H14l6 6v6.5M15.5 12h-8m8 4h-8m2-8h-2M14 20.5l2 2 4.5-4.5"/>
</svg>
