<svg xmlns="http://www.w3.org/2000/svg" width="24" height="25" fill="none">
    <path stroke="#133f5d" stroke-linecap="round" stroke-linejoin="round" stroke-width="1.5" d="m2.687 16.145 1.908-1.101a.5.5 0 0 1 .342-.059l3.754.703a.5.5 0 0 0 .592-.494l-.014-3.29a.5.5 0 0 1 .068-.254l1.895-3.244a.5.5 0 0 0-.023-.54l-3.19-4.54M19 5.359C13.5 8 16.5 11.5 17.5 12c1.877.938 4.488 1 4.488 1q.012-.249.012-.5c0-5.523-4.477-10-10-10S2 6.977 2 12.5s4.477 10 10 10"/>
    <path stroke="#133f5d" stroke-linecap="round" stroke-linejoin="round" d="M16 19.5h2.1"/>
    <path fill="#133f5d" fill-rule="evenodd" d="M19.585 21.5h-4.823c-.407 0-.762-.37-.762-.792v-2.903a2.3 2.3 0 0 1 .355-.158c.66-.264 1.422-.159 2.031.21.356.317.813.581 1.219.793.66.21 1.32-.264 2.082.633a1.88 1.88 0 0 1-.102 2.217M1.81 9.89l4.135-5.52c.348-.464 1.076-.554 1.559-.192l3.321 2.49c-.026.16-.053.322-.123.542-.264.981-1.038 1.762-1.983 2.142-.667.136-1.36.432-1.95.716-.808.574-.83 1.737-2.51 1.839A2.69 2.69 0 0 1 1.81 9.89" clip-rule="evenodd" opacity=".15"/>
    <path stroke="#133f5d" stroke-linecap="round" stroke-linejoin="round" d="M14 17.732h8.326"/>
    <path stroke="#133f5d" stroke-linecap="round" stroke-linejoin="round" stroke-width="1.2" d="M15.207 21.5h-.402c-.452 0-.804-.326-.804-.744v-4.512c0-.418.352-.744.804-.744h7.391c.453 0 .805.326.805.744v4.512c0 .418-.352.744-.805.744H17.47"/>
</svg>
