<svg xmlns="http://www.w3.org/2000/svg" width="18" height="18" fill="none">
    <path stroke="#133f5d" stroke-width="1.5" d="M15.75 8.983a6.7 6.7 0 0 1-1.516 4.258l-.475.528A6.764 6.764 0 0 1 2.25 8.983q0-.491.08-.976a6.75 6.75 0 0 1 13.42.976Z"/>
    <path fill="#133f5d" d="M8.96 13.627a.804.804 0 0 1-.805-.805V9.456q0-.51.061-1.015.027-.22.062-.447a.68.68 0 0 1 .681-.573c.338 0 .63.24.682.573q.034.226.061.447.06.505.061 1.015v3.367c0 .445-.36.805-.804.805Zm.992-8.209a1 1 0 0 1-.072.371q-.078.172-.205.3a1 1 0 0 1-.311.2 1 1 0 0 1-.388.077.94.94 0 0 1-.383-.077 1 1 0 0 1-.31-.2.9.9 0 0 1-.205-.3.93.93 0 0 1 0-.749.9.9 0 0 1 .205-.299 1 1 0 0 1 .693-.272q.21 0 .388.073a1 1 0 0 1 .31.2 1 1 0 0 1 .206.299 1 1 0 0 1 .072.377"/>
</svg>
