<svg xmlns="http://www.w3.org/2000/svg" width="20" height="20" fill="none">
    <path stroke="#4199d5" stroke-linecap="round" stroke-linejoin="round" stroke-width="1.25" d="M10.011 6.79a2.5 2.5 0 0 1-.15.833 2.6 2.6 0 0 1-.225.492 2.342 2.342 0 0 1-4.033 0 2.2 2.2 0 0 1-.2-.409 2.42 2.42 0 0 1 .067-1.958 2.35 2.35 0 0 1 4.366.125 2.6 2.6 0 0 1 .175.917m-6.858 7.916v.959h8.917v-1.817a2.23 2.23 0 0 0-.258-1.108 2.2 2.2 0 0 0-.392-.592 2.26 2.26 0 0 0-1.059-.667 3.3 3.3 0 0 0-.675-.108H5.52a2.38 2.38 0 0 0-1.867.958"/>
    <path fill="#4199d5" fill-rule="evenodd" d="M11.703 15.673H3.228a.383.383 0 0 1-.325-.4v-.55c.042-.975 1.667-1.125 2.442-.975 1.4.35 1.666.175 2.125-.042.908-.392 1.741-1.067 3.467-.55 1.133.358 1.133.958 1.133 2.142a.375.375 0 0 1-.367.375M9.261 7.281l.6.342a2.6 2.6 0 0 1-.225.491 2.342 2.342 0 0 1-4.033 0 2.2 2.2 0 0 1-.2-.408 9 9 0 0 1 .65-.392 3.8 3.8 0 0 1 3.208-.033" clip-rule="evenodd" opacity=".3"/>
    <path fill="#4199d5" fill-rule="evenodd" d="M17.07 15.331a.33.33 0 0 1-.1.242.28.28 0 0 1-.2.092h-4.7V14.19c.395.112.813.112 1.208 0 .917-.234 1.225-1.167 2.775-.834a1.53 1.53 0 0 1 1.017 1.225c.037.249.037.502 0 .75m-2.258-6.324.425.242a1.3 1.3 0 0 1-.159.35 1.666 1.666 0 0 1-2.858 0 1.5 1.5 0 0 1-.142-.284l.467-.283a2.72 2.72 0 0 1 2.267-.025" clip-rule="evenodd" opacity=".3"/>
    <path stroke="#4199d5" stroke-linecap="round" stroke-linejoin="round" stroke-width="1.25" d="M15.445 8.565c.004.359-.094.712-.284 1.017a1.79 1.79 0 0 1-2.37.613 1.77 1.77 0 0 1-.646-.613 1.87 1.87 0 0 1-.267-.984 1.8 1.8 0 0 1 .167-.766 1.78 1.78 0 0 1 1.608-1.117 1.81 1.81 0 0 1 1.667 1.158c.084.22.127.455.125.692m-3.375 7.099h5v-1.35a.3.3 0 0 0 0-.083v-.05a1.7 1.7 0 0 0-.192-.708 1.8 1.8 0 0 0-.291-.442 1.52 1.52 0 0 0-.792-.492 2.1 2.1 0 0 0-.508-.083H12.07a1.3 1.3 0 0 0-.409.05"/>
</svg>
