<svg xmlns="http://www.w3.org/2000/svg" width="24" height="25" fill="none">
    <path fill="#133f5d" fill-rule="evenodd" d="M14.05 18.95h-9.5c-.8 0-1.5-.7-1.5-1.5v-5.5c.2-.1.4-.2.7-.3 1.3-.5 2.8-.3 4 .4.7.6 1.6 1.1 2.4 1.5 1.3.4 2.6-.5 4.1 1.2.9 1.3.8 3-.2 4.2" clip-rule="evenodd" opacity=".15"/>
    <path stroke="#133f5d" stroke-linecap="round" stroke-linejoin="round" stroke-width="1.5" d="M3.05 10.85h17.9m-15.5 8.1h-.8c-.9 0-1.6-.7-1.6-1.6v-9.7c0-.9.7-1.6 1.6-1.6h14.7c.9 0 1.6.7 1.6 1.6v9.7c0 .9-.7 1.6-1.6 1.6h-9.4m-1-3.3h2.1"/>
</svg>
