<svg xmlns="http://www.w3.org/2000/svg" width="24" height="24" fill="none">
    <path fill="#133f5d" d="M6.434 19.324c1.103 2.521 4.246 2.697 5.921 2.01.583-.238 1.39-.292 1.94.018 3.186 1.797 4.732-3.153 4.732-3.153s-7.794.073-7.959-11.958c-.023-1.662-1.9-2.885-3.341-2.057-1.631.937-3.31 1.987-4.333 3.023-.454.46-.508 1.158-.404 1.797.122.744.211 1.91.046 3.521-.363 3.537-.475 4.056 2.974 6.28.191.124.333.31.424.519" opacity=".2"/>
    <path stroke="#133f5d" stroke-linecap="round" stroke-linejoin="round" stroke-width="1.5" d="M20.744 17.178a2.033 2.033 0 0 0 1.1-2.656l-.72-1.744a2.03 2.03 0 0 1-.001-1.556l.722-1.744a2.033 2.033 0 0 0-1.1-2.656L19 6.099A2.03 2.03 0 0 1 17.901 5v.003l-.723-1.746a2.033 2.033 0 0 0-2.655-1.1l-1.746.72a2.03 2.03 0 0 1-1.555.001l-1.744-.722a2.033 2.033 0 0 0-2.656 1.1L6.1 5A2.03 2.03 0 0 1 5 6.098l-1.744.722a2.033 2.033 0 0 0-1.1 2.657l.721 1.746c.207.498.207 1.057.001 1.556l-.722 1.744a2.033 2.033 0 0 0 1.1 2.654l1.746.723c.498.207.893.603 1.099 1.1l.723 1.746a2.033 2.033 0 0 0 2.654 1.1l1.745-.722a2.03 2.03 0 0 1 1.555-.001l1.744.722a2.033 2.033 0 0 0 2.656-1.1L17.9 19M9 9h.01M15 15h.01M16 8l-8 8m1.5-7a.5.5 0 1 1-1 0 .5.5 0 0 1 1 0m6 6a.5.5 0 1 1-1 0 .5.5 0 0 1 1 0"/>
</svg>
