<svg xmlns="http://www.w3.org/2000/svg" width="24" height="25" fill="none">
    <path stroke="#133f5d" stroke-linecap="round" stroke-linejoin="round" stroke-width="1.5" d="M7.74 11.408v4.49m0-4.49h2.073m-2.073 0V6.57h2.764c1.526 0 2.763.547 2.763 2.073 0 1.527-.507 2.764-2.763 2.764h-.691m0 0 3.961 4.585m0 0h1.872a1.708 1.708 0 0 0 0-3.417h-1.872zm0 0v3.19M22 12.5c0-5.523-4.477-10-10-10S2 6.977 2 12.5s4.477 10 10 10a9.96 9.96 0 0 0 5.852-1.89"/>
    <path fill="#133f5d" fill-rule="evenodd" d="m14.869 12.157 1.03.238.548.21.302.934c.023.02-.313.34.02-.024-.002.07-.37.478-.008.027l.008-.027c-.257.854-.496.845-.677.651-.307-.42-.408-.11-.592.043-.354.271-.777.62-1.133.027-.23-.407-.11-.828.188-1.868-.11.383.096-.02.133-.077s.153-.14.18-.134ZM8.5 6l2 .582h1.733l.873 1.591c.056.038-.645.498.04-.035.01.115-.747.71-.014.042l.013-.042c-.415 1.35-.961 1.29-1.412.935-.781-.75-1.026-.557-1.414-.341-.753.375-1.57 1.158-2.499.114C7.217 8.134 7.029 7.648 7.5 6c-.172.608.048.267.121.182.332.281.879.283.879-.182" clip-rule="evenodd" opacity=".3"/>
</svg>
