<svg xmlns="http://www.w3.org/2000/svg" width="24" height="25" fill="none">
    <path fill="#133f5d" fill-rule="evenodd" d="M14.5 18.5c-.5.2-.7.7-.8 1.2v.1c0 .2 0 .3-.1.5-.4.5-.9.8-1.4 1.1h-.1c-.9 0-1.6-.7-1.6-1.6v-.1c0-.6-.4-1-.9-1.2s-1.1-.1-1.5.3c-.6.6-1.7.6-2.3 0-.3-.3-.5-.7-.5-1.2 0-.4.2-.9.5-1.2.4-.4.5-1 .3-1.5s-.7-.8-1.2-.8h-.1c-.9 0-1.6-.7-1.6-1.6 0-.5.3-1 .7-1.3q.9-.3 1.8-.3c1.4 0 2.7.7 3.6 1.7l.6.9c.2.3.4.5.6.7l.6.6c1.1.8 2.6.4 3.4 2.6z" clip-rule="evenodd" opacity=".15"/>
    <path stroke="#133f5d" stroke-linecap="round" stroke-linejoin="round" stroke-width="1.5" d="M12 10c1.4 0 2.5 1.1 2.5 2.5S13.4 15 12 15s-2.5-1.1-2.5-2.5S10.6 10 12 10"/>
    <path stroke="#133f5d" stroke-linecap="round" stroke-linejoin="round" stroke-width="1.5" d="M18.4 16.5c.6.6.6 1.7 0 2.3-.3.3-.7.5-1.2.5-.4 0-.8-.2-1.2-.5-.4-.4-1-.5-1.5-.3h-.1c-.5.2-.7.7-.8 1.2v.1c0 .2 0 .3-.1.5-.2.6-.8 1.1-1.4 1.1H12c-.9 0-1.6-.7-1.6-1.6v-.1c0-.6-.4-1-.9-1.2s-1.1-.1-1.5.3c-.6.6-1.7.6-2.3 0-.3-.3-.5-.7-.5-1.2 0-.4.2-.9.5-1.2.4-.4.5-1 .3-1.5s-.7-.8-1.2-.8h-.1c-.9 0-1.6-.7-1.6-1.6 0-.5.3-1 .7-1.3q.45-.3.9-.3h.1c.6 0 1-.4 1.2-.9s.1-1.1-.3-1.5c-.6-.6-.6-1.7 0-2.3.3-.3.7-.5 1.2-.5.4 0 .8.2 1.2.5.4.4 1 .5 1.5.3h.1c.5-.2.8-.7.8-1.2v-.1c0-.9.7-1.6 1.6-1.6s1.6.7 1.6 1.6v.1c0 .5.3 1 .8 1.2s1.1.1 1.5-.3c.6-.6 1.7-.6 2.3 0s.6 1.7 0 2.3c-.4.4-.5 1-.3 1.5v.1c.2.5.7.8 1.2.8h.1c.9 0 1.6.7 1.6 1.6s-.7 1.6-1.6 1.6"/>
</svg>
