<svg xmlns="http://www.w3.org/2000/svg" width="25" height="25" fill="none" viewBox="0 0 25 25">
    <path fill="#133f5d" d="m2.349 12.32 11.06 10.138a1 1 0 0 0 1.249.081l4.333-3.035c.619-.433.944-1.18.695-1.893-.656-1.876-2.563-5.207-7.686-4.111C4.759 15.05 2.5 5.662 2.5 3l-.474 8.527a1 1 0 0 0 .323.793" opacity=".15"/>
    <path stroke="#133f5d" stroke-linecap="round" stroke-linejoin="round" stroke-width="1.5" d="M21.61 14.073a3 3 0 0 1 0 1.854c-.222.685-.816 1.28-2.004 2.467l-2.212 2.212c-1.188 1.188-1.782 1.782-2.467 2.004a3 3 0 0 1-1.854 0c-.685-.222-1.28-.816-2.467-2.004l-7.669-7.669c-.346-.346-.519-.519-.642-.72a2 2 0 0 1-.24-.578C2 11.409 2 11.164 2 10.675V6.2c0-1.12 0-1.68.218-2.108a2 2 0 0 1 .874-.874C3.52 3 4.08 3 5.2 3h4.475c.489 0 .733 0 .963.055.204.05.4.13.579.24.201.123.374.296.72.642L14.5 6.5 18 10M8 9h.01m.49 0a.5.5 0 1 1-1 0 .5.5 0 0 1 1 0M18 3.662h5.323M20.662 1v5.323"/>
</svg>
