<svg xmlns="http://www.w3.org/2000/svg" width="24" height="25" fill="none">
    <path stroke="#133f5d" stroke-linecap="round" stroke-linejoin="round" stroke-width="1.5" d="M21.673 20.862a3 3 0 0 1-1.311 1.311 2 2 0 0 1-.362.144m-16 0c.603.183 1.416.183 2.8.183h10.4c1.384 0 2.197 0 2.8-.183m-16 0a2 2 0 0 1-.362-.144 3 3 0 0 1-1.311-1.311C2 20.22 2 19.38 2 17.7V7.3c0-1.68 0-2.52.327-3.162a3 3 0 0 1 1.311-1.311C4.28 2.5 5.12 2.5 6.8 2.5h10.4c1.68 0 2.52 0 3.162.327a3 3 0 0 1 1.311 1.311C22 4.78 22 5.62 22 7.3v5.2M4 22.317c0-.809.005-1.237.077-1.597a4 4 0 0 1 3.143-3.143c.386-.077.85-.077 1.78-.077h6c.93 0 1.394 0 1.78.077a4 4 0 0 1 3.143 3.143c.072.36.077.788.077 1.597M16 10a4 4 0 1 1-8 0 4 4 0 0 1 8 0"/>
    <path fill="#133f5d" d="M2 22h14v-1.961s-.505-5.308-7-3.639c-6.095 1.566-7 .01-7-1.4z" opacity=".15"/>
</svg>
