<svg xmlns="http://www.w3.org/2000/svg" width="24" height="25" fill="none">
    <path fill="#133f5d" d="M2 21.5h11v-1.4s-.396-3.792-5.5-2.6c-4.789 1.118-5.5.007-5.5-1z" opacity=".15"/>
    <path stroke="#133f5d" stroke-linecap="round" stroke-linejoin="round" stroke-width="1.5" d="M19 10.5v-6m-3 3h6m-15.2 8h4.4c1.68 0 2.52 0 3.162.327a3 3 0 0 1 1.311 1.311C16 17.78 16 18.62 16 20.3v1.2H2v-1.2c0-1.68 0-2.52.327-3.162a3 3 0 0 1 1.311-1.311C4.28 15.5 5.12 15.5 6.8 15.5M12.5 8a3.5 3.5 0 1 1-7 0 3.5 3.5 0 0 1 7 0"/>
</svg>
