<svg xmlns="http://www.w3.org/2000/svg" width="18" height="18" fill="none">
    <path stroke="#eab11c" stroke-width="1.5" d="M15.75 8.983a6.7 6.7 0 0 1-1.516 4.258l-.475.528A6.764 6.764 0 0 1 2.25 8.983q0-.491.08-.976a6.75 6.75 0 0 1 13.42.976Z"/>
    <path fill="#eab11c" d="M8.96 4.47a.804.804 0 0 0-.805.804v3.368q0 .51.061 1.014.027.222.062.447a.68.68 0 0 0 .681.574c.338 0 .63-.24.682-.574q.034-.226.061-.447.06-.504.061-1.014V5.274a.804.804 0 0 0-.804-.804m.992 8.208a1 1 0 0 0-.072-.371 1 1 0 0 0-.205-.3 1 1 0 0 0-.311-.2 1 1 0 0 0-.388-.077.9.9 0 0 0-.383.078 1 1 0 0 0-.31.2.9.9 0 0 0-.205.299.93.93 0 0 0 0 .749.9.9 0 0 0 .205.299 1 1 0 0 0 .693.272q.21 0 .388-.072a1 1 0 0 0 .31-.2q.128-.128.206-.3a1 1 0 0 0 .072-.377"/>
</svg>
