<svg xmlns="http://www.w3.org/2000/svg" width="24" height="24" fill="none" viewBox="0 0 24 24">
    <path stroke="#4199d5" stroke-linecap="round" stroke-linejoin="round" stroke-width="1.5" d="M8.5 10a1.5 1.5 0 1 0 0-3 1.5 1.5 0 0 0 0 3"/>
    <path fill="#4199d5" fill-rule="evenodd" d="M5 3.75c-.69 0-1.25.56-1.25 1.25v14a1.25 1.25 0 0 0 1.205 1.25L15.602 9.601c.22-.22.576-.22.796 0l2.375 2.375-.796.796L16 10.796 6.545 20.25H10.5L9 21.75H5A2.75 2.75 0 0 1 2.25 19V5A2.75 2.75 0 0 1 5 2.25h14A2.75 2.75 0 0 1 21.75 5v4l-1.5 1.5V5c0-.69-.56-1.25-1.25-1.25zm7.621 16.5H19c.69 0 1.25-.56 1.25-1.25v-6.379l1.5-1.5V19A2.75 2.75 0 0 1 19 21.75h-7.879z" clip-rule="evenodd"/>
</svg>
