<svg xmlns="http://www.w3.org/2000/svg" width="18" height="19" fill="none" viewBox="0 0 18 19">
    <path fill="#133f5d" fill-rule="evenodd" d="M3.516 11.087c.45-.9 1.2-1.65 2.25-1.95.675-.075 1.35-.3 1.95-.525.9-.45 1.125-1.65 2.775-1.5 1.425.075 2.325 1.875 2.1 3.6-.15 1.275-.6 2.25-2.775 3.825-1.8 1.425-5.625 1.425-6.375-1.275-.3-.75-.225-1.575.075-2.175" clip-rule="evenodd" opacity=".15"/>
    <path stroke="#133f5d" stroke-linecap="round" stroke-linejoin="round" stroke-width="1.5" d="M8.016 5.162 9.14 4.037c1.125-.975 2.775-.975 3.825 0a2.49 2.49 0 0 1 0 3.525l-5.7 5.7c-.45.45-1.275.525-1.725 0s-.45-1.275 0-1.725l1.05-1.125"/>
    <path stroke="#133f5d" stroke-linecap="round" stroke-linejoin="round" stroke-width="1.5" d="m14.99 9.362-5.474 5.4c-1.575 1.35-3.9 1.2-5.325-.225-1.425-1.275-1.575-3.45-.375-4.875 0 0 0-.075.075-.075l2.7-2.625"/>
</svg>
