<svg xmlns="http://www.w3.org/2000/svg" xml:space="preserve" viewBox="0 0 34.78 34.78">
    <circle cx="17.39" cy="17.39" r="17.39" class="st1" style="opacity:.5;fill:#4295d1"/>
    <path d="M25.08 24.54H9.7c-.55 0-1-.45-1-1V11.73c0-.83.67-1.5 1.5-1.5h14.38c.83 0 1.5.67 1.5 1.5v11.81c0 .56-.45 1-1 1" class="st2" style="fill:none;stroke:#fff;stroke-linecap:round;stroke-linejoin:round;stroke-miterlimit:10"/>
    <path d="m23.67 24.54-7.48-7.14c-.66-.63-1.69-.7-2.43-.16L8.7 20.97v1.69c0 1.04.85 1.89 1.89 1.89h13.08z" class="st2" style="fill:none;stroke:#fff;stroke-linecap:round;stroke-linejoin:round;stroke-miterlimit:10"/>
    <path d="m26.08 20.8-1.97-1.78c-.74-.67-1.87-.65-2.58.05l-1.78 1.73 3.92 3.74h1.15c.7 0 1.26-.56 1.26-1.26z" class="st2" style="fill:none;stroke:#fff;stroke-linecap:round;stroke-linejoin:round;stroke-miterlimit:10"/>
    <circle cx="19.43" cy="15.26" r="1.43" class="st2" style="fill:none;stroke:#fff;stroke-linecap:round;stroke-linejoin:round;stroke-miterlimit:10"/>
</svg>
